G75*
%MOIN*%
%OFA0B0*%
%FSLAX24Y24*%
%IPPOS*%
%LPD*%
%AMOC8*
5,1,8,0,0,1.08239X$1,22.5*
%
%ADD10C,0.0110*%
%ADD11C,0.0100*%
%ADD12R,0.0130X0.0010*%
%ADD13R,0.0120X0.0010*%
%ADD14R,0.2270X0.0010*%
%ADD15R,0.2960X0.0010*%
%ADD16R,0.0830X0.0010*%
%ADD17R,0.1110X0.0010*%
%ADD18R,0.0930X0.0010*%
%ADD19R,0.0770X0.0010*%
%ADD20R,0.0330X0.0010*%
%ADD21R,0.0270X0.0010*%
%ADD22R,0.0250X0.0010*%
%ADD23R,0.0700X0.0010*%
%ADD24R,0.0740X0.0010*%
%ADD25R,0.0280X0.0010*%
%ADD26R,0.0240X0.0010*%
%ADD27R,0.0210X0.0010*%
%ADD28R,0.0100X0.0010*%
%ADD29R,0.0680X0.0010*%
%ADD30R,0.0730X0.0010*%
%ADD31R,0.0230X0.0010*%
%ADD32R,0.0190X0.0010*%
%ADD33R,0.0180X0.0010*%
%ADD34R,0.0070X0.0010*%
%ADD35R,0.0660X0.0010*%
%ADD36R,0.0710X0.0010*%
%ADD37R,0.0170X0.0010*%
%ADD38R,0.0160X0.0010*%
%ADD39R,0.0060X0.0010*%
%ADD40R,0.0690X0.0010*%
%ADD41R,0.0150X0.0010*%
%ADD42R,0.0650X0.0010*%
%ADD43R,0.0350X0.0010*%
%ADD44R,0.0140X0.0010*%
%ADD45R,0.0110X0.0010*%
%ADD46R,0.0050X0.0010*%
%ADD47R,0.0300X0.0010*%
%ADD48R,0.0340X0.0010*%
%ADD49R,0.0090X0.0010*%
%ADD50R,0.0040X0.0010*%
%ADD51R,0.0080X0.0010*%
%ADD52R,0.0290X0.0010*%
%ADD53R,0.0320X0.0010*%
%ADD54R,0.0310X0.0010*%
%ADD55R,0.0020X0.0010*%
%ADD56R,0.0030X0.0010*%
%ADD57R,0.0640X0.0010*%
%ADD58R,0.0790X0.0010*%
%ADD59R,0.0800X0.0010*%
%ADD60R,0.0220X0.0010*%
%ADD61R,0.0010X0.0010*%
%ADD62R,0.0920X0.0010*%
%ADD63R,0.0850X0.0010*%
%ADD64R,0.0840X0.0010*%
%ADD65R,0.0820X0.0010*%
%ADD66R,0.0810X0.0010*%
%ADD67R,0.0450X0.0010*%
%ADD68R,0.0440X0.0010*%
%ADD69R,0.0430X0.0010*%
%ADD70R,0.0780X0.0010*%
%ADD71R,0.0200X0.0010*%
%ADD72R,0.0720X0.0010*%
%ADD73R,0.0260X0.0010*%
%ADD74R,0.1460X0.0010*%
%ADD75R,0.0750X0.0010*%
%ADD76R,0.0760X0.0010*%
%ADD77R,0.0470X0.0010*%
%ADD78R,0.0490X0.0010*%
%ADD79R,0.0500X0.0010*%
%ADD80R,0.0510X0.0010*%
%ADD81R,0.1120X0.0010*%
%ADD82R,0.0530X0.0010*%
%ADD83R,0.0550X0.0010*%
%ADD84R,0.1130X0.0010*%
%ADD85R,0.0570X0.0010*%
%ADD86R,0.1140X0.0010*%
%ADD87R,0.0590X0.0010*%
%ADD88R,0.1150X0.0010*%
%ADD89R,0.0630X0.0010*%
%ADD90R,0.0380X0.0010*%
%ADD91R,0.1170X0.0010*%
%ADD92R,0.1610X0.0010*%
%ADD93R,0.1950X0.0010*%
%ADD94R,0.0910X0.0010*%
%ADD95R,0.1930X0.0010*%
%ADD96R,0.0900X0.0010*%
%ADD97R,0.1920X0.0010*%
%ADD98R,0.0890X0.0010*%
%ADD99R,0.1910X0.0010*%
%ADD100R,0.0880X0.0010*%
%ADD101R,0.1900X0.0010*%
%ADD102R,0.0870X0.0010*%
%ADD103R,0.1890X0.0010*%
%ADD104R,0.1880X0.0010*%
%ADD105R,0.0860X0.0010*%
%ADD106R,0.1870X0.0010*%
%ADD107R,0.1860X0.0010*%
%ADD108R,0.1180X0.0010*%
%ADD109R,0.0520X0.0010*%
%ADD110R,0.1080X0.0010*%
%ADD111R,0.1070X0.0010*%
%ADD112R,0.1060X0.0010*%
%ADD113R,0.1050X0.0010*%
%ADD114R,0.0950X0.0010*%
%ADD115R,0.1030X0.0010*%
%ADD116R,0.1010X0.0010*%
%ADD117R,0.1040X0.0010*%
%ADD118R,0.1000X0.0010*%
%ADD119R,0.0620X0.0010*%
%ADD120R,0.0610X0.0010*%
%ADD121R,0.0990X0.0010*%
%ADD122R,0.0980X0.0010*%
%ADD123R,0.0970X0.0010*%
%ADD124R,0.0960X0.0010*%
%ADD125R,0.0560X0.0010*%
%ADD126R,0.0600X0.0010*%
%ADD127R,0.0390X0.0010*%
D10*
X008923Y010340D02*
X009120Y010537D01*
X008923Y010734D01*
X009514Y010734D01*
X009416Y010985D02*
X009219Y010985D01*
X009120Y011083D01*
X009120Y011280D01*
X009219Y011378D01*
X009416Y011378D01*
X009514Y011280D01*
X009514Y011083D01*
X009416Y010985D01*
X009514Y010340D02*
X008923Y010340D01*
X009219Y011629D02*
X009120Y011728D01*
X009120Y012023D01*
X008923Y012023D02*
X009514Y012023D01*
X009514Y011728D01*
X009416Y011629D01*
X009219Y011629D01*
X009120Y012274D02*
X009416Y012274D01*
X009514Y012372D01*
X009514Y012667D01*
X009120Y012667D01*
X009219Y012918D02*
X009120Y013017D01*
X009120Y013312D01*
X009317Y013213D02*
X009317Y013017D01*
X009219Y012918D01*
X009514Y012918D02*
X009514Y013213D01*
X009416Y013312D01*
X009317Y013213D01*
D11*
X009819Y011910D02*
X010194Y011910D01*
X010319Y011910D01*
X010194Y011785D01*
X010194Y011910D01*
X010194Y012035D01*
X010444Y011910D01*
X010194Y011785D01*
D12*
G36*
X006906Y002847D02*
X007017Y002783D01*
X007012Y002775D01*
X006901Y002839D01*
X006906Y002847D01*
G37*
G36*
X006911Y002856D02*
X007022Y002792D01*
X007017Y002784D01*
X006906Y002848D01*
X006911Y002856D01*
G37*
G36*
X006916Y002865D02*
X007027Y002801D01*
X007022Y002793D01*
X006911Y002857D01*
X006916Y002865D01*
G37*
G36*
X006921Y002873D02*
X007032Y002809D01*
X007027Y002801D01*
X006916Y002865D01*
X006921Y002873D01*
G37*
G36*
X006926Y002882D02*
X007037Y002818D01*
X007032Y002810D01*
X006921Y002874D01*
X006926Y002882D01*
G37*
G36*
X006931Y002891D02*
X007042Y002827D01*
X007037Y002819D01*
X006926Y002883D01*
X006931Y002891D01*
G37*
G36*
X006936Y002899D02*
X007047Y002835D01*
X007042Y002827D01*
X006931Y002891D01*
X006936Y002899D01*
G37*
G36*
X006941Y002908D02*
X007052Y002844D01*
X007047Y002836D01*
X006936Y002900D01*
X006941Y002908D01*
G37*
G36*
X006946Y002917D02*
X007057Y002853D01*
X007052Y002845D01*
X006941Y002909D01*
X006946Y002917D01*
G37*
G36*
X006951Y002925D02*
X007062Y002861D01*
X007057Y002853D01*
X006946Y002917D01*
X006951Y002925D01*
G37*
G36*
X006956Y002934D02*
X007067Y002870D01*
X007062Y002862D01*
X006951Y002926D01*
X006956Y002934D01*
G37*
G36*
X006961Y002943D02*
X007072Y002879D01*
X007067Y002871D01*
X006956Y002935D01*
X006961Y002943D01*
G37*
G36*
X006966Y002951D02*
X007077Y002887D01*
X007072Y002879D01*
X006961Y002943D01*
X006966Y002951D01*
G37*
G36*
X006971Y002960D02*
X007082Y002896D01*
X007077Y002888D01*
X006966Y002952D01*
X006971Y002960D01*
G37*
G36*
X006976Y002969D02*
X007087Y002905D01*
X007082Y002897D01*
X006971Y002961D01*
X006976Y002969D01*
G37*
G36*
X006981Y002977D02*
X007092Y002913D01*
X007087Y002905D01*
X006976Y002969D01*
X006981Y002977D01*
G37*
G36*
X006986Y002986D02*
X007097Y002922D01*
X007092Y002914D01*
X006981Y002978D01*
X006986Y002986D01*
G37*
G36*
X006991Y002995D02*
X007102Y002931D01*
X007097Y002923D01*
X006986Y002987D01*
X006991Y002995D01*
G37*
G36*
X006996Y003003D02*
X007107Y002939D01*
X007102Y002931D01*
X006991Y002995D01*
X006996Y003003D01*
G37*
G36*
X007001Y003012D02*
X007112Y002948D01*
X007107Y002940D01*
X006996Y003004D01*
X007001Y003012D01*
G37*
G36*
X007006Y003021D02*
X007117Y002957D01*
X007112Y002949D01*
X007001Y003013D01*
X007006Y003021D01*
G37*
G36*
X007011Y003029D02*
X007122Y002965D01*
X007117Y002957D01*
X007006Y003021D01*
X007011Y003029D01*
G37*
G36*
X007016Y003038D02*
X007127Y002974D01*
X007122Y002966D01*
X007011Y003030D01*
X007016Y003038D01*
G37*
G36*
X007021Y003047D02*
X007132Y002983D01*
X007127Y002975D01*
X007016Y003039D01*
X007021Y003047D01*
G37*
G36*
X007026Y003055D02*
X007137Y002991D01*
X007132Y002983D01*
X007021Y003047D01*
X007026Y003055D01*
G37*
G36*
X007031Y003064D02*
X007142Y003000D01*
X007137Y002992D01*
X007026Y003056D01*
X007031Y003064D01*
G37*
G36*
X007036Y003072D02*
X007147Y003008D01*
X007142Y003000D01*
X007031Y003064D01*
X007036Y003072D01*
G37*
G36*
X007041Y003081D02*
X007152Y003017D01*
X007147Y003009D01*
X007036Y003073D01*
X007041Y003081D01*
G37*
G36*
X007046Y003090D02*
X007157Y003026D01*
X007152Y003018D01*
X007041Y003082D01*
X007046Y003090D01*
G37*
G36*
X007051Y003098D02*
X007162Y003034D01*
X007157Y003026D01*
X007046Y003090D01*
X007051Y003098D01*
G37*
G36*
X007056Y003107D02*
X007167Y003043D01*
X007162Y003035D01*
X007051Y003099D01*
X007056Y003107D01*
G37*
G36*
X007061Y003116D02*
X007172Y003052D01*
X007167Y003044D01*
X007056Y003108D01*
X007061Y003116D01*
G37*
G36*
X007066Y003124D02*
X007177Y003060D01*
X007172Y003052D01*
X007061Y003116D01*
X007066Y003124D01*
G37*
G36*
X007071Y003133D02*
X007182Y003069D01*
X007177Y003061D01*
X007066Y003125D01*
X007071Y003133D01*
G37*
G36*
X007076Y003142D02*
X007187Y003078D01*
X007182Y003070D01*
X007071Y003134D01*
X007076Y003142D01*
G37*
G36*
X007266Y003032D02*
X007377Y002968D01*
X007372Y002960D01*
X007261Y003024D01*
X007266Y003032D01*
G37*
G36*
X007261Y003023D02*
X007372Y002959D01*
X007367Y002951D01*
X007256Y003015D01*
X007261Y003023D01*
G37*
G36*
X007256Y003014D02*
X007367Y002950D01*
X007362Y002942D01*
X007251Y003006D01*
X007256Y003014D01*
G37*
G36*
X007251Y003006D02*
X007362Y002942D01*
X007357Y002934D01*
X007246Y002998D01*
X007251Y003006D01*
G37*
G36*
X007246Y002997D02*
X007357Y002933D01*
X007352Y002925D01*
X007241Y002989D01*
X007246Y002997D01*
G37*
G36*
X007241Y002988D02*
X007352Y002924D01*
X007347Y002916D01*
X007236Y002980D01*
X007241Y002988D01*
G37*
G36*
X007236Y002980D02*
X007347Y002916D01*
X007342Y002908D01*
X007231Y002972D01*
X007236Y002980D01*
G37*
G36*
X007231Y002971D02*
X007342Y002907D01*
X007337Y002899D01*
X007226Y002963D01*
X007231Y002971D01*
G37*
G36*
X007226Y002962D02*
X007337Y002898D01*
X007332Y002890D01*
X007221Y002954D01*
X007226Y002962D01*
G37*
G36*
X007221Y002954D02*
X007332Y002890D01*
X007327Y002882D01*
X007216Y002946D01*
X007221Y002954D01*
G37*
G36*
X007216Y002945D02*
X007327Y002881D01*
X007322Y002873D01*
X007211Y002937D01*
X007216Y002945D01*
G37*
G36*
X007211Y002937D02*
X007322Y002873D01*
X007317Y002865D01*
X007206Y002929D01*
X007211Y002937D01*
G37*
G36*
X007206Y002928D02*
X007317Y002864D01*
X007312Y002856D01*
X007201Y002920D01*
X007206Y002928D01*
G37*
G36*
X007201Y002919D02*
X007312Y002855D01*
X007307Y002847D01*
X007196Y002911D01*
X007201Y002919D01*
G37*
G36*
X007196Y002911D02*
X007307Y002847D01*
X007302Y002839D01*
X007191Y002903D01*
X007196Y002911D01*
G37*
G36*
X007191Y002902D02*
X007302Y002838D01*
X007297Y002830D01*
X007186Y002894D01*
X007191Y002902D01*
G37*
G36*
X007186Y002893D02*
X007297Y002829D01*
X007292Y002821D01*
X007181Y002885D01*
X007186Y002893D01*
G37*
G36*
X007181Y002885D02*
X007292Y002821D01*
X007287Y002813D01*
X007176Y002877D01*
X007181Y002885D01*
G37*
G36*
X007176Y002876D02*
X007287Y002812D01*
X007282Y002804D01*
X007171Y002868D01*
X007176Y002876D01*
G37*
G36*
X007171Y002867D02*
X007282Y002803D01*
X007277Y002795D01*
X007166Y002859D01*
X007171Y002867D01*
G37*
G36*
X007166Y002859D02*
X007277Y002795D01*
X007272Y002787D01*
X007161Y002851D01*
X007166Y002859D01*
G37*
G36*
X007161Y002850D02*
X007272Y002786D01*
X007267Y002778D01*
X007156Y002842D01*
X007161Y002850D01*
G37*
G36*
X007156Y002841D02*
X007267Y002777D01*
X007262Y002769D01*
X007151Y002833D01*
X007156Y002841D01*
G37*
G36*
X007151Y002833D02*
X007262Y002769D01*
X007257Y002761D01*
X007146Y002825D01*
X007151Y002833D01*
G37*
G36*
X007146Y002824D02*
X007257Y002760D01*
X007252Y002752D01*
X007141Y002816D01*
X007146Y002824D01*
G37*
G36*
X007141Y002815D02*
X007252Y002751D01*
X007247Y002743D01*
X007136Y002807D01*
X007141Y002815D01*
G37*
G36*
X007136Y002807D02*
X007247Y002743D01*
X007242Y002735D01*
X007131Y002799D01*
X007136Y002807D01*
G37*
G36*
X007131Y002798D02*
X007242Y002734D01*
X007237Y002726D01*
X007126Y002790D01*
X007131Y002798D01*
G37*
G36*
X007126Y002789D02*
X007237Y002725D01*
X007232Y002717D01*
X007121Y002781D01*
X007126Y002789D01*
G37*
G36*
X007121Y002781D02*
X007232Y002717D01*
X007227Y002709D01*
X007116Y002773D01*
X007121Y002781D01*
G37*
G36*
X007116Y002772D02*
X007227Y002708D01*
X007222Y002700D01*
X007111Y002764D01*
X007116Y002772D01*
G37*
G36*
X007111Y002763D02*
X007222Y002699D01*
X007217Y002691D01*
X007106Y002755D01*
X007111Y002763D01*
G37*
G36*
X007106Y002755D02*
X007217Y002691D01*
X007212Y002683D01*
X007101Y002747D01*
X007106Y002755D01*
G37*
G36*
X007101Y002746D02*
X007212Y002682D01*
X007207Y002674D01*
X007096Y002738D01*
X007101Y002746D01*
G37*
G36*
X007096Y002737D02*
X007207Y002673D01*
X007202Y002665D01*
X007091Y002729D01*
X007096Y002737D01*
G37*
G36*
X007278Y002632D02*
X007389Y002568D01*
X007384Y002560D01*
X007273Y002624D01*
X007278Y002632D01*
G37*
G36*
X007283Y002641D02*
X007394Y002577D01*
X007389Y002569D01*
X007278Y002633D01*
X007283Y002641D01*
G37*
G36*
X007288Y002650D02*
X007399Y002586D01*
X007394Y002578D01*
X007283Y002642D01*
X007288Y002650D01*
G37*
G36*
X007293Y002658D02*
X007404Y002594D01*
X007399Y002586D01*
X007288Y002650D01*
X007293Y002658D01*
G37*
G36*
X007298Y002667D02*
X007409Y002603D01*
X007404Y002595D01*
X007293Y002659D01*
X007298Y002667D01*
G37*
G36*
X007303Y002676D02*
X007414Y002612D01*
X007409Y002604D01*
X007298Y002668D01*
X007303Y002676D01*
G37*
G36*
X007308Y002684D02*
X007419Y002620D01*
X007414Y002612D01*
X007303Y002676D01*
X007308Y002684D01*
G37*
G36*
X007313Y002693D02*
X007424Y002629D01*
X007419Y002621D01*
X007308Y002685D01*
X007313Y002693D01*
G37*
G36*
X007318Y002702D02*
X007429Y002638D01*
X007424Y002630D01*
X007313Y002694D01*
X007318Y002702D01*
G37*
G36*
X007323Y002710D02*
X007434Y002646D01*
X007429Y002638D01*
X007318Y002702D01*
X007323Y002710D01*
G37*
G36*
X007328Y002719D02*
X007439Y002655D01*
X007434Y002647D01*
X007323Y002711D01*
X007328Y002719D01*
G37*
G36*
X007333Y002728D02*
X007444Y002664D01*
X007439Y002656D01*
X007328Y002720D01*
X007333Y002728D01*
G37*
G36*
X007338Y002736D02*
X007449Y002672D01*
X007444Y002664D01*
X007333Y002728D01*
X007338Y002736D01*
G37*
G36*
X007343Y002745D02*
X007454Y002681D01*
X007449Y002673D01*
X007338Y002737D01*
X007343Y002745D01*
G37*
G36*
X007348Y002754D02*
X007459Y002690D01*
X007454Y002682D01*
X007343Y002746D01*
X007348Y002754D01*
G37*
G36*
X007353Y002762D02*
X007464Y002698D01*
X007459Y002690D01*
X007348Y002754D01*
X007353Y002762D01*
G37*
G36*
X007358Y002771D02*
X007469Y002707D01*
X007464Y002699D01*
X007353Y002763D01*
X007358Y002771D01*
G37*
G36*
X007363Y002780D02*
X007474Y002716D01*
X007469Y002708D01*
X007358Y002772D01*
X007363Y002780D01*
G37*
G36*
X007368Y002788D02*
X007479Y002724D01*
X007474Y002716D01*
X007363Y002780D01*
X007368Y002788D01*
G37*
G36*
X007373Y002797D02*
X007484Y002733D01*
X007479Y002725D01*
X007368Y002789D01*
X007373Y002797D01*
G37*
G36*
X007378Y002806D02*
X007489Y002742D01*
X007484Y002734D01*
X007373Y002798D01*
X007378Y002806D01*
G37*
G36*
X007383Y002814D02*
X007494Y002750D01*
X007489Y002742D01*
X007378Y002806D01*
X007383Y002814D01*
G37*
G36*
X007388Y002823D02*
X007499Y002759D01*
X007494Y002751D01*
X007383Y002815D01*
X007388Y002823D01*
G37*
G36*
X007393Y002832D02*
X007504Y002768D01*
X007499Y002760D01*
X007388Y002824D01*
X007393Y002832D01*
G37*
G36*
X007398Y002840D02*
X007509Y002776D01*
X007504Y002768D01*
X007393Y002832D01*
X007398Y002840D01*
G37*
G36*
X007403Y002849D02*
X007514Y002785D01*
X007509Y002777D01*
X007398Y002841D01*
X007403Y002849D01*
G37*
G36*
X007408Y002857D02*
X007519Y002793D01*
X007514Y002785D01*
X007403Y002849D01*
X007408Y002857D01*
G37*
G36*
X007413Y002866D02*
X007524Y002802D01*
X007519Y002794D01*
X007408Y002858D01*
X007413Y002866D01*
G37*
G36*
X007418Y002875D02*
X007529Y002811D01*
X007524Y002803D01*
X007413Y002867D01*
X007418Y002875D01*
G37*
G36*
X007423Y002883D02*
X007534Y002819D01*
X007529Y002811D01*
X007418Y002875D01*
X007423Y002883D01*
G37*
G36*
X007428Y002892D02*
X007539Y002828D01*
X007534Y002820D01*
X007423Y002884D01*
X007428Y002892D01*
G37*
G36*
X007433Y002901D02*
X007544Y002837D01*
X007539Y002829D01*
X007428Y002893D01*
X007433Y002901D01*
G37*
G36*
X007438Y002909D02*
X007549Y002845D01*
X007544Y002837D01*
X007433Y002901D01*
X007438Y002909D01*
G37*
G36*
X007443Y002918D02*
X007554Y002854D01*
X007549Y002846D01*
X007438Y002910D01*
X007443Y002918D01*
G37*
G36*
X007448Y002927D02*
X007559Y002863D01*
X007554Y002855D01*
X007443Y002919D01*
X007448Y002927D01*
G37*
G36*
X007821Y002712D02*
X007932Y002648D01*
X007927Y002640D01*
X007816Y002704D01*
X007821Y002712D01*
G37*
G36*
X007816Y002703D02*
X007927Y002639D01*
X007922Y002631D01*
X007811Y002695D01*
X007816Y002703D01*
G37*
G36*
X007811Y002694D02*
X007922Y002630D01*
X007917Y002622D01*
X007806Y002686D01*
X007811Y002694D01*
G37*
G36*
X007806Y002686D02*
X007917Y002622D01*
X007912Y002614D01*
X007801Y002678D01*
X007806Y002686D01*
G37*
G36*
X007801Y002677D02*
X007912Y002613D01*
X007907Y002605D01*
X007796Y002669D01*
X007801Y002677D01*
G37*
G36*
X007796Y002668D02*
X007907Y002604D01*
X007902Y002596D01*
X007791Y002660D01*
X007796Y002668D01*
G37*
G36*
X007791Y002660D02*
X007902Y002596D01*
X007897Y002588D01*
X007786Y002652D01*
X007791Y002660D01*
G37*
G36*
X007786Y002651D02*
X007897Y002587D01*
X007892Y002579D01*
X007781Y002643D01*
X007786Y002651D01*
G37*
G36*
X007781Y002642D02*
X007892Y002578D01*
X007887Y002570D01*
X007776Y002634D01*
X007781Y002642D01*
G37*
G36*
X007776Y002634D02*
X007887Y002570D01*
X007882Y002562D01*
X007771Y002626D01*
X007776Y002634D01*
G37*
G36*
X007771Y002625D02*
X007882Y002561D01*
X007877Y002553D01*
X007766Y002617D01*
X007771Y002625D01*
G37*
G36*
X007766Y002617D02*
X007877Y002553D01*
X007872Y002545D01*
X007761Y002609D01*
X007766Y002617D01*
G37*
G36*
X007761Y002608D02*
X007872Y002544D01*
X007867Y002536D01*
X007756Y002600D01*
X007761Y002608D01*
G37*
G36*
X007756Y002599D02*
X007867Y002535D01*
X007862Y002527D01*
X007751Y002591D01*
X007756Y002599D01*
G37*
G36*
X007751Y002591D02*
X007862Y002527D01*
X007857Y002519D01*
X007746Y002583D01*
X007751Y002591D01*
G37*
G36*
X007746Y002582D02*
X007857Y002518D01*
X007852Y002510D01*
X007741Y002574D01*
X007746Y002582D01*
G37*
G36*
X007741Y002573D02*
X007852Y002509D01*
X007847Y002501D01*
X007736Y002565D01*
X007741Y002573D01*
G37*
G36*
X007736Y002565D02*
X007847Y002501D01*
X007842Y002493D01*
X007731Y002557D01*
X007736Y002565D01*
G37*
G36*
X007731Y002556D02*
X007842Y002492D01*
X007837Y002484D01*
X007726Y002548D01*
X007731Y002556D01*
G37*
G36*
X007726Y002547D02*
X007837Y002483D01*
X007832Y002475D01*
X007721Y002539D01*
X007726Y002547D01*
G37*
G36*
X007721Y002539D02*
X007832Y002475D01*
X007827Y002467D01*
X007716Y002531D01*
X007721Y002539D01*
G37*
G36*
X007716Y002530D02*
X007827Y002466D01*
X007822Y002458D01*
X007711Y002522D01*
X007716Y002530D01*
G37*
G36*
X007711Y002521D02*
X007822Y002457D01*
X007817Y002449D01*
X007706Y002513D01*
X007711Y002521D01*
G37*
G36*
X007706Y002513D02*
X007817Y002449D01*
X007812Y002441D01*
X007701Y002505D01*
X007706Y002513D01*
G37*
G36*
X007701Y002504D02*
X007812Y002440D01*
X007807Y002432D01*
X007696Y002496D01*
X007701Y002504D01*
G37*
G36*
X007696Y002495D02*
X007807Y002431D01*
X007802Y002423D01*
X007691Y002487D01*
X007696Y002495D01*
G37*
G36*
X007691Y002487D02*
X007802Y002423D01*
X007797Y002415D01*
X007686Y002479D01*
X007691Y002487D01*
G37*
G36*
X007686Y002478D02*
X007797Y002414D01*
X007792Y002406D01*
X007681Y002470D01*
X007686Y002478D01*
G37*
G36*
X007681Y002469D02*
X007792Y002405D01*
X007787Y002397D01*
X007676Y002461D01*
X007681Y002469D01*
G37*
G36*
X007676Y002461D02*
X007787Y002397D01*
X007782Y002389D01*
X007671Y002453D01*
X007676Y002461D01*
G37*
G36*
X007671Y002452D02*
X007782Y002388D01*
X007777Y002380D01*
X007666Y002444D01*
X007671Y002452D01*
G37*
G36*
X007666Y002443D02*
X007777Y002379D01*
X007772Y002371D01*
X007661Y002435D01*
X007666Y002443D01*
G37*
G36*
X007661Y002435D02*
X007772Y002371D01*
X007767Y002363D01*
X007656Y002427D01*
X007661Y002435D01*
G37*
G36*
X007656Y002426D02*
X007767Y002362D01*
X007762Y002354D01*
X007651Y002418D01*
X007656Y002426D01*
G37*
G36*
X007651Y002417D02*
X007762Y002353D01*
X007757Y002345D01*
X007646Y002409D01*
X007651Y002417D01*
G37*
G36*
X007833Y002312D02*
X007944Y002248D01*
X007939Y002240D01*
X007828Y002304D01*
X007833Y002312D01*
G37*
G36*
X007838Y002321D02*
X007949Y002257D01*
X007944Y002249D01*
X007833Y002313D01*
X007838Y002321D01*
G37*
G36*
X007843Y002330D02*
X007954Y002266D01*
X007949Y002258D01*
X007838Y002322D01*
X007843Y002330D01*
G37*
G36*
X007848Y002338D02*
X007959Y002274D01*
X007954Y002266D01*
X007843Y002330D01*
X007848Y002338D01*
G37*
G36*
X007853Y002347D02*
X007964Y002283D01*
X007959Y002275D01*
X007848Y002339D01*
X007853Y002347D01*
G37*
G36*
X007858Y002356D02*
X007969Y002292D01*
X007964Y002284D01*
X007853Y002348D01*
X007858Y002356D01*
G37*
G36*
X007863Y002364D02*
X007974Y002300D01*
X007969Y002292D01*
X007858Y002356D01*
X007863Y002364D01*
G37*
G36*
X007868Y002373D02*
X007979Y002309D01*
X007974Y002301D01*
X007863Y002365D01*
X007868Y002373D01*
G37*
G36*
X007873Y002382D02*
X007984Y002318D01*
X007979Y002310D01*
X007868Y002374D01*
X007873Y002382D01*
G37*
G36*
X007878Y002390D02*
X007989Y002326D01*
X007984Y002318D01*
X007873Y002382D01*
X007878Y002390D01*
G37*
G36*
X007883Y002399D02*
X007994Y002335D01*
X007989Y002327D01*
X007878Y002391D01*
X007883Y002399D01*
G37*
G36*
X007888Y002408D02*
X007999Y002344D01*
X007994Y002336D01*
X007883Y002400D01*
X007888Y002408D01*
G37*
G36*
X007893Y002416D02*
X008004Y002352D01*
X007999Y002344D01*
X007888Y002408D01*
X007893Y002416D01*
G37*
G36*
X007898Y002425D02*
X008009Y002361D01*
X008004Y002353D01*
X007893Y002417D01*
X007898Y002425D01*
G37*
G36*
X007903Y002434D02*
X008014Y002370D01*
X008009Y002362D01*
X007898Y002426D01*
X007903Y002434D01*
G37*
G36*
X007908Y002442D02*
X008019Y002378D01*
X008014Y002370D01*
X007903Y002434D01*
X007908Y002442D01*
G37*
G36*
X007913Y002451D02*
X008024Y002387D01*
X008019Y002379D01*
X007908Y002443D01*
X007913Y002451D01*
G37*
G36*
X007918Y002460D02*
X008029Y002396D01*
X008024Y002388D01*
X007913Y002452D01*
X007918Y002460D01*
G37*
G36*
X007923Y002468D02*
X008034Y002404D01*
X008029Y002396D01*
X007918Y002460D01*
X007923Y002468D01*
G37*
G36*
X007928Y002477D02*
X008039Y002413D01*
X008034Y002405D01*
X007923Y002469D01*
X007928Y002477D01*
G37*
G36*
X007933Y002486D02*
X008044Y002422D01*
X008039Y002414D01*
X007928Y002478D01*
X007933Y002486D01*
G37*
G36*
X007938Y002494D02*
X008049Y002430D01*
X008044Y002422D01*
X007933Y002486D01*
X007938Y002494D01*
G37*
G36*
X007943Y002503D02*
X008054Y002439D01*
X008049Y002431D01*
X007938Y002495D01*
X007943Y002503D01*
G37*
G36*
X007948Y002512D02*
X008059Y002448D01*
X008054Y002440D01*
X007943Y002504D01*
X007948Y002512D01*
G37*
G36*
X007953Y002520D02*
X008064Y002456D01*
X008059Y002448D01*
X007948Y002512D01*
X007953Y002520D01*
G37*
G36*
X007958Y002529D02*
X008069Y002465D01*
X008064Y002457D01*
X007953Y002521D01*
X007958Y002529D01*
G37*
G36*
X007963Y002537D02*
X008074Y002473D01*
X008069Y002465D01*
X007958Y002529D01*
X007963Y002537D01*
G37*
G36*
X007968Y002546D02*
X008079Y002482D01*
X008074Y002474D01*
X007963Y002538D01*
X007968Y002546D01*
G37*
G36*
X007973Y002555D02*
X008084Y002491D01*
X008079Y002483D01*
X007968Y002547D01*
X007973Y002555D01*
G37*
G36*
X007978Y002563D02*
X008089Y002499D01*
X008084Y002491D01*
X007973Y002555D01*
X007978Y002563D01*
G37*
G36*
X007983Y002572D02*
X008094Y002508D01*
X008089Y002500D01*
X007978Y002564D01*
X007983Y002572D01*
G37*
G36*
X007988Y002581D02*
X008099Y002517D01*
X008094Y002509D01*
X007983Y002573D01*
X007988Y002581D01*
G37*
G36*
X007993Y002589D02*
X008104Y002525D01*
X008099Y002517D01*
X007988Y002581D01*
X007993Y002589D01*
G37*
G36*
X007998Y002598D02*
X008109Y002534D01*
X008104Y002526D01*
X007993Y002590D01*
X007998Y002598D01*
G37*
G36*
X008003Y002607D02*
X008114Y002543D01*
X008109Y002535D01*
X007998Y002599D01*
X008003Y002607D01*
G37*
G36*
X008193Y002497D02*
X008304Y002433D01*
X008299Y002425D01*
X008188Y002489D01*
X008193Y002497D01*
G37*
G36*
X008188Y002488D02*
X008299Y002424D01*
X008294Y002416D01*
X008183Y002480D01*
X008188Y002488D01*
G37*
G36*
X008183Y002479D02*
X008294Y002415D01*
X008289Y002407D01*
X008178Y002471D01*
X008183Y002479D01*
G37*
G36*
X008178Y002471D02*
X008289Y002407D01*
X008284Y002399D01*
X008173Y002463D01*
X008178Y002471D01*
G37*
G36*
X008173Y002462D02*
X008284Y002398D01*
X008279Y002390D01*
X008168Y002454D01*
X008173Y002462D01*
G37*
G36*
X008168Y002453D02*
X008279Y002389D01*
X008274Y002381D01*
X008163Y002445D01*
X008168Y002453D01*
G37*
G36*
X008163Y002445D02*
X008274Y002381D01*
X008269Y002373D01*
X008158Y002437D01*
X008163Y002445D01*
G37*
G36*
X008158Y002436D02*
X008269Y002372D01*
X008264Y002364D01*
X008153Y002428D01*
X008158Y002436D01*
G37*
G36*
X008153Y002427D02*
X008264Y002363D01*
X008259Y002355D01*
X008148Y002419D01*
X008153Y002427D01*
G37*
G36*
X008148Y002419D02*
X008259Y002355D01*
X008254Y002347D01*
X008143Y002411D01*
X008148Y002419D01*
G37*
G36*
X008143Y002410D02*
X008254Y002346D01*
X008249Y002338D01*
X008138Y002402D01*
X008143Y002410D01*
G37*
G36*
X008138Y002402D02*
X008249Y002338D01*
X008244Y002330D01*
X008133Y002394D01*
X008138Y002402D01*
G37*
G36*
X008133Y002393D02*
X008244Y002329D01*
X008239Y002321D01*
X008128Y002385D01*
X008133Y002393D01*
G37*
G36*
X008128Y002384D02*
X008239Y002320D01*
X008234Y002312D01*
X008123Y002376D01*
X008128Y002384D01*
G37*
G36*
X008123Y002376D02*
X008234Y002312D01*
X008229Y002304D01*
X008118Y002368D01*
X008123Y002376D01*
G37*
G36*
X008118Y002367D02*
X008229Y002303D01*
X008224Y002295D01*
X008113Y002359D01*
X008118Y002367D01*
G37*
G36*
X008113Y002358D02*
X008224Y002294D01*
X008219Y002286D01*
X008108Y002350D01*
X008113Y002358D01*
G37*
G36*
X008108Y002350D02*
X008219Y002286D01*
X008214Y002278D01*
X008103Y002342D01*
X008108Y002350D01*
G37*
G36*
X008103Y002341D02*
X008214Y002277D01*
X008209Y002269D01*
X008098Y002333D01*
X008103Y002341D01*
G37*
G36*
X008098Y002332D02*
X008209Y002268D01*
X008204Y002260D01*
X008093Y002324D01*
X008098Y002332D01*
G37*
G36*
X008093Y002324D02*
X008204Y002260D01*
X008199Y002252D01*
X008088Y002316D01*
X008093Y002324D01*
G37*
G36*
X008088Y002315D02*
X008199Y002251D01*
X008194Y002243D01*
X008083Y002307D01*
X008088Y002315D01*
G37*
G36*
X008083Y002306D02*
X008194Y002242D01*
X008189Y002234D01*
X008078Y002298D01*
X008083Y002306D01*
G37*
G36*
X008078Y002298D02*
X008189Y002234D01*
X008184Y002226D01*
X008073Y002290D01*
X008078Y002298D01*
G37*
G36*
X008073Y002289D02*
X008184Y002225D01*
X008179Y002217D01*
X008068Y002281D01*
X008073Y002289D01*
G37*
G36*
X008068Y002280D02*
X008179Y002216D01*
X008174Y002208D01*
X008063Y002272D01*
X008068Y002280D01*
G37*
G36*
X008063Y002272D02*
X008174Y002208D01*
X008169Y002200D01*
X008058Y002264D01*
X008063Y002272D01*
G37*
G36*
X008058Y002263D02*
X008169Y002199D01*
X008164Y002191D01*
X008053Y002255D01*
X008058Y002263D01*
G37*
G36*
X008053Y002254D02*
X008164Y002190D01*
X008159Y002182D01*
X008048Y002246D01*
X008053Y002254D01*
G37*
G36*
X008048Y002246D02*
X008159Y002182D01*
X008154Y002174D01*
X008043Y002238D01*
X008048Y002246D01*
G37*
G36*
X008043Y002237D02*
X008154Y002173D01*
X008149Y002165D01*
X008038Y002229D01*
X008043Y002237D01*
G37*
G36*
X008038Y002228D02*
X008149Y002164D01*
X008144Y002156D01*
X008033Y002220D01*
X008038Y002228D01*
G37*
G36*
X008033Y002220D02*
X008144Y002156D01*
X008139Y002148D01*
X008028Y002212D01*
X008033Y002220D01*
G37*
G36*
X008028Y002211D02*
X008139Y002147D01*
X008134Y002139D01*
X008023Y002203D01*
X008028Y002211D01*
G37*
G36*
X008023Y002202D02*
X008134Y002138D01*
X008129Y002130D01*
X008018Y002194D01*
X008023Y002202D01*
G37*
G36*
X008205Y002097D02*
X008316Y002033D01*
X008311Y002025D01*
X008200Y002089D01*
X008205Y002097D01*
G37*
G36*
X008210Y002106D02*
X008321Y002042D01*
X008316Y002034D01*
X008205Y002098D01*
X008210Y002106D01*
G37*
G36*
X008215Y002115D02*
X008326Y002051D01*
X008321Y002043D01*
X008210Y002107D01*
X008215Y002115D01*
G37*
G36*
X008220Y002123D02*
X008331Y002059D01*
X008326Y002051D01*
X008215Y002115D01*
X008220Y002123D01*
G37*
G36*
X008225Y002132D02*
X008336Y002068D01*
X008331Y002060D01*
X008220Y002124D01*
X008225Y002132D01*
G37*
G36*
X008230Y002141D02*
X008341Y002077D01*
X008336Y002069D01*
X008225Y002133D01*
X008230Y002141D01*
G37*
G36*
X008235Y002149D02*
X008346Y002085D01*
X008341Y002077D01*
X008230Y002141D01*
X008235Y002149D01*
G37*
G36*
X008240Y002158D02*
X008351Y002094D01*
X008346Y002086D01*
X008235Y002150D01*
X008240Y002158D01*
G37*
G36*
X008245Y002167D02*
X008356Y002103D01*
X008351Y002095D01*
X008240Y002159D01*
X008245Y002167D01*
G37*
G36*
X008250Y002175D02*
X008361Y002111D01*
X008356Y002103D01*
X008245Y002167D01*
X008250Y002175D01*
G37*
G36*
X008255Y002184D02*
X008366Y002120D01*
X008361Y002112D01*
X008250Y002176D01*
X008255Y002184D01*
G37*
G36*
X008260Y002193D02*
X008371Y002129D01*
X008366Y002121D01*
X008255Y002185D01*
X008260Y002193D01*
G37*
G36*
X008265Y002201D02*
X008376Y002137D01*
X008371Y002129D01*
X008260Y002193D01*
X008265Y002201D01*
G37*
G36*
X008270Y002210D02*
X008381Y002146D01*
X008376Y002138D01*
X008265Y002202D01*
X008270Y002210D01*
G37*
G36*
X008275Y002219D02*
X008386Y002155D01*
X008381Y002147D01*
X008270Y002211D01*
X008275Y002219D01*
G37*
G36*
X008280Y002227D02*
X008391Y002163D01*
X008386Y002155D01*
X008275Y002219D01*
X008280Y002227D01*
G37*
G36*
X008285Y002236D02*
X008396Y002172D01*
X008391Y002164D01*
X008280Y002228D01*
X008285Y002236D01*
G37*
G36*
X008290Y002245D02*
X008401Y002181D01*
X008396Y002173D01*
X008285Y002237D01*
X008290Y002245D01*
G37*
G36*
X008295Y002253D02*
X008406Y002189D01*
X008401Y002181D01*
X008290Y002245D01*
X008295Y002253D01*
G37*
G36*
X008300Y002262D02*
X008411Y002198D01*
X008406Y002190D01*
X008295Y002254D01*
X008300Y002262D01*
G37*
G36*
X008305Y002271D02*
X008416Y002207D01*
X008411Y002199D01*
X008300Y002263D01*
X008305Y002271D01*
G37*
G36*
X008310Y002279D02*
X008421Y002215D01*
X008416Y002207D01*
X008305Y002271D01*
X008310Y002279D01*
G37*
G36*
X008315Y002288D02*
X008426Y002224D01*
X008421Y002216D01*
X008310Y002280D01*
X008315Y002288D01*
G37*
G36*
X008320Y002297D02*
X008431Y002233D01*
X008426Y002225D01*
X008315Y002289D01*
X008320Y002297D01*
G37*
G36*
X008325Y002305D02*
X008436Y002241D01*
X008431Y002233D01*
X008320Y002297D01*
X008325Y002305D01*
G37*
G36*
X008330Y002314D02*
X008441Y002250D01*
X008436Y002242D01*
X008325Y002306D01*
X008330Y002314D01*
G37*
G36*
X008335Y002322D02*
X008446Y002258D01*
X008441Y002250D01*
X008330Y002314D01*
X008335Y002322D01*
G37*
G36*
X008340Y002331D02*
X008451Y002267D01*
X008446Y002259D01*
X008335Y002323D01*
X008340Y002331D01*
G37*
G36*
X008345Y002340D02*
X008456Y002276D01*
X008451Y002268D01*
X008340Y002332D01*
X008345Y002340D01*
G37*
G36*
X008350Y002348D02*
X008461Y002284D01*
X008456Y002276D01*
X008345Y002340D01*
X008350Y002348D01*
G37*
G36*
X008355Y002357D02*
X008466Y002293D01*
X008461Y002285D01*
X008350Y002349D01*
X008355Y002357D01*
G37*
G36*
X008360Y002366D02*
X008471Y002302D01*
X008466Y002294D01*
X008355Y002358D01*
X008360Y002366D01*
G37*
G36*
X008365Y002374D02*
X008476Y002310D01*
X008471Y002302D01*
X008360Y002366D01*
X008365Y002374D01*
G37*
G36*
X008370Y002383D02*
X008481Y002319D01*
X008476Y002311D01*
X008365Y002375D01*
X008370Y002383D01*
G37*
G36*
X008375Y002392D02*
X008486Y002328D01*
X008481Y002320D01*
X008370Y002384D01*
X008375Y002392D01*
G37*
G36*
X008747Y002177D02*
X008858Y002113D01*
X008853Y002105D01*
X008742Y002169D01*
X008747Y002177D01*
G37*
G36*
X008742Y002168D02*
X008853Y002104D01*
X008848Y002096D01*
X008737Y002160D01*
X008742Y002168D01*
G37*
G36*
X008737Y002159D02*
X008848Y002095D01*
X008843Y002087D01*
X008732Y002151D01*
X008737Y002159D01*
G37*
G36*
X008732Y002151D02*
X008843Y002087D01*
X008838Y002079D01*
X008727Y002143D01*
X008732Y002151D01*
G37*
G36*
X008727Y002142D02*
X008838Y002078D01*
X008833Y002070D01*
X008722Y002134D01*
X008727Y002142D01*
G37*
G36*
X008722Y002133D02*
X008833Y002069D01*
X008828Y002061D01*
X008717Y002125D01*
X008722Y002133D01*
G37*
G36*
X008717Y002125D02*
X008828Y002061D01*
X008823Y002053D01*
X008712Y002117D01*
X008717Y002125D01*
G37*
G36*
X008712Y002116D02*
X008823Y002052D01*
X008818Y002044D01*
X008707Y002108D01*
X008712Y002116D01*
G37*
G36*
X008707Y002107D02*
X008818Y002043D01*
X008813Y002035D01*
X008702Y002099D01*
X008707Y002107D01*
G37*
G36*
X008702Y002099D02*
X008813Y002035D01*
X008808Y002027D01*
X008697Y002091D01*
X008702Y002099D01*
G37*
G36*
X008697Y002090D02*
X008808Y002026D01*
X008803Y002018D01*
X008692Y002082D01*
X008697Y002090D01*
G37*
G36*
X008692Y002082D02*
X008803Y002018D01*
X008798Y002010D01*
X008687Y002074D01*
X008692Y002082D01*
G37*
G36*
X008687Y002073D02*
X008798Y002009D01*
X008793Y002001D01*
X008682Y002065D01*
X008687Y002073D01*
G37*
G36*
X008682Y002064D02*
X008793Y002000D01*
X008788Y001992D01*
X008677Y002056D01*
X008682Y002064D01*
G37*
G36*
X008677Y002056D02*
X008788Y001992D01*
X008783Y001984D01*
X008672Y002048D01*
X008677Y002056D01*
G37*
G36*
X008672Y002047D02*
X008783Y001983D01*
X008778Y001975D01*
X008667Y002039D01*
X008672Y002047D01*
G37*
G36*
X008667Y002038D02*
X008778Y001974D01*
X008773Y001966D01*
X008662Y002030D01*
X008667Y002038D01*
G37*
G36*
X008662Y002030D02*
X008773Y001966D01*
X008768Y001958D01*
X008657Y002022D01*
X008662Y002030D01*
G37*
G36*
X008657Y002021D02*
X008768Y001957D01*
X008763Y001949D01*
X008652Y002013D01*
X008657Y002021D01*
G37*
G36*
X008652Y002012D02*
X008763Y001948D01*
X008758Y001940D01*
X008647Y002004D01*
X008652Y002012D01*
G37*
G36*
X008647Y002004D02*
X008758Y001940D01*
X008753Y001932D01*
X008642Y001996D01*
X008647Y002004D01*
G37*
G36*
X008642Y001995D02*
X008753Y001931D01*
X008748Y001923D01*
X008637Y001987D01*
X008642Y001995D01*
G37*
G36*
X008637Y001986D02*
X008748Y001922D01*
X008743Y001914D01*
X008632Y001978D01*
X008637Y001986D01*
G37*
G36*
X008632Y001978D02*
X008743Y001914D01*
X008738Y001906D01*
X008627Y001970D01*
X008632Y001978D01*
G37*
G36*
X008627Y001969D02*
X008738Y001905D01*
X008733Y001897D01*
X008622Y001961D01*
X008627Y001969D01*
G37*
G36*
X008622Y001960D02*
X008733Y001896D01*
X008728Y001888D01*
X008617Y001952D01*
X008622Y001960D01*
G37*
G36*
X008617Y001952D02*
X008728Y001888D01*
X008723Y001880D01*
X008612Y001944D01*
X008617Y001952D01*
G37*
G36*
X008612Y001943D02*
X008723Y001879D01*
X008718Y001871D01*
X008607Y001935D01*
X008612Y001943D01*
G37*
G36*
X008607Y001934D02*
X008718Y001870D01*
X008713Y001862D01*
X008602Y001926D01*
X008607Y001934D01*
G37*
G36*
X008602Y001926D02*
X008713Y001862D01*
X008708Y001854D01*
X008597Y001918D01*
X008602Y001926D01*
G37*
G36*
X008597Y001917D02*
X008708Y001853D01*
X008703Y001845D01*
X008592Y001909D01*
X008597Y001917D01*
G37*
G36*
X008592Y001908D02*
X008703Y001844D01*
X008698Y001836D01*
X008587Y001900D01*
X008592Y001908D01*
G37*
G36*
X008587Y001900D02*
X008698Y001836D01*
X008693Y001828D01*
X008582Y001892D01*
X008587Y001900D01*
G37*
G36*
X008582Y001891D02*
X008693Y001827D01*
X008688Y001819D01*
X008577Y001883D01*
X008582Y001891D01*
G37*
G36*
X008577Y001882D02*
X008688Y001818D01*
X008683Y001810D01*
X008572Y001874D01*
X008577Y001882D01*
G37*
G36*
X008552Y003259D02*
X008663Y003195D01*
X008658Y003187D01*
X008547Y003251D01*
X008552Y003259D01*
G37*
G36*
X008651Y003329D02*
X008762Y003265D01*
X008757Y003257D01*
X008646Y003321D01*
X008651Y003329D01*
G37*
G36*
X008219Y003521D02*
X008330Y003457D01*
X008325Y003449D01*
X008214Y003513D01*
X008219Y003521D01*
G37*
G36*
X008195Y003500D02*
X008306Y003436D01*
X008301Y003428D01*
X008190Y003492D01*
X008195Y003500D01*
G37*
G36*
X008190Y003492D02*
X008301Y003428D01*
X008296Y003420D01*
X008185Y003484D01*
X008190Y003492D01*
G37*
G36*
X008166Y003471D02*
X008277Y003407D01*
X008272Y003399D01*
X008161Y003463D01*
X008166Y003471D01*
G37*
G36*
X008143Y003450D02*
X008254Y003386D01*
X008249Y003378D01*
X008138Y003442D01*
X008143Y003450D01*
G37*
G36*
X008138Y003441D02*
X008249Y003377D01*
X008244Y003369D01*
X008133Y003433D01*
X008138Y003441D01*
G37*
G36*
X008161Y003462D02*
X008272Y003398D01*
X008267Y003390D01*
X008156Y003454D01*
X008161Y003462D01*
G37*
G36*
X008214Y003513D02*
X008325Y003449D01*
X008320Y003441D01*
X008209Y003505D01*
X008214Y003513D01*
G37*
G36*
X008019Y003336D02*
X008130Y003272D01*
X008125Y003264D01*
X008014Y003328D01*
X008019Y003336D01*
G37*
G36*
X007996Y003315D02*
X008107Y003251D01*
X008102Y003243D01*
X007991Y003307D01*
X007996Y003315D01*
G37*
G36*
X007972Y003294D02*
X008083Y003230D01*
X008078Y003222D01*
X007967Y003286D01*
X007972Y003294D01*
G37*
G36*
X007949Y003273D02*
X008060Y003209D01*
X008055Y003201D01*
X007944Y003265D01*
X007949Y003273D01*
G37*
G36*
X007925Y003252D02*
X008036Y003188D01*
X008031Y003180D01*
X007920Y003244D01*
X007925Y003252D01*
G37*
G36*
X008663Y004050D02*
X008774Y003986D01*
X008769Y003978D01*
X008658Y004042D01*
X008663Y004050D01*
G37*
G36*
X008681Y004062D02*
X008792Y003998D01*
X008787Y003990D01*
X008676Y004054D01*
X008681Y004062D01*
G37*
G36*
X008695Y004066D02*
X008806Y004002D01*
X008801Y003994D01*
X008690Y004058D01*
X008695Y004066D01*
G37*
G36*
X008519Y004422D02*
X008630Y004358D01*
X008625Y004350D01*
X008514Y004414D01*
X008519Y004422D01*
G37*
G36*
X008296Y004215D02*
X008407Y004151D01*
X008402Y004143D01*
X008291Y004207D01*
X008296Y004215D01*
G37*
G36*
X008588Y004901D02*
X008699Y004837D01*
X008694Y004829D01*
X008583Y004893D01*
X008588Y004901D01*
G37*
G36*
X008593Y004910D02*
X008704Y004846D01*
X008699Y004838D01*
X008588Y004902D01*
X008593Y004910D01*
G37*
G36*
X008598Y004919D02*
X008709Y004855D01*
X008704Y004847D01*
X008593Y004911D01*
X008598Y004919D01*
G37*
G36*
X008603Y004927D02*
X008714Y004863D01*
X008709Y004855D01*
X008598Y004919D01*
X008603Y004927D01*
G37*
G36*
X008608Y004936D02*
X008719Y004872D01*
X008714Y004864D01*
X008603Y004928D01*
X008608Y004936D01*
G37*
G36*
X008613Y004945D02*
X008724Y004881D01*
X008719Y004873D01*
X008608Y004937D01*
X008613Y004945D01*
G37*
G36*
X008618Y004953D02*
X008729Y004889D01*
X008724Y004881D01*
X008613Y004945D01*
X008618Y004953D01*
G37*
G36*
X008623Y004962D02*
X008734Y004898D01*
X008729Y004890D01*
X008618Y004954D01*
X008623Y004962D01*
G37*
G36*
X008628Y004971D02*
X008739Y004907D01*
X008734Y004899D01*
X008623Y004963D01*
X008628Y004971D01*
G37*
G36*
X008633Y004979D02*
X008744Y004915D01*
X008739Y004907D01*
X008628Y004971D01*
X008633Y004979D01*
G37*
G36*
X008638Y004988D02*
X008749Y004924D01*
X008744Y004916D01*
X008633Y004980D01*
X008638Y004988D01*
G37*
G36*
X008643Y004997D02*
X008754Y004933D01*
X008749Y004925D01*
X008638Y004989D01*
X008643Y004997D01*
G37*
G36*
X008648Y005005D02*
X008759Y004941D01*
X008754Y004933D01*
X008643Y004997D01*
X008648Y005005D01*
G37*
G36*
X008653Y005014D02*
X008764Y004950D01*
X008759Y004942D01*
X008648Y005006D01*
X008653Y005014D01*
G37*
G36*
X008658Y005023D02*
X008769Y004959D01*
X008764Y004951D01*
X008653Y005015D01*
X008658Y005023D01*
G37*
G36*
X008663Y005031D02*
X008774Y004967D01*
X008769Y004959D01*
X008658Y005023D01*
X008663Y005031D01*
G37*
G36*
X008668Y005040D02*
X008779Y004976D01*
X008774Y004968D01*
X008663Y005032D01*
X008668Y005040D01*
G37*
G36*
X008673Y005049D02*
X008784Y004985D01*
X008779Y004977D01*
X008668Y005041D01*
X008673Y005049D01*
G37*
G36*
X008678Y005057D02*
X008789Y004993D01*
X008784Y004985D01*
X008673Y005049D01*
X008678Y005057D01*
G37*
G36*
X008683Y005066D02*
X008794Y005002D01*
X008789Y004994D01*
X008678Y005058D01*
X008683Y005066D01*
G37*
G36*
X008688Y005075D02*
X008799Y005011D01*
X008794Y005003D01*
X008683Y005067D01*
X008688Y005075D01*
G37*
G36*
X008693Y005083D02*
X008804Y005019D01*
X008799Y005011D01*
X008688Y005075D01*
X008693Y005083D01*
G37*
G36*
X008698Y005092D02*
X008809Y005028D01*
X008804Y005020D01*
X008693Y005084D01*
X008698Y005092D01*
G37*
G36*
X008703Y005100D02*
X008814Y005036D01*
X008809Y005028D01*
X008698Y005092D01*
X008703Y005100D01*
G37*
G36*
X008708Y005109D02*
X008819Y005045D01*
X008814Y005037D01*
X008703Y005101D01*
X008708Y005109D01*
G37*
G36*
X008713Y005118D02*
X008824Y005054D01*
X008819Y005046D01*
X008708Y005110D01*
X008713Y005118D01*
G37*
G36*
X008718Y005126D02*
X008829Y005062D01*
X008824Y005054D01*
X008713Y005118D01*
X008718Y005126D01*
G37*
G36*
X008723Y005135D02*
X008834Y005071D01*
X008829Y005063D01*
X008718Y005127D01*
X008723Y005135D01*
G37*
G36*
X008728Y005144D02*
X008839Y005080D01*
X008834Y005072D01*
X008723Y005136D01*
X008728Y005144D01*
G37*
G36*
X008733Y005152D02*
X008844Y005088D01*
X008839Y005080D01*
X008728Y005144D01*
X008733Y005152D01*
G37*
G36*
X008738Y005161D02*
X008849Y005097D01*
X008844Y005089D01*
X008733Y005153D01*
X008738Y005161D01*
G37*
G36*
X008743Y005170D02*
X008854Y005106D01*
X008849Y005098D01*
X008738Y005162D01*
X008743Y005170D01*
G37*
G36*
X008748Y005178D02*
X008859Y005114D01*
X008854Y005106D01*
X008743Y005170D01*
X008748Y005178D01*
G37*
G36*
X008753Y005187D02*
X008864Y005123D01*
X008859Y005115D01*
X008748Y005179D01*
X008753Y005187D01*
G37*
G36*
X008571Y005292D02*
X008682Y005228D01*
X008677Y005220D01*
X008566Y005284D01*
X008571Y005292D01*
G37*
G36*
X008566Y005283D02*
X008677Y005219D01*
X008672Y005211D01*
X008561Y005275D01*
X008566Y005283D01*
G37*
G36*
X008561Y005275D02*
X008672Y005211D01*
X008667Y005203D01*
X008556Y005267D01*
X008561Y005275D01*
G37*
G36*
X008556Y005266D02*
X008667Y005202D01*
X008662Y005194D01*
X008551Y005258D01*
X008556Y005266D01*
G37*
G36*
X008551Y005257D02*
X008662Y005193D01*
X008657Y005185D01*
X008546Y005249D01*
X008551Y005257D01*
G37*
G36*
X008546Y005249D02*
X008657Y005185D01*
X008652Y005177D01*
X008541Y005241D01*
X008546Y005249D01*
G37*
G36*
X008541Y005240D02*
X008652Y005176D01*
X008647Y005168D01*
X008536Y005232D01*
X008541Y005240D01*
G37*
G36*
X008536Y005231D02*
X008647Y005167D01*
X008642Y005159D01*
X008531Y005223D01*
X008536Y005231D01*
G37*
G36*
X008531Y005223D02*
X008642Y005159D01*
X008637Y005151D01*
X008526Y005215D01*
X008531Y005223D01*
G37*
G36*
X008526Y005214D02*
X008637Y005150D01*
X008632Y005142D01*
X008521Y005206D01*
X008526Y005214D01*
G37*
G36*
X008521Y005205D02*
X008632Y005141D01*
X008627Y005133D01*
X008516Y005197D01*
X008521Y005205D01*
G37*
G36*
X008516Y005197D02*
X008627Y005133D01*
X008622Y005125D01*
X008511Y005189D01*
X008516Y005197D01*
G37*
G36*
X008511Y005188D02*
X008622Y005124D01*
X008617Y005116D01*
X008506Y005180D01*
X008511Y005188D01*
G37*
G36*
X008506Y005180D02*
X008617Y005116D01*
X008612Y005108D01*
X008501Y005172D01*
X008506Y005180D01*
G37*
G36*
X008501Y005171D02*
X008612Y005107D01*
X008607Y005099D01*
X008496Y005163D01*
X008501Y005171D01*
G37*
G36*
X008496Y005162D02*
X008607Y005098D01*
X008602Y005090D01*
X008491Y005154D01*
X008496Y005162D01*
G37*
G36*
X008491Y005154D02*
X008602Y005090D01*
X008597Y005082D01*
X008486Y005146D01*
X008491Y005154D01*
G37*
G36*
X008486Y005145D02*
X008597Y005081D01*
X008592Y005073D01*
X008481Y005137D01*
X008486Y005145D01*
G37*
G36*
X008481Y005136D02*
X008592Y005072D01*
X008587Y005064D01*
X008476Y005128D01*
X008481Y005136D01*
G37*
G36*
X008476Y005128D02*
X008587Y005064D01*
X008582Y005056D01*
X008471Y005120D01*
X008476Y005128D01*
G37*
G36*
X008471Y005119D02*
X008582Y005055D01*
X008577Y005047D01*
X008466Y005111D01*
X008471Y005119D01*
G37*
G36*
X008466Y005110D02*
X008577Y005046D01*
X008572Y005038D01*
X008461Y005102D01*
X008466Y005110D01*
G37*
G36*
X008461Y005102D02*
X008572Y005038D01*
X008567Y005030D01*
X008456Y005094D01*
X008461Y005102D01*
G37*
G36*
X008456Y005093D02*
X008567Y005029D01*
X008562Y005021D01*
X008451Y005085D01*
X008456Y005093D01*
G37*
G36*
X008451Y005084D02*
X008562Y005020D01*
X008557Y005012D01*
X008446Y005076D01*
X008451Y005084D01*
G37*
G36*
X008446Y005076D02*
X008557Y005012D01*
X008552Y005004D01*
X008441Y005068D01*
X008446Y005076D01*
G37*
G36*
X008441Y005067D02*
X008552Y005003D01*
X008547Y004995D01*
X008436Y005059D01*
X008441Y005067D01*
G37*
G36*
X008436Y005058D02*
X008547Y004994D01*
X008542Y004986D01*
X008431Y005050D01*
X008436Y005058D01*
G37*
G36*
X008431Y005050D02*
X008542Y004986D01*
X008537Y004978D01*
X008426Y005042D01*
X008431Y005050D01*
G37*
G36*
X008426Y005041D02*
X008537Y004977D01*
X008532Y004969D01*
X008421Y005033D01*
X008426Y005041D01*
G37*
G36*
X008421Y005032D02*
X008532Y004968D01*
X008527Y004960D01*
X008416Y005024D01*
X008421Y005032D01*
G37*
G36*
X008416Y005024D02*
X008527Y004960D01*
X008522Y004952D01*
X008411Y005016D01*
X008416Y005024D01*
G37*
G36*
X008411Y005015D02*
X008522Y004951D01*
X008517Y004943D01*
X008406Y005007D01*
X008411Y005015D01*
G37*
G36*
X008406Y005006D02*
X008517Y004942D01*
X008512Y004934D01*
X008401Y004998D01*
X008406Y005006D01*
G37*
G36*
X008216Y005116D02*
X008327Y005052D01*
X008322Y005044D01*
X008211Y005108D01*
X008216Y005116D01*
G37*
G36*
X008221Y005125D02*
X008332Y005061D01*
X008327Y005053D01*
X008216Y005117D01*
X008221Y005125D01*
G37*
G36*
X008226Y005134D02*
X008337Y005070D01*
X008332Y005062D01*
X008221Y005126D01*
X008226Y005134D01*
G37*
G36*
X008231Y005142D02*
X008342Y005078D01*
X008337Y005070D01*
X008226Y005134D01*
X008231Y005142D01*
G37*
G36*
X008236Y005151D02*
X008347Y005087D01*
X008342Y005079D01*
X008231Y005143D01*
X008236Y005151D01*
G37*
G36*
X008241Y005160D02*
X008352Y005096D01*
X008347Y005088D01*
X008236Y005152D01*
X008241Y005160D01*
G37*
G36*
X008246Y005168D02*
X008357Y005104D01*
X008352Y005096D01*
X008241Y005160D01*
X008246Y005168D01*
G37*
G36*
X008251Y005177D02*
X008362Y005113D01*
X008357Y005105D01*
X008246Y005169D01*
X008251Y005177D01*
G37*
G36*
X008256Y005186D02*
X008367Y005122D01*
X008362Y005114D01*
X008251Y005178D01*
X008256Y005186D01*
G37*
G36*
X008261Y005194D02*
X008372Y005130D01*
X008367Y005122D01*
X008256Y005186D01*
X008261Y005194D01*
G37*
G36*
X008266Y005203D02*
X008377Y005139D01*
X008372Y005131D01*
X008261Y005195D01*
X008266Y005203D01*
G37*
G36*
X008271Y005212D02*
X008382Y005148D01*
X008377Y005140D01*
X008266Y005204D01*
X008271Y005212D01*
G37*
G36*
X008276Y005220D02*
X008387Y005156D01*
X008382Y005148D01*
X008271Y005212D01*
X008276Y005220D01*
G37*
G36*
X008281Y005229D02*
X008392Y005165D01*
X008387Y005157D01*
X008276Y005221D01*
X008281Y005229D01*
G37*
G36*
X008286Y005238D02*
X008397Y005174D01*
X008392Y005166D01*
X008281Y005230D01*
X008286Y005238D01*
G37*
G36*
X008291Y005246D02*
X008402Y005182D01*
X008397Y005174D01*
X008286Y005238D01*
X008291Y005246D01*
G37*
G36*
X008296Y005255D02*
X008407Y005191D01*
X008402Y005183D01*
X008291Y005247D01*
X008296Y005255D01*
G37*
G36*
X008301Y005264D02*
X008412Y005200D01*
X008407Y005192D01*
X008296Y005256D01*
X008301Y005264D01*
G37*
G36*
X008306Y005272D02*
X008417Y005208D01*
X008412Y005200D01*
X008301Y005264D01*
X008306Y005272D01*
G37*
G36*
X008311Y005281D02*
X008422Y005217D01*
X008417Y005209D01*
X008306Y005273D01*
X008311Y005281D01*
G37*
G36*
X008316Y005290D02*
X008427Y005226D01*
X008422Y005218D01*
X008311Y005282D01*
X008316Y005290D01*
G37*
G36*
X008321Y005298D02*
X008432Y005234D01*
X008427Y005226D01*
X008316Y005290D01*
X008321Y005298D01*
G37*
G36*
X008326Y005307D02*
X008437Y005243D01*
X008432Y005235D01*
X008321Y005299D01*
X008326Y005307D01*
G37*
G36*
X008331Y005315D02*
X008442Y005251D01*
X008437Y005243D01*
X008326Y005307D01*
X008331Y005315D01*
G37*
G36*
X008336Y005324D02*
X008447Y005260D01*
X008442Y005252D01*
X008331Y005316D01*
X008336Y005324D01*
G37*
G36*
X008341Y005333D02*
X008452Y005269D01*
X008447Y005261D01*
X008336Y005325D01*
X008341Y005333D01*
G37*
G36*
X008346Y005341D02*
X008457Y005277D01*
X008452Y005269D01*
X008341Y005333D01*
X008346Y005341D01*
G37*
G36*
X008351Y005350D02*
X008462Y005286D01*
X008457Y005278D01*
X008346Y005342D01*
X008351Y005350D01*
G37*
G36*
X008356Y005359D02*
X008467Y005295D01*
X008462Y005287D01*
X008351Y005351D01*
X008356Y005359D01*
G37*
G36*
X008361Y005367D02*
X008472Y005303D01*
X008467Y005295D01*
X008356Y005359D01*
X008361Y005367D01*
G37*
G36*
X008366Y005376D02*
X008477Y005312D01*
X008472Y005304D01*
X008361Y005368D01*
X008366Y005376D01*
G37*
G36*
X008371Y005385D02*
X008482Y005321D01*
X008477Y005313D01*
X008366Y005377D01*
X008371Y005385D01*
G37*
G36*
X008376Y005393D02*
X008487Y005329D01*
X008482Y005321D01*
X008371Y005385D01*
X008376Y005393D01*
G37*
G36*
X008381Y005402D02*
X008492Y005338D01*
X008487Y005330D01*
X008376Y005394D01*
X008381Y005402D01*
G37*
G36*
X009126Y004972D02*
X009237Y004908D01*
X009232Y004900D01*
X009121Y004964D01*
X009126Y004972D01*
G37*
G36*
X009121Y004963D02*
X009232Y004899D01*
X009227Y004891D01*
X009116Y004955D01*
X009121Y004963D01*
G37*
G36*
X009116Y004955D02*
X009227Y004891D01*
X009222Y004883D01*
X009111Y004947D01*
X009116Y004955D01*
G37*
G36*
X009111Y004946D02*
X009222Y004882D01*
X009217Y004874D01*
X009106Y004938D01*
X009111Y004946D01*
G37*
G36*
X009106Y004937D02*
X009217Y004873D01*
X009212Y004865D01*
X009101Y004929D01*
X009106Y004937D01*
G37*
G36*
X009101Y004929D02*
X009212Y004865D01*
X009207Y004857D01*
X009096Y004921D01*
X009101Y004929D01*
G37*
G36*
X009096Y004920D02*
X009207Y004856D01*
X009202Y004848D01*
X009091Y004912D01*
X009096Y004920D01*
G37*
G36*
X009091Y004911D02*
X009202Y004847D01*
X009197Y004839D01*
X009086Y004903D01*
X009091Y004911D01*
G37*
G36*
X009086Y004903D02*
X009197Y004839D01*
X009192Y004831D01*
X009081Y004895D01*
X009086Y004903D01*
G37*
G36*
X009081Y004894D02*
X009192Y004830D01*
X009187Y004822D01*
X009076Y004886D01*
X009081Y004894D01*
G37*
G36*
X009076Y004885D02*
X009187Y004821D01*
X009182Y004813D01*
X009071Y004877D01*
X009076Y004885D01*
G37*
G36*
X009071Y004877D02*
X009182Y004813D01*
X009177Y004805D01*
X009066Y004869D01*
X009071Y004877D01*
G37*
G36*
X009066Y004868D02*
X009177Y004804D01*
X009172Y004796D01*
X009061Y004860D01*
X009066Y004868D01*
G37*
G36*
X009061Y004860D02*
X009172Y004796D01*
X009167Y004788D01*
X009056Y004852D01*
X009061Y004860D01*
G37*
G36*
X009056Y004851D02*
X009167Y004787D01*
X009162Y004779D01*
X009051Y004843D01*
X009056Y004851D01*
G37*
G36*
X009051Y004842D02*
X009162Y004778D01*
X009157Y004770D01*
X009046Y004834D01*
X009051Y004842D01*
G37*
G36*
X009046Y004834D02*
X009157Y004770D01*
X009152Y004762D01*
X009041Y004826D01*
X009046Y004834D01*
G37*
G36*
X009041Y004825D02*
X009152Y004761D01*
X009147Y004753D01*
X009036Y004817D01*
X009041Y004825D01*
G37*
G36*
X009036Y004816D02*
X009147Y004752D01*
X009142Y004744D01*
X009031Y004808D01*
X009036Y004816D01*
G37*
G36*
X009031Y004808D02*
X009142Y004744D01*
X009137Y004736D01*
X009026Y004800D01*
X009031Y004808D01*
G37*
G36*
X009026Y004799D02*
X009137Y004735D01*
X009132Y004727D01*
X009021Y004791D01*
X009026Y004799D01*
G37*
G36*
X009021Y004790D02*
X009132Y004726D01*
X009127Y004718D01*
X009016Y004782D01*
X009021Y004790D01*
G37*
G36*
X009016Y004782D02*
X009127Y004718D01*
X009122Y004710D01*
X009011Y004774D01*
X009016Y004782D01*
G37*
G36*
X009011Y004773D02*
X009122Y004709D01*
X009117Y004701D01*
X009006Y004765D01*
X009011Y004773D01*
G37*
G36*
X009006Y004764D02*
X009117Y004700D01*
X009112Y004692D01*
X009001Y004756D01*
X009006Y004764D01*
G37*
G36*
X009001Y004756D02*
X009112Y004692D01*
X009107Y004684D01*
X008996Y004748D01*
X009001Y004756D01*
G37*
G36*
X008996Y004747D02*
X009107Y004683D01*
X009102Y004675D01*
X008991Y004739D01*
X008996Y004747D01*
G37*
G36*
X008991Y004738D02*
X009102Y004674D01*
X009097Y004666D01*
X008986Y004730D01*
X008991Y004738D01*
G37*
G36*
X008986Y004730D02*
X009097Y004666D01*
X009092Y004658D01*
X008981Y004722D01*
X008986Y004730D01*
G37*
G36*
X008981Y004721D02*
X009092Y004657D01*
X009087Y004649D01*
X008976Y004713D01*
X008981Y004721D01*
G37*
G36*
X008976Y004712D02*
X009087Y004648D01*
X009082Y004640D01*
X008971Y004704D01*
X008976Y004712D01*
G37*
G36*
X008971Y004704D02*
X009082Y004640D01*
X009077Y004632D01*
X008966Y004696D01*
X008971Y004704D01*
G37*
G36*
X008966Y004695D02*
X009077Y004631D01*
X009072Y004623D01*
X008961Y004687D01*
X008966Y004695D01*
G37*
G36*
X008961Y004686D02*
X009072Y004622D01*
X009067Y004614D01*
X008956Y004678D01*
X008961Y004686D01*
G37*
G36*
X009143Y004581D02*
X009254Y004517D01*
X009249Y004509D01*
X009138Y004573D01*
X009143Y004581D01*
G37*
G36*
X009148Y004590D02*
X009259Y004526D01*
X009254Y004518D01*
X009143Y004582D01*
X009148Y004590D01*
G37*
G36*
X009153Y004599D02*
X009264Y004535D01*
X009259Y004527D01*
X009148Y004591D01*
X009153Y004599D01*
G37*
G36*
X009158Y004607D02*
X009269Y004543D01*
X009264Y004535D01*
X009153Y004599D01*
X009158Y004607D01*
G37*
G36*
X009163Y004616D02*
X009274Y004552D01*
X009269Y004544D01*
X009158Y004608D01*
X009163Y004616D01*
G37*
G36*
X009168Y004625D02*
X009279Y004561D01*
X009274Y004553D01*
X009163Y004617D01*
X009168Y004625D01*
G37*
G36*
X009173Y004633D02*
X009284Y004569D01*
X009279Y004561D01*
X009168Y004625D01*
X009173Y004633D01*
G37*
G36*
X009178Y004642D02*
X009289Y004578D01*
X009284Y004570D01*
X009173Y004634D01*
X009178Y004642D01*
G37*
G36*
X009183Y004651D02*
X009294Y004587D01*
X009289Y004579D01*
X009178Y004643D01*
X009183Y004651D01*
G37*
G36*
X009188Y004659D02*
X009299Y004595D01*
X009294Y004587D01*
X009183Y004651D01*
X009188Y004659D01*
G37*
G36*
X009193Y004668D02*
X009304Y004604D01*
X009299Y004596D01*
X009188Y004660D01*
X009193Y004668D01*
G37*
G36*
X009198Y004677D02*
X009309Y004613D01*
X009304Y004605D01*
X009193Y004669D01*
X009198Y004677D01*
G37*
G36*
X009203Y004685D02*
X009314Y004621D01*
X009309Y004613D01*
X009198Y004677D01*
X009203Y004685D01*
G37*
G36*
X009208Y004694D02*
X009319Y004630D01*
X009314Y004622D01*
X009203Y004686D01*
X009208Y004694D01*
G37*
G36*
X009213Y004703D02*
X009324Y004639D01*
X009319Y004631D01*
X009208Y004695D01*
X009213Y004703D01*
G37*
G36*
X009218Y004711D02*
X009329Y004647D01*
X009324Y004639D01*
X009213Y004703D01*
X009218Y004711D01*
G37*
G36*
X009223Y004720D02*
X009334Y004656D01*
X009329Y004648D01*
X009218Y004712D01*
X009223Y004720D01*
G37*
G36*
X009228Y004729D02*
X009339Y004665D01*
X009334Y004657D01*
X009223Y004721D01*
X009228Y004729D01*
G37*
G36*
X009233Y004737D02*
X009344Y004673D01*
X009339Y004665D01*
X009228Y004729D01*
X009233Y004737D01*
G37*
G36*
X009238Y004746D02*
X009349Y004682D01*
X009344Y004674D01*
X009233Y004738D01*
X009238Y004746D01*
G37*
G36*
X009243Y004755D02*
X009354Y004691D01*
X009349Y004683D01*
X009238Y004747D01*
X009243Y004755D01*
G37*
G36*
X009248Y004763D02*
X009359Y004699D01*
X009354Y004691D01*
X009243Y004755D01*
X009248Y004763D01*
G37*
G36*
X009253Y004772D02*
X009364Y004708D01*
X009359Y004700D01*
X009248Y004764D01*
X009253Y004772D01*
G37*
G36*
X009258Y004780D02*
X009369Y004716D01*
X009364Y004708D01*
X009253Y004772D01*
X009258Y004780D01*
G37*
G36*
X009263Y004789D02*
X009374Y004725D01*
X009369Y004717D01*
X009258Y004781D01*
X009263Y004789D01*
G37*
G36*
X009268Y004798D02*
X009379Y004734D01*
X009374Y004726D01*
X009263Y004790D01*
X009268Y004798D01*
G37*
G36*
X009273Y004806D02*
X009384Y004742D01*
X009379Y004734D01*
X009268Y004798D01*
X009273Y004806D01*
G37*
G36*
X009278Y004815D02*
X009389Y004751D01*
X009384Y004743D01*
X009273Y004807D01*
X009278Y004815D01*
G37*
G36*
X009283Y004824D02*
X009394Y004760D01*
X009389Y004752D01*
X009278Y004816D01*
X009283Y004824D01*
G37*
G36*
X009288Y004832D02*
X009399Y004768D01*
X009394Y004760D01*
X009283Y004824D01*
X009288Y004832D01*
G37*
G36*
X009293Y004841D02*
X009404Y004777D01*
X009399Y004769D01*
X009288Y004833D01*
X009293Y004841D01*
G37*
G36*
X009298Y004850D02*
X009409Y004786D01*
X009404Y004778D01*
X009293Y004842D01*
X009298Y004850D01*
G37*
G36*
X009303Y004858D02*
X009414Y004794D01*
X009409Y004786D01*
X009298Y004850D01*
X009303Y004858D01*
G37*
G36*
X009308Y004867D02*
X009419Y004803D01*
X009414Y004795D01*
X009303Y004859D01*
X009308Y004867D01*
G37*
G36*
X009498Y004757D02*
X009609Y004693D01*
X009604Y004685D01*
X009493Y004749D01*
X009498Y004757D01*
G37*
G36*
X009493Y004748D02*
X009604Y004684D01*
X009599Y004676D01*
X009488Y004740D01*
X009493Y004748D01*
G37*
G36*
X009488Y004740D02*
X009599Y004676D01*
X009594Y004668D01*
X009483Y004732D01*
X009488Y004740D01*
G37*
G36*
X009483Y004731D02*
X009594Y004667D01*
X009589Y004659D01*
X009478Y004723D01*
X009483Y004731D01*
G37*
G36*
X009478Y004722D02*
X009589Y004658D01*
X009584Y004650D01*
X009473Y004714D01*
X009478Y004722D01*
G37*
G36*
X009473Y004714D02*
X009584Y004650D01*
X009579Y004642D01*
X009468Y004706D01*
X009473Y004714D01*
G37*
G36*
X009468Y004705D02*
X009579Y004641D01*
X009574Y004633D01*
X009463Y004697D01*
X009468Y004705D01*
G37*
G36*
X009463Y004696D02*
X009574Y004632D01*
X009569Y004624D01*
X009458Y004688D01*
X009463Y004696D01*
G37*
G36*
X009458Y004688D02*
X009569Y004624D01*
X009564Y004616D01*
X009453Y004680D01*
X009458Y004688D01*
G37*
G36*
X009453Y004679D02*
X009564Y004615D01*
X009559Y004607D01*
X009448Y004671D01*
X009453Y004679D01*
G37*
G36*
X009448Y004670D02*
X009559Y004606D01*
X009554Y004598D01*
X009443Y004662D01*
X009448Y004670D01*
G37*
G36*
X009443Y004662D02*
X009554Y004598D01*
X009549Y004590D01*
X009438Y004654D01*
X009443Y004662D01*
G37*
G36*
X009438Y004653D02*
X009549Y004589D01*
X009544Y004581D01*
X009433Y004645D01*
X009438Y004653D01*
G37*
G36*
X009433Y004645D02*
X009544Y004581D01*
X009539Y004573D01*
X009428Y004637D01*
X009433Y004645D01*
G37*
G36*
X009428Y004636D02*
X009539Y004572D01*
X009534Y004564D01*
X009423Y004628D01*
X009428Y004636D01*
G37*
G36*
X009423Y004627D02*
X009534Y004563D01*
X009529Y004555D01*
X009418Y004619D01*
X009423Y004627D01*
G37*
G36*
X009418Y004619D02*
X009529Y004555D01*
X009524Y004547D01*
X009413Y004611D01*
X009418Y004619D01*
G37*
G36*
X009413Y004610D02*
X009524Y004546D01*
X009519Y004538D01*
X009408Y004602D01*
X009413Y004610D01*
G37*
G36*
X009408Y004601D02*
X009519Y004537D01*
X009514Y004529D01*
X009403Y004593D01*
X009408Y004601D01*
G37*
G36*
X009403Y004593D02*
X009514Y004529D01*
X009509Y004521D01*
X009398Y004585D01*
X009403Y004593D01*
G37*
G36*
X009398Y004584D02*
X009509Y004520D01*
X009504Y004512D01*
X009393Y004576D01*
X009398Y004584D01*
G37*
G36*
X009393Y004575D02*
X009504Y004511D01*
X009499Y004503D01*
X009388Y004567D01*
X009393Y004575D01*
G37*
G36*
X009388Y004567D02*
X009499Y004503D01*
X009494Y004495D01*
X009383Y004559D01*
X009388Y004567D01*
G37*
G36*
X009383Y004558D02*
X009494Y004494D01*
X009489Y004486D01*
X009378Y004550D01*
X009383Y004558D01*
G37*
G36*
X009378Y004549D02*
X009489Y004485D01*
X009484Y004477D01*
X009373Y004541D01*
X009378Y004549D01*
G37*
G36*
X009373Y004541D02*
X009484Y004477D01*
X009479Y004469D01*
X009368Y004533D01*
X009373Y004541D01*
G37*
G36*
X009368Y004532D02*
X009479Y004468D01*
X009474Y004460D01*
X009363Y004524D01*
X009368Y004532D01*
G37*
G36*
X009363Y004523D02*
X009474Y004459D01*
X009469Y004451D01*
X009358Y004515D01*
X009363Y004523D01*
G37*
G36*
X009358Y004515D02*
X009469Y004451D01*
X009464Y004443D01*
X009353Y004507D01*
X009358Y004515D01*
G37*
G36*
X009353Y004506D02*
X009464Y004442D01*
X009459Y004434D01*
X009348Y004498D01*
X009353Y004506D01*
G37*
G36*
X009348Y004497D02*
X009459Y004433D01*
X009454Y004425D01*
X009343Y004489D01*
X009348Y004497D01*
G37*
G36*
X009343Y004489D02*
X009454Y004425D01*
X009449Y004417D01*
X009338Y004481D01*
X009343Y004489D01*
G37*
G36*
X009338Y004480D02*
X009449Y004416D01*
X009444Y004408D01*
X009333Y004472D01*
X009338Y004480D01*
G37*
G36*
X009333Y004471D02*
X009444Y004407D01*
X009439Y004399D01*
X009328Y004463D01*
X009333Y004471D01*
G37*
G36*
X009515Y004366D02*
X009626Y004302D01*
X009621Y004294D01*
X009510Y004358D01*
X009515Y004366D01*
G37*
G36*
X009520Y004375D02*
X009631Y004311D01*
X009626Y004303D01*
X009515Y004367D01*
X009520Y004375D01*
G37*
G36*
X009525Y004384D02*
X009636Y004320D01*
X009631Y004312D01*
X009520Y004376D01*
X009525Y004384D01*
G37*
G36*
X009530Y004392D02*
X009641Y004328D01*
X009636Y004320D01*
X009525Y004384D01*
X009530Y004392D01*
G37*
G36*
X009535Y004401D02*
X009646Y004337D01*
X009641Y004329D01*
X009530Y004393D01*
X009535Y004401D01*
G37*
G36*
X009540Y004410D02*
X009651Y004346D01*
X009646Y004338D01*
X009535Y004402D01*
X009540Y004410D01*
G37*
G36*
X009545Y004418D02*
X009656Y004354D01*
X009651Y004346D01*
X009540Y004410D01*
X009545Y004418D01*
G37*
G36*
X009550Y004427D02*
X009661Y004363D01*
X009656Y004355D01*
X009545Y004419D01*
X009550Y004427D01*
G37*
G36*
X009555Y004436D02*
X009666Y004372D01*
X009661Y004364D01*
X009550Y004428D01*
X009555Y004436D01*
G37*
G36*
X009560Y004444D02*
X009671Y004380D01*
X009666Y004372D01*
X009555Y004436D01*
X009560Y004444D01*
G37*
G36*
X009565Y004453D02*
X009676Y004389D01*
X009671Y004381D01*
X009560Y004445D01*
X009565Y004453D01*
G37*
G36*
X009570Y004462D02*
X009681Y004398D01*
X009676Y004390D01*
X009565Y004454D01*
X009570Y004462D01*
G37*
G36*
X009575Y004470D02*
X009686Y004406D01*
X009681Y004398D01*
X009570Y004462D01*
X009575Y004470D01*
G37*
G36*
X009580Y004479D02*
X009691Y004415D01*
X009686Y004407D01*
X009575Y004471D01*
X009580Y004479D01*
G37*
G36*
X009585Y004488D02*
X009696Y004424D01*
X009691Y004416D01*
X009580Y004480D01*
X009585Y004488D01*
G37*
G36*
X009590Y004496D02*
X009701Y004432D01*
X009696Y004424D01*
X009585Y004488D01*
X009590Y004496D01*
G37*
G36*
X009595Y004505D02*
X009706Y004441D01*
X009701Y004433D01*
X009590Y004497D01*
X009595Y004505D01*
G37*
G36*
X009600Y004514D02*
X009711Y004450D01*
X009706Y004442D01*
X009595Y004506D01*
X009600Y004514D01*
G37*
G36*
X009605Y004522D02*
X009716Y004458D01*
X009711Y004450D01*
X009600Y004514D01*
X009605Y004522D01*
G37*
G36*
X009610Y004531D02*
X009721Y004467D01*
X009716Y004459D01*
X009605Y004523D01*
X009610Y004531D01*
G37*
G36*
X009615Y004540D02*
X009726Y004476D01*
X009721Y004468D01*
X009610Y004532D01*
X009615Y004540D01*
G37*
G36*
X009620Y004548D02*
X009731Y004484D01*
X009726Y004476D01*
X009615Y004540D01*
X009620Y004548D01*
G37*
G36*
X009625Y004557D02*
X009736Y004493D01*
X009731Y004485D01*
X009620Y004549D01*
X009625Y004557D01*
G37*
G36*
X009630Y004565D02*
X009741Y004501D01*
X009736Y004493D01*
X009625Y004557D01*
X009630Y004565D01*
G37*
G36*
X009635Y004574D02*
X009746Y004510D01*
X009741Y004502D01*
X009630Y004566D01*
X009635Y004574D01*
G37*
G36*
X009640Y004583D02*
X009751Y004519D01*
X009746Y004511D01*
X009635Y004575D01*
X009640Y004583D01*
G37*
G36*
X009645Y004591D02*
X009756Y004527D01*
X009751Y004519D01*
X009640Y004583D01*
X009645Y004591D01*
G37*
G36*
X009650Y004600D02*
X009761Y004536D01*
X009756Y004528D01*
X009645Y004592D01*
X009650Y004600D01*
G37*
G36*
X009655Y004609D02*
X009766Y004545D01*
X009761Y004537D01*
X009650Y004601D01*
X009655Y004609D01*
G37*
G36*
X009660Y004617D02*
X009771Y004553D01*
X009766Y004545D01*
X009655Y004609D01*
X009660Y004617D01*
G37*
G36*
X009665Y004626D02*
X009776Y004562D01*
X009771Y004554D01*
X009660Y004618D01*
X009665Y004626D01*
G37*
G36*
X009670Y004635D02*
X009781Y004571D01*
X009776Y004563D01*
X009665Y004627D01*
X009670Y004635D01*
G37*
G36*
X009675Y004643D02*
X009786Y004579D01*
X009781Y004571D01*
X009670Y004635D01*
X009675Y004643D01*
G37*
G36*
X009680Y004652D02*
X009791Y004588D01*
X009786Y004580D01*
X009675Y004644D01*
X009680Y004652D01*
G37*
G36*
X010052Y004437D02*
X010163Y004373D01*
X010158Y004365D01*
X010047Y004429D01*
X010052Y004437D01*
G37*
G36*
X010047Y004428D02*
X010158Y004364D01*
X010153Y004356D01*
X010042Y004420D01*
X010047Y004428D01*
G37*
G36*
X010042Y004420D02*
X010153Y004356D01*
X010148Y004348D01*
X010037Y004412D01*
X010042Y004420D01*
G37*
G36*
X010037Y004411D02*
X010148Y004347D01*
X010143Y004339D01*
X010032Y004403D01*
X010037Y004411D01*
G37*
G36*
X010032Y004402D02*
X010143Y004338D01*
X010138Y004330D01*
X010027Y004394D01*
X010032Y004402D01*
G37*
G36*
X010027Y004394D02*
X010138Y004330D01*
X010133Y004322D01*
X010022Y004386D01*
X010027Y004394D01*
G37*
G36*
X010022Y004385D02*
X010133Y004321D01*
X010128Y004313D01*
X010017Y004377D01*
X010022Y004385D01*
G37*
G36*
X010017Y004376D02*
X010128Y004312D01*
X010123Y004304D01*
X010012Y004368D01*
X010017Y004376D01*
G37*
G36*
X010012Y004368D02*
X010123Y004304D01*
X010118Y004296D01*
X010007Y004360D01*
X010012Y004368D01*
G37*
G36*
X010007Y004359D02*
X010118Y004295D01*
X010113Y004287D01*
X010002Y004351D01*
X010007Y004359D01*
G37*
G36*
X010002Y004350D02*
X010113Y004286D01*
X010108Y004278D01*
X009997Y004342D01*
X010002Y004350D01*
G37*
G36*
X009997Y004342D02*
X010108Y004278D01*
X010103Y004270D01*
X009992Y004334D01*
X009997Y004342D01*
G37*
G36*
X009992Y004333D02*
X010103Y004269D01*
X010098Y004261D01*
X009987Y004325D01*
X009992Y004333D01*
G37*
G36*
X009987Y004325D02*
X010098Y004261D01*
X010093Y004253D01*
X009982Y004317D01*
X009987Y004325D01*
G37*
G36*
X009982Y004316D02*
X010093Y004252D01*
X010088Y004244D01*
X009977Y004308D01*
X009982Y004316D01*
G37*
G36*
X009977Y004307D02*
X010088Y004243D01*
X010083Y004235D01*
X009972Y004299D01*
X009977Y004307D01*
G37*
G36*
X009972Y004299D02*
X010083Y004235D01*
X010078Y004227D01*
X009967Y004291D01*
X009972Y004299D01*
G37*
G36*
X009967Y004290D02*
X010078Y004226D01*
X010073Y004218D01*
X009962Y004282D01*
X009967Y004290D01*
G37*
G36*
X009962Y004281D02*
X010073Y004217D01*
X010068Y004209D01*
X009957Y004273D01*
X009962Y004281D01*
G37*
G36*
X009957Y004273D02*
X010068Y004209D01*
X010063Y004201D01*
X009952Y004265D01*
X009957Y004273D01*
G37*
G36*
X009952Y004264D02*
X010063Y004200D01*
X010058Y004192D01*
X009947Y004256D01*
X009952Y004264D01*
G37*
G36*
X009947Y004255D02*
X010058Y004191D01*
X010053Y004183D01*
X009942Y004247D01*
X009947Y004255D01*
G37*
G36*
X009942Y004247D02*
X010053Y004183D01*
X010048Y004175D01*
X009937Y004239D01*
X009942Y004247D01*
G37*
G36*
X009937Y004238D02*
X010048Y004174D01*
X010043Y004166D01*
X009932Y004230D01*
X009937Y004238D01*
G37*
G36*
X009932Y004229D02*
X010043Y004165D01*
X010038Y004157D01*
X009927Y004221D01*
X009932Y004229D01*
G37*
G36*
X009927Y004221D02*
X010038Y004157D01*
X010033Y004149D01*
X009922Y004213D01*
X009927Y004221D01*
G37*
G36*
X009922Y004212D02*
X010033Y004148D01*
X010028Y004140D01*
X009917Y004204D01*
X009922Y004212D01*
G37*
G36*
X009917Y004203D02*
X010028Y004139D01*
X010023Y004131D01*
X009912Y004195D01*
X009917Y004203D01*
G37*
G36*
X009912Y004195D02*
X010023Y004131D01*
X010018Y004123D01*
X009907Y004187D01*
X009912Y004195D01*
G37*
G36*
X009907Y004186D02*
X010018Y004122D01*
X010013Y004114D01*
X009902Y004178D01*
X009907Y004186D01*
G37*
G36*
X009902Y004177D02*
X010013Y004113D01*
X010008Y004105D01*
X009897Y004169D01*
X009902Y004177D01*
G37*
G36*
X009897Y004169D02*
X010008Y004105D01*
X010003Y004097D01*
X009892Y004161D01*
X009897Y004169D01*
G37*
G36*
X009892Y004160D02*
X010003Y004096D01*
X009998Y004088D01*
X009887Y004152D01*
X009892Y004160D01*
G37*
G36*
X009887Y004151D02*
X009998Y004087D01*
X009993Y004079D01*
X009882Y004143D01*
X009887Y004151D01*
G37*
G36*
X009080Y003913D02*
X009191Y003849D01*
X009186Y003841D01*
X009075Y003905D01*
X009080Y003913D01*
G37*
G36*
X008929Y003792D02*
X009040Y003728D01*
X009035Y003720D01*
X008924Y003784D01*
X008929Y003792D01*
G37*
G36*
X008911Y003780D02*
X009022Y003716D01*
X009017Y003708D01*
X008906Y003772D01*
X008911Y003780D01*
G37*
D13*
G36*
X009075Y003905D02*
X009178Y003846D01*
X009173Y003837D01*
X009070Y003896D01*
X009075Y003905D01*
G37*
G36*
X009150Y004035D02*
X009253Y003976D01*
X009248Y003967D01*
X009145Y004026D01*
X009150Y004035D01*
G37*
G36*
X008829Y004220D02*
X008932Y004161D01*
X008927Y004152D01*
X008824Y004211D01*
X008829Y004220D01*
G37*
G36*
X008315Y004228D02*
X008418Y004169D01*
X008413Y004160D01*
X008310Y004219D01*
X008315Y004228D01*
G37*
G36*
X008310Y004220D02*
X008413Y004161D01*
X008408Y004152D01*
X008305Y004211D01*
X008310Y004220D01*
G37*
G36*
X008296Y004597D02*
X008399Y004538D01*
X008394Y004529D01*
X008291Y004588D01*
X008296Y004597D01*
G37*
G36*
X008779Y004792D02*
X008882Y004733D01*
X008877Y004724D01*
X008774Y004783D01*
X008779Y004792D01*
G37*
G36*
X008784Y004800D02*
X008887Y004741D01*
X008882Y004732D01*
X008779Y004791D01*
X008784Y004800D01*
G37*
G36*
X008789Y004809D02*
X008892Y004750D01*
X008887Y004741D01*
X008784Y004800D01*
X008789Y004809D01*
G37*
G36*
X008794Y004818D02*
X008897Y004759D01*
X008892Y004750D01*
X008789Y004809D01*
X008794Y004818D01*
G37*
G36*
X008799Y004826D02*
X008902Y004767D01*
X008897Y004758D01*
X008794Y004817D01*
X008799Y004826D01*
G37*
G36*
X008804Y004835D02*
X008907Y004776D01*
X008902Y004767D01*
X008799Y004826D01*
X008804Y004835D01*
G37*
G36*
X008809Y004844D02*
X008912Y004785D01*
X008907Y004776D01*
X008804Y004835D01*
X008809Y004844D01*
G37*
G36*
X008814Y004852D02*
X008917Y004793D01*
X008912Y004784D01*
X008809Y004843D01*
X008814Y004852D01*
G37*
G36*
X008819Y004861D02*
X008922Y004802D01*
X008917Y004793D01*
X008814Y004852D01*
X008819Y004861D01*
G37*
G36*
X008824Y004870D02*
X008927Y004811D01*
X008922Y004802D01*
X008819Y004861D01*
X008824Y004870D01*
G37*
G36*
X008829Y004878D02*
X008932Y004819D01*
X008927Y004810D01*
X008824Y004869D01*
X008829Y004878D01*
G37*
G36*
X008834Y004887D02*
X008937Y004828D01*
X008932Y004819D01*
X008829Y004878D01*
X008834Y004887D01*
G37*
G36*
X008839Y004896D02*
X008942Y004837D01*
X008937Y004828D01*
X008834Y004887D01*
X008839Y004896D01*
G37*
G36*
X008844Y004904D02*
X008947Y004845D01*
X008942Y004836D01*
X008839Y004895D01*
X008844Y004904D01*
G37*
G36*
X008849Y004913D02*
X008952Y004854D01*
X008947Y004845D01*
X008844Y004904D01*
X008849Y004913D01*
G37*
G36*
X008854Y004922D02*
X008957Y004863D01*
X008952Y004854D01*
X008849Y004913D01*
X008854Y004922D01*
G37*
G36*
X008859Y004930D02*
X008962Y004871D01*
X008957Y004862D01*
X008854Y004921D01*
X008859Y004930D01*
G37*
G36*
X008864Y004939D02*
X008967Y004880D01*
X008962Y004871D01*
X008859Y004930D01*
X008864Y004939D01*
G37*
G36*
X008869Y004948D02*
X008972Y004889D01*
X008967Y004880D01*
X008864Y004939D01*
X008869Y004948D01*
G37*
G36*
X008874Y004956D02*
X008977Y004897D01*
X008972Y004888D01*
X008869Y004947D01*
X008874Y004956D01*
G37*
G36*
X008879Y004965D02*
X008982Y004906D01*
X008977Y004897D01*
X008874Y004956D01*
X008879Y004965D01*
G37*
G36*
X008884Y004974D02*
X008987Y004915D01*
X008982Y004906D01*
X008879Y004965D01*
X008884Y004974D01*
G37*
G36*
X008889Y004982D02*
X008992Y004923D01*
X008987Y004914D01*
X008884Y004973D01*
X008889Y004982D01*
G37*
G36*
X008894Y004991D02*
X008997Y004932D01*
X008992Y004923D01*
X008889Y004982D01*
X008894Y004991D01*
G37*
G36*
X008899Y005000D02*
X009002Y004941D01*
X008997Y004932D01*
X008894Y004991D01*
X008899Y005000D01*
G37*
G36*
X008904Y005008D02*
X009007Y004949D01*
X009002Y004940D01*
X008899Y004999D01*
X008904Y005008D01*
G37*
G36*
X008909Y005017D02*
X009012Y004958D01*
X009007Y004949D01*
X008904Y005008D01*
X008909Y005017D01*
G37*
G36*
X008914Y005026D02*
X009017Y004967D01*
X009012Y004958D01*
X008909Y005017D01*
X008914Y005026D01*
G37*
G36*
X008919Y005034D02*
X009022Y004975D01*
X009017Y004966D01*
X008914Y005025D01*
X008919Y005034D01*
G37*
G36*
X008924Y005043D02*
X009027Y004984D01*
X009022Y004975D01*
X008919Y005034D01*
X008924Y005043D01*
G37*
G36*
X008929Y005052D02*
X009032Y004993D01*
X009027Y004984D01*
X008924Y005043D01*
X008929Y005052D01*
G37*
G36*
X008934Y005060D02*
X009037Y005001D01*
X009032Y004992D01*
X008929Y005051D01*
X008934Y005060D01*
G37*
G36*
X008939Y005069D02*
X009042Y005010D01*
X009037Y005001D01*
X008934Y005060D01*
X008939Y005069D01*
G37*
G36*
X008944Y005078D02*
X009047Y005019D01*
X009042Y005010D01*
X008939Y005069D01*
X008944Y005078D01*
G37*
G36*
X009725Y004291D02*
X009828Y004232D01*
X009823Y004223D01*
X009720Y004282D01*
X009725Y004291D01*
G37*
G36*
X009730Y004300D02*
X009833Y004241D01*
X009828Y004232D01*
X009725Y004291D01*
X009730Y004300D01*
G37*
G36*
X009735Y004309D02*
X009838Y004250D01*
X009833Y004241D01*
X009730Y004300D01*
X009735Y004309D01*
G37*
G36*
X009740Y004317D02*
X009843Y004258D01*
X009838Y004249D01*
X009735Y004308D01*
X009740Y004317D01*
G37*
G36*
X009745Y004326D02*
X009848Y004267D01*
X009843Y004258D01*
X009740Y004317D01*
X009745Y004326D01*
G37*
G36*
X009750Y004335D02*
X009853Y004276D01*
X009848Y004267D01*
X009745Y004326D01*
X009750Y004335D01*
G37*
G36*
X009755Y004343D02*
X009858Y004284D01*
X009853Y004275D01*
X009750Y004334D01*
X009755Y004343D01*
G37*
G36*
X009760Y004352D02*
X009863Y004293D01*
X009858Y004284D01*
X009755Y004343D01*
X009760Y004352D01*
G37*
G36*
X009765Y004361D02*
X009868Y004302D01*
X009863Y004293D01*
X009760Y004352D01*
X009765Y004361D01*
G37*
G36*
X009770Y004369D02*
X009873Y004310D01*
X009868Y004301D01*
X009765Y004360D01*
X009770Y004369D01*
G37*
G36*
X009775Y004378D02*
X009878Y004319D01*
X009873Y004310D01*
X009770Y004369D01*
X009775Y004378D01*
G37*
G36*
X009780Y004387D02*
X009883Y004328D01*
X009878Y004319D01*
X009775Y004378D01*
X009780Y004387D01*
G37*
G36*
X009785Y004395D02*
X009888Y004336D01*
X009883Y004327D01*
X009780Y004386D01*
X009785Y004395D01*
G37*
G36*
X009790Y004404D02*
X009893Y004345D01*
X009888Y004336D01*
X009785Y004395D01*
X009790Y004404D01*
G37*
G36*
X009795Y004413D02*
X009898Y004354D01*
X009893Y004345D01*
X009790Y004404D01*
X009795Y004413D01*
G37*
G36*
X009800Y004421D02*
X009903Y004362D01*
X009898Y004353D01*
X009795Y004412D01*
X009800Y004421D01*
G37*
G36*
X009805Y004430D02*
X009908Y004371D01*
X009903Y004362D01*
X009800Y004421D01*
X009805Y004430D01*
G37*
G36*
X009810Y004439D02*
X009913Y004380D01*
X009908Y004371D01*
X009805Y004430D01*
X009810Y004439D01*
G37*
G36*
X009815Y004447D02*
X009918Y004388D01*
X009913Y004379D01*
X009810Y004438D01*
X009815Y004447D01*
G37*
G36*
X009820Y004456D02*
X009923Y004397D01*
X009918Y004388D01*
X009815Y004447D01*
X009820Y004456D01*
G37*
G36*
X009825Y004465D02*
X009928Y004406D01*
X009923Y004397D01*
X009820Y004456D01*
X009825Y004465D01*
G37*
G36*
X009830Y004473D02*
X009933Y004414D01*
X009928Y004405D01*
X009825Y004464D01*
X009830Y004473D01*
G37*
G36*
X009835Y004482D02*
X009938Y004423D01*
X009933Y004414D01*
X009830Y004473D01*
X009835Y004482D01*
G37*
G36*
X009840Y004491D02*
X009943Y004432D01*
X009938Y004423D01*
X009835Y004482D01*
X009840Y004491D01*
G37*
G36*
X009845Y004499D02*
X009948Y004440D01*
X009943Y004431D01*
X009840Y004490D01*
X009845Y004499D01*
G37*
G36*
X009850Y004508D02*
X009953Y004449D01*
X009948Y004440D01*
X009845Y004499D01*
X009850Y004508D01*
G37*
G36*
X009855Y004517D02*
X009958Y004458D01*
X009953Y004449D01*
X009850Y004508D01*
X009855Y004517D01*
G37*
G36*
X009860Y004525D02*
X009963Y004466D01*
X009958Y004457D01*
X009855Y004516D01*
X009860Y004525D01*
G37*
G36*
X009865Y004534D02*
X009968Y004475D01*
X009963Y004466D01*
X009860Y004525D01*
X009865Y004534D01*
G37*
G36*
X009870Y004543D02*
X009973Y004484D01*
X009968Y004475D01*
X009865Y004534D01*
X009870Y004543D01*
G37*
G36*
X009720Y004283D02*
X009823Y004224D01*
X009818Y004215D01*
X009715Y004274D01*
X009720Y004283D01*
G37*
G36*
X009715Y004274D02*
X009818Y004215D01*
X009813Y004206D01*
X009710Y004265D01*
X009715Y004274D01*
G37*
G36*
X009710Y004265D02*
X009813Y004206D01*
X009808Y004197D01*
X009705Y004256D01*
X009710Y004265D01*
G37*
G36*
X009705Y004257D02*
X009808Y004198D01*
X009803Y004189D01*
X009700Y004248D01*
X009705Y004257D01*
G37*
G36*
X008645Y003321D02*
X008748Y003262D01*
X008743Y003253D01*
X008640Y003312D01*
X008645Y003321D01*
G37*
G36*
X008622Y003300D02*
X008725Y003241D01*
X008720Y003232D01*
X008617Y003291D01*
X008622Y003300D01*
G37*
G36*
X008598Y003279D02*
X008701Y003220D01*
X008696Y003211D01*
X008593Y003270D01*
X008598Y003279D01*
G37*
G36*
X008566Y003263D02*
X008669Y003204D01*
X008664Y003195D01*
X008561Y003254D01*
X008566Y003263D01*
G37*
G36*
X008579Y003267D02*
X008682Y003208D01*
X008677Y003199D01*
X008574Y003258D01*
X008579Y003267D01*
G37*
G36*
X008640Y003313D02*
X008743Y003254D01*
X008738Y003245D01*
X008635Y003304D01*
X008640Y003313D01*
G37*
G36*
X008565Y002282D02*
X008668Y002223D01*
X008663Y002214D01*
X008560Y002273D01*
X008565Y002282D01*
G37*
G36*
X008560Y002274D02*
X008663Y002215D01*
X008658Y002206D01*
X008555Y002265D01*
X008560Y002274D01*
G37*
G36*
X008555Y002265D02*
X008658Y002206D01*
X008653Y002197D01*
X008550Y002256D01*
X008555Y002265D01*
G37*
G36*
X008550Y002256D02*
X008653Y002197D01*
X008648Y002188D01*
X008545Y002247D01*
X008550Y002256D01*
G37*
G36*
X008545Y002248D02*
X008648Y002189D01*
X008643Y002180D01*
X008540Y002239D01*
X008545Y002248D01*
G37*
G36*
X008540Y002239D02*
X008643Y002180D01*
X008638Y002171D01*
X008535Y002230D01*
X008540Y002239D01*
G37*
G36*
X008535Y002230D02*
X008638Y002171D01*
X008633Y002162D01*
X008530Y002221D01*
X008535Y002230D01*
G37*
G36*
X008530Y002222D02*
X008633Y002163D01*
X008628Y002154D01*
X008525Y002213D01*
X008530Y002222D01*
G37*
G36*
X008525Y002213D02*
X008628Y002154D01*
X008623Y002145D01*
X008520Y002204D01*
X008525Y002213D01*
G37*
G36*
X008520Y002204D02*
X008623Y002145D01*
X008618Y002136D01*
X008515Y002195D01*
X008520Y002204D01*
G37*
G36*
X008515Y002196D02*
X008618Y002137D01*
X008613Y002128D01*
X008510Y002187D01*
X008515Y002196D01*
G37*
G36*
X008510Y002187D02*
X008613Y002128D01*
X008608Y002119D01*
X008505Y002178D01*
X008510Y002187D01*
G37*
G36*
X008505Y002178D02*
X008608Y002119D01*
X008603Y002110D01*
X008500Y002169D01*
X008505Y002178D01*
G37*
G36*
X008500Y002170D02*
X008603Y002111D01*
X008598Y002102D01*
X008495Y002161D01*
X008500Y002170D01*
G37*
G36*
X008495Y002161D02*
X008598Y002102D01*
X008593Y002093D01*
X008490Y002152D01*
X008495Y002161D01*
G37*
G36*
X008490Y002152D02*
X008593Y002093D01*
X008588Y002084D01*
X008485Y002143D01*
X008490Y002152D01*
G37*
G36*
X008485Y002144D02*
X008588Y002085D01*
X008583Y002076D01*
X008480Y002135D01*
X008485Y002144D01*
G37*
G36*
X008480Y002135D02*
X008583Y002076D01*
X008578Y002067D01*
X008475Y002126D01*
X008480Y002135D01*
G37*
G36*
X008475Y002126D02*
X008578Y002067D01*
X008573Y002058D01*
X008470Y002117D01*
X008475Y002126D01*
G37*
G36*
X008470Y002118D02*
X008573Y002059D01*
X008568Y002050D01*
X008465Y002109D01*
X008470Y002118D01*
G37*
G36*
X008465Y002109D02*
X008568Y002050D01*
X008563Y002041D01*
X008460Y002100D01*
X008465Y002109D01*
G37*
G36*
X008460Y002100D02*
X008563Y002041D01*
X008558Y002032D01*
X008455Y002091D01*
X008460Y002100D01*
G37*
G36*
X008455Y002092D02*
X008558Y002033D01*
X008553Y002024D01*
X008450Y002083D01*
X008455Y002092D01*
G37*
G36*
X008450Y002083D02*
X008553Y002024D01*
X008548Y002015D01*
X008445Y002074D01*
X008450Y002083D01*
G37*
G36*
X008445Y002074D02*
X008548Y002015D01*
X008543Y002006D01*
X008440Y002065D01*
X008445Y002074D01*
G37*
G36*
X008440Y002066D02*
X008543Y002007D01*
X008538Y001998D01*
X008435Y002057D01*
X008440Y002066D01*
G37*
G36*
X008435Y002057D02*
X008538Y001998D01*
X008533Y001989D01*
X008430Y002048D01*
X008435Y002057D01*
G37*
G36*
X008430Y002048D02*
X008533Y001989D01*
X008528Y001980D01*
X008425Y002039D01*
X008430Y002048D01*
G37*
G36*
X008425Y002040D02*
X008528Y001981D01*
X008523Y001972D01*
X008420Y002031D01*
X008425Y002040D01*
G37*
G36*
X008420Y002031D02*
X008523Y001972D01*
X008518Y001963D01*
X008415Y002022D01*
X008420Y002031D01*
G37*
G36*
X008415Y002022D02*
X008518Y001963D01*
X008513Y001954D01*
X008410Y002013D01*
X008415Y002022D01*
G37*
G36*
X008410Y002014D02*
X008513Y001955D01*
X008508Y001946D01*
X008405Y002005D01*
X008410Y002014D01*
G37*
G36*
X008405Y002005D02*
X008508Y001946D01*
X008503Y001937D01*
X008400Y001996D01*
X008405Y002005D01*
G37*
G36*
X008400Y001996D02*
X008503Y001937D01*
X008498Y001928D01*
X008395Y001987D01*
X008400Y001996D01*
G37*
G36*
X008395Y001988D02*
X008498Y001929D01*
X008493Y001920D01*
X008390Y001979D01*
X008395Y001988D01*
G37*
G36*
X007469Y002523D02*
X007572Y002464D01*
X007567Y002455D01*
X007464Y002514D01*
X007469Y002523D01*
G37*
G36*
X007474Y002531D02*
X007577Y002472D01*
X007572Y002463D01*
X007469Y002522D01*
X007474Y002531D01*
G37*
G36*
X007479Y002540D02*
X007582Y002481D01*
X007577Y002472D01*
X007474Y002531D01*
X007479Y002540D01*
G37*
G36*
X007484Y002549D02*
X007587Y002490D01*
X007582Y002481D01*
X007479Y002540D01*
X007484Y002549D01*
G37*
G36*
X007489Y002557D02*
X007592Y002498D01*
X007587Y002489D01*
X007484Y002548D01*
X007489Y002557D01*
G37*
G36*
X007494Y002566D02*
X007597Y002507D01*
X007592Y002498D01*
X007489Y002557D01*
X007494Y002566D01*
G37*
G36*
X007499Y002575D02*
X007602Y002516D01*
X007597Y002507D01*
X007494Y002566D01*
X007499Y002575D01*
G37*
G36*
X007504Y002583D02*
X007607Y002524D01*
X007602Y002515D01*
X007499Y002574D01*
X007504Y002583D01*
G37*
G36*
X007509Y002592D02*
X007612Y002533D01*
X007607Y002524D01*
X007504Y002583D01*
X007509Y002592D01*
G37*
G36*
X007514Y002601D02*
X007617Y002542D01*
X007612Y002533D01*
X007509Y002592D01*
X007514Y002601D01*
G37*
G36*
X007519Y002609D02*
X007622Y002550D01*
X007617Y002541D01*
X007514Y002600D01*
X007519Y002609D01*
G37*
G36*
X007524Y002618D02*
X007627Y002559D01*
X007622Y002550D01*
X007519Y002609D01*
X007524Y002618D01*
G37*
G36*
X007529Y002627D02*
X007632Y002568D01*
X007627Y002559D01*
X007524Y002618D01*
X007529Y002627D01*
G37*
G36*
X007534Y002635D02*
X007637Y002576D01*
X007632Y002567D01*
X007529Y002626D01*
X007534Y002635D01*
G37*
G36*
X007539Y002644D02*
X007642Y002585D01*
X007637Y002576D01*
X007534Y002635D01*
X007539Y002644D01*
G37*
G36*
X007544Y002653D02*
X007647Y002594D01*
X007642Y002585D01*
X007539Y002644D01*
X007544Y002653D01*
G37*
G36*
X007549Y002661D02*
X007652Y002602D01*
X007647Y002593D01*
X007544Y002652D01*
X007549Y002661D01*
G37*
G36*
X007554Y002670D02*
X007657Y002611D01*
X007652Y002602D01*
X007549Y002661D01*
X007554Y002670D01*
G37*
G36*
X007559Y002679D02*
X007662Y002620D01*
X007657Y002611D01*
X007554Y002670D01*
X007559Y002679D01*
G37*
G36*
X007564Y002687D02*
X007667Y002628D01*
X007662Y002619D01*
X007559Y002678D01*
X007564Y002687D01*
G37*
G36*
X007569Y002696D02*
X007672Y002637D01*
X007667Y002628D01*
X007564Y002687D01*
X007569Y002696D01*
G37*
G36*
X007574Y002705D02*
X007677Y002646D01*
X007672Y002637D01*
X007569Y002696D01*
X007574Y002705D01*
G37*
G36*
X007579Y002713D02*
X007682Y002654D01*
X007677Y002645D01*
X007574Y002704D01*
X007579Y002713D01*
G37*
G36*
X007584Y002722D02*
X007687Y002663D01*
X007682Y002654D01*
X007579Y002713D01*
X007584Y002722D01*
G37*
G36*
X007589Y002731D02*
X007692Y002672D01*
X007687Y002663D01*
X007584Y002722D01*
X007589Y002731D01*
G37*
G36*
X007594Y002739D02*
X007697Y002680D01*
X007692Y002671D01*
X007589Y002730D01*
X007594Y002739D01*
G37*
G36*
X007599Y002748D02*
X007702Y002689D01*
X007697Y002680D01*
X007594Y002739D01*
X007599Y002748D01*
G37*
G36*
X007604Y002757D02*
X007707Y002698D01*
X007702Y002689D01*
X007599Y002748D01*
X007604Y002757D01*
G37*
G36*
X007609Y002765D02*
X007712Y002706D01*
X007707Y002697D01*
X007604Y002756D01*
X007609Y002765D01*
G37*
G36*
X007614Y002774D02*
X007717Y002715D01*
X007712Y002706D01*
X007609Y002765D01*
X007614Y002774D01*
G37*
G36*
X007619Y002783D02*
X007722Y002724D01*
X007717Y002715D01*
X007614Y002774D01*
X007619Y002783D01*
G37*
G36*
X007624Y002791D02*
X007727Y002732D01*
X007722Y002723D01*
X007619Y002782D01*
X007624Y002791D01*
G37*
G36*
X007629Y002800D02*
X007732Y002741D01*
X007727Y002732D01*
X007624Y002791D01*
X007629Y002800D01*
G37*
G36*
X007634Y002809D02*
X007737Y002750D01*
X007732Y002741D01*
X007629Y002800D01*
X007634Y002809D01*
G37*
G36*
X007639Y002817D02*
X007742Y002758D01*
X007737Y002749D01*
X007634Y002808D01*
X007639Y002817D01*
G37*
D14*
G36*
X006994Y003200D02*
X008959Y002066D01*
X008954Y002058D01*
X006989Y003192D01*
X006994Y003200D01*
G37*
G36*
X006999Y003209D02*
X008964Y002075D01*
X008959Y002067D01*
X006994Y003201D01*
X006999Y003209D01*
G37*
G36*
X007004Y003218D02*
X008969Y002084D01*
X008964Y002076D01*
X006999Y003210D01*
X007004Y003218D01*
G37*
G36*
X007009Y003226D02*
X008974Y002092D01*
X008969Y002084D01*
X007004Y003218D01*
X007009Y003226D01*
G37*
G36*
X007014Y003235D02*
X008979Y002101D01*
X008974Y002093D01*
X007009Y003227D01*
X007014Y003235D01*
G37*
G36*
X007019Y003244D02*
X008984Y002110D01*
X008979Y002102D01*
X007014Y003236D01*
X007019Y003244D01*
G37*
G36*
X007024Y003252D02*
X008989Y002118D01*
X008984Y002110D01*
X007019Y003244D01*
X007024Y003252D01*
G37*
G36*
X007029Y003261D02*
X008994Y002127D01*
X008989Y002119D01*
X007024Y003253D01*
X007029Y003261D01*
G37*
G36*
X007034Y003270D02*
X008999Y002136D01*
X008994Y002128D01*
X007029Y003262D01*
X007034Y003270D01*
G37*
G36*
X007039Y003278D02*
X009004Y002144D01*
X008999Y002136D01*
X007034Y003270D01*
X007039Y003278D01*
G37*
G36*
X007044Y003287D02*
X009009Y002153D01*
X009004Y002145D01*
X007039Y003279D01*
X007044Y003287D01*
G37*
G36*
X007109Y003400D02*
X009074Y002266D01*
X009069Y002258D01*
X007104Y003392D01*
X007109Y003400D01*
G37*
G36*
X007114Y003408D02*
X009079Y002274D01*
X009074Y002266D01*
X007109Y003400D01*
X007114Y003408D01*
G37*
G36*
X007119Y003417D02*
X009084Y002283D01*
X009079Y002275D01*
X007114Y003409D01*
X007119Y003417D01*
G37*
G36*
X007124Y003426D02*
X009089Y002292D01*
X009084Y002284D01*
X007119Y003418D01*
X007124Y003426D01*
G37*
G36*
X007129Y003434D02*
X009094Y002300D01*
X009089Y002292D01*
X007124Y003426D01*
X007129Y003434D01*
G37*
G36*
X007134Y003443D02*
X009099Y002309D01*
X009094Y002301D01*
X007129Y003435D01*
X007134Y003443D01*
G37*
G36*
X007139Y003452D02*
X009104Y002318D01*
X009099Y002310D01*
X007134Y003444D01*
X007139Y003452D01*
G37*
G36*
X007144Y003460D02*
X009109Y002326D01*
X009104Y002318D01*
X007139Y003452D01*
X007144Y003460D01*
G37*
G36*
X007149Y003469D02*
X009114Y002335D01*
X009109Y002327D01*
X007144Y003461D01*
X007149Y003469D01*
G37*
G36*
X007544Y004153D02*
X009509Y003019D01*
X009504Y003011D01*
X007539Y004145D01*
X007544Y004153D01*
G37*
G36*
X007549Y004162D02*
X009514Y003028D01*
X009509Y003020D01*
X007544Y004154D01*
X007549Y004162D01*
G37*
G36*
X007554Y004170D02*
X009519Y003036D01*
X009514Y003028D01*
X007549Y004162D01*
X007554Y004170D01*
G37*
G36*
X007559Y004179D02*
X009524Y003045D01*
X009519Y003037D01*
X007554Y004171D01*
X007559Y004179D01*
G37*
G36*
X007564Y004188D02*
X009529Y003054D01*
X009524Y003046D01*
X007559Y004180D01*
X007564Y004188D01*
G37*
G36*
X007569Y004196D02*
X009534Y003062D01*
X009529Y003054D01*
X007564Y004188D01*
X007569Y004196D01*
G37*
G36*
X007574Y004205D02*
X009539Y003071D01*
X009534Y003063D01*
X007569Y004197D01*
X007574Y004205D01*
G37*
G36*
X007579Y004214D02*
X009544Y003080D01*
X009539Y003072D01*
X007574Y004206D01*
X007579Y004214D01*
G37*
G36*
X007969Y004889D02*
X009934Y003755D01*
X009929Y003747D01*
X007964Y004881D01*
X007969Y004889D01*
G37*
G36*
X007974Y004898D02*
X009939Y003764D01*
X009934Y003756D01*
X007969Y004890D01*
X007974Y004898D01*
G37*
G36*
X007979Y004906D02*
X009944Y003772D01*
X009939Y003764D01*
X007974Y004898D01*
X007979Y004906D01*
G37*
G36*
X007984Y004915D02*
X009949Y003781D01*
X009944Y003773D01*
X007979Y004907D01*
X007984Y004915D01*
G37*
G36*
X007989Y004924D02*
X009954Y003790D01*
X009949Y003782D01*
X007984Y004916D01*
X007989Y004924D01*
G37*
G36*
X007994Y004932D02*
X009959Y003798D01*
X009954Y003790D01*
X007989Y004924D01*
X007994Y004932D01*
G37*
G36*
X007999Y004941D02*
X009964Y003807D01*
X009959Y003799D01*
X007994Y004933D01*
X007999Y004941D01*
G37*
G36*
X008004Y004950D02*
X009969Y003816D01*
X009964Y003808D01*
X007999Y004942D01*
X008004Y004950D01*
G37*
G36*
X008074Y005071D02*
X010039Y003937D01*
X010034Y003929D01*
X008069Y005063D01*
X008074Y005071D01*
G37*
G36*
X008079Y005080D02*
X010044Y003946D01*
X010039Y003938D01*
X008074Y005072D01*
X008079Y005080D01*
G37*
G36*
X008084Y005088D02*
X010049Y003954D01*
X010044Y003946D01*
X008079Y005080D01*
X008084Y005088D01*
G37*
G36*
X008089Y005097D02*
X010054Y003963D01*
X010049Y003955D01*
X008084Y005089D01*
X008089Y005097D01*
G37*
G36*
X008094Y005106D02*
X010059Y003972D01*
X010054Y003964D01*
X008089Y005098D01*
X008094Y005106D01*
G37*
G36*
X008099Y005114D02*
X010064Y003980D01*
X010059Y003972D01*
X008094Y005106D01*
X008099Y005114D01*
G37*
G36*
X008104Y005123D02*
X010069Y003989D01*
X010064Y003981D01*
X008099Y005115D01*
X008104Y005123D01*
G37*
G36*
X008109Y005132D02*
X010074Y003998D01*
X010069Y003990D01*
X008104Y005124D01*
X008109Y005132D01*
G37*
G36*
X008114Y005140D02*
X010079Y004006D01*
X010074Y003998D01*
X008109Y005132D01*
X008114Y005140D01*
G37*
G36*
X008119Y005149D02*
X010084Y004015D01*
X010079Y004007D01*
X008114Y005141D01*
X008119Y005149D01*
G37*
G36*
X008124Y005158D02*
X010089Y004024D01*
X010084Y004016D01*
X008119Y005150D01*
X008124Y005158D01*
G37*
D15*
G36*
X007726Y005169D02*
X010289Y003690D01*
X010284Y003681D01*
X007721Y005160D01*
X007726Y005169D01*
G37*
G36*
X007721Y005160D02*
X010284Y003681D01*
X010279Y003672D01*
X007716Y005151D01*
X007721Y005160D01*
G37*
G36*
X007716Y005151D02*
X010279Y003672D01*
X010274Y003663D01*
X007711Y005142D01*
X007716Y005151D01*
G37*
G36*
X007711Y005143D02*
X010274Y003664D01*
X010269Y003655D01*
X007706Y005134D01*
X007711Y005143D01*
G37*
G36*
X007706Y005134D02*
X010269Y003655D01*
X010264Y003646D01*
X007701Y005125D01*
X007706Y005134D01*
G37*
G36*
X007661Y005056D02*
X010224Y003577D01*
X010219Y003568D01*
X007656Y005047D01*
X007661Y005056D01*
G37*
G36*
X007656Y005047D02*
X010219Y003568D01*
X010214Y003559D01*
X007651Y005038D01*
X007656Y005047D01*
G37*
G36*
X007651Y005039D02*
X010214Y003560D01*
X010209Y003551D01*
X007646Y005030D01*
X007651Y005039D01*
G37*
G36*
X007646Y005030D02*
X010209Y003551D01*
X010204Y003542D01*
X007641Y005021D01*
X007646Y005030D01*
G37*
G36*
X007641Y005021D02*
X010204Y003542D01*
X010199Y003533D01*
X007636Y005012D01*
X007641Y005021D01*
G37*
G36*
X007636Y005013D02*
X010199Y003534D01*
X010194Y003525D01*
X007631Y005004D01*
X007636Y005013D01*
G37*
G36*
X007631Y005004D02*
X010194Y003525D01*
X010189Y003516D01*
X007626Y004995D01*
X007631Y005004D01*
G37*
G36*
X007336Y004493D02*
X009899Y003014D01*
X009894Y003005D01*
X007331Y004484D01*
X007336Y004493D01*
G37*
G36*
X007331Y004484D02*
X009894Y003005D01*
X009889Y002996D01*
X007326Y004475D01*
X007331Y004484D01*
G37*
G36*
X007326Y004476D02*
X009889Y002997D01*
X009884Y002988D01*
X007321Y004467D01*
X007326Y004476D01*
G37*
G36*
X007321Y004467D02*
X009884Y002988D01*
X009879Y002979D01*
X007316Y004458D01*
X007321Y004467D01*
G37*
G36*
X007316Y004458D02*
X009879Y002979D01*
X009874Y002970D01*
X007311Y004449D01*
X007316Y004458D01*
G37*
G36*
X007311Y004450D02*
X009874Y002971D01*
X009869Y002962D01*
X007306Y004441D01*
X007311Y004450D01*
G37*
G36*
X007306Y004441D02*
X009869Y002962D01*
X009864Y002953D01*
X007301Y004432D01*
X007306Y004441D01*
G37*
G36*
X007301Y004432D02*
X009864Y002953D01*
X009859Y002944D01*
X007296Y004423D01*
X007301Y004432D01*
G37*
G36*
X007296Y004424D02*
X009859Y002945D01*
X009854Y002936D01*
X007291Y004415D01*
X007296Y004424D01*
G37*
G36*
X007291Y004415D02*
X009854Y002936D01*
X009849Y002927D01*
X007286Y004406D01*
X007291Y004415D01*
G37*
G36*
X007286Y004407D02*
X009849Y002928D01*
X009844Y002919D01*
X007281Y004398D01*
X007286Y004407D01*
G37*
G36*
X007281Y004398D02*
X009844Y002919D01*
X009839Y002910D01*
X007276Y004389D01*
X007281Y004398D01*
G37*
G36*
X006876Y003696D02*
X009439Y002217D01*
X009434Y002208D01*
X006871Y003687D01*
X006876Y003696D01*
G37*
G36*
X006871Y003688D02*
X009434Y002209D01*
X009429Y002200D01*
X006866Y003679D01*
X006871Y003688D01*
G37*
G36*
X006866Y003679D02*
X009429Y002200D01*
X009424Y002191D01*
X006861Y003670D01*
X006866Y003679D01*
G37*
G36*
X006861Y003670D02*
X009424Y002191D01*
X009419Y002182D01*
X006856Y003661D01*
X006861Y003670D01*
G37*
G36*
X006856Y003662D02*
X009419Y002183D01*
X009414Y002174D01*
X006851Y003653D01*
X006856Y003662D01*
G37*
G36*
X006851Y003653D02*
X009414Y002174D01*
X009409Y002165D01*
X006846Y003644D01*
X006851Y003653D01*
G37*
G36*
X006801Y003566D02*
X009364Y002087D01*
X009359Y002078D01*
X006796Y003557D01*
X006801Y003566D01*
G37*
G36*
X006796Y003558D02*
X009359Y002079D01*
X009354Y002070D01*
X006791Y003549D01*
X006796Y003558D01*
G37*
G36*
X006791Y003549D02*
X009354Y002070D01*
X009349Y002061D01*
X006786Y003540D01*
X006791Y003549D01*
G37*
G36*
X006786Y003540D02*
X009349Y002061D01*
X009344Y002052D01*
X006781Y003531D01*
X006786Y003540D01*
G37*
G36*
X006781Y003532D02*
X009344Y002053D01*
X009339Y002044D01*
X006776Y003523D01*
X006781Y003532D01*
G37*
G36*
X006776Y003523D02*
X009339Y002044D01*
X009334Y002035D01*
X006771Y003514D01*
X006776Y003523D01*
G37*
G36*
X006771Y003514D02*
X009334Y002035D01*
X009329Y002026D01*
X006766Y003505D01*
X006771Y003514D01*
G37*
G36*
X006766Y003506D02*
X009329Y002027D01*
X009324Y002018D01*
X006761Y003497D01*
X006766Y003506D01*
G37*
G36*
X006761Y003497D02*
X009324Y002018D01*
X009319Y002009D01*
X006756Y003488D01*
X006761Y003497D01*
G37*
G36*
X006756Y003489D02*
X009319Y002010D01*
X009314Y002001D01*
X006751Y003480D01*
X006756Y003489D01*
G37*
G36*
X006751Y003480D02*
X009314Y002001D01*
X009309Y001992D01*
X006746Y003471D01*
X006751Y003480D01*
G37*
G36*
X006746Y003471D02*
X009309Y001992D01*
X009304Y001983D01*
X006741Y003462D01*
X006746Y003471D01*
G37*
G36*
X007731Y005177D02*
X010294Y003698D01*
X010289Y003689D01*
X007726Y005168D01*
X007731Y005177D01*
G37*
G36*
X007736Y005186D02*
X010299Y003707D01*
X010294Y003698D01*
X007731Y005177D01*
X007736Y005186D01*
G37*
G36*
X007741Y005195D02*
X010304Y003716D01*
X010299Y003707D01*
X007736Y005186D01*
X007741Y005195D01*
G37*
G36*
X007746Y005203D02*
X010309Y003724D01*
X010304Y003715D01*
X007741Y005194D01*
X007746Y005203D01*
G37*
G36*
X007751Y005212D02*
X010314Y003733D01*
X010309Y003724D01*
X007746Y005203D01*
X007751Y005212D01*
G37*
G36*
X007756Y005221D02*
X010319Y003742D01*
X010314Y003733D01*
X007751Y005212D01*
X007756Y005221D01*
G37*
G36*
X007761Y005229D02*
X010324Y003750D01*
X010319Y003741D01*
X007756Y005220D01*
X007761Y005229D01*
G37*
G36*
X007766Y005238D02*
X010329Y003759D01*
X010324Y003750D01*
X007761Y005229D01*
X007766Y005238D01*
G37*
D16*
G36*
X007426Y004648D02*
X008143Y004234D01*
X008138Y004226D01*
X007421Y004640D01*
X007426Y004648D01*
G37*
G36*
X009471Y003930D02*
X010188Y003516D01*
X010183Y003508D01*
X009466Y003922D01*
X009471Y003930D01*
G37*
D17*
G36*
X008492Y004495D02*
X009453Y003941D01*
X009448Y003933D01*
X008487Y004487D01*
X008492Y004495D01*
G37*
G36*
X007684Y004396D02*
X008645Y003842D01*
X008640Y003834D01*
X007679Y004388D01*
X007684Y004396D01*
G37*
G36*
X007679Y004387D02*
X008640Y003833D01*
X008635Y003825D01*
X007674Y004379D01*
X007679Y004387D01*
G37*
G36*
X007674Y004378D02*
X008635Y003824D01*
X008630Y003816D01*
X007669Y004370D01*
X007674Y004378D01*
G37*
D18*
G36*
X007526Y004822D02*
X008331Y004358D01*
X008326Y004350D01*
X007521Y004814D01*
X007526Y004822D01*
G37*
G36*
X007531Y004830D02*
X008336Y004366D01*
X008331Y004358D01*
X007526Y004822D01*
X007531Y004830D01*
G37*
G36*
X007536Y004839D02*
X008341Y004375D01*
X008336Y004367D01*
X007531Y004831D01*
X007536Y004839D01*
G37*
G36*
X007541Y004848D02*
X008346Y004384D01*
X008341Y004376D01*
X007536Y004840D01*
X007541Y004848D01*
G37*
G36*
X007626Y004995D02*
X008431Y004531D01*
X008426Y004523D01*
X007621Y004987D01*
X007626Y004995D01*
G37*
G36*
X008844Y003045D02*
X009649Y002581D01*
X009644Y002573D01*
X008839Y003037D01*
X008844Y003045D01*
G37*
G36*
X008659Y002724D02*
X009464Y002260D01*
X009459Y002252D01*
X008654Y002716D01*
X008659Y002724D01*
G37*
G36*
X008654Y002715D02*
X009459Y002251D01*
X009454Y002243D01*
X008649Y002707D01*
X008654Y002715D01*
G37*
D19*
G36*
X009298Y003510D02*
X009963Y003126D01*
X009958Y003118D01*
X009293Y003502D01*
X009298Y003510D01*
G37*
G36*
X009518Y003891D02*
X010183Y003507D01*
X010178Y003499D01*
X009513Y003883D01*
X009518Y003891D01*
G37*
G36*
X007459Y004006D02*
X008124Y003622D01*
X008119Y003614D01*
X007454Y003998D01*
X007459Y004006D01*
G37*
D20*
G36*
X008714Y003720D02*
X008999Y003556D01*
X008994Y003548D01*
X008709Y003712D01*
X008714Y003720D01*
G37*
G36*
X009119Y004121D02*
X009404Y003957D01*
X009399Y003949D01*
X009114Y004113D01*
X009119Y004121D01*
G37*
G36*
X009569Y003781D02*
X009854Y003617D01*
X009849Y003609D01*
X009564Y003773D01*
X009569Y003781D01*
G37*
G36*
X009459Y003590D02*
X009744Y003426D01*
X009739Y003418D01*
X009454Y003582D01*
X009459Y003590D01*
G37*
G36*
X009454Y003581D02*
X009739Y003417D01*
X009734Y003409D01*
X009449Y003573D01*
X009454Y003581D01*
G37*
D21*
G36*
X008807Y004301D02*
X009040Y004167D01*
X009035Y004159D01*
X008802Y004293D01*
X008807Y004301D01*
G37*
G36*
X008407Y003308D02*
X008640Y003174D01*
X008635Y003166D01*
X008402Y003300D01*
X008407Y003308D01*
G37*
G36*
X008402Y003300D02*
X008635Y003166D01*
X008630Y003158D01*
X008397Y003292D01*
X008402Y003300D01*
G37*
G36*
X008284Y003195D02*
X008517Y003061D01*
X008512Y003053D01*
X008279Y003187D01*
X008284Y003195D01*
G37*
G36*
X008260Y003174D02*
X008493Y003040D01*
X008488Y003032D01*
X008255Y003166D01*
X008260Y003174D01*
G37*
G36*
X008237Y003153D02*
X008470Y003019D01*
X008465Y003011D01*
X008232Y003145D01*
X008237Y003153D01*
G37*
G36*
X008213Y003132D02*
X008446Y002998D01*
X008441Y002990D01*
X008208Y003124D01*
X008213Y003132D01*
G37*
G36*
X008184Y003102D02*
X008417Y002968D01*
X008412Y002960D01*
X008179Y003094D01*
X008184Y003102D01*
G37*
G36*
X008179Y003093D02*
X008412Y002959D01*
X008407Y002951D01*
X008174Y003085D01*
X008179Y003093D01*
G37*
G36*
X008203Y003114D02*
X008436Y002980D01*
X008431Y002972D01*
X008198Y003106D01*
X008203Y003114D01*
G37*
G36*
X008208Y003123D02*
X008441Y002989D01*
X008436Y002981D01*
X008203Y003115D01*
X008208Y003123D01*
G37*
G36*
X008227Y003135D02*
X008460Y003001D01*
X008455Y002993D01*
X008222Y003127D01*
X008227Y003135D01*
G37*
G36*
X008232Y003144D02*
X008465Y003010D01*
X008460Y003002D01*
X008227Y003136D01*
X008232Y003144D01*
G37*
G36*
X008255Y003165D02*
X008488Y003031D01*
X008483Y003023D01*
X008250Y003157D01*
X008255Y003165D01*
G37*
D22*
G36*
X008330Y003214D02*
X008545Y003090D01*
X008540Y003082D01*
X008325Y003206D01*
X008330Y003214D01*
G37*
G36*
X008406Y003286D02*
X008621Y003162D01*
X008616Y003154D01*
X008401Y003278D01*
X008406Y003286D01*
G37*
G36*
X008505Y004476D02*
X008720Y004352D01*
X008715Y004344D01*
X008500Y004468D01*
X008505Y004476D01*
G37*
D23*
G36*
X007621Y004987D02*
X008226Y004638D01*
X008221Y004629D01*
X007616Y004978D01*
X007621Y004987D01*
G37*
G36*
X008724Y003057D02*
X009329Y002708D01*
X009324Y002699D01*
X008719Y003048D01*
X008724Y003057D01*
G37*
G36*
X008719Y003048D02*
X009324Y002699D01*
X009319Y002690D01*
X008714Y003039D01*
X008719Y003048D01*
G37*
G36*
X008714Y003039D02*
X009319Y002690D01*
X009314Y002681D01*
X008709Y003030D01*
X008714Y003039D01*
G37*
G36*
X009403Y003554D02*
X010008Y003205D01*
X010003Y003196D01*
X009398Y003545D01*
X009403Y003554D01*
G37*
D24*
G36*
X009339Y003522D02*
X009978Y003153D01*
X009973Y003144D01*
X009334Y003513D01*
X009339Y003522D01*
G37*
G36*
X009539Y003868D02*
X010178Y003499D01*
X010173Y003490D01*
X009534Y003859D01*
X009539Y003868D01*
G37*
G36*
X007444Y003980D02*
X008083Y003611D01*
X008078Y003602D01*
X007439Y003971D01*
X007444Y003980D01*
G37*
G36*
X007439Y003972D02*
X008078Y003603D01*
X008073Y003594D01*
X007434Y003963D01*
X007439Y003972D01*
G37*
G36*
X007434Y003963D02*
X008073Y003594D01*
X008068Y003585D01*
X007429Y003954D01*
X007434Y003963D01*
G37*
D25*
G36*
X008166Y003090D02*
X008407Y002951D01*
X008402Y002942D01*
X008161Y003081D01*
X008166Y003090D01*
G37*
G36*
X008142Y003069D02*
X008383Y002930D01*
X008378Y002921D01*
X008137Y003060D01*
X008142Y003069D01*
G37*
G36*
X008161Y003082D02*
X008402Y002943D01*
X008397Y002934D01*
X008156Y003073D01*
X008161Y003082D01*
G37*
G36*
X008190Y003111D02*
X008431Y002972D01*
X008426Y002963D01*
X008185Y003102D01*
X008190Y003111D01*
G37*
G36*
X009132Y004103D02*
X009373Y003964D01*
X009368Y003955D01*
X009127Y004094D01*
X009132Y004103D01*
G37*
D26*
G36*
X008811Y004288D02*
X009018Y004169D01*
X009013Y004160D01*
X008806Y004279D01*
X008811Y004288D01*
G37*
G36*
X008764Y003726D02*
X008971Y003607D01*
X008966Y003598D01*
X008759Y003717D01*
X008764Y003726D01*
G37*
G36*
X008410Y003273D02*
X008617Y003154D01*
X008612Y003145D01*
X008405Y003264D01*
X008410Y003273D01*
G37*
G36*
X008344Y003218D02*
X008551Y003099D01*
X008546Y003090D01*
X008339Y003209D01*
X008344Y003218D01*
G37*
G36*
X008357Y003222D02*
X008564Y003103D01*
X008559Y003094D01*
X008352Y003213D01*
X008357Y003222D01*
G37*
D27*
G36*
X007809Y003192D02*
X007990Y003088D01*
X007985Y003080D01*
X007804Y003184D01*
X007809Y003192D01*
G37*
G36*
X008791Y003733D02*
X008972Y003629D01*
X008967Y003621D01*
X008786Y003725D01*
X008791Y003733D01*
G37*
G36*
X008990Y003838D02*
X009171Y003734D01*
X009166Y003726D01*
X008985Y003830D01*
X008990Y003838D01*
G37*
G36*
X009204Y003888D02*
X009385Y003784D01*
X009380Y003776D01*
X009199Y003880D01*
X009204Y003888D01*
G37*
G36*
X008517Y004458D02*
X008698Y004354D01*
X008693Y004346D01*
X008512Y004450D01*
X008517Y004458D01*
G37*
D28*
G36*
X008468Y004313D02*
X008553Y004264D01*
X008548Y004255D01*
X008463Y004304D01*
X008468Y004313D01*
G37*
G36*
X008342Y004236D02*
X008427Y004187D01*
X008422Y004178D01*
X008337Y004227D01*
X008342Y004236D01*
G37*
G36*
X008270Y004450D02*
X008355Y004401D01*
X008350Y004392D01*
X008265Y004441D01*
X008270Y004450D01*
G37*
G36*
X008292Y004588D02*
X008377Y004539D01*
X008372Y004530D01*
X008287Y004579D01*
X008292Y004588D01*
G37*
G36*
X008820Y004202D02*
X008905Y004153D01*
X008900Y004144D01*
X008815Y004193D01*
X008820Y004202D01*
G37*
G36*
X008897Y004077D02*
X008982Y004028D01*
X008977Y004019D01*
X008892Y004068D01*
X008897Y004077D01*
G37*
G36*
X008892Y004068D02*
X008977Y004019D01*
X008972Y004010D01*
X008887Y004059D01*
X008892Y004068D01*
G37*
G36*
X009033Y003872D02*
X009118Y003823D01*
X009113Y003814D01*
X009028Y003863D01*
X009033Y003872D01*
G37*
G36*
X009051Y003884D02*
X009136Y003835D01*
X009131Y003826D01*
X009046Y003875D01*
X009051Y003884D01*
G37*
G36*
X009065Y003888D02*
X009150Y003839D01*
X009145Y003830D01*
X009060Y003879D01*
X009065Y003888D01*
G37*
G36*
X009302Y003878D02*
X009387Y003829D01*
X009382Y003820D01*
X009297Y003869D01*
X009302Y003878D01*
G37*
G36*
X009155Y003663D02*
X009240Y003614D01*
X009235Y003605D01*
X009150Y003654D01*
X009155Y003663D01*
G37*
D29*
G36*
X007616Y004978D02*
X008203Y004639D01*
X008198Y004630D01*
X007611Y004969D01*
X007616Y004978D01*
G37*
D30*
G36*
X009357Y003533D02*
X009988Y003169D01*
X009983Y003161D01*
X009352Y003525D01*
X009357Y003533D01*
G37*
G36*
X009352Y003525D02*
X009983Y003161D01*
X009978Y003153D01*
X009347Y003517D01*
X009352Y003525D01*
G37*
G36*
X009542Y003854D02*
X010173Y003490D01*
X010168Y003482D01*
X009537Y003846D01*
X009542Y003854D01*
G37*
D31*
G36*
X009143Y004084D02*
X009342Y003970D01*
X009337Y003962D01*
X009138Y004076D01*
X009143Y004084D01*
G37*
G36*
X008777Y003730D02*
X008976Y003616D01*
X008971Y003608D01*
X008772Y003722D01*
X008777Y003730D01*
G37*
G36*
X008491Y004033D02*
X008690Y003919D01*
X008685Y003911D01*
X008486Y004025D01*
X008491Y004033D01*
G37*
G36*
X008210Y004207D02*
X008409Y004093D01*
X008404Y004085D01*
X008205Y004199D01*
X008210Y004207D01*
G37*
G36*
X008236Y003592D02*
X008435Y003478D01*
X008430Y003470D01*
X008231Y003584D01*
X008236Y003592D01*
G37*
G36*
X008394Y003246D02*
X008593Y003132D01*
X008588Y003124D01*
X008389Y003238D01*
X008394Y003246D01*
G37*
G36*
X008371Y003225D02*
X008570Y003111D01*
X008565Y003103D01*
X008366Y003217D01*
X008371Y003225D01*
G37*
D32*
G36*
X008240Y003578D02*
X008403Y003484D01*
X008398Y003476D01*
X008235Y003570D01*
X008240Y003578D01*
G37*
G36*
X007823Y003195D02*
X007986Y003101D01*
X007981Y003093D01*
X007818Y003187D01*
X007823Y003195D01*
G37*
G36*
X008805Y003737D02*
X008968Y003643D01*
X008963Y003635D01*
X008800Y003729D01*
X008805Y003737D01*
G37*
G36*
X009148Y004070D02*
X009311Y003976D01*
X009306Y003968D01*
X009143Y004062D01*
X009148Y004070D01*
G37*
G36*
X009226Y003886D02*
X009389Y003792D01*
X009384Y003784D01*
X009221Y003878D01*
X009226Y003886D01*
G37*
G36*
X008824Y004269D02*
X008987Y004175D01*
X008982Y004167D01*
X008819Y004261D01*
X008824Y004269D01*
G37*
D33*
G36*
X008520Y004444D02*
X008675Y004355D01*
X008670Y004346D01*
X008515Y004435D01*
X008520Y004444D01*
G37*
G36*
X008246Y004210D02*
X008401Y004121D01*
X008396Y004112D01*
X008241Y004201D01*
X008246Y004210D01*
G37*
G36*
X008558Y004030D02*
X008713Y003941D01*
X008708Y003932D01*
X008553Y004021D01*
X008558Y004030D01*
G37*
G36*
X008818Y003741D02*
X008973Y003652D01*
X008968Y003643D01*
X008813Y003732D01*
X008818Y003741D01*
G37*
G36*
X008985Y003830D02*
X009140Y003741D01*
X009135Y003732D01*
X008980Y003821D01*
X008985Y003830D01*
G37*
G36*
X008490Y003272D02*
X008645Y003183D01*
X008640Y003174D01*
X008485Y003263D01*
X008490Y003272D01*
G37*
D34*
G36*
X008495Y003419D02*
X008554Y003385D01*
X008549Y003377D01*
X008490Y003411D01*
X008495Y003419D01*
G37*
G36*
X009107Y003620D02*
X009166Y003586D01*
X009161Y003578D01*
X009102Y003612D01*
X009107Y003620D01*
G37*
G36*
X009144Y004003D02*
X009203Y003969D01*
X009198Y003961D01*
X009139Y003995D01*
X009144Y004003D01*
G37*
G36*
X008933Y004079D02*
X008992Y004045D01*
X008987Y004037D01*
X008928Y004071D01*
X008933Y004079D01*
G37*
G36*
X008808Y004162D02*
X008867Y004128D01*
X008862Y004120D01*
X008803Y004154D01*
X008808Y004162D01*
G37*
G36*
X008795Y004159D02*
X008854Y004125D01*
X008849Y004117D01*
X008790Y004151D01*
X008795Y004159D01*
G37*
G36*
X008790Y004150D02*
X008849Y004116D01*
X008844Y004108D01*
X008785Y004142D01*
X008790Y004150D01*
G37*
G36*
X008785Y004141D02*
X008844Y004107D01*
X008839Y004099D01*
X008780Y004133D01*
X008785Y004141D01*
G37*
G36*
X008780Y004133D02*
X008839Y004099D01*
X008834Y004091D01*
X008775Y004125D01*
X008780Y004133D01*
G37*
G36*
X008775Y004124D02*
X008834Y004090D01*
X008829Y004082D01*
X008770Y004116D01*
X008775Y004124D01*
G37*
G36*
X008813Y004171D02*
X008872Y004137D01*
X008867Y004129D01*
X008808Y004163D01*
X008813Y004171D01*
G37*
G36*
X008421Y004271D02*
X008480Y004237D01*
X008475Y004229D01*
X008416Y004263D01*
X008421Y004271D01*
G37*
G36*
X008407Y004267D02*
X008466Y004233D01*
X008461Y004225D01*
X008402Y004259D01*
X008407Y004267D01*
G37*
G36*
X008402Y004258D02*
X008461Y004224D01*
X008456Y004216D01*
X008397Y004250D01*
X008402Y004258D01*
G37*
G36*
X008295Y004574D02*
X008354Y004540D01*
X008349Y004532D01*
X008290Y004566D01*
X008295Y004574D01*
G37*
D35*
G36*
X007611Y004969D02*
X008182Y004640D01*
X008177Y004631D01*
X007606Y004960D01*
X007611Y004969D01*
G37*
G36*
X007606Y004961D02*
X008177Y004632D01*
X008172Y004623D01*
X007601Y004952D01*
X007606Y004961D01*
G37*
D36*
G36*
X008700Y003035D02*
X009313Y002681D01*
X009308Y002673D01*
X008695Y003027D01*
X008700Y003035D01*
G37*
G36*
X008695Y003027D02*
X009308Y002673D01*
X009303Y002665D01*
X008690Y003019D01*
X008695Y003027D01*
G37*
G36*
X008690Y003018D02*
X009303Y002664D01*
X009298Y002656D01*
X008685Y003010D01*
X008690Y003018D01*
G37*
G36*
X008685Y003009D02*
X009298Y002655D01*
X009293Y002647D01*
X008680Y003001D01*
X008685Y003009D01*
G37*
G36*
X008680Y003001D02*
X009293Y002647D01*
X009288Y002639D01*
X008675Y002993D01*
X008680Y003001D01*
G37*
G36*
X008675Y002992D02*
X009288Y002638D01*
X009283Y002630D01*
X008670Y002984D01*
X008675Y002992D01*
G37*
G36*
X009385Y003541D02*
X009998Y003187D01*
X009993Y003179D01*
X009380Y003533D01*
X009385Y003541D01*
G37*
G36*
X009390Y003549D02*
X010003Y003195D01*
X009998Y003187D01*
X009385Y003541D01*
X009390Y003549D01*
G37*
G36*
X009555Y003835D02*
X010168Y003481D01*
X010163Y003473D01*
X009550Y003827D01*
X009555Y003835D01*
G37*
D37*
G36*
X008971Y003825D02*
X009118Y003741D01*
X009113Y003733D01*
X008966Y003817D01*
X008971Y003825D01*
G37*
G36*
X008832Y003744D02*
X008979Y003660D01*
X008974Y003652D01*
X008827Y003736D01*
X008832Y003744D01*
G37*
G36*
X008827Y004255D02*
X008974Y004171D01*
X008969Y004163D01*
X008822Y004247D01*
X008827Y004255D01*
G37*
G36*
X008260Y004213D02*
X008407Y004129D01*
X008402Y004121D01*
X008255Y004205D01*
X008260Y004213D01*
G37*
G36*
X007836Y003199D02*
X007983Y003115D01*
X007978Y003107D01*
X007831Y003191D01*
X007836Y003199D01*
G37*
D38*
G36*
X007850Y003203D02*
X007987Y003124D01*
X007982Y003115D01*
X007845Y003194D01*
X007850Y003203D01*
G37*
G36*
X007855Y003212D02*
X007992Y003133D01*
X007987Y003124D01*
X007850Y003203D01*
X007855Y003212D01*
G37*
G36*
X008244Y003565D02*
X008381Y003486D01*
X008376Y003477D01*
X008239Y003556D01*
X008244Y003565D01*
G37*
G36*
X008581Y004029D02*
X008718Y003950D01*
X008713Y003941D01*
X008576Y004020D01*
X008581Y004029D01*
G37*
G36*
X008594Y004032D02*
X008731Y003953D01*
X008726Y003944D01*
X008589Y004023D01*
X008594Y004032D01*
G37*
G36*
X008851Y003757D02*
X008988Y003678D01*
X008983Y003669D01*
X008846Y003748D01*
X008851Y003757D01*
G37*
G36*
X008846Y003748D02*
X008983Y003669D01*
X008978Y003660D01*
X008841Y003739D01*
X008846Y003748D01*
G37*
G36*
X008967Y003817D02*
X009104Y003738D01*
X009099Y003729D01*
X008962Y003808D01*
X008967Y003817D01*
G37*
G36*
X009151Y004057D02*
X009288Y003978D01*
X009283Y003969D01*
X009146Y004048D01*
X009151Y004057D01*
G37*
G36*
X009249Y003885D02*
X009386Y003806D01*
X009381Y003797D01*
X009244Y003876D01*
X009249Y003885D01*
G37*
G36*
X008516Y004436D02*
X008653Y004357D01*
X008648Y004348D01*
X008511Y004427D01*
X008516Y004436D01*
G37*
D39*
G36*
X008516Y004377D02*
X008567Y004348D01*
X008562Y004339D01*
X008511Y004368D01*
X008516Y004377D01*
G37*
G36*
X008627Y004290D02*
X008678Y004261D01*
X008673Y004252D01*
X008622Y004281D01*
X008627Y004290D01*
G37*
G36*
X008311Y004461D02*
X008362Y004432D01*
X008357Y004423D01*
X008306Y004452D01*
X008311Y004461D01*
G37*
G36*
X008276Y004562D02*
X008327Y004533D01*
X008322Y004524D01*
X008271Y004553D01*
X008276Y004562D01*
G37*
G36*
X008290Y004566D02*
X008341Y004537D01*
X008336Y004528D01*
X008285Y004557D01*
X008290Y004566D01*
G37*
G36*
X008202Y004513D02*
X008253Y004484D01*
X008248Y004475D01*
X008197Y004504D01*
X008202Y004513D01*
G37*
G36*
X008851Y004057D02*
X008902Y004028D01*
X008897Y004019D01*
X008846Y004048D01*
X008851Y004057D01*
G37*
G36*
X008865Y004061D02*
X008916Y004032D01*
X008911Y004023D01*
X008860Y004052D01*
X008865Y004061D01*
G37*
G36*
X008947Y004083D02*
X008998Y004054D01*
X008993Y004045D01*
X008942Y004074D01*
X008947Y004083D01*
G37*
G36*
X009133Y003986D02*
X009184Y003957D01*
X009179Y003948D01*
X009128Y003977D01*
X009133Y003986D01*
G37*
G36*
X009138Y003995D02*
X009189Y003966D01*
X009184Y003957D01*
X009133Y003986D01*
X009138Y003995D01*
G37*
G36*
X009154Y003882D02*
X009205Y003853D01*
X009200Y003844D01*
X009149Y003873D01*
X009154Y003882D01*
G37*
G36*
X009102Y003612D02*
X009153Y003583D01*
X009148Y003574D01*
X009097Y003603D01*
X009102Y003612D01*
G37*
G36*
X008757Y003095D02*
X008808Y003066D01*
X008803Y003057D01*
X008752Y003086D01*
X008757Y003095D01*
G37*
G36*
X008752Y003086D02*
X008803Y003057D01*
X008798Y003048D01*
X008747Y003077D01*
X008752Y003086D01*
G37*
D40*
G36*
X009567Y003817D02*
X010164Y003473D01*
X010159Y003465D01*
X009562Y003809D01*
X009567Y003817D01*
G37*
D41*
G36*
X008953Y003813D02*
X009082Y003739D01*
X009077Y003731D01*
X008948Y003805D01*
X008953Y003813D01*
G37*
G36*
X008864Y003760D02*
X008993Y003686D01*
X008988Y003678D01*
X008859Y003752D01*
X008864Y003760D01*
G37*
G36*
X008621Y004039D02*
X008750Y003965D01*
X008745Y003957D01*
X008616Y004031D01*
X008621Y004039D01*
G37*
G36*
X008608Y004035D02*
X008737Y003961D01*
X008732Y003953D01*
X008603Y004027D01*
X008608Y004035D01*
G37*
G36*
X008737Y004099D02*
X008866Y004025D01*
X008861Y004017D01*
X008732Y004091D01*
X008737Y004099D01*
G37*
G36*
X008831Y004242D02*
X008960Y004168D01*
X008955Y004160D01*
X008826Y004234D01*
X008831Y004242D01*
G37*
G36*
X008238Y003556D02*
X008367Y003482D01*
X008362Y003474D01*
X008233Y003548D01*
X008238Y003556D01*
G37*
G36*
X008233Y003547D02*
X008362Y003473D01*
X008357Y003465D01*
X008228Y003539D01*
X008233Y003547D01*
G37*
G36*
X007892Y003236D02*
X008021Y003162D01*
X008016Y003154D01*
X007887Y003228D01*
X007892Y003236D01*
G37*
G36*
X007874Y003224D02*
X008003Y003150D01*
X007998Y003142D01*
X007869Y003216D01*
X007874Y003224D01*
G37*
G36*
X007869Y003215D02*
X007998Y003141D01*
X007993Y003133D01*
X007864Y003207D01*
X007869Y003215D01*
G37*
G36*
X008530Y003261D02*
X008659Y003187D01*
X008654Y003179D01*
X008525Y003253D01*
X008530Y003261D01*
G37*
D42*
G36*
X009492Y003606D02*
X010053Y003282D01*
X010048Y003274D01*
X009487Y003598D01*
X009492Y003606D01*
G37*
G36*
X009497Y003615D02*
X010058Y003291D01*
X010053Y003283D01*
X009492Y003607D01*
X009497Y003615D01*
G37*
G36*
X009502Y003623D02*
X010063Y003299D01*
X010058Y003291D01*
X009497Y003615D01*
X009502Y003623D01*
G37*
G36*
X009507Y003632D02*
X010068Y003308D01*
X010063Y003300D01*
X009502Y003624D01*
X009507Y003632D01*
G37*
G36*
X007601Y004952D02*
X008162Y004628D01*
X008157Y004620D01*
X007596Y004944D01*
X007601Y004952D01*
G37*
D43*
G36*
X008478Y003452D02*
X008781Y003278D01*
X008776Y003270D01*
X008473Y003444D01*
X008478Y003452D01*
G37*
G36*
X009003Y003841D02*
X009306Y003667D01*
X009301Y003659D01*
X008998Y003833D01*
X009003Y003841D01*
G37*
G36*
X009421Y003565D02*
X009724Y003391D01*
X009719Y003383D01*
X009416Y003557D01*
X009421Y003565D01*
G37*
G36*
X009416Y003557D02*
X009719Y003383D01*
X009714Y003375D01*
X009411Y003549D01*
X009416Y003557D01*
G37*
G36*
X009561Y003808D02*
X009864Y003634D01*
X009859Y003626D01*
X009556Y003800D01*
X009561Y003808D01*
G37*
D44*
G36*
X009270Y003884D02*
X009391Y003815D01*
X009386Y003806D01*
X009265Y003875D01*
X009270Y003884D01*
G37*
G36*
X009146Y004048D02*
X009267Y003979D01*
X009262Y003970D01*
X009141Y004039D01*
X009146Y004048D01*
G37*
G36*
X008825Y004233D02*
X008946Y004164D01*
X008941Y004155D01*
X008820Y004224D01*
X008825Y004233D01*
G37*
G36*
X008732Y004091D02*
X008853Y004022D01*
X008848Y004013D01*
X008727Y004082D01*
X008732Y004091D01*
G37*
G36*
X008699Y004075D02*
X008820Y004006D01*
X008815Y003997D01*
X008694Y004066D01*
X008699Y004075D01*
G37*
G36*
X008667Y004059D02*
X008788Y003990D01*
X008783Y003981D01*
X008662Y004050D01*
X008667Y004059D01*
G37*
G36*
X008635Y004043D02*
X008756Y003974D01*
X008751Y003965D01*
X008630Y004034D01*
X008635Y004043D01*
G37*
G36*
X008648Y004047D02*
X008769Y003978D01*
X008764Y003969D01*
X008643Y004038D01*
X008648Y004047D01*
G37*
G36*
X008713Y004079D02*
X008834Y004010D01*
X008829Y004001D01*
X008708Y004070D01*
X008713Y004079D01*
G37*
G36*
X008718Y004088D02*
X008839Y004019D01*
X008834Y004010D01*
X008713Y004079D01*
X008718Y004088D01*
G37*
G36*
X008282Y004212D02*
X008403Y004143D01*
X008398Y004134D01*
X008277Y004203D01*
X008282Y004212D01*
G37*
G36*
X008883Y003773D02*
X009004Y003704D01*
X008999Y003695D01*
X008878Y003764D01*
X008883Y003773D01*
G37*
G36*
X008878Y003764D02*
X008999Y003695D01*
X008994Y003686D01*
X008873Y003755D01*
X008878Y003764D01*
G37*
G36*
X008896Y003777D02*
X009017Y003708D01*
X009012Y003699D01*
X008891Y003768D01*
X008896Y003777D01*
G37*
G36*
X008915Y003789D02*
X009036Y003720D01*
X009031Y003711D01*
X008910Y003780D01*
X008915Y003789D01*
G37*
G36*
X008934Y003801D02*
X009055Y003732D01*
X009050Y003723D01*
X008929Y003792D01*
X008934Y003801D01*
G37*
G36*
X008947Y003805D02*
X009068Y003736D01*
X009063Y003727D01*
X008942Y003796D01*
X008947Y003805D01*
G37*
G36*
X008646Y003344D02*
X008767Y003275D01*
X008762Y003266D01*
X008641Y003335D01*
X008646Y003344D01*
G37*
G36*
X008228Y003539D02*
X008349Y003470D01*
X008344Y003461D01*
X008223Y003530D01*
X008228Y003539D01*
G37*
G36*
X008223Y003530D02*
X008344Y003461D01*
X008339Y003452D01*
X008218Y003521D01*
X008223Y003530D01*
G37*
G36*
X008199Y003509D02*
X008320Y003440D01*
X008315Y003431D01*
X008194Y003500D01*
X008199Y003509D01*
G37*
G36*
X008176Y003488D02*
X008297Y003419D01*
X008292Y003410D01*
X008171Y003479D01*
X008176Y003488D01*
G37*
G36*
X008171Y003480D02*
X008292Y003411D01*
X008287Y003402D01*
X008166Y003471D01*
X008171Y003480D01*
G37*
G36*
X008147Y003459D02*
X008268Y003390D01*
X008263Y003381D01*
X008142Y003450D01*
X008147Y003459D01*
G37*
G36*
X008029Y003354D02*
X008150Y003285D01*
X008145Y003276D01*
X008024Y003345D01*
X008029Y003354D01*
G37*
G36*
X008005Y003333D02*
X008126Y003264D01*
X008121Y003255D01*
X008000Y003324D01*
X008005Y003333D01*
G37*
G36*
X007981Y003312D02*
X008102Y003243D01*
X008097Y003234D01*
X007976Y003303D01*
X007981Y003312D01*
G37*
G36*
X007958Y003291D02*
X008079Y003222D01*
X008074Y003213D01*
X007953Y003282D01*
X007958Y003291D01*
G37*
G36*
X007934Y003270D02*
X008055Y003201D01*
X008050Y003192D01*
X007929Y003261D01*
X007934Y003270D01*
G37*
G36*
X007911Y003249D02*
X008032Y003180D01*
X008027Y003171D01*
X007906Y003240D01*
X007911Y003249D01*
G37*
G36*
X007887Y003228D02*
X008008Y003159D01*
X008003Y003150D01*
X007882Y003219D01*
X007887Y003228D01*
G37*
G36*
X007906Y003240D02*
X008027Y003171D01*
X008022Y003162D01*
X007901Y003231D01*
X007906Y003240D01*
G37*
G36*
X007929Y003261D02*
X008050Y003192D01*
X008045Y003183D01*
X007924Y003252D01*
X007929Y003261D01*
G37*
G36*
X007953Y003282D02*
X008074Y003213D01*
X008069Y003204D01*
X007948Y003273D01*
X007953Y003282D01*
G37*
G36*
X007976Y003303D02*
X008097Y003234D01*
X008092Y003225D01*
X007971Y003294D01*
X007976Y003303D01*
G37*
G36*
X008000Y003324D02*
X008121Y003255D01*
X008116Y003246D01*
X007995Y003315D01*
X008000Y003324D01*
G37*
G36*
X008024Y003345D02*
X008145Y003276D01*
X008140Y003267D01*
X008019Y003336D01*
X008024Y003345D01*
G37*
D45*
G36*
X008491Y003433D02*
X008586Y003379D01*
X008581Y003371D01*
X008486Y003425D01*
X008491Y003433D01*
G37*
G36*
X008616Y003291D02*
X008711Y003237D01*
X008706Y003229D01*
X008611Y003283D01*
X008616Y003291D01*
G37*
G36*
X008593Y003270D02*
X008688Y003216D01*
X008683Y003208D01*
X008588Y003262D01*
X008593Y003270D01*
G37*
G36*
X008611Y003283D02*
X008706Y003229D01*
X008701Y003221D01*
X008606Y003275D01*
X008611Y003283D01*
G37*
G36*
X008635Y003304D02*
X008730Y003250D01*
X008725Y003242D01*
X008630Y003296D01*
X008635Y003304D01*
G37*
G36*
X009008Y003850D02*
X009103Y003796D01*
X009098Y003788D01*
X009003Y003842D01*
X009008Y003850D01*
G37*
G36*
X009069Y003896D02*
X009164Y003842D01*
X009159Y003834D01*
X009064Y003888D01*
X009069Y003896D01*
G37*
G36*
X008878Y004064D02*
X008973Y004010D01*
X008968Y004002D01*
X008873Y004056D01*
X008878Y004064D01*
G37*
G36*
X008824Y004211D02*
X008919Y004157D01*
X008914Y004149D01*
X008819Y004203D01*
X008824Y004211D01*
G37*
G36*
X008522Y004408D02*
X008617Y004354D01*
X008612Y004346D01*
X008517Y004400D01*
X008522Y004408D01*
G37*
G36*
X008472Y004321D02*
X008567Y004267D01*
X008562Y004259D01*
X008467Y004313D01*
X008472Y004321D01*
G37*
G36*
X008328Y004231D02*
X008423Y004177D01*
X008418Y004169D01*
X008323Y004223D01*
X008328Y004231D01*
G37*
G36*
X008256Y004446D02*
X008351Y004392D01*
X008346Y004384D01*
X008251Y004438D01*
X008256Y004446D01*
G37*
D46*
G36*
X008215Y004516D02*
X008258Y004492D01*
X008253Y004484D01*
X008210Y004508D01*
X008215Y004516D01*
G37*
G36*
X008252Y004541D02*
X008295Y004517D01*
X008290Y004509D01*
X008247Y004533D01*
X008252Y004541D01*
G37*
G36*
X008271Y004553D02*
X008314Y004529D01*
X008309Y004521D01*
X008266Y004545D01*
X008271Y004553D01*
G37*
G36*
X008511Y004368D02*
X008554Y004344D01*
X008549Y004336D01*
X008506Y004360D01*
X008511Y004368D01*
G37*
G36*
X008477Y004330D02*
X008520Y004306D01*
X008515Y004298D01*
X008472Y004322D01*
X008477Y004330D01*
G37*
G36*
X008581Y004189D02*
X008624Y004165D01*
X008619Y004157D01*
X008576Y004181D01*
X008581Y004189D01*
G37*
G36*
X008557Y004168D02*
X008600Y004144D01*
X008595Y004136D01*
X008552Y004160D01*
X008557Y004168D01*
G37*
G36*
X008837Y004053D02*
X008880Y004029D01*
X008875Y004021D01*
X008832Y004045D01*
X008837Y004053D01*
G37*
G36*
X009118Y003960D02*
X009161Y003936D01*
X009156Y003928D01*
X009113Y003952D01*
X009118Y003960D01*
G37*
G36*
X009123Y003969D02*
X009166Y003945D01*
X009161Y003937D01*
X009118Y003961D01*
X009123Y003969D01*
G37*
G36*
X009097Y003603D02*
X009140Y003579D01*
X009135Y003571D01*
X009092Y003595D01*
X009097Y003603D01*
G37*
G36*
X009083Y003599D02*
X009126Y003575D01*
X009121Y003567D01*
X009078Y003591D01*
X009083Y003599D01*
G37*
G36*
X008791Y003133D02*
X008834Y003109D01*
X008829Y003101D01*
X008786Y003125D01*
X008791Y003133D01*
G37*
G36*
X008762Y003103D02*
X008805Y003079D01*
X008800Y003071D01*
X008757Y003095D01*
X008762Y003103D01*
G37*
G36*
X008498Y003406D02*
X008541Y003382D01*
X008536Y003374D01*
X008493Y003398D01*
X008498Y003406D01*
G37*
G36*
X008431Y003329D02*
X008474Y003305D01*
X008469Y003297D01*
X008426Y003321D01*
X008431Y003329D01*
G37*
G36*
X008426Y003321D02*
X008469Y003297D01*
X008464Y003289D01*
X008421Y003313D01*
X008426Y003321D01*
G37*
D47*
G36*
X008105Y003045D02*
X008364Y002896D01*
X008359Y002887D01*
X008100Y003036D01*
X008105Y003045D01*
G37*
G36*
X007859Y004699D02*
X008118Y004550D01*
X008113Y004541D01*
X007854Y004690D01*
X007859Y004699D01*
G37*
G36*
X007894Y004760D02*
X008153Y004611D01*
X008148Y004602D01*
X007889Y004751D01*
X007894Y004760D01*
G37*
G36*
X007899Y004768D02*
X008158Y004619D01*
X008153Y004610D01*
X007894Y004759D01*
X007899Y004768D01*
G37*
G36*
X009570Y003723D02*
X009829Y003574D01*
X009824Y003565D01*
X009565Y003714D01*
X009570Y003723D01*
G37*
G36*
X009565Y003714D02*
X009824Y003565D01*
X009819Y003556D01*
X009560Y003705D01*
X009565Y003714D01*
G37*
D48*
G36*
X009566Y003795D02*
X009859Y003626D01*
X009854Y003617D01*
X009561Y003786D01*
X009566Y003795D01*
G37*
G36*
X009441Y003578D02*
X009734Y003409D01*
X009729Y003400D01*
X009436Y003569D01*
X009441Y003578D01*
G37*
G36*
X009436Y003570D02*
X009729Y003401D01*
X009724Y003392D01*
X009431Y003561D01*
X009436Y003570D01*
G37*
G36*
X008078Y003037D02*
X008371Y002868D01*
X008366Y002859D01*
X008073Y003028D01*
X008078Y003037D01*
G37*
D49*
G36*
X009131Y003641D02*
X009208Y003597D01*
X009203Y003589D01*
X009126Y003633D01*
X009131Y003641D01*
G37*
G36*
X009144Y003645D02*
X009221Y003601D01*
X009216Y003593D01*
X009139Y003637D01*
X009144Y003645D01*
G37*
G36*
X009149Y003653D02*
X009226Y003609D01*
X009221Y003601D01*
X009144Y003645D01*
X009149Y003653D01*
G37*
G36*
X009168Y003666D02*
X009245Y003622D01*
X009240Y003614D01*
X009163Y003658D01*
X009168Y003666D01*
G37*
G36*
X009182Y003669D02*
X009259Y003625D01*
X009254Y003617D01*
X009177Y003661D01*
X009182Y003669D01*
G37*
G36*
X009195Y003673D02*
X009272Y003629D01*
X009267Y003621D01*
X009190Y003665D01*
X009195Y003673D01*
G37*
G36*
X009224Y003703D02*
X009301Y003659D01*
X009296Y003651D01*
X009219Y003695D01*
X009224Y003703D01*
G37*
G36*
X009046Y003875D02*
X009123Y003831D01*
X009118Y003823D01*
X009041Y003867D01*
X009046Y003875D01*
G37*
G36*
X009027Y003862D02*
X009104Y003818D01*
X009099Y003810D01*
X009022Y003854D01*
X009027Y003862D01*
G37*
G36*
X009022Y003854D02*
X009099Y003810D01*
X009094Y003802D01*
X009017Y003846D01*
X009022Y003854D01*
G37*
G36*
X008911Y004080D02*
X008988Y004036D01*
X008983Y004028D01*
X008906Y004072D01*
X008911Y004080D01*
G37*
G36*
X008751Y004103D02*
X008828Y004059D01*
X008823Y004051D01*
X008746Y004095D01*
X008751Y004103D01*
G37*
G36*
X008463Y004304D02*
X008540Y004260D01*
X008535Y004252D01*
X008458Y004296D01*
X008463Y004304D01*
G37*
G36*
X008449Y004300D02*
X008526Y004256D01*
X008521Y004248D01*
X008444Y004292D01*
X008449Y004300D01*
G37*
G36*
X008356Y004239D02*
X008433Y004195D01*
X008428Y004187D01*
X008351Y004231D01*
X008356Y004239D01*
G37*
G36*
X008283Y004454D02*
X008360Y004410D01*
X008355Y004402D01*
X008278Y004446D01*
X008283Y004454D01*
G37*
G36*
X008518Y004399D02*
X008595Y004355D01*
X008590Y004347D01*
X008513Y004391D01*
X008518Y004399D01*
G37*
G36*
X009153Y004021D02*
X009230Y003977D01*
X009225Y003969D01*
X009148Y004013D01*
X009153Y004021D01*
G37*
D50*
G36*
X009137Y003973D02*
X009170Y003954D01*
X009165Y003945D01*
X009132Y003964D01*
X009137Y003973D01*
G37*
G36*
X009114Y003952D02*
X009147Y003933D01*
X009142Y003924D01*
X009109Y003943D01*
X009114Y003952D01*
G37*
G36*
X009109Y003943D02*
X009142Y003924D01*
X009137Y003915D01*
X009104Y003934D01*
X009109Y003943D01*
G37*
G36*
X009104Y003935D02*
X009137Y003916D01*
X009132Y003907D01*
X009099Y003926D01*
X009104Y003935D01*
G37*
G36*
X009099Y003926D02*
X009132Y003907D01*
X009127Y003898D01*
X009094Y003917D01*
X009099Y003926D01*
G37*
G36*
X009094Y003917D02*
X009127Y003898D01*
X009122Y003889D01*
X009089Y003908D01*
X009094Y003917D01*
G37*
G36*
X008886Y003957D02*
X008919Y003938D01*
X008914Y003929D01*
X008881Y003948D01*
X008886Y003957D01*
G37*
G36*
X008867Y003944D02*
X008900Y003925D01*
X008895Y003916D01*
X008862Y003935D01*
X008867Y003944D01*
G37*
G36*
X008862Y003936D02*
X008895Y003917D01*
X008890Y003908D01*
X008857Y003927D01*
X008862Y003936D01*
G37*
G36*
X008843Y003923D02*
X008876Y003904D01*
X008871Y003895D01*
X008838Y003914D01*
X008843Y003923D01*
G37*
G36*
X008838Y003915D02*
X008871Y003896D01*
X008866Y003887D01*
X008833Y003906D01*
X008838Y003915D01*
G37*
G36*
X008820Y003902D02*
X008853Y003883D01*
X008848Y003874D01*
X008815Y003893D01*
X008820Y003902D01*
G37*
G36*
X008815Y003894D02*
X008848Y003875D01*
X008843Y003866D01*
X008810Y003885D01*
X008815Y003894D01*
G37*
G36*
X008791Y003873D02*
X008824Y003854D01*
X008819Y003845D01*
X008786Y003864D01*
X008791Y003873D01*
G37*
G36*
X008548Y004152D02*
X008581Y004133D01*
X008576Y004124D01*
X008543Y004143D01*
X008548Y004152D01*
G37*
G36*
X008553Y004160D02*
X008586Y004141D01*
X008581Y004132D01*
X008548Y004151D01*
X008553Y004160D01*
G37*
G36*
X008571Y004173D02*
X008604Y004154D01*
X008599Y004145D01*
X008566Y004164D01*
X008571Y004173D01*
G37*
G36*
X008576Y004181D02*
X008609Y004162D01*
X008604Y004153D01*
X008571Y004172D01*
X008576Y004181D01*
G37*
G36*
X008595Y004194D02*
X008628Y004175D01*
X008623Y004166D01*
X008590Y004185D01*
X008595Y004194D01*
G37*
G36*
X008600Y004202D02*
X008633Y004183D01*
X008628Y004174D01*
X008595Y004193D01*
X008600Y004202D01*
G37*
G36*
X008619Y004215D02*
X008652Y004196D01*
X008647Y004187D01*
X008614Y004206D01*
X008619Y004215D01*
G37*
G36*
X008605Y004291D02*
X008638Y004272D01*
X008633Y004263D01*
X008600Y004282D01*
X008605Y004291D01*
G37*
G36*
X008507Y004360D02*
X008540Y004341D01*
X008535Y004332D01*
X008502Y004351D01*
X008507Y004360D01*
G37*
G36*
X008333Y004460D02*
X008366Y004441D01*
X008361Y004432D01*
X008328Y004451D01*
X008333Y004460D01*
G37*
G36*
X008267Y004545D02*
X008300Y004526D01*
X008295Y004517D01*
X008262Y004536D01*
X008267Y004545D01*
G37*
G36*
X008248Y004532D02*
X008281Y004513D01*
X008276Y004504D01*
X008243Y004523D01*
X008248Y004532D01*
G37*
G36*
X008234Y004529D02*
X008267Y004510D01*
X008262Y004501D01*
X008229Y004520D01*
X008234Y004529D01*
G37*
G36*
X008229Y004520D02*
X008262Y004501D01*
X008257Y004492D01*
X008224Y004511D01*
X008229Y004520D01*
G37*
G36*
X008494Y003398D02*
X008527Y003379D01*
X008522Y003370D01*
X008489Y003389D01*
X008494Y003398D01*
G37*
G36*
X008489Y003389D02*
X008522Y003370D01*
X008517Y003361D01*
X008484Y003380D01*
X008489Y003389D01*
G37*
G36*
X008465Y003368D02*
X008498Y003349D01*
X008493Y003340D01*
X008460Y003359D01*
X008465Y003368D01*
G37*
G36*
X008436Y003338D02*
X008469Y003319D01*
X008464Y003310D01*
X008431Y003329D01*
X008436Y003338D01*
G37*
G36*
X008583Y002873D02*
X008616Y002854D01*
X008611Y002845D01*
X008578Y002864D01*
X008583Y002873D01*
G37*
G36*
X008776Y003107D02*
X008809Y003088D01*
X008804Y003079D01*
X008771Y003098D01*
X008776Y003107D01*
G37*
G36*
X008781Y003116D02*
X008814Y003097D01*
X008809Y003088D01*
X008776Y003107D01*
X008781Y003116D01*
G37*
G36*
X008786Y003125D02*
X008819Y003106D01*
X008814Y003097D01*
X008781Y003116D01*
X008786Y003125D01*
G37*
G36*
X008805Y003137D02*
X008838Y003118D01*
X008833Y003109D01*
X008800Y003128D01*
X008805Y003137D01*
G37*
G36*
X008810Y003146D02*
X008843Y003127D01*
X008838Y003118D01*
X008805Y003137D01*
X008810Y003146D01*
G37*
G36*
X008815Y003154D02*
X008848Y003135D01*
X008843Y003126D01*
X008810Y003145D01*
X008815Y003154D01*
G37*
G36*
X008820Y003163D02*
X008853Y003144D01*
X008848Y003135D01*
X008815Y003154D01*
X008820Y003163D01*
G37*
G36*
X008839Y003175D02*
X008872Y003156D01*
X008867Y003147D01*
X008834Y003166D01*
X008839Y003175D01*
G37*
G36*
X008844Y003184D02*
X008877Y003165D01*
X008872Y003156D01*
X008839Y003175D01*
X008844Y003184D01*
G37*
G36*
X009079Y003591D02*
X009112Y003572D01*
X009107Y003563D01*
X009074Y003582D01*
X009079Y003591D01*
G37*
D51*
G36*
X009112Y003629D02*
X009181Y003590D01*
X009176Y003581D01*
X009107Y003620D01*
X009112Y003629D01*
G37*
G36*
X009125Y003633D02*
X009194Y003594D01*
X009189Y003585D01*
X009120Y003624D01*
X009125Y003633D01*
G37*
G36*
X009209Y003677D02*
X009278Y003638D01*
X009273Y003629D01*
X009204Y003668D01*
X009209Y003677D01*
G37*
G36*
X009214Y003686D02*
X009283Y003647D01*
X009278Y003638D01*
X009209Y003677D01*
X009214Y003686D01*
G37*
G36*
X009227Y003690D02*
X009296Y003651D01*
X009291Y003642D01*
X009222Y003681D01*
X009227Y003690D01*
G37*
G36*
X009167Y003886D02*
X009236Y003847D01*
X009231Y003838D01*
X009162Y003877D01*
X009167Y003886D01*
G37*
G36*
X009148Y004012D02*
X009217Y003973D01*
X009212Y003964D01*
X009143Y004003D01*
X009148Y004012D01*
G37*
G36*
X009324Y003876D02*
X009393Y003837D01*
X009388Y003828D01*
X009319Y003867D01*
X009324Y003876D01*
G37*
G36*
X008818Y004180D02*
X008887Y004141D01*
X008882Y004132D01*
X008813Y004171D01*
X008818Y004180D01*
G37*
G36*
X008823Y004189D02*
X008892Y004150D01*
X008887Y004141D01*
X008818Y004180D01*
X008823Y004189D01*
G37*
G36*
X008760Y004121D02*
X008829Y004082D01*
X008824Y004073D01*
X008755Y004112D01*
X008760Y004121D01*
G37*
G36*
X008755Y004112D02*
X008824Y004073D01*
X008819Y004064D01*
X008750Y004103D01*
X008755Y004112D01*
G37*
G36*
X008512Y004391D02*
X008581Y004352D01*
X008576Y004343D01*
X008507Y004382D01*
X008512Y004391D01*
G37*
G36*
X008444Y004292D02*
X008513Y004253D01*
X008508Y004244D01*
X008439Y004283D01*
X008444Y004292D01*
G37*
G36*
X008430Y004289D02*
X008499Y004250D01*
X008494Y004241D01*
X008425Y004280D01*
X008430Y004289D01*
G37*
G36*
X008425Y004280D02*
X008494Y004241D01*
X008489Y004232D01*
X008420Y004271D01*
X008425Y004280D01*
G37*
G36*
X008388Y004255D02*
X008457Y004216D01*
X008452Y004207D01*
X008383Y004246D01*
X008388Y004255D01*
G37*
G36*
X008374Y004252D02*
X008443Y004213D01*
X008438Y004204D01*
X008369Y004243D01*
X008374Y004252D01*
G37*
G36*
X008369Y004243D02*
X008438Y004204D01*
X008433Y004195D01*
X008364Y004234D01*
X008369Y004243D01*
G37*
G36*
X008297Y004458D02*
X008366Y004419D01*
X008361Y004410D01*
X008292Y004449D01*
X008297Y004458D01*
G37*
G36*
X008179Y004514D02*
X008248Y004475D01*
X008243Y004466D01*
X008174Y004505D01*
X008179Y004514D01*
G37*
G36*
X008412Y003317D02*
X008481Y003278D01*
X008476Y003269D01*
X008407Y003308D01*
X008412Y003317D01*
G37*
G36*
X008587Y002881D02*
X008656Y002842D01*
X008651Y002833D01*
X008582Y002872D01*
X008587Y002881D01*
G37*
D52*
G36*
X008147Y003077D02*
X008398Y002933D01*
X008393Y002925D01*
X008142Y003069D01*
X008147Y003077D01*
G37*
G36*
X008128Y003065D02*
X008379Y002921D01*
X008374Y002913D01*
X008123Y003057D01*
X008128Y003065D01*
G37*
G36*
X008123Y003056D02*
X008374Y002912D01*
X008369Y002904D01*
X008118Y003048D01*
X008123Y003056D01*
G37*
G36*
X008118Y003048D02*
X008369Y002904D01*
X008364Y002896D01*
X008113Y003040D01*
X008118Y003048D01*
G37*
G36*
X008736Y003719D02*
X008987Y003575D01*
X008982Y003567D01*
X008731Y003711D01*
X008736Y003719D01*
G37*
G36*
X007864Y004707D02*
X008115Y004563D01*
X008110Y004555D01*
X007859Y004699D01*
X007864Y004707D01*
G37*
G36*
X007869Y004716D02*
X008120Y004572D01*
X008115Y004564D01*
X007864Y004708D01*
X007869Y004716D01*
G37*
G36*
X007874Y004725D02*
X008125Y004581D01*
X008120Y004573D01*
X007869Y004717D01*
X007874Y004725D01*
G37*
G36*
X007879Y004733D02*
X008130Y004589D01*
X008125Y004581D01*
X007874Y004725D01*
X007879Y004733D01*
G37*
G36*
X007884Y004742D02*
X008135Y004598D01*
X008130Y004590D01*
X007879Y004734D01*
X007884Y004742D01*
G37*
G36*
X007889Y004751D02*
X008140Y004607D01*
X008135Y004599D01*
X007884Y004743D01*
X007889Y004751D01*
G37*
D53*
G36*
X008091Y003041D02*
X008368Y002882D01*
X008363Y002873D01*
X008086Y003032D01*
X008091Y003041D01*
G37*
G36*
X009472Y003594D02*
X009749Y003435D01*
X009744Y003426D01*
X009467Y003585D01*
X009472Y003594D01*
G37*
G36*
X009477Y003603D02*
X009754Y003444D01*
X009749Y003435D01*
X009472Y003594D01*
X009477Y003603D01*
G37*
G36*
X009567Y003759D02*
X009844Y003600D01*
X009839Y003591D01*
X009562Y003750D01*
X009567Y003759D01*
G37*
G36*
X009572Y003767D02*
X009849Y003608D01*
X009844Y003599D01*
X009567Y003758D01*
X009572Y003767D01*
G37*
D54*
G36*
X009572Y003745D02*
X009839Y003591D01*
X009834Y003583D01*
X009567Y003737D01*
X009572Y003745D01*
G37*
G36*
X009567Y003736D02*
X009834Y003582D01*
X009829Y003574D01*
X009562Y003728D01*
X009567Y003736D01*
G37*
D55*
G36*
X009363Y003865D02*
X009380Y003856D01*
X009375Y003847D01*
X009358Y003856D01*
X009363Y003865D01*
G37*
G36*
X009073Y003582D02*
X009090Y003573D01*
X009085Y003564D01*
X009068Y003573D01*
X009073Y003582D01*
G37*
G36*
X008770Y003838D02*
X008787Y003829D01*
X008782Y003820D01*
X008765Y003829D01*
X008770Y003838D01*
G37*
G36*
X008752Y003826D02*
X008769Y003817D01*
X008764Y003808D01*
X008747Y003817D01*
X008752Y003826D01*
G37*
G36*
X008747Y003817D02*
X008764Y003808D01*
X008759Y003799D01*
X008742Y003808D01*
X008747Y003817D01*
G37*
G36*
X008917Y003973D02*
X008934Y003964D01*
X008929Y003955D01*
X008912Y003964D01*
X008917Y003973D01*
G37*
G36*
X008922Y003981D02*
X008939Y003972D01*
X008934Y003963D01*
X008917Y003972D01*
X008922Y003981D01*
G37*
G36*
X008936Y003985D02*
X008953Y003976D01*
X008948Y003967D01*
X008931Y003976D01*
X008936Y003985D01*
G37*
G36*
X008645Y004222D02*
X008662Y004213D01*
X008657Y004204D01*
X008640Y004213D01*
X008645Y004222D01*
G37*
G36*
X008650Y004230D02*
X008667Y004221D01*
X008662Y004212D01*
X008645Y004221D01*
X008650Y004230D01*
G37*
G36*
X008496Y004343D02*
X008513Y004334D01*
X008508Y004325D01*
X008491Y004334D01*
X008496Y004343D01*
G37*
G36*
X008271Y004334D02*
X008288Y004325D01*
X008283Y004316D01*
X008266Y004325D01*
X008271Y004334D01*
G37*
G36*
X008266Y004325D02*
X008283Y004316D01*
X008278Y004307D01*
X008261Y004316D01*
X008266Y004325D01*
G37*
G36*
X008248Y004313D02*
X008265Y004304D01*
X008260Y004295D01*
X008243Y004304D01*
X008248Y004313D01*
G37*
G36*
X008243Y004304D02*
X008260Y004295D01*
X008255Y004286D01*
X008238Y004295D01*
X008243Y004304D01*
G37*
G36*
X008224Y004292D02*
X008241Y004283D01*
X008236Y004274D01*
X008219Y004283D01*
X008224Y004292D01*
G37*
G36*
X008513Y004113D02*
X008530Y004104D01*
X008525Y004095D01*
X008508Y004104D01*
X008513Y004113D01*
G37*
G36*
X008508Y004105D02*
X008525Y004096D01*
X008520Y004087D01*
X008503Y004096D01*
X008508Y004105D01*
G37*
G36*
X008895Y003235D02*
X008912Y003226D01*
X008907Y003217D01*
X008890Y003226D01*
X008895Y003235D01*
G37*
G36*
X008890Y003226D02*
X008907Y003217D01*
X008902Y003208D01*
X008885Y003217D01*
X008890Y003226D01*
G37*
G36*
X008885Y003217D02*
X008902Y003208D01*
X008897Y003199D01*
X008880Y003208D01*
X008885Y003217D01*
G37*
G36*
X008569Y002869D02*
X008586Y002860D01*
X008581Y002851D01*
X008564Y002860D01*
X008569Y002869D01*
G37*
D56*
G36*
X008833Y003166D02*
X008858Y003152D01*
X008853Y003144D01*
X008828Y003158D01*
X008833Y003166D01*
G37*
G36*
X008857Y003187D02*
X008882Y003173D01*
X008877Y003165D01*
X008852Y003179D01*
X008857Y003187D01*
G37*
G36*
X008862Y003196D02*
X008887Y003182D01*
X008882Y003174D01*
X008857Y003188D01*
X008862Y003196D01*
G37*
G36*
X008867Y003204D02*
X008892Y003190D01*
X008887Y003182D01*
X008862Y003196D01*
X008867Y003204D01*
G37*
G36*
X008872Y003213D02*
X008897Y003199D01*
X008892Y003191D01*
X008867Y003205D01*
X008872Y003213D01*
G37*
G36*
X008483Y003380D02*
X008508Y003366D01*
X008503Y003358D01*
X008478Y003372D01*
X008483Y003380D01*
G37*
G36*
X008478Y003371D02*
X008503Y003357D01*
X008498Y003349D01*
X008473Y003363D01*
X008478Y003371D01*
G37*
G36*
X008460Y003359D02*
X008485Y003345D01*
X008480Y003337D01*
X008455Y003351D01*
X008460Y003359D01*
G37*
G36*
X008455Y003350D02*
X008480Y003336D01*
X008475Y003328D01*
X008450Y003342D01*
X008455Y003350D01*
G37*
G36*
X008450Y003342D02*
X008475Y003328D01*
X008470Y003320D01*
X008445Y003334D01*
X008450Y003342D01*
G37*
G36*
X008757Y003834D02*
X008782Y003820D01*
X008777Y003812D01*
X008752Y003826D01*
X008757Y003834D01*
G37*
G36*
X008776Y003846D02*
X008801Y003832D01*
X008796Y003824D01*
X008771Y003838D01*
X008776Y003846D01*
G37*
G36*
X008781Y003855D02*
X008806Y003841D01*
X008801Y003833D01*
X008776Y003847D01*
X008781Y003855D01*
G37*
G36*
X008786Y003863D02*
X008811Y003849D01*
X008806Y003841D01*
X008781Y003855D01*
X008786Y003863D01*
G37*
G36*
X008804Y003876D02*
X008829Y003862D01*
X008824Y003854D01*
X008799Y003868D01*
X008804Y003876D01*
G37*
G36*
X008809Y003884D02*
X008834Y003870D01*
X008829Y003862D01*
X008804Y003876D01*
X008809Y003884D01*
G37*
G36*
X008833Y003905D02*
X008858Y003891D01*
X008853Y003883D01*
X008828Y003897D01*
X008833Y003905D01*
G37*
G36*
X008857Y003926D02*
X008882Y003912D01*
X008877Y003904D01*
X008852Y003918D01*
X008857Y003926D01*
G37*
G36*
X008880Y003947D02*
X008905Y003933D01*
X008900Y003925D01*
X008875Y003939D01*
X008880Y003947D01*
G37*
G36*
X008899Y003960D02*
X008924Y003946D01*
X008919Y003938D01*
X008894Y003952D01*
X008899Y003960D01*
G37*
G36*
X008904Y003968D02*
X008929Y003954D01*
X008924Y003946D01*
X008899Y003960D01*
X008904Y003968D01*
G37*
G36*
X008969Y004081D02*
X008994Y004067D01*
X008989Y004059D01*
X008964Y004073D01*
X008969Y004081D01*
G37*
G36*
X008632Y004218D02*
X008657Y004204D01*
X008652Y004196D01*
X008627Y004210D01*
X008632Y004218D01*
G37*
G36*
X008613Y004205D02*
X008638Y004191D01*
X008633Y004183D01*
X008608Y004197D01*
X008613Y004205D01*
G37*
G36*
X008592Y004287D02*
X008617Y004273D01*
X008612Y004265D01*
X008587Y004279D01*
X008592Y004287D01*
G37*
G36*
X008569Y004289D02*
X008594Y004275D01*
X008589Y004267D01*
X008564Y004281D01*
X008569Y004289D01*
G37*
G36*
X008556Y004285D02*
X008581Y004271D01*
X008576Y004263D01*
X008551Y004277D01*
X008556Y004285D01*
G37*
G36*
X008501Y004351D02*
X008526Y004337D01*
X008521Y004329D01*
X008496Y004343D01*
X008501Y004351D01*
G37*
G36*
X008483Y004339D02*
X008508Y004325D01*
X008503Y004317D01*
X008478Y004331D01*
X008483Y004339D01*
G37*
G36*
X008282Y004351D02*
X008307Y004337D01*
X008302Y004329D01*
X008277Y004343D01*
X008282Y004351D01*
G37*
G36*
X008277Y004342D02*
X008302Y004328D01*
X008297Y004320D01*
X008272Y004334D01*
X008277Y004342D01*
G37*
G36*
X008253Y004321D02*
X008278Y004307D01*
X008273Y004299D01*
X008248Y004313D01*
X008253Y004321D01*
G37*
G36*
X008524Y004130D02*
X008549Y004116D01*
X008544Y004108D01*
X008519Y004122D01*
X008524Y004130D01*
G37*
G36*
X008519Y004121D02*
X008544Y004107D01*
X008539Y004099D01*
X008514Y004113D01*
X008519Y004121D01*
G37*
G36*
X008537Y004134D02*
X008562Y004120D01*
X008557Y004112D01*
X008532Y004126D01*
X008537Y004134D01*
G37*
G36*
X008542Y004142D02*
X008567Y004128D01*
X008562Y004120D01*
X008537Y004134D01*
X008542Y004142D01*
G37*
D57*
G36*
X007364Y003842D02*
X007917Y003523D01*
X007912Y003514D01*
X007359Y003833D01*
X007364Y003842D01*
G37*
G36*
X009520Y003636D02*
X010073Y003317D01*
X010068Y003308D01*
X009515Y003627D01*
X009520Y003636D01*
G37*
G36*
X009525Y003645D02*
X010078Y003326D01*
X010073Y003317D01*
X009520Y003636D01*
X009525Y003645D01*
G37*
G36*
X009530Y003654D02*
X010083Y003335D01*
X010078Y003326D01*
X009525Y003645D01*
X009530Y003654D01*
G37*
G36*
X009535Y003662D02*
X010088Y003343D01*
X010083Y003334D01*
X009530Y003653D01*
X009535Y003662D01*
G37*
G36*
X009540Y003671D02*
X010093Y003352D01*
X010088Y003343D01*
X009535Y003662D01*
X009540Y003671D01*
G37*
G36*
X009545Y003680D02*
X010098Y003361D01*
X010093Y003352D01*
X009540Y003671D01*
X009545Y003680D01*
G37*
G36*
X009550Y003688D02*
X010103Y003369D01*
X010098Y003360D01*
X009545Y003679D01*
X009550Y003688D01*
G37*
G36*
X009555Y003697D02*
X010108Y003378D01*
X010103Y003369D01*
X009550Y003688D01*
X009555Y003697D01*
G37*
G36*
X009560Y003705D02*
X010113Y003386D01*
X010108Y003377D01*
X009555Y003696D01*
X009560Y003705D01*
G37*
D58*
G36*
X009270Y003503D02*
X009953Y003109D01*
X009948Y003101D01*
X009265Y003495D01*
X009270Y003503D01*
G37*
G36*
X007464Y004014D02*
X008147Y003620D01*
X008142Y003612D01*
X007459Y004006D01*
X007464Y004014D01*
G37*
G36*
X007441Y004674D02*
X008124Y004280D01*
X008119Y004272D01*
X007436Y004666D01*
X007441Y004674D01*
G37*
G36*
X007551Y004865D02*
X008234Y004471D01*
X008229Y004463D01*
X007546Y004857D01*
X007551Y004865D01*
G37*
D59*
G36*
X007546Y004857D02*
X008237Y004458D01*
X008232Y004449D01*
X007541Y004848D01*
X007546Y004857D01*
G37*
G36*
X007436Y004666D02*
X008127Y004267D01*
X008122Y004258D01*
X007431Y004657D01*
X007436Y004666D01*
G37*
G36*
X009257Y003500D02*
X009948Y003101D01*
X009943Y003092D01*
X009252Y003491D01*
X009257Y003500D01*
G37*
D60*
G36*
X009190Y003885D02*
X009379Y003776D01*
X009374Y003767D01*
X009185Y003876D01*
X009190Y003885D01*
G37*
G36*
X008514Y004033D02*
X008703Y003924D01*
X008698Y003915D01*
X008509Y004024D01*
X008514Y004033D01*
G37*
G36*
X008414Y003259D02*
X008603Y003150D01*
X008598Y003141D01*
X008409Y003250D01*
X008414Y003259D01*
G37*
G36*
X008390Y003238D02*
X008579Y003129D01*
X008574Y003120D01*
X008385Y003229D01*
X008390Y003238D01*
G37*
G36*
X008385Y003229D02*
X008574Y003120D01*
X008569Y003111D01*
X008380Y003220D01*
X008385Y003229D01*
G37*
G36*
X008409Y003250D02*
X008598Y003141D01*
X008593Y003132D01*
X008404Y003241D01*
X008409Y003250D01*
G37*
D61*
G36*
X008910Y003238D02*
X008917Y003233D01*
X008912Y003226D01*
X008905Y003231D01*
X008910Y003238D01*
G37*
G36*
X008915Y003246D02*
X008922Y003241D01*
X008917Y003234D01*
X008910Y003239D01*
X008915Y003246D01*
G37*
G36*
X008742Y003808D02*
X008749Y003803D01*
X008744Y003796D01*
X008737Y003801D01*
X008742Y003808D01*
G37*
G36*
X008950Y003988D02*
X008957Y003983D01*
X008952Y003976D01*
X008945Y003981D01*
X008950Y003988D01*
G37*
G36*
X008955Y003997D02*
X008962Y003992D01*
X008957Y003985D01*
X008950Y003990D01*
X008955Y003997D01*
G37*
G36*
X008960Y004005D02*
X008967Y004000D01*
X008962Y003993D01*
X008955Y003998D01*
X008960Y004005D01*
G37*
G36*
X008238Y004295D02*
X008245Y004290D01*
X008240Y004283D01*
X008233Y004288D01*
X008238Y004295D01*
G37*
G36*
X008220Y004283D02*
X008227Y004278D01*
X008222Y004271D01*
X008215Y004276D01*
X008220Y004283D01*
G37*
D62*
G36*
X007516Y004805D02*
X008311Y004346D01*
X008306Y004337D01*
X007511Y004796D01*
X007516Y004805D01*
G37*
G36*
X007521Y004814D02*
X008316Y004355D01*
X008311Y004346D01*
X007516Y004805D01*
X007521Y004814D01*
G37*
G36*
X008998Y003291D02*
X009793Y002832D01*
X009788Y002823D01*
X008993Y003282D01*
X008998Y003291D01*
G37*
G36*
X008858Y003049D02*
X009653Y002590D01*
X009648Y002581D01*
X008853Y003040D01*
X008858Y003049D01*
G37*
G36*
X008673Y002728D02*
X009468Y002269D01*
X009463Y002260D01*
X008668Y002719D01*
X008673Y002728D01*
G37*
D63*
G36*
X007511Y004796D02*
X008246Y004372D01*
X008241Y004364D01*
X007506Y004788D01*
X007511Y004796D01*
G37*
D64*
G36*
X007506Y004788D02*
X008233Y004369D01*
X008228Y004360D01*
X007501Y004779D01*
X007506Y004788D01*
G37*
D65*
G36*
X007501Y004779D02*
X008210Y004370D01*
X008205Y004361D01*
X007496Y004770D01*
X007501Y004779D01*
G37*
D66*
G36*
X007496Y004770D02*
X008197Y004366D01*
X008192Y004358D01*
X007491Y004762D01*
X007496Y004770D01*
G37*
G36*
X007491Y004761D02*
X008192Y004357D01*
X008187Y004349D01*
X007486Y004753D01*
X007491Y004761D01*
G37*
G36*
X007431Y004657D02*
X008132Y004253D01*
X008127Y004245D01*
X007426Y004649D01*
X007431Y004657D01*
G37*
G36*
X007469Y004023D02*
X008170Y003619D01*
X008165Y003611D01*
X007464Y004015D01*
X007469Y004023D01*
G37*
D67*
G36*
X007789Y004577D02*
X008178Y004353D01*
X008173Y004345D01*
X007784Y004569D01*
X007789Y004577D01*
G37*
D68*
G36*
X007784Y004569D02*
X008165Y004350D01*
X008160Y004341D01*
X007779Y004560D01*
X007784Y004569D01*
G37*
G36*
X007779Y004561D02*
X008160Y004342D01*
X008155Y004333D01*
X007774Y004552D01*
X007779Y004561D01*
G37*
D69*
G36*
X007774Y004551D02*
X008145Y004337D01*
X008140Y004329D01*
X007769Y004543D01*
X007774Y004551D01*
G37*
G36*
X007769Y004543D02*
X008140Y004329D01*
X008135Y004321D01*
X007764Y004535D01*
X007769Y004543D01*
G37*
G36*
X007764Y004534D02*
X008135Y004320D01*
X008130Y004312D01*
X007759Y004526D01*
X007764Y004534D01*
G37*
G36*
X007759Y004525D02*
X008130Y004311D01*
X008125Y004303D01*
X007754Y004517D01*
X007759Y004525D01*
G37*
G36*
X007754Y004517D02*
X008125Y004303D01*
X008120Y004295D01*
X007749Y004509D01*
X007754Y004517D01*
G37*
D70*
G36*
X007446Y004684D02*
X008121Y004295D01*
X008116Y004286D01*
X007441Y004675D01*
X007446Y004684D01*
G37*
G36*
X009284Y003507D02*
X009959Y003118D01*
X009954Y003109D01*
X009279Y003498D01*
X009284Y003507D01*
G37*
D71*
G36*
X008535Y004031D02*
X008708Y003932D01*
X008703Y003923D01*
X008530Y004022D01*
X008535Y004031D01*
G37*
G36*
X008232Y004206D02*
X008405Y004107D01*
X008400Y004098D01*
X008227Y004197D01*
X008232Y004206D01*
G37*
D72*
G36*
X009371Y003538D02*
X009994Y003179D01*
X009989Y003170D01*
X009366Y003529D01*
X009371Y003538D01*
G37*
D73*
G36*
X008750Y003723D02*
X008975Y003594D01*
X008970Y003585D01*
X008745Y003714D01*
X008750Y003723D01*
G37*
G36*
X008188Y004209D02*
X008413Y004080D01*
X008408Y004071D01*
X008183Y004200D01*
X008188Y004209D01*
G37*
G36*
X008316Y003211D02*
X008541Y003082D01*
X008536Y003073D01*
X008311Y003202D01*
X008316Y003211D01*
G37*
G36*
X008279Y003187D02*
X008504Y003058D01*
X008499Y003049D01*
X008274Y003178D01*
X008279Y003187D01*
G37*
G36*
X008250Y003157D02*
X008475Y003028D01*
X008470Y003019D01*
X008245Y003148D01*
X008250Y003157D01*
G37*
G36*
X008274Y003178D02*
X008499Y003049D01*
X008494Y003040D01*
X008269Y003169D01*
X008274Y003178D01*
G37*
G36*
X008297Y003199D02*
X008522Y003070D01*
X008517Y003061D01*
X008292Y003190D01*
X008297Y003199D01*
G37*
G36*
X008302Y003208D02*
X008527Y003079D01*
X008522Y003070D01*
X008297Y003199D01*
X008302Y003208D01*
G37*
G36*
X007778Y003199D02*
X008003Y003070D01*
X007998Y003061D01*
X007773Y003190D01*
X007778Y003199D01*
G37*
D74*
G36*
X007386Y004580D02*
X008649Y003851D01*
X008644Y003842D01*
X007381Y004571D01*
X007386Y004580D01*
G37*
G36*
X007391Y004588D02*
X008654Y003859D01*
X008649Y003850D01*
X007386Y004579D01*
X007391Y004588D01*
G37*
G36*
X007396Y004597D02*
X008659Y003868D01*
X008654Y003859D01*
X007391Y004588D01*
X007396Y004597D01*
G37*
G36*
X007401Y004606D02*
X008664Y003877D01*
X008659Y003868D01*
X007396Y004597D01*
X007401Y004606D01*
G37*
G36*
X007406Y004614D02*
X008669Y003885D01*
X008664Y003876D01*
X007401Y004605D01*
X007406Y004614D01*
G37*
G36*
X007411Y004623D02*
X008674Y003894D01*
X008669Y003885D01*
X007406Y004614D01*
X007411Y004623D01*
G37*
G36*
X007416Y004632D02*
X008679Y003903D01*
X008674Y003894D01*
X007411Y004623D01*
X007416Y004632D01*
G37*
G36*
X007421Y004640D02*
X008684Y003911D01*
X008679Y003902D01*
X007416Y004631D01*
X007421Y004640D01*
G37*
D75*
G36*
X007449Y003989D02*
X008098Y003615D01*
X008093Y003607D01*
X007444Y003981D01*
X007449Y003989D01*
G37*
G36*
X009325Y003518D02*
X009974Y003144D01*
X009969Y003136D01*
X009320Y003510D01*
X009325Y003518D01*
G37*
D76*
G36*
X009311Y003514D02*
X009968Y003135D01*
X009963Y003126D01*
X009306Y003505D01*
X009311Y003514D01*
G37*
G36*
X007454Y003998D02*
X008111Y003619D01*
X008106Y003610D01*
X007449Y003989D01*
X007454Y003998D01*
G37*
D77*
G36*
X009242Y003496D02*
X009649Y003262D01*
X009644Y003254D01*
X009237Y003488D01*
X009242Y003496D01*
G37*
D78*
G36*
X009221Y003497D02*
X009644Y003253D01*
X009639Y003245D01*
X009216Y003489D01*
X009221Y003497D01*
G37*
D79*
G36*
X009206Y003494D02*
X009639Y003245D01*
X009634Y003236D01*
X009201Y003485D01*
X009206Y003494D01*
G37*
D80*
G36*
X009193Y003490D02*
X009634Y003236D01*
X009629Y003228D01*
X009188Y003482D01*
X009193Y003490D01*
G37*
D81*
G36*
X007669Y004370D02*
X008638Y003811D01*
X008633Y003802D01*
X007664Y004361D01*
X007669Y004370D01*
G37*
G36*
X007664Y004361D02*
X008633Y003802D01*
X008628Y003793D01*
X007659Y004352D01*
X007664Y004361D01*
G37*
D82*
G36*
X008941Y003093D02*
X009398Y002829D01*
X009393Y002821D01*
X008936Y003085D01*
X008941Y003093D01*
G37*
G36*
X009171Y003491D02*
X009628Y003227D01*
X009623Y003219D01*
X009166Y003483D01*
X009171Y003491D01*
G37*
D83*
G36*
X009149Y003492D02*
X009624Y003218D01*
X009619Y003210D01*
X009144Y003484D01*
X009149Y003492D01*
G37*
G36*
X008734Y002773D02*
X009209Y002499D01*
X009204Y002491D01*
X008729Y002765D01*
X008734Y002773D01*
G37*
G36*
X008729Y002765D02*
X009204Y002491D01*
X009199Y002483D01*
X008724Y002757D01*
X008729Y002765D01*
G37*
G36*
X008724Y002756D02*
X009199Y002482D01*
X009194Y002474D01*
X008719Y002748D01*
X008724Y002756D01*
G37*
G36*
X008719Y002747D02*
X009194Y002473D01*
X009189Y002465D01*
X008714Y002739D01*
X008719Y002747D01*
G37*
D84*
G36*
X007659Y004352D02*
X008636Y003788D01*
X008631Y003780D01*
X007654Y004344D01*
X007659Y004352D01*
G37*
D85*
G36*
X008726Y002801D02*
X009219Y002517D01*
X009214Y002509D01*
X008721Y002793D01*
X008726Y002801D01*
G37*
G36*
X009126Y003494D02*
X009619Y003210D01*
X009614Y003202D01*
X009121Y003486D01*
X009126Y003494D01*
G37*
D86*
G36*
X007654Y004344D02*
X008641Y003775D01*
X008636Y003766D01*
X007649Y004335D01*
X007654Y004344D01*
G37*
D87*
G36*
X007220Y003590D02*
X007729Y003296D01*
X007724Y003288D01*
X007215Y003582D01*
X007220Y003590D01*
G37*
G36*
X008994Y003304D02*
X009503Y003010D01*
X009498Y003002D01*
X008989Y003296D01*
X008994Y003304D01*
G37*
G36*
X009104Y003495D02*
X009613Y003201D01*
X009608Y003193D01*
X009099Y003487D01*
X009104Y003495D01*
G37*
D88*
G36*
X007649Y004335D02*
X008644Y003761D01*
X008639Y003753D01*
X007644Y004327D01*
X007649Y004335D01*
G37*
D89*
G36*
X007359Y003833D02*
X007904Y003519D01*
X007899Y003511D01*
X007354Y003825D01*
X007359Y003833D01*
G37*
G36*
X007324Y003772D02*
X007869Y003458D01*
X007864Y003450D01*
X007319Y003764D01*
X007324Y003772D01*
G37*
G36*
X009064Y003506D02*
X009609Y003192D01*
X009604Y003184D01*
X009059Y003498D01*
X009064Y003506D01*
G37*
D90*
G36*
X008691Y003722D02*
X009020Y003533D01*
X009015Y003524D01*
X008686Y003713D01*
X008691Y003722D01*
G37*
D91*
G36*
X007644Y004326D02*
X008657Y003742D01*
X008652Y003734D01*
X007639Y004318D01*
X007644Y004326D01*
G37*
D92*
G36*
X007539Y004144D02*
X008932Y003340D01*
X008927Y003332D01*
X007534Y004136D01*
X007539Y004144D01*
G37*
D93*
G36*
X007231Y004311D02*
X008918Y003337D01*
X008913Y003329D01*
X007226Y004303D01*
X007231Y004311D01*
G37*
D94*
G36*
X008871Y003052D02*
X009658Y002598D01*
X009653Y002590D01*
X008866Y003044D01*
X008871Y003052D01*
G37*
G36*
X009001Y003277D02*
X009788Y002823D01*
X009783Y002815D01*
X008996Y003269D01*
X009001Y003277D01*
G37*
G36*
X008686Y002731D02*
X009473Y002277D01*
X009468Y002269D01*
X008681Y002723D01*
X008686Y002731D01*
G37*
D95*
G36*
X007226Y004302D02*
X008897Y003338D01*
X008892Y003330D01*
X007221Y004294D01*
X007226Y004302D01*
G37*
D96*
G36*
X009005Y003264D02*
X009784Y002815D01*
X009779Y002806D01*
X009000Y003255D01*
X009005Y003264D01*
G37*
G36*
X008885Y003056D02*
X009664Y002607D01*
X009659Y002598D01*
X008880Y003047D01*
X008885Y003056D01*
G37*
D97*
G36*
X007221Y004294D02*
X008882Y003335D01*
X008877Y003326D01*
X007216Y004285D01*
X007221Y004294D01*
G37*
D98*
G36*
X009009Y003250D02*
X009778Y002806D01*
X009773Y002798D01*
X009004Y003242D01*
X009009Y003250D01*
G37*
G36*
X008899Y003059D02*
X009668Y002615D01*
X009663Y002607D01*
X008894Y003051D01*
X008899Y003059D01*
G37*
D99*
G36*
X007211Y004276D02*
X008864Y003322D01*
X008859Y003314D01*
X007206Y004268D01*
X007211Y004276D01*
G37*
G36*
X007216Y004285D02*
X008869Y003331D01*
X008864Y003323D01*
X007211Y004277D01*
X007216Y004285D01*
G37*
D100*
G36*
X009012Y003237D02*
X009773Y002798D01*
X009768Y002789D01*
X009007Y003228D01*
X009012Y003237D01*
G37*
G36*
X009007Y003228D02*
X009768Y002789D01*
X009763Y002780D01*
X009002Y003219D01*
X009007Y003228D01*
G37*
G36*
X008917Y003072D02*
X009678Y002633D01*
X009673Y002624D01*
X008912Y003063D01*
X008917Y003072D01*
G37*
G36*
X008912Y003063D02*
X009673Y002624D01*
X009668Y002615D01*
X008907Y003054D01*
X008912Y003063D01*
G37*
D101*
G36*
X007206Y004268D02*
X008851Y003319D01*
X008846Y003310D01*
X007201Y004259D01*
X007206Y004268D01*
G37*
D102*
G36*
X009011Y003214D02*
X009764Y002780D01*
X009759Y002772D01*
X009006Y003206D01*
X009011Y003214D01*
G37*
G36*
X009006Y003205D02*
X009759Y002771D01*
X009754Y002763D01*
X009001Y003197D01*
X009006Y003205D01*
G37*
G36*
X008936Y003084D02*
X009689Y002650D01*
X009684Y002642D01*
X008931Y003076D01*
X008936Y003084D01*
G37*
G36*
X008931Y003075D02*
X009684Y002641D01*
X009679Y002633D01*
X008926Y003067D01*
X008931Y003075D01*
G37*
D103*
G36*
X007201Y004259D02*
X008836Y003315D01*
X008831Y003307D01*
X007196Y004251D01*
X007201Y004259D01*
G37*
D104*
G36*
X007196Y004251D02*
X008823Y003312D01*
X008818Y003303D01*
X007191Y004242D01*
X007196Y004251D01*
G37*
G36*
X007191Y004242D02*
X008818Y003303D01*
X008813Y003294D01*
X007186Y004233D01*
X007191Y004242D01*
G37*
D105*
G36*
X009010Y003192D02*
X009753Y002763D01*
X009748Y002754D01*
X009005Y003183D01*
X009010Y003192D01*
G37*
G36*
X009005Y003183D02*
X009748Y002754D01*
X009743Y002745D01*
X009000Y003174D01*
X009005Y003183D01*
G37*
G36*
X009000Y003175D02*
X009743Y002746D01*
X009738Y002737D01*
X008995Y003166D01*
X009000Y003175D01*
G37*
G36*
X008995Y003166D02*
X009738Y002737D01*
X009733Y002728D01*
X008990Y003157D01*
X008995Y003166D01*
G37*
G36*
X008990Y003157D02*
X009733Y002728D01*
X009728Y002719D01*
X008985Y003148D01*
X008990Y003157D01*
G37*
D106*
G36*
X007181Y004224D02*
X008800Y003290D01*
X008795Y003282D01*
X007176Y004216D01*
X007181Y004224D01*
G37*
G36*
X007186Y004233D02*
X008805Y003299D01*
X008800Y003291D01*
X007181Y004225D01*
X007186Y004233D01*
G37*
D107*
G36*
X007176Y004216D02*
X008785Y003287D01*
X008780Y003278D01*
X007171Y004207D01*
X007176Y004216D01*
G37*
G36*
X006881Y003705D02*
X008490Y002776D01*
X008485Y002767D01*
X006876Y003696D01*
X006881Y003705D01*
G37*
D108*
G36*
X007171Y004207D02*
X008192Y003618D01*
X008187Y003609D01*
X007166Y004198D01*
X007171Y004207D01*
G37*
D109*
G36*
X008985Y003149D02*
X009434Y002890D01*
X009429Y002881D01*
X008980Y003140D01*
X008985Y003149D01*
G37*
G36*
X008980Y003140D02*
X009429Y002881D01*
X009424Y002872D01*
X008975Y003131D01*
X008980Y003140D01*
G37*
G36*
X008975Y003131D02*
X009424Y002872D01*
X009419Y002863D01*
X008970Y003122D01*
X008975Y003131D01*
G37*
G36*
X008970Y003123D02*
X009419Y002864D01*
X009414Y002855D01*
X008965Y003114D01*
X008970Y003123D01*
G37*
G36*
X008965Y003114D02*
X009414Y002855D01*
X009409Y002846D01*
X008960Y003105D01*
X008965Y003114D01*
G37*
G36*
X008960Y003105D02*
X009409Y002846D01*
X009404Y002837D01*
X008955Y003096D01*
X008960Y003105D01*
G37*
G36*
X008955Y003097D02*
X009404Y002838D01*
X009399Y002829D01*
X008950Y003088D01*
X008955Y003097D01*
G37*
D110*
G36*
X007126Y004129D02*
X008061Y003590D01*
X008056Y003581D01*
X007121Y004120D01*
X007126Y004129D01*
G37*
G36*
X007121Y004121D02*
X008056Y003582D01*
X008051Y003573D01*
X007116Y004112D01*
X007121Y004121D01*
G37*
D111*
G36*
X007116Y004112D02*
X008041Y003578D01*
X008036Y003570D01*
X007111Y004104D01*
X007116Y004112D01*
G37*
G36*
X007111Y004103D02*
X008036Y003569D01*
X008031Y003561D01*
X007106Y004095D01*
X007111Y004103D01*
G37*
G36*
X007106Y004094D02*
X008031Y003560D01*
X008026Y003552D01*
X007101Y004086D01*
X007106Y004094D01*
G37*
G36*
X008623Y002941D02*
X009548Y002407D01*
X009543Y002399D01*
X008618Y002933D01*
X008623Y002941D01*
G37*
G36*
X008618Y002933D02*
X009543Y002399D01*
X009538Y002391D01*
X008613Y002925D01*
X008618Y002933D01*
G37*
G36*
X008613Y002924D02*
X009538Y002390D01*
X009533Y002382D01*
X008608Y002916D01*
X008613Y002924D01*
G37*
G36*
X008608Y002915D02*
X009533Y002381D01*
X009528Y002373D01*
X008603Y002907D01*
X008608Y002915D01*
G37*
G36*
X008603Y002907D02*
X009528Y002373D01*
X009523Y002365D01*
X008598Y002899D01*
X008603Y002907D01*
G37*
G36*
X008598Y002898D02*
X009523Y002364D01*
X009518Y002356D01*
X008593Y002890D01*
X008598Y002898D01*
G37*
G36*
X008593Y002889D02*
X009518Y002355D01*
X009513Y002347D01*
X008588Y002881D01*
X008593Y002889D01*
G37*
D112*
G36*
X008636Y002946D02*
X009553Y002417D01*
X009548Y002408D01*
X008631Y002937D01*
X008636Y002946D01*
G37*
G36*
X008641Y002954D02*
X009558Y002425D01*
X009553Y002416D01*
X008636Y002945D01*
X008641Y002954D01*
G37*
G36*
X008646Y002963D02*
X009563Y002434D01*
X009558Y002425D01*
X008641Y002954D01*
X008646Y002963D01*
G37*
G36*
X008651Y002972D02*
X009568Y002443D01*
X009563Y002434D01*
X008646Y002963D01*
X008651Y002972D01*
G37*
G36*
X008656Y002980D02*
X009573Y002451D01*
X009568Y002442D01*
X008651Y002971D01*
X008656Y002980D01*
G37*
G36*
X008661Y002989D02*
X009578Y002460D01*
X009573Y002451D01*
X008656Y002980D01*
X008661Y002989D01*
G37*
G36*
X008526Y002755D02*
X009443Y002226D01*
X009438Y002217D01*
X008521Y002746D01*
X008526Y002755D01*
G37*
G36*
X007091Y004069D02*
X008008Y003540D01*
X008003Y003531D01*
X007086Y004060D01*
X007091Y004069D01*
G37*
G36*
X007096Y004077D02*
X008013Y003548D01*
X008008Y003539D01*
X007091Y004068D01*
X007096Y004077D01*
G37*
G36*
X007101Y004086D02*
X008018Y003557D01*
X008013Y003548D01*
X007096Y004077D01*
X007101Y004086D01*
G37*
D113*
G36*
X007086Y004060D02*
X007995Y003536D01*
X007990Y003528D01*
X007081Y004052D01*
X007086Y004060D01*
G37*
G36*
X007081Y004051D02*
X007990Y003527D01*
X007985Y003519D01*
X007076Y004043D01*
X007081Y004051D01*
G37*
D114*
G36*
X006911Y003756D02*
X007732Y003282D01*
X007727Y003274D01*
X006906Y003748D01*
X006911Y003756D01*
G37*
G36*
X006906Y003748D02*
X007727Y003274D01*
X007722Y003266D01*
X006901Y003740D01*
X006906Y003748D01*
G37*
G36*
X006901Y003739D02*
X007722Y003265D01*
X007717Y003257D01*
X006896Y003731D01*
X006901Y003739D01*
G37*
G36*
X008632Y002717D02*
X009453Y002243D01*
X009448Y002235D01*
X008627Y002709D01*
X008632Y002717D01*
G37*
G36*
X008822Y003046D02*
X009643Y002572D01*
X009638Y002564D01*
X008817Y003038D01*
X008822Y003046D01*
G37*
D115*
G36*
X008747Y003077D02*
X009638Y002563D01*
X009633Y002555D01*
X008742Y003069D01*
X008747Y003077D01*
G37*
G36*
X008742Y003069D02*
X009633Y002555D01*
X009628Y002547D01*
X008737Y003061D01*
X008742Y003069D01*
G37*
G36*
X007076Y004042D02*
X007967Y003528D01*
X007962Y003520D01*
X007071Y004034D01*
X007076Y004042D01*
G37*
D116*
G36*
X007016Y003938D02*
X007889Y003434D01*
X007884Y003426D01*
X007011Y003930D01*
X007016Y003938D01*
G37*
G36*
X007071Y004034D02*
X007944Y003530D01*
X007939Y003522D01*
X007066Y004026D01*
X007071Y004034D01*
G37*
D117*
G36*
X008729Y003065D02*
X009628Y002546D01*
X009623Y002537D01*
X008724Y003056D01*
X008729Y003065D01*
G37*
D118*
G36*
X007066Y004025D02*
X007931Y003526D01*
X007926Y003517D01*
X007061Y004016D01*
X007066Y004025D01*
G37*
G36*
X007011Y003930D02*
X007876Y003431D01*
X007871Y003422D01*
X007006Y003921D01*
X007011Y003930D01*
G37*
G36*
X007006Y003922D02*
X007871Y003423D01*
X007866Y003414D01*
X007001Y003913D01*
X007006Y003922D01*
G37*
D119*
G36*
X007330Y003781D02*
X007865Y003472D01*
X007860Y003463D01*
X007325Y003772D01*
X007330Y003781D01*
G37*
G36*
X007350Y003816D02*
X007885Y003507D01*
X007880Y003498D01*
X007345Y003807D01*
X007350Y003816D01*
G37*
G36*
X007355Y003824D02*
X007890Y003515D01*
X007885Y003506D01*
X007350Y003815D01*
X007355Y003824D01*
G37*
D120*
G36*
X007344Y003807D02*
X007871Y003503D01*
X007866Y003495D01*
X007339Y003799D01*
X007344Y003807D01*
G37*
G36*
X007339Y003798D02*
X007866Y003494D01*
X007861Y003486D01*
X007334Y003790D01*
X007339Y003798D01*
G37*
G36*
X007334Y003789D02*
X007861Y003485D01*
X007856Y003477D01*
X007329Y003781D01*
X007334Y003789D01*
G37*
G36*
X007254Y003651D02*
X007781Y003347D01*
X007776Y003339D01*
X007249Y003643D01*
X007254Y003651D01*
G37*
G36*
X007249Y003642D02*
X007776Y003338D01*
X007771Y003330D01*
X007244Y003634D01*
X007249Y003642D01*
G37*
G36*
X007244Y003633D02*
X007771Y003329D01*
X007766Y003321D01*
X007239Y003625D01*
X007244Y003633D01*
G37*
D121*
G36*
X006991Y003895D02*
X007848Y003401D01*
X007843Y003393D01*
X006986Y003887D01*
X006991Y003895D01*
G37*
G36*
X006996Y003904D02*
X007853Y003410D01*
X007848Y003402D01*
X006991Y003896D01*
X006996Y003904D01*
G37*
G36*
X007001Y003912D02*
X007858Y003418D01*
X007853Y003410D01*
X006996Y003904D01*
X007001Y003912D01*
G37*
G36*
X006886Y003713D02*
X007743Y003219D01*
X007738Y003211D01*
X006881Y003705D01*
X006886Y003713D01*
G37*
D122*
G36*
X006976Y003870D02*
X007823Y003381D01*
X007818Y003372D01*
X006971Y003861D01*
X006976Y003870D01*
G37*
G36*
X006981Y003878D02*
X007828Y003389D01*
X007823Y003380D01*
X006976Y003869D01*
X006981Y003878D01*
G37*
G36*
X006986Y003887D02*
X007833Y003398D01*
X007828Y003389D01*
X006981Y003878D01*
X006986Y003887D01*
G37*
D123*
G36*
X006971Y003860D02*
X007810Y003376D01*
X007805Y003368D01*
X006966Y003852D01*
X006971Y003860D01*
G37*
G36*
X006966Y003852D02*
X007805Y003368D01*
X007800Y003360D01*
X006961Y003844D01*
X006966Y003852D01*
G37*
G36*
X006961Y003843D02*
X007800Y003359D01*
X007795Y003351D01*
X006956Y003835D01*
X006961Y003843D01*
G37*
G36*
X006891Y003722D02*
X007730Y003238D01*
X007725Y003230D01*
X006886Y003714D01*
X006891Y003722D01*
G37*
G36*
X008609Y002718D02*
X009448Y002234D01*
X009443Y002226D01*
X008604Y002710D01*
X008609Y002718D01*
G37*
D124*
G36*
X006896Y003731D02*
X007727Y003252D01*
X007722Y003243D01*
X006891Y003722D01*
X006896Y003731D01*
G37*
G36*
X006956Y003835D02*
X007787Y003356D01*
X007782Y003347D01*
X006951Y003826D01*
X006956Y003835D01*
G37*
D125*
G36*
X008730Y002788D02*
X009213Y002509D01*
X009208Y002500D01*
X008725Y002779D01*
X008730Y002788D01*
G37*
G36*
X008705Y002744D02*
X009188Y002465D01*
X009183Y002456D01*
X008700Y002735D01*
X008705Y002744D01*
G37*
G36*
X008700Y002736D02*
X009183Y002457D01*
X009178Y002448D01*
X008695Y002727D01*
X008700Y002736D01*
G37*
D126*
G36*
X007224Y003599D02*
X007743Y003300D01*
X007738Y003291D01*
X007219Y003590D01*
X007224Y003599D01*
G37*
G36*
X007229Y003608D02*
X007748Y003309D01*
X007743Y003300D01*
X007224Y003599D01*
X007229Y003608D01*
G37*
G36*
X007234Y003617D02*
X007753Y003318D01*
X007748Y003309D01*
X007229Y003608D01*
X007234Y003617D01*
G37*
G36*
X007239Y003625D02*
X007758Y003326D01*
X007753Y003317D01*
X007234Y003616D01*
X007239Y003625D01*
G37*
D127*
G36*
X008055Y003038D02*
X008392Y002844D01*
X008387Y002836D01*
X008050Y003030D01*
X008055Y003038D01*
G37*
M02*
