G75*
%MOIN*%
%OFA0B0*%
%FSLAX24Y24*%
%IPPOS*%
%LPD*%
%AMOC8*
5,1,8,0,0,1.08239X$1,22.5*
%
%ADD10C,0.0120*%
%ADD11C,0.0000*%
%ADD12R,0.0900X0.0236*%
%ADD13R,0.0800X0.0260*%
%ADD14R,0.1024X0.0591*%
%ADD15R,0.0827X0.0551*%
D10*
X000160Y012910D02*
X000164Y013221D01*
X000175Y013531D01*
X000194Y013841D01*
X000221Y014151D01*
X000255Y014460D01*
X000297Y014767D01*
X000346Y015074D01*
X000403Y015380D01*
X000468Y015684D01*
X000539Y015986D01*
X000619Y016286D01*
X000705Y016585D01*
X000799Y016881D01*
X000900Y017175D01*
X001008Y017466D01*
X001124Y017754D01*
X001246Y018040D01*
X001375Y018322D01*
X001512Y018602D01*
X001655Y018877D01*
X001805Y019150D01*
X001961Y019418D01*
X002124Y019683D01*
X002293Y019943D01*
X002469Y020199D01*
X002651Y020451D01*
X002839Y020698D01*
X003033Y020941D01*
X003233Y021179D01*
X003439Y021411D01*
X003651Y021639D01*
X003868Y021861D01*
X004090Y022078D01*
X004318Y022290D01*
X004550Y022496D01*
X004788Y022696D01*
X005031Y022890D01*
X005278Y023078D01*
X005530Y023260D01*
X005786Y023436D01*
X006046Y023605D01*
X006311Y023768D01*
X006579Y023924D01*
X006852Y024074D01*
X007127Y024217D01*
X007407Y024354D01*
X007689Y024483D01*
X007975Y024605D01*
X008263Y024721D01*
X008554Y024829D01*
X008848Y024930D01*
X009144Y025024D01*
X009443Y025110D01*
X009743Y025190D01*
X010045Y025261D01*
X010349Y025326D01*
X010655Y025383D01*
X010962Y025432D01*
X011269Y025474D01*
X011578Y025508D01*
X011888Y025535D01*
X012198Y025554D01*
X012508Y025565D01*
X012819Y025569D01*
X013130Y025565D01*
X013440Y025554D01*
X013750Y025535D01*
X014060Y025508D01*
X014369Y025474D01*
X014676Y025432D01*
X014983Y025383D01*
X015289Y025326D01*
X015593Y025261D01*
X015895Y025190D01*
X016195Y025110D01*
X016494Y025024D01*
X016790Y024930D01*
X017084Y024829D01*
X017375Y024721D01*
X017663Y024605D01*
X017949Y024483D01*
X018231Y024354D01*
X018511Y024217D01*
X018786Y024074D01*
X019059Y023924D01*
X019327Y023768D01*
X019592Y023605D01*
X019852Y023436D01*
X020108Y023260D01*
X020360Y023078D01*
X020607Y022890D01*
X020850Y022696D01*
X021088Y022496D01*
X021320Y022290D01*
X021548Y022078D01*
X021770Y021861D01*
X021987Y021639D01*
X022199Y021411D01*
X022405Y021179D01*
X022605Y020941D01*
X022799Y020698D01*
X022987Y020451D01*
X023169Y020199D01*
X023345Y019943D01*
X023514Y019683D01*
X023677Y019418D01*
X023833Y019150D01*
X023983Y018877D01*
X024126Y018602D01*
X024263Y018322D01*
X024392Y018040D01*
X024514Y017754D01*
X024630Y017466D01*
X024738Y017175D01*
X024839Y016881D01*
X024933Y016585D01*
X025019Y016286D01*
X025099Y015986D01*
X025170Y015684D01*
X025235Y015380D01*
X025292Y015074D01*
X025341Y014767D01*
X025383Y014460D01*
X025417Y014151D01*
X025444Y013841D01*
X025463Y013531D01*
X025474Y013221D01*
X025478Y012910D01*
X025474Y012599D01*
X025463Y012289D01*
X025444Y011979D01*
X025417Y011669D01*
X025383Y011360D01*
X025341Y011053D01*
X025292Y010746D01*
X025235Y010440D01*
X025170Y010136D01*
X025099Y009834D01*
X025019Y009534D01*
X024933Y009235D01*
X024839Y008939D01*
X024738Y008645D01*
X024630Y008354D01*
X024514Y008066D01*
X024392Y007780D01*
X024263Y007498D01*
X024126Y007218D01*
X023983Y006943D01*
X023833Y006670D01*
X023677Y006402D01*
X023514Y006137D01*
X023345Y005877D01*
X023169Y005621D01*
X022987Y005369D01*
X022799Y005122D01*
X022605Y004879D01*
X022405Y004641D01*
X022199Y004409D01*
X021987Y004181D01*
X021770Y003959D01*
X021548Y003742D01*
X021320Y003530D01*
X021088Y003324D01*
X020850Y003124D01*
X020607Y002930D01*
X020360Y002742D01*
X020108Y002560D01*
X019852Y002384D01*
X019592Y002215D01*
X019327Y002052D01*
X019059Y001896D01*
X018786Y001746D01*
X018511Y001603D01*
X018231Y001466D01*
X017949Y001337D01*
X017663Y001215D01*
X017375Y001099D01*
X017084Y000991D01*
X016790Y000890D01*
X016494Y000796D01*
X016195Y000710D01*
X015895Y000630D01*
X015593Y000559D01*
X015289Y000494D01*
X014983Y000437D01*
X014676Y000388D01*
X014369Y000346D01*
X014060Y000312D01*
X013750Y000285D01*
X013440Y000266D01*
X013130Y000255D01*
X012819Y000251D01*
X012508Y000255D01*
X012198Y000266D01*
X011888Y000285D01*
X011578Y000312D01*
X011269Y000346D01*
X010962Y000388D01*
X010655Y000437D01*
X010349Y000494D01*
X010045Y000559D01*
X009743Y000630D01*
X009443Y000710D01*
X009144Y000796D01*
X008848Y000890D01*
X008554Y000991D01*
X008263Y001099D01*
X007975Y001215D01*
X007689Y001337D01*
X007407Y001466D01*
X007127Y001603D01*
X006852Y001746D01*
X006579Y001896D01*
X006311Y002052D01*
X006046Y002215D01*
X005786Y002384D01*
X005530Y002560D01*
X005278Y002742D01*
X005031Y002930D01*
X004788Y003124D01*
X004550Y003324D01*
X004318Y003530D01*
X004090Y003742D01*
X003868Y003959D01*
X003651Y004181D01*
X003439Y004409D01*
X003233Y004641D01*
X003033Y004879D01*
X002839Y005122D01*
X002651Y005369D01*
X002469Y005621D01*
X002293Y005877D01*
X002124Y006137D01*
X001961Y006402D01*
X001805Y006670D01*
X001655Y006943D01*
X001512Y007218D01*
X001375Y007498D01*
X001246Y007780D01*
X001124Y008066D01*
X001008Y008354D01*
X000900Y008645D01*
X000799Y008939D01*
X000705Y009235D01*
X000619Y009534D01*
X000539Y009834D01*
X000468Y010136D01*
X000403Y010440D01*
X000346Y010746D01*
X000297Y011053D01*
X000255Y011360D01*
X000221Y011669D01*
X000194Y011979D01*
X000175Y012289D01*
X000164Y012599D01*
X000160Y012910D01*
D11*
X006814Y012910D02*
X006816Y012960D01*
X006822Y013010D01*
X006832Y013059D01*
X006846Y013107D01*
X006863Y013154D01*
X006884Y013199D01*
X006909Y013243D01*
X006937Y013284D01*
X006969Y013323D01*
X007003Y013360D01*
X007040Y013394D01*
X007080Y013424D01*
X007122Y013451D01*
X007166Y013475D01*
X007212Y013496D01*
X007259Y013512D01*
X007307Y013525D01*
X007357Y013534D01*
X007406Y013539D01*
X007457Y013540D01*
X007507Y013537D01*
X007556Y013530D01*
X007605Y013519D01*
X007653Y013504D01*
X007699Y013486D01*
X007744Y013464D01*
X007787Y013438D01*
X007828Y013409D01*
X007867Y013377D01*
X007903Y013342D01*
X007935Y013304D01*
X007965Y013264D01*
X007992Y013221D01*
X008015Y013177D01*
X008034Y013131D01*
X008050Y013083D01*
X008062Y013034D01*
X008070Y012985D01*
X008074Y012935D01*
X008074Y012885D01*
X008070Y012835D01*
X008062Y012786D01*
X008050Y012737D01*
X008034Y012689D01*
X008015Y012643D01*
X007992Y012599D01*
X007965Y012556D01*
X007935Y012516D01*
X007903Y012478D01*
X007867Y012443D01*
X007828Y012411D01*
X007787Y012382D01*
X007744Y012356D01*
X007699Y012334D01*
X007653Y012316D01*
X007605Y012301D01*
X007556Y012290D01*
X007507Y012283D01*
X007457Y012280D01*
X007406Y012281D01*
X007357Y012286D01*
X007307Y012295D01*
X007259Y012308D01*
X007212Y012324D01*
X007166Y012345D01*
X007122Y012369D01*
X007080Y012396D01*
X007040Y012426D01*
X007003Y012460D01*
X006969Y012497D01*
X006937Y012536D01*
X006909Y012577D01*
X006884Y012621D01*
X006863Y012666D01*
X006846Y012713D01*
X006832Y012761D01*
X006822Y012810D01*
X006816Y012860D01*
X006814Y012910D01*
X017564Y012910D02*
X017566Y012960D01*
X017572Y013010D01*
X017582Y013059D01*
X017596Y013107D01*
X017613Y013154D01*
X017634Y013199D01*
X017659Y013243D01*
X017687Y013284D01*
X017719Y013323D01*
X017753Y013360D01*
X017790Y013394D01*
X017830Y013424D01*
X017872Y013451D01*
X017916Y013475D01*
X017962Y013496D01*
X018009Y013512D01*
X018057Y013525D01*
X018107Y013534D01*
X018156Y013539D01*
X018207Y013540D01*
X018257Y013537D01*
X018306Y013530D01*
X018355Y013519D01*
X018403Y013504D01*
X018449Y013486D01*
X018494Y013464D01*
X018537Y013438D01*
X018578Y013409D01*
X018617Y013377D01*
X018653Y013342D01*
X018685Y013304D01*
X018715Y013264D01*
X018742Y013221D01*
X018765Y013177D01*
X018784Y013131D01*
X018800Y013083D01*
X018812Y013034D01*
X018820Y012985D01*
X018824Y012935D01*
X018824Y012885D01*
X018820Y012835D01*
X018812Y012786D01*
X018800Y012737D01*
X018784Y012689D01*
X018765Y012643D01*
X018742Y012599D01*
X018715Y012556D01*
X018685Y012516D01*
X018653Y012478D01*
X018617Y012443D01*
X018578Y012411D01*
X018537Y012382D01*
X018494Y012356D01*
X018449Y012334D01*
X018403Y012316D01*
X018355Y012301D01*
X018306Y012290D01*
X018257Y012283D01*
X018207Y012280D01*
X018156Y012281D01*
X018107Y012286D01*
X018057Y012295D01*
X018009Y012308D01*
X017962Y012324D01*
X017916Y012345D01*
X017872Y012369D01*
X017830Y012396D01*
X017790Y012426D01*
X017753Y012460D01*
X017719Y012497D01*
X017687Y012536D01*
X017659Y012577D01*
X017634Y012621D01*
X017613Y012666D01*
X017596Y012713D01*
X017582Y012761D01*
X017572Y012810D01*
X017566Y012860D01*
X017564Y012910D01*
D12*
X014130Y010160D03*
X014130Y009660D03*
X014130Y009160D03*
X014130Y008660D03*
X011508Y008660D03*
X011508Y009160D03*
X011508Y009660D03*
X011508Y010160D03*
D13*
X011609Y013660D03*
X011609Y014160D03*
X011609Y014660D03*
X011609Y015160D03*
X011609Y015660D03*
X011609Y016160D03*
X011609Y016660D03*
X011609Y017160D03*
X014029Y017160D03*
X014029Y016660D03*
X014029Y016160D03*
X014029Y015660D03*
X014029Y015160D03*
X014029Y014660D03*
X014029Y014160D03*
X014029Y013660D03*
D14*
G36*
X005212Y006088D02*
X005799Y005250D01*
X005316Y004912D01*
X004729Y005750D01*
X005212Y006088D01*
G37*
G36*
X006180Y006766D02*
X006767Y005928D01*
X006284Y005590D01*
X005697Y006428D01*
X006180Y006766D01*
G37*
G36*
X003780Y013259D02*
X003602Y012252D01*
X003022Y012355D01*
X003200Y013362D01*
X003780Y013259D01*
G37*
G36*
X002616Y013465D02*
X002438Y012458D01*
X001858Y012561D01*
X002036Y013568D01*
X002616Y013465D01*
G37*
G36*
X006675Y019549D02*
X005837Y018962D01*
X005499Y019445D01*
X006337Y020032D01*
X006675Y019549D01*
G37*
G36*
X005997Y020517D02*
X005159Y019930D01*
X004821Y020413D01*
X005659Y021000D01*
X005997Y020517D01*
G37*
G36*
X013168Y021949D02*
X012161Y022127D01*
X012264Y022707D01*
X013271Y022529D01*
X013168Y021949D01*
G37*
G36*
X013374Y023113D02*
X012367Y023291D01*
X012470Y023871D01*
X013477Y023693D01*
X013374Y023113D01*
G37*
G36*
X019458Y019054D02*
X018871Y019892D01*
X019354Y020230D01*
X019941Y019392D01*
X019458Y019054D01*
G37*
G36*
X020426Y019732D02*
X019839Y020570D01*
X020322Y020908D01*
X020909Y020070D01*
X020426Y019732D01*
G37*
G36*
X021858Y012561D02*
X022036Y013568D01*
X022616Y013465D01*
X022438Y012458D01*
X021858Y012561D01*
G37*
G36*
X023022Y012355D02*
X023200Y013362D01*
X023780Y013259D01*
X023602Y012252D01*
X023022Y012355D01*
G37*
G36*
X018963Y006271D02*
X019801Y006858D01*
X020139Y006375D01*
X019301Y005788D01*
X018963Y006271D01*
G37*
G36*
X019641Y005303D02*
X020479Y005890D01*
X020817Y005407D01*
X019979Y004820D01*
X019641Y005303D01*
G37*
G36*
X012470Y003871D02*
X013477Y003693D01*
X013374Y003113D01*
X012367Y003291D01*
X012470Y003871D01*
G37*
G36*
X012264Y002707D02*
X013271Y002529D01*
X013168Y001949D01*
X012161Y002127D01*
X012264Y002707D01*
G37*
D15*
X010850Y011024D03*
X010850Y012796D03*
X014787Y012796D03*
X014787Y011024D03*
M02*
