G75*
%MOIN*%
%OFA0B0*%
%FSLAX24Y24*%
%IPPOS*%
%LPD*%
%AMOC8*
5,1,8,0,0,1.08239X$1,22.5*
%
%ADD10C,0.0120*%
%ADD11C,0.0000*%
%ADD12R,0.1600X0.1600*%
%ADD13R,0.1000X0.2000*%
%ADD14R,0.0630X0.0710*%
%ADD15R,0.0630X0.0787*%
%ADD16R,0.0787X0.0630*%
%ADD17R,0.0394X0.1969*%
%ADD18R,0.0500X0.1000*%
%ADD19C,0.0357*%
%ADD20C,0.0240*%
%ADD21C,0.0160*%
D10*
X004275Y004308D02*
X007789Y004308D01*
X007789Y004426D02*
X004150Y004426D01*
X004025Y004545D02*
X007789Y004545D01*
X007789Y004663D02*
X003920Y004663D01*
X004006Y004562D02*
X003155Y005564D01*
X002418Y006652D01*
X001802Y007813D01*
X001315Y009034D01*
X000964Y010300D01*
X000751Y011598D01*
X000680Y012910D01*
X000751Y014222D01*
X000964Y015520D01*
X001315Y016786D01*
X001802Y018007D01*
X002418Y019168D01*
X003155Y020256D01*
X004006Y021258D01*
X004960Y022162D01*
X006007Y022957D01*
X007133Y023635D01*
X008326Y024187D01*
X009571Y024607D01*
X010855Y024889D01*
X012162Y025031D01*
X013476Y025031D01*
X014783Y024889D01*
X016067Y024607D01*
X017312Y024187D01*
X018140Y023804D01*
X018120Y023799D01*
X018063Y023700D01*
X017941Y023750D01*
X017501Y023750D01*
X017376Y023698D01*
X017281Y023603D01*
X017031Y023353D01*
X016979Y023228D01*
X016979Y020875D01*
X008501Y020875D01*
X008376Y020823D01*
X008281Y020728D01*
X008031Y020478D01*
X007979Y020353D01*
X007979Y020255D01*
X007728Y020255D01*
X007599Y020126D01*
X007599Y018000D01*
X003875Y018000D01*
X003871Y018009D01*
X002760Y018414D01*
X002595Y018337D01*
X002361Y017696D01*
X002438Y017530D01*
X003549Y017126D01*
X003714Y017203D01*
X003757Y017320D01*
X008599Y017320D01*
X008740Y017262D01*
X008898Y017262D01*
X009045Y017322D01*
X009157Y017434D01*
X009217Y017581D01*
X009217Y017739D01*
X009157Y017886D01*
X009045Y017998D01*
X009039Y018000D01*
X009039Y020126D01*
X008970Y020195D01*
X016668Y020195D01*
X016599Y020126D01*
X016599Y017944D01*
X016728Y017815D01*
X017910Y017815D01*
X018039Y017944D01*
X018039Y020126D01*
X017910Y020255D01*
X017659Y020255D01*
X017659Y022551D01*
X018167Y022258D01*
X018343Y022305D01*
X018935Y023329D01*
X018919Y023386D01*
X019040Y023313D01*
X018987Y023299D01*
X018395Y022275D01*
X018443Y022099D01*
X019033Y021758D01*
X019209Y021805D01*
X019330Y022014D01*
X020331Y021407D01*
X021354Y019929D01*
X021354Y019301D01*
X019734Y017681D01*
X019593Y017623D01*
X019481Y017511D01*
X019421Y017364D01*
X019421Y017206D01*
X019481Y017059D01*
X019593Y016947D01*
X019740Y016887D01*
X019898Y016887D01*
X020045Y016947D01*
X020157Y017059D01*
X020215Y017200D01*
X021982Y018967D01*
X022034Y019092D01*
X022034Y020004D01*
X022041Y020041D01*
X022034Y020071D01*
X022034Y020103D01*
X022020Y020137D01*
X022012Y020173D01*
X021994Y020199D01*
X021982Y020228D01*
X021956Y020254D01*
X020884Y021802D01*
X020883Y021807D01*
X020846Y021857D01*
X020810Y021909D01*
X020806Y021912D01*
X020803Y021916D01*
X020749Y021948D01*
X020696Y021982D01*
X020692Y021983D01*
X019670Y022603D01*
X019801Y022829D01*
X020678Y022162D01*
X021632Y021258D01*
X022483Y020256D01*
X023220Y019168D01*
X023836Y018007D01*
X024323Y016786D01*
X024674Y015520D01*
X024887Y014222D01*
X024958Y012910D01*
X024887Y011598D01*
X024674Y010300D01*
X024323Y009034D01*
X023836Y007813D01*
X023220Y006652D01*
X022483Y005564D01*
X021632Y004562D01*
X020678Y003658D01*
X019631Y002863D01*
X018505Y002185D01*
X017314Y001634D01*
X017603Y001923D01*
X017681Y002001D01*
X017724Y002104D01*
X017724Y004503D01*
X017774Y004554D01*
X017856Y004554D01*
X018003Y004614D01*
X018115Y004726D01*
X018175Y004873D01*
X018175Y005031D01*
X018115Y005178D01*
X018003Y005290D01*
X017856Y005350D01*
X017698Y005350D01*
X017551Y005290D01*
X017439Y005178D01*
X017379Y005031D01*
X017379Y004950D01*
X017207Y004778D01*
X017164Y004675D01*
X017164Y002276D01*
X016953Y002065D01*
X013232Y002065D01*
X013258Y002212D01*
X012772Y002298D01*
X012793Y002416D01*
X013279Y002330D01*
X013327Y002602D01*
X013323Y002644D01*
X013309Y002684D01*
X013285Y002718D01*
X013252Y002745D01*
X013214Y002763D01*
X013191Y002767D01*
X013217Y002831D01*
X013217Y002857D01*
X013299Y002842D01*
X013448Y002947D01*
X013590Y003747D01*
X013485Y003896D01*
X013303Y003928D01*
X013313Y003983D01*
X013300Y004042D01*
X013287Y004099D01*
X013287Y004099D01*
X013287Y004099D01*
X013254Y004147D01*
X013219Y004197D01*
X013219Y004197D01*
X013219Y004197D01*
X013170Y004228D01*
X013118Y004261D01*
X013118Y004261D01*
X013118Y004261D01*
X013059Y004272D01*
X013000Y004282D01*
X012941Y004269D01*
X012884Y004256D01*
X012884Y004256D01*
X012884Y004256D01*
X012836Y004223D01*
X012786Y004188D01*
X012786Y004188D01*
X012786Y004188D01*
X012755Y004139D01*
X012722Y004087D01*
X012712Y004032D01*
X012530Y004064D01*
X012381Y003960D01*
X012240Y003160D01*
X012344Y003011D01*
X012424Y002997D01*
X012421Y002989D01*
X012421Y002903D01*
X012397Y002907D01*
X012355Y002904D01*
X012316Y002889D01*
X012281Y002865D01*
X012254Y002833D01*
X012236Y002795D01*
X012188Y002523D01*
X012675Y002437D01*
X012654Y002319D01*
X012167Y002405D01*
X012120Y002133D01*
X012123Y002091D01*
X012133Y002065D01*
X010560Y002065D01*
X008849Y003776D01*
X008849Y013255D01*
X010875Y013255D01*
X010978Y013298D01*
X011402Y013722D01*
X011402Y011610D01*
X011531Y011481D01*
X012039Y011481D01*
X012039Y011339D01*
X011531Y011339D01*
X011402Y011210D01*
X011402Y010414D01*
X010113Y010414D01*
X010010Y010372D01*
X009660Y010022D01*
X009582Y009944D01*
X009539Y009841D01*
X009539Y007104D01*
X009582Y007001D01*
X009676Y006907D01*
X009593Y006873D01*
X009481Y006761D01*
X009421Y006614D01*
X009421Y006456D01*
X009481Y006309D01*
X009593Y006197D01*
X009740Y006137D01*
X009821Y006137D01*
X010285Y005673D01*
X010388Y005630D01*
X017375Y005630D01*
X017478Y005673D01*
X020431Y008626D01*
X020474Y008729D01*
X020474Y013716D01*
X020431Y013819D01*
X020353Y013897D01*
X020103Y014147D01*
X020000Y014190D01*
X016513Y014190D01*
X016474Y014174D01*
X016474Y014377D01*
X016532Y014434D01*
X016592Y014581D01*
X016592Y014739D01*
X016534Y014880D01*
X023036Y014880D01*
X023093Y014822D01*
X023240Y014762D01*
X023398Y014762D01*
X023545Y014822D01*
X023657Y014934D01*
X023717Y015081D01*
X023717Y015239D01*
X023657Y015386D01*
X023545Y015498D01*
X023398Y015558D01*
X023240Y015558D01*
X023093Y015498D01*
X023036Y015440D01*
X014435Y015440D01*
X012717Y017158D01*
X012717Y017239D01*
X012657Y017386D01*
X012545Y017498D01*
X012398Y017558D01*
X012240Y017558D01*
X012093Y017498D01*
X011981Y017386D01*
X011921Y017239D01*
X011921Y017081D01*
X011981Y016934D01*
X012093Y016822D01*
X012240Y016762D01*
X012321Y016762D01*
X013025Y016058D01*
X012990Y016058D01*
X012843Y015998D01*
X012731Y015886D01*
X012671Y015739D01*
X012671Y015658D01*
X012582Y015569D01*
X012539Y015466D01*
X012539Y015375D01*
X012398Y015433D01*
X012240Y015433D01*
X012093Y015373D01*
X011981Y015261D01*
X011921Y015114D01*
X011921Y015033D01*
X010703Y013815D01*
X008638Y013815D01*
X008535Y013772D01*
X008457Y013694D01*
X008332Y013569D01*
X008328Y013559D01*
X008316Y013579D01*
X008113Y013782D01*
X007944Y013880D01*
X010625Y013880D01*
X010728Y013923D01*
X010806Y014001D01*
X010978Y014173D01*
X011056Y014251D01*
X011099Y014354D01*
X011099Y015793D01*
X011170Y015822D01*
X011282Y015934D01*
X011342Y016081D01*
X011342Y016239D01*
X011282Y016386D01*
X011170Y016498D01*
X011023Y016558D01*
X010865Y016558D01*
X010718Y016498D01*
X010606Y016386D01*
X010546Y016239D01*
X010546Y016107D01*
X010539Y016091D01*
X010539Y016052D01*
X010523Y016058D01*
X010442Y016058D01*
X010431Y016069D01*
X010353Y016147D01*
X010250Y016190D01*
X005638Y016190D01*
X005535Y016147D01*
X005285Y015897D01*
X005207Y015819D01*
X005164Y015716D01*
X005164Y015443D01*
X005106Y015386D01*
X005046Y015239D01*
X005046Y015081D01*
X005104Y014940D01*
X004310Y014940D01*
X003987Y015263D01*
X003990Y015262D01*
X004148Y015262D01*
X004295Y015322D01*
X004407Y015434D01*
X004467Y015581D01*
X004467Y015739D01*
X004407Y015886D01*
X004295Y015998D01*
X004148Y016058D01*
X003990Y016058D01*
X003843Y015998D01*
X003786Y015940D01*
X002013Y015940D01*
X001910Y015897D01*
X001821Y015808D01*
X001740Y015808D01*
X001593Y015748D01*
X001481Y015636D01*
X001421Y015489D01*
X001421Y015331D01*
X001481Y015184D01*
X001593Y015072D01*
X001740Y015012D01*
X001898Y015012D01*
X002045Y015072D01*
X002157Y015184D01*
X002217Y015331D01*
X002217Y015380D01*
X003177Y015380D01*
X003171Y015364D01*
X003171Y015206D01*
X003231Y015059D01*
X003343Y014947D01*
X003490Y014887D01*
X003571Y014887D01*
X004035Y014423D01*
X004138Y014380D01*
X000777Y014380D01*
X000758Y014262D02*
X006025Y014262D01*
X006082Y014319D02*
X005832Y014069D01*
X005789Y013966D01*
X005789Y009104D01*
X005832Y009001D01*
X005910Y008923D01*
X006285Y008548D01*
X006388Y008505D01*
X007203Y008505D01*
X007789Y007919D01*
X007789Y002479D01*
X007832Y002376D01*
X007910Y002298D01*
X008701Y001507D01*
X008326Y001633D01*
X007133Y002185D01*
X006007Y002863D01*
X004960Y003658D01*
X004006Y004562D01*
X003820Y004782D02*
X007789Y004782D01*
X007789Y004900D02*
X005373Y004900D01*
X005339Y004876D02*
X005565Y005035D01*
X005282Y005439D01*
X005380Y005508D01*
X005663Y005103D01*
X005889Y005262D01*
X005916Y005294D01*
X005934Y005332D01*
X005941Y005374D01*
X007789Y005374D01*
X007789Y005256D02*
X005880Y005256D01*
X005941Y005374D02*
X005938Y005416D01*
X005923Y005455D01*
X005914Y005468D01*
X005971Y005492D01*
X005994Y005515D01*
X006039Y005451D01*
X006219Y005419D01*
X006884Y005885D01*
X006916Y006064D01*
X006359Y006859D01*
X006180Y006890D01*
X005515Y006425D01*
X005483Y006245D01*
X005534Y006173D01*
X005519Y006167D01*
X005464Y006111D01*
X005447Y006135D01*
X005415Y006162D01*
X005377Y006180D01*
X005336Y006187D01*
X005294Y006183D01*
X005254Y006169D01*
X005028Y006010D01*
X005311Y005606D01*
X005213Y005537D01*
X005282Y005439D01*
X004942Y005201D01*
X005145Y004910D01*
X005177Y004883D01*
X005216Y004865D01*
X005257Y004858D01*
X005299Y004862D01*
X005339Y004876D01*
X005157Y004900D02*
X003719Y004900D01*
X003618Y005019D02*
X005069Y005019D01*
X004986Y005137D02*
X003518Y005137D01*
X003417Y005256D02*
X005020Y005256D01*
X004980Y005374D02*
X005189Y005374D01*
X005149Y005493D02*
X005244Y005493D01*
X005213Y005537D02*
X004873Y005299D01*
X004669Y005590D01*
X004655Y005629D01*
X004651Y005671D01*
X004659Y005713D01*
X004676Y005751D01*
X004703Y005783D01*
X004930Y005942D01*
X005213Y005537D01*
X005161Y005611D02*
X005308Y005611D01*
X005358Y005493D02*
X005391Y005493D01*
X005327Y005374D02*
X005474Y005374D01*
X005410Y005256D02*
X005557Y005256D01*
X005493Y005137D02*
X005639Y005137D01*
X005711Y005137D02*
X007789Y005137D01*
X007789Y005019D02*
X005542Y005019D01*
X005972Y005493D02*
X006010Y005493D01*
X006323Y005493D02*
X007789Y005493D01*
X007789Y005611D02*
X006493Y005611D01*
X006662Y005730D02*
X007789Y005730D01*
X007789Y005848D02*
X006831Y005848D01*
X006898Y005967D02*
X007789Y005967D01*
X007789Y006085D02*
X006901Y006085D01*
X006818Y006204D02*
X007789Y006204D01*
X007789Y006322D02*
X006735Y006322D01*
X006652Y006441D02*
X007789Y006441D01*
X007789Y006559D02*
X006569Y006559D01*
X006486Y006678D02*
X007789Y006678D01*
X007789Y006796D02*
X006403Y006796D01*
X006045Y006796D02*
X002341Y006796D01*
X002278Y006915D02*
X007789Y006915D01*
X007789Y007033D02*
X002215Y007033D01*
X002153Y007152D02*
X007789Y007152D01*
X007789Y007270D02*
X002090Y007270D01*
X002027Y007389D02*
X007789Y007389D01*
X007789Y007507D02*
X001964Y007507D01*
X001901Y007626D02*
X007789Y007626D01*
X007789Y007744D02*
X001838Y007744D01*
X001782Y007863D02*
X007789Y007863D01*
X007727Y007981D02*
X001735Y007981D01*
X001688Y008100D02*
X007608Y008100D01*
X007490Y008218D02*
X001641Y008218D01*
X001593Y008337D02*
X007371Y008337D01*
X007253Y008455D02*
X001546Y008455D01*
X001499Y008574D02*
X006259Y008574D01*
X006141Y008692D02*
X001452Y008692D01*
X001404Y008811D02*
X006022Y008811D01*
X005904Y008929D02*
X001357Y008929D01*
X001312Y009048D02*
X005813Y009048D01*
X005789Y009166D02*
X001279Y009166D01*
X001246Y009285D02*
X005789Y009285D01*
X005789Y009403D02*
X001213Y009403D01*
X001180Y009522D02*
X005789Y009522D01*
X005789Y009640D02*
X001147Y009640D01*
X001114Y009759D02*
X005789Y009759D01*
X005789Y009877D02*
X001081Y009877D01*
X001048Y009996D02*
X005789Y009996D01*
X005789Y010114D02*
X001016Y010114D01*
X000983Y010233D02*
X005789Y010233D01*
X005789Y010351D02*
X000956Y010351D01*
X000936Y010470D02*
X005789Y010470D01*
X005789Y010588D02*
X000917Y010588D01*
X000897Y010707D02*
X005789Y010707D01*
X005789Y010825D02*
X000878Y010825D01*
X000858Y010944D02*
X005789Y010944D01*
X005789Y011062D02*
X000839Y011062D01*
X000820Y011181D02*
X005789Y011181D01*
X005789Y011299D02*
X000800Y011299D01*
X000781Y011418D02*
X005789Y011418D01*
X005789Y011536D02*
X000761Y011536D01*
X000748Y011655D02*
X005789Y011655D01*
X005789Y011773D02*
X000742Y011773D01*
X000735Y011892D02*
X005789Y011892D01*
X005789Y012010D02*
X000729Y012010D01*
X000722Y012129D02*
X005789Y012129D01*
X005789Y012247D02*
X003805Y012247D01*
X003805Y012244D02*
X003973Y013199D01*
X003869Y013348D01*
X003069Y013489D01*
X002919Y013384D01*
X002906Y013305D01*
X002898Y013308D01*
X002812Y013308D01*
X002816Y013331D01*
X002813Y013373D01*
X002798Y013413D01*
X002774Y013447D01*
X002742Y013475D01*
X002704Y013492D01*
X002432Y013540D01*
X002346Y013054D01*
X002228Y013075D01*
X002314Y013561D01*
X002042Y013609D01*
X002000Y013605D01*
X001960Y013591D01*
X001926Y013567D01*
X001899Y013535D01*
X001881Y013496D01*
X001819Y013147D01*
X002228Y013075D01*
X002207Y012957D01*
X001798Y013029D01*
X001737Y012679D01*
X001740Y012637D01*
X001755Y012598D01*
X001779Y012563D01*
X001811Y012536D01*
X001849Y012519D01*
X002121Y012471D01*
X002207Y012957D01*
X002325Y012936D01*
X002239Y012450D01*
X002511Y012402D01*
X002553Y012405D01*
X002593Y012420D01*
X002627Y012444D01*
X002654Y012476D01*
X002672Y012515D01*
X002676Y012538D01*
X002740Y012512D01*
X002766Y012512D01*
X002751Y012429D01*
X002856Y012280D01*
X003655Y012139D01*
X003805Y012244D01*
X003826Y012366D02*
X005789Y012366D01*
X005789Y012484D02*
X003847Y012484D01*
X003868Y012603D02*
X005789Y012603D01*
X005789Y012721D02*
X003889Y012721D01*
X003910Y012840D02*
X005789Y012840D01*
X005789Y012958D02*
X003931Y012958D01*
X003952Y013077D02*
X005789Y013077D01*
X005789Y013195D02*
X003973Y013195D01*
X003893Y013314D02*
X005789Y013314D01*
X005789Y013432D02*
X003391Y013432D01*
X002988Y013432D02*
X002785Y013432D01*
X002813Y013314D02*
X002907Y013314D01*
X002413Y013432D02*
X002291Y013432D01*
X002312Y013551D02*
X005789Y013551D01*
X005789Y013669D02*
X000721Y013669D01*
X000715Y013551D02*
X001912Y013551D01*
X001869Y013432D02*
X000708Y013432D01*
X000702Y013314D02*
X001849Y013314D01*
X001828Y013195D02*
X000695Y013195D01*
X000689Y013077D02*
X002219Y013077D01*
X002228Y013077D02*
X002350Y013077D01*
X002371Y013195D02*
X002249Y013195D01*
X002270Y013314D02*
X002392Y013314D01*
X002207Y012958D02*
X002200Y012958D01*
X002186Y012840D02*
X002308Y012840D01*
X002287Y012721D02*
X002165Y012721D01*
X002145Y012603D02*
X002266Y012603D01*
X002245Y012484D02*
X002124Y012484D01*
X002045Y012484D02*
X000703Y012484D01*
X000710Y012366D02*
X002796Y012366D01*
X002761Y012484D02*
X002658Y012484D01*
X003044Y012247D02*
X000716Y012247D01*
X000697Y012603D02*
X001753Y012603D01*
X001744Y012721D02*
X000690Y012721D01*
X000684Y012840D02*
X001765Y012840D01*
X001786Y012958D02*
X000683Y012958D01*
X000728Y013788D02*
X005789Y013788D01*
X005789Y013906D02*
X000734Y013906D01*
X000740Y014025D02*
X005813Y014025D01*
X005906Y014143D02*
X000747Y014143D01*
X000796Y014499D02*
X003959Y014499D01*
X003841Y014617D02*
X000816Y014617D01*
X000835Y014736D02*
X003722Y014736D01*
X003604Y014854D02*
X000855Y014854D01*
X000874Y014973D02*
X003318Y014973D01*
X003218Y015091D02*
X002063Y015091D01*
X002167Y015210D02*
X003171Y015210D01*
X003171Y015328D02*
X002216Y015328D01*
X002069Y015660D02*
X001819Y015410D01*
X002069Y015660D02*
X004069Y015660D01*
X004372Y015921D02*
X005309Y015921D01*
X005200Y015802D02*
X004441Y015802D01*
X004467Y015684D02*
X005164Y015684D01*
X005164Y015565D02*
X004461Y015565D01*
X004412Y015447D02*
X005164Y015447D01*
X005082Y015328D02*
X004300Y015328D01*
X004159Y015091D02*
X005046Y015091D01*
X005046Y015210D02*
X004040Y015210D01*
X004277Y014973D02*
X005090Y014973D01*
X005444Y015160D02*
X005444Y015660D01*
X005694Y015910D01*
X010194Y015910D01*
X010444Y015660D01*
X010444Y015160D02*
X009569Y015160D01*
X010444Y014660D02*
X004194Y014660D01*
X003569Y015285D01*
X003943Y016039D02*
X001108Y016039D01*
X001075Y015921D02*
X001966Y015921D01*
X001724Y015802D02*
X001042Y015802D01*
X001009Y015684D02*
X001529Y015684D01*
X001452Y015565D02*
X000976Y015565D01*
X000952Y015447D02*
X001421Y015447D01*
X001422Y015328D02*
X000932Y015328D01*
X000913Y015210D02*
X001471Y015210D01*
X001574Y015091D02*
X000894Y015091D01*
X001141Y016158D02*
X005560Y016158D01*
X005427Y016039D02*
X004195Y016039D01*
X003722Y017224D02*
X011921Y017224D01*
X011921Y017106D02*
X001443Y017106D01*
X001490Y017224D02*
X003280Y017224D01*
X002955Y017343D02*
X001537Y017343D01*
X001584Y017461D02*
X002629Y017461D01*
X002415Y017580D02*
X001632Y017580D01*
X001679Y017698D02*
X002362Y017698D01*
X002405Y017817D02*
X001726Y017817D01*
X001773Y017935D02*
X002448Y017935D01*
X002492Y018054D02*
X001827Y018054D01*
X001889Y018172D02*
X002535Y018172D01*
X002578Y018291D02*
X001952Y018291D01*
X002015Y018409D02*
X002750Y018409D01*
X002773Y018409D02*
X003451Y018409D01*
X003442Y018387D02*
X003876Y018229D01*
X003918Y018225D01*
X003959Y018233D01*
X003997Y018250D01*
X004030Y018278D01*
X004054Y018312D01*
X004126Y018510D01*
X003562Y018716D01*
X003603Y018828D01*
X004167Y018623D01*
X004239Y018822D01*
X004243Y018863D01*
X004235Y018905D01*
X004218Y018943D01*
X004191Y018975D01*
X004156Y019000D01*
X003723Y019157D01*
X003603Y018828D01*
X003490Y018869D01*
X003449Y018757D01*
X002886Y018962D01*
X002813Y018764D01*
X002810Y018722D01*
X002817Y018680D01*
X002835Y018642D01*
X002862Y018610D01*
X002896Y018585D01*
X003330Y018428D01*
X003449Y018757D01*
X003562Y018716D01*
X003442Y018387D01*
X003494Y018528D02*
X003366Y018528D01*
X003409Y018646D02*
X003537Y018646D01*
X003580Y018765D02*
X003779Y018765D01*
X003753Y018646D02*
X004104Y018646D01*
X004175Y018646D02*
X007599Y018646D01*
X007599Y018528D02*
X004079Y018528D01*
X004089Y018409D02*
X007599Y018409D01*
X007599Y018291D02*
X004039Y018291D01*
X003707Y018291D02*
X003098Y018291D01*
X003056Y018528D02*
X002078Y018528D01*
X002141Y018646D02*
X002833Y018646D01*
X002814Y018765D02*
X002204Y018765D01*
X002266Y018883D02*
X002857Y018883D01*
X002927Y019075D02*
X002999Y019273D01*
X003023Y019307D01*
X003055Y019335D01*
X003093Y019352D01*
X003135Y019360D01*
X003177Y019356D01*
X003610Y019198D01*
X003490Y018869D01*
X002927Y019075D01*
X002943Y019120D02*
X002392Y019120D01*
X002329Y019002D02*
X003127Y019002D01*
X003102Y018883D02*
X003453Y018883D01*
X003495Y018883D02*
X003623Y018883D01*
X003666Y019002D02*
X003538Y019002D01*
X003582Y019120D02*
X003709Y019120D01*
X003825Y019120D02*
X005602Y019120D01*
X005685Y019002D02*
X004151Y019002D01*
X004239Y018883D02*
X005768Y018883D01*
X005794Y018845D02*
X005974Y018813D01*
X006768Y019369D01*
X006800Y019549D01*
X006334Y020214D01*
X006154Y020246D01*
X006079Y020193D01*
X006012Y020259D01*
X006044Y020281D01*
X006071Y020314D01*
X006089Y020352D01*
X006096Y020393D01*
X006093Y020435D01*
X006078Y020475D01*
X005920Y020701D01*
X005515Y020418D01*
X005447Y020516D01*
X005851Y020799D01*
X005693Y021025D01*
X005660Y021052D01*
X005622Y021070D01*
X005581Y021078D01*
X005539Y021074D01*
X005499Y021059D01*
X005209Y020856D01*
X005447Y020516D01*
X005348Y020447D01*
X005417Y020349D01*
X005013Y020066D01*
X005171Y019840D01*
X005203Y019813D01*
X005241Y019795D01*
X005283Y019787D01*
X005325Y019791D01*
X005365Y019806D01*
X005376Y019814D01*
X005407Y019737D01*
X005416Y019729D01*
X005360Y019690D01*
X005329Y019510D01*
X005794Y018845D01*
X006074Y018883D02*
X007599Y018883D01*
X007599Y018765D02*
X004218Y018765D01*
X003452Y018765D02*
X003428Y018765D01*
X003500Y019239D02*
X005519Y019239D01*
X005436Y019357D02*
X003165Y019357D01*
X003120Y019357D02*
X002546Y019357D01*
X002626Y019476D02*
X005353Y019476D01*
X005343Y019594D02*
X002706Y019594D01*
X002787Y019713D02*
X005393Y019713D01*
X005181Y019831D02*
X002867Y019831D01*
X002947Y019950D02*
X005094Y019950D01*
X005016Y020068D02*
X003028Y020068D01*
X003108Y020187D02*
X004928Y020187D01*
X004944Y020164D02*
X004786Y020390D01*
X004771Y020430D01*
X004767Y020472D01*
X004775Y020513D01*
X004793Y020551D01*
X004820Y020584D01*
X005110Y020787D01*
X005348Y020447D01*
X004944Y020164D01*
X004976Y020187D02*
X005185Y020187D01*
X005145Y020305D02*
X005354Y020305D01*
X005365Y020424D02*
X005314Y020424D01*
X005282Y020542D02*
X005428Y020542D01*
X005484Y020542D02*
X005693Y020542D01*
X005653Y020661D02*
X005862Y020661D01*
X005948Y020661D02*
X008214Y020661D01*
X008332Y020779D02*
X005822Y020779D01*
X005782Y020898D02*
X016979Y020898D01*
X016979Y021016D02*
X005699Y021016D01*
X005437Y021016D02*
X003801Y021016D01*
X003901Y021135D02*
X016979Y021135D01*
X016979Y021253D02*
X004002Y021253D01*
X004126Y021372D02*
X007388Y021372D01*
X007437Y021322D02*
X008407Y021322D01*
X008536Y021451D01*
X008536Y021985D01*
X010306Y021985D01*
X010343Y021947D01*
X010490Y021887D01*
X010648Y021887D01*
X010795Y021947D01*
X010907Y022059D01*
X010967Y022206D01*
X010967Y022364D01*
X010907Y022511D01*
X010795Y022623D01*
X010648Y022683D01*
X010490Y022683D01*
X010343Y022623D01*
X010306Y022585D01*
X008466Y022585D01*
X008476Y022623D01*
X008476Y022899D01*
X007982Y022899D01*
X007982Y023019D01*
X008476Y023019D01*
X008476Y023295D01*
X008465Y023336D01*
X008444Y023373D01*
X008414Y023402D01*
X008378Y023424D01*
X008337Y023434D01*
X007982Y023434D01*
X007982Y023019D01*
X007862Y023019D01*
X007862Y022899D01*
X007369Y022899D01*
X007369Y022623D01*
X007380Y022583D01*
X007401Y022546D01*
X007430Y022516D01*
X007467Y022495D01*
X007508Y022485D01*
X007719Y022485D01*
X007690Y022455D01*
X007668Y022433D01*
X007651Y022392D01*
X007437Y022392D01*
X007309Y022263D01*
X007309Y021451D01*
X007437Y021322D01*
X007309Y021490D02*
X004251Y021490D01*
X004376Y021609D02*
X007309Y021609D01*
X007309Y021727D02*
X004501Y021727D01*
X004626Y021846D02*
X007309Y021846D01*
X007309Y021964D02*
X004752Y021964D01*
X004877Y022083D02*
X007309Y022083D01*
X007309Y022201D02*
X005012Y022201D01*
X004960Y022162D02*
X004960Y022162D01*
X005168Y022320D02*
X007365Y022320D01*
X007395Y022557D02*
X005480Y022557D01*
X005635Y022675D02*
X007369Y022675D01*
X007369Y022794D02*
X005791Y022794D01*
X005947Y022912D02*
X007862Y022912D01*
X007862Y023019D02*
X007369Y023019D01*
X007369Y023295D01*
X007380Y023336D01*
X007401Y023373D01*
X007430Y023402D01*
X007467Y023424D01*
X007508Y023434D01*
X007862Y023434D01*
X007862Y023019D01*
X007862Y023031D02*
X007982Y023031D01*
X007982Y023149D02*
X007862Y023149D01*
X007862Y023268D02*
X007982Y023268D01*
X007982Y023386D02*
X007862Y023386D01*
X007414Y023386D02*
X006719Y023386D01*
X006522Y023268D02*
X007369Y023268D01*
X007369Y023149D02*
X006325Y023149D01*
X006128Y023031D02*
X007369Y023031D01*
X007113Y023623D02*
X017301Y023623D01*
X017183Y023505D02*
X006916Y023505D01*
X007363Y023742D02*
X017481Y023742D01*
X017064Y023386D02*
X008431Y023386D01*
X008476Y023268D02*
X016996Y023268D01*
X016979Y023149D02*
X008476Y023149D01*
X008476Y023031D02*
X016979Y023031D01*
X016979Y022912D02*
X007982Y022912D01*
X008476Y022794D02*
X016979Y022794D01*
X016979Y022675D02*
X010668Y022675D01*
X010470Y022675D02*
X008476Y022675D01*
X008536Y021964D02*
X010326Y021964D01*
X010811Y021964D02*
X016979Y021964D01*
X016979Y021846D02*
X008536Y021846D01*
X008536Y021727D02*
X016979Y021727D01*
X016979Y021609D02*
X008536Y021609D01*
X008536Y021490D02*
X016979Y021490D01*
X016979Y021372D02*
X008457Y021372D01*
X008095Y020542D02*
X006031Y020542D01*
X006094Y020424D02*
X008008Y020424D01*
X007979Y020305D02*
X006064Y020305D01*
X006353Y020187D02*
X007659Y020187D01*
X007599Y020068D02*
X006436Y020068D01*
X006519Y019950D02*
X007599Y019950D01*
X007599Y019831D02*
X006602Y019831D01*
X006685Y019713D02*
X007599Y019713D01*
X007599Y019594D02*
X006768Y019594D01*
X006787Y019476D02*
X007599Y019476D01*
X007599Y019357D02*
X006750Y019357D01*
X006581Y019239D02*
X007599Y019239D01*
X007599Y019120D02*
X006412Y019120D01*
X006243Y019002D02*
X007599Y019002D01*
X007599Y018172D02*
X003424Y018172D01*
X003749Y018054D02*
X007599Y018054D01*
X009039Y018054D02*
X016599Y018054D01*
X016599Y018172D02*
X013767Y018172D01*
X013768Y018173D02*
X013779Y018214D01*
X013779Y018975D01*
X012879Y018975D01*
X012879Y019095D01*
X013779Y019095D01*
X013779Y019856D01*
X013768Y019897D01*
X013747Y019933D01*
X013717Y019963D01*
X013681Y019984D01*
X013640Y019995D01*
X012879Y019995D01*
X012879Y019095D01*
X012759Y019095D01*
X012759Y019995D01*
X011998Y019995D01*
X011957Y019984D01*
X011921Y019963D01*
X011891Y019933D01*
X011870Y019897D01*
X011859Y019856D01*
X011859Y019095D01*
X012759Y019095D01*
X012759Y018975D01*
X012879Y018975D01*
X012879Y018075D01*
X013640Y018075D01*
X013681Y018086D01*
X013717Y018107D01*
X013747Y018137D01*
X013768Y018173D01*
X013779Y018291D02*
X016599Y018291D01*
X016599Y018409D02*
X013779Y018409D01*
X013779Y018528D02*
X016599Y018528D01*
X016599Y018646D02*
X013779Y018646D01*
X013779Y018765D02*
X016599Y018765D01*
X016599Y018883D02*
X013779Y018883D01*
X013779Y019120D02*
X016599Y019120D01*
X016599Y019002D02*
X012879Y019002D01*
X012819Y019035D02*
X015319Y019035D01*
X015444Y018910D01*
X015444Y018660D01*
X016599Y019239D02*
X013779Y019239D01*
X013779Y019357D02*
X016599Y019357D01*
X016599Y019476D02*
X013779Y019476D01*
X013779Y019594D02*
X016599Y019594D01*
X016599Y019713D02*
X013779Y019713D01*
X013779Y019831D02*
X016599Y019831D01*
X016599Y019950D02*
X013731Y019950D01*
X012879Y019950D02*
X012759Y019950D01*
X012759Y019831D02*
X012879Y019831D01*
X012879Y019713D02*
X012759Y019713D01*
X012759Y019594D02*
X012879Y019594D01*
X012879Y019476D02*
X012759Y019476D01*
X012759Y019357D02*
X012879Y019357D01*
X012879Y019239D02*
X012759Y019239D01*
X012759Y019120D02*
X012879Y019120D01*
X012759Y019002D02*
X009039Y019002D01*
X009039Y019120D02*
X011859Y019120D01*
X011859Y019239D02*
X009039Y019239D01*
X009039Y019357D02*
X011859Y019357D01*
X011859Y019476D02*
X009039Y019476D01*
X009039Y019594D02*
X011859Y019594D01*
X011859Y019713D02*
X009039Y019713D01*
X009039Y019831D02*
X011859Y019831D01*
X011907Y019950D02*
X009039Y019950D01*
X009039Y020068D02*
X016599Y020068D01*
X016659Y020187D02*
X008979Y020187D01*
X009039Y018883D02*
X011859Y018883D01*
X011859Y018975D02*
X011859Y018214D01*
X011870Y018173D01*
X011891Y018137D01*
X011921Y018107D01*
X011957Y018086D01*
X011998Y018075D01*
X012759Y018075D01*
X012759Y018975D01*
X011859Y018975D01*
X011859Y018765D02*
X009039Y018765D01*
X009039Y018646D02*
X011859Y018646D01*
X011859Y018528D02*
X009039Y018528D01*
X009039Y018409D02*
X011859Y018409D01*
X011859Y018291D02*
X009039Y018291D01*
X009039Y018172D02*
X011871Y018172D01*
X012057Y017461D02*
X009168Y017461D01*
X009217Y017580D02*
X019550Y017580D01*
X019461Y017461D02*
X017331Y017461D01*
X017295Y017498D02*
X017148Y017558D01*
X016990Y017558D01*
X016843Y017498D01*
X016731Y017386D01*
X016671Y017239D01*
X016671Y017158D01*
X016410Y016897D01*
X016332Y016819D01*
X016289Y016716D01*
X016289Y016193D01*
X016231Y016136D01*
X016171Y015989D01*
X016171Y015831D01*
X016231Y015684D01*
X016343Y015572D01*
X016490Y015512D01*
X016648Y015512D01*
X016795Y015572D01*
X016907Y015684D01*
X016967Y015831D01*
X016967Y015989D01*
X016907Y016136D01*
X016849Y016193D01*
X016849Y016544D01*
X017067Y016762D01*
X017148Y016762D01*
X017295Y016822D01*
X017407Y016934D01*
X017467Y017081D01*
X017467Y017239D01*
X017407Y017386D01*
X017295Y017498D01*
X017425Y017343D02*
X019421Y017343D01*
X019421Y017224D02*
X017467Y017224D01*
X017467Y017106D02*
X019462Y017106D01*
X019553Y016987D02*
X017429Y016987D01*
X017341Y016869D02*
X024290Y016869D01*
X024333Y016750D02*
X017055Y016750D01*
X016937Y016632D02*
X024365Y016632D01*
X024398Y016513D02*
X016849Y016513D01*
X016849Y016395D02*
X024431Y016395D01*
X024464Y016276D02*
X016849Y016276D01*
X016885Y016158D02*
X024497Y016158D01*
X024530Y016039D02*
X016947Y016039D01*
X016967Y015921D02*
X024563Y015921D01*
X024596Y015802D02*
X016956Y015802D01*
X016906Y015684D02*
X024629Y015684D01*
X024662Y015565D02*
X016777Y015565D01*
X016569Y015910D02*
X016569Y016660D01*
X017069Y017160D01*
X016807Y017461D02*
X012581Y017461D01*
X012675Y017343D02*
X016713Y017343D01*
X016671Y017224D02*
X012717Y017224D01*
X012769Y017106D02*
X016619Y017106D01*
X016500Y016987D02*
X012888Y016987D01*
X013006Y016869D02*
X016382Y016869D01*
X016303Y016750D02*
X013125Y016750D01*
X013243Y016632D02*
X016289Y016632D01*
X016289Y016513D02*
X013362Y016513D01*
X013480Y016395D02*
X016289Y016395D01*
X016289Y016276D02*
X013599Y016276D01*
X013717Y016158D02*
X016253Y016158D01*
X016191Y016039D02*
X013836Y016039D01*
X013954Y015921D02*
X016171Y015921D01*
X016182Y015802D02*
X014073Y015802D01*
X014191Y015684D02*
X016232Y015684D01*
X016361Y015565D02*
X014310Y015565D01*
X014428Y015447D02*
X023042Y015447D01*
X023319Y015160D02*
X014319Y015160D01*
X012319Y017160D01*
X012047Y016869D02*
X001348Y016869D01*
X001305Y016750D02*
X012333Y016750D01*
X012451Y016632D02*
X001273Y016632D01*
X001240Y016513D02*
X010755Y016513D01*
X010615Y016395D02*
X001207Y016395D01*
X001174Y016276D02*
X010561Y016276D01*
X010546Y016158D02*
X010328Y016158D01*
X010819Y016035D02*
X010944Y016160D01*
X010819Y016035D02*
X010819Y014410D01*
X010569Y014160D01*
X006319Y014160D01*
X006069Y013910D01*
X006069Y009160D01*
X006444Y008785D01*
X007319Y008785D01*
X008069Y008035D01*
X008069Y002535D01*
X009444Y001160D01*
X011569Y001160D01*
X012127Y002175D02*
X010450Y002175D01*
X010332Y002293D02*
X012148Y002293D01*
X012190Y002530D02*
X010095Y002530D01*
X010213Y002412D02*
X012670Y002412D01*
X012792Y002412D02*
X012819Y002412D01*
X012800Y002293D02*
X017164Y002293D01*
X017164Y002412D02*
X013293Y002412D01*
X013314Y002530D02*
X017164Y002530D01*
X017164Y002649D02*
X013322Y002649D01*
X013193Y002767D02*
X017164Y002767D01*
X017164Y002886D02*
X013361Y002886D01*
X013459Y003004D02*
X017164Y003004D01*
X017164Y003123D02*
X013479Y003123D01*
X013500Y003241D02*
X017164Y003241D01*
X017164Y003360D02*
X013521Y003360D01*
X013542Y003478D02*
X017164Y003478D01*
X017164Y003597D02*
X013563Y003597D01*
X013584Y003715D02*
X017164Y003715D01*
X017164Y003834D02*
X013529Y003834D01*
X013307Y003952D02*
X017164Y003952D01*
X017164Y004071D02*
X013293Y004071D01*
X013313Y003983D02*
X013313Y003983D01*
X013313Y003983D01*
X013224Y004189D02*
X017164Y004189D01*
X017164Y004308D02*
X008849Y004308D01*
X008849Y004426D02*
X017164Y004426D01*
X017164Y004545D02*
X008849Y004545D01*
X008849Y004663D02*
X017164Y004663D01*
X017210Y004782D02*
X008849Y004782D01*
X008849Y004900D02*
X017329Y004900D01*
X017379Y005019D02*
X008849Y005019D01*
X008849Y005137D02*
X017422Y005137D01*
X017517Y005256D02*
X008849Y005256D01*
X008849Y005374D02*
X019549Y005374D01*
X019545Y005385D02*
X019560Y005345D01*
X019718Y005119D01*
X020123Y005402D01*
X020191Y005304D01*
X019787Y005021D01*
X019945Y004795D01*
X019978Y004768D01*
X020016Y004750D01*
X020057Y004742D01*
X020099Y004746D01*
X020139Y004761D01*
X020429Y004964D01*
X020191Y005304D01*
X020290Y005373D01*
X020221Y005471D01*
X020625Y005754D01*
X020467Y005980D01*
X020435Y006007D01*
X020397Y006025D01*
X020355Y006033D01*
X020313Y006029D01*
X020273Y006014D01*
X020243Y005993D01*
X020217Y006055D01*
X020198Y006074D01*
X020278Y006130D01*
X020310Y006310D01*
X019844Y006975D01*
X019664Y007007D01*
X018870Y006451D01*
X018838Y006271D01*
X019304Y005606D01*
X019484Y005574D01*
X019538Y005612D01*
X019541Y005604D01*
X019601Y005544D01*
X019594Y005539D01*
X019567Y005506D01*
X019549Y005468D01*
X019542Y005427D01*
X019545Y005385D01*
X019560Y005493D02*
X008849Y005493D01*
X008849Y005611D02*
X019300Y005611D01*
X019218Y005730D02*
X017534Y005730D01*
X017653Y005848D02*
X019135Y005848D01*
X019052Y005967D02*
X017771Y005967D01*
X017890Y006085D02*
X018969Y006085D01*
X018886Y006204D02*
X018008Y006204D01*
X018127Y006322D02*
X018847Y006322D01*
X018868Y006441D02*
X018245Y006441D01*
X018364Y006559D02*
X019025Y006559D01*
X019194Y006678D02*
X018482Y006678D01*
X018601Y006796D02*
X019363Y006796D01*
X019532Y006915D02*
X018719Y006915D01*
X018838Y007033D02*
X023423Y007033D01*
X023485Y007152D02*
X018956Y007152D01*
X019075Y007270D02*
X023548Y007270D01*
X023611Y007389D02*
X019193Y007389D01*
X019312Y007507D02*
X023674Y007507D01*
X023737Y007626D02*
X019430Y007626D01*
X019549Y007744D02*
X023799Y007744D01*
X023856Y007863D02*
X019667Y007863D01*
X019786Y007981D02*
X023903Y007981D01*
X023950Y008100D02*
X019904Y008100D01*
X020023Y008218D02*
X023997Y008218D01*
X024045Y008337D02*
X020141Y008337D01*
X020260Y008455D02*
X024092Y008455D01*
X024139Y008574D02*
X020378Y008574D01*
X020459Y008692D02*
X024186Y008692D01*
X024233Y008811D02*
X020474Y008811D01*
X020474Y008929D02*
X024281Y008929D01*
X024326Y009048D02*
X020474Y009048D01*
X020474Y009166D02*
X024359Y009166D01*
X024392Y009285D02*
X020474Y009285D01*
X020474Y009403D02*
X024425Y009403D01*
X024458Y009522D02*
X020474Y009522D01*
X020474Y009640D02*
X024491Y009640D01*
X024524Y009759D02*
X020474Y009759D01*
X020474Y009877D02*
X024557Y009877D01*
X024590Y009996D02*
X020474Y009996D01*
X020474Y010114D02*
X024622Y010114D01*
X024655Y010233D02*
X020474Y010233D01*
X020474Y010351D02*
X024682Y010351D01*
X024702Y010470D02*
X020474Y010470D01*
X020474Y010588D02*
X024721Y010588D01*
X024741Y010707D02*
X020474Y010707D01*
X020474Y010825D02*
X024760Y010825D01*
X024780Y010944D02*
X020474Y010944D01*
X020474Y011062D02*
X024799Y011062D01*
X024818Y011181D02*
X020474Y011181D01*
X020474Y011299D02*
X024838Y011299D01*
X024857Y011418D02*
X020474Y011418D01*
X020474Y011536D02*
X024877Y011536D01*
X024887Y011598D02*
X024887Y011598D01*
X024890Y011655D02*
X020474Y011655D01*
X020474Y011773D02*
X024896Y011773D01*
X024903Y011892D02*
X020474Y011892D01*
X020474Y012010D02*
X024909Y012010D01*
X024916Y012129D02*
X020474Y012129D01*
X020474Y012247D02*
X023392Y012247D01*
X023325Y012259D02*
X023597Y012211D01*
X023639Y012215D01*
X023678Y012229D01*
X023713Y012253D01*
X023740Y012285D01*
X023758Y012324D01*
X023819Y012673D01*
X023411Y012745D01*
X023432Y012863D01*
X023840Y012791D01*
X023902Y013140D01*
X023898Y013182D01*
X023884Y013222D01*
X023860Y013257D01*
X023827Y013284D01*
X023789Y013301D01*
X023517Y013349D01*
X023431Y012863D01*
X023313Y012884D01*
X023399Y013370D01*
X023127Y013418D01*
X023085Y013414D01*
X023046Y013400D01*
X023011Y013376D01*
X022984Y013344D01*
X022966Y013305D01*
X022962Y013282D01*
X022898Y013308D01*
X022873Y013308D01*
X022887Y013390D01*
X022783Y013540D01*
X021983Y013681D01*
X021834Y013576D01*
X021665Y012621D01*
X021770Y012472D01*
X022570Y012331D01*
X022719Y012436D01*
X022733Y012514D01*
X022740Y012512D01*
X022826Y012512D01*
X022822Y012489D01*
X022826Y012447D01*
X022840Y012407D01*
X022864Y012372D01*
X022897Y012345D01*
X022935Y012328D01*
X023207Y012280D01*
X023292Y012766D01*
X023411Y012745D01*
X023325Y012259D01*
X023344Y012366D02*
X023222Y012366D01*
X023243Y012484D02*
X023365Y012484D01*
X023386Y012603D02*
X023264Y012603D01*
X023285Y012721D02*
X023406Y012721D01*
X023427Y012840D02*
X023566Y012840D01*
X023547Y012721D02*
X024948Y012721D01*
X024941Y012603D02*
X023807Y012603D01*
X023786Y012484D02*
X024935Y012484D01*
X024928Y012366D02*
X023765Y012366D01*
X023704Y012247D02*
X024922Y012247D01*
X024954Y012840D02*
X023849Y012840D01*
X023870Y012958D02*
X024955Y012958D01*
X024949Y013077D02*
X023890Y013077D01*
X023894Y013195D02*
X024943Y013195D01*
X024936Y013314D02*
X023721Y013314D01*
X023511Y013314D02*
X023389Y013314D01*
X023368Y013195D02*
X023490Y013195D01*
X023469Y013077D02*
X023347Y013077D01*
X023326Y012958D02*
X023448Y012958D01*
X022970Y013314D02*
X022874Y013314D01*
X022858Y013432D02*
X024930Y013432D01*
X024923Y013551D02*
X022722Y013551D01*
X022050Y013669D02*
X024917Y013669D01*
X024910Y013788D02*
X020444Y013788D01*
X020474Y013669D02*
X021966Y013669D01*
X021829Y013551D02*
X020474Y013551D01*
X020474Y013432D02*
X021808Y013432D01*
X021787Y013314D02*
X020474Y013314D01*
X020474Y013195D02*
X021767Y013195D01*
X021746Y013077D02*
X020474Y013077D01*
X020474Y012958D02*
X021725Y012958D01*
X021704Y012840D02*
X020474Y012840D01*
X020474Y012721D02*
X021683Y012721D01*
X021679Y012603D02*
X020474Y012603D01*
X020474Y012484D02*
X021762Y012484D01*
X022374Y012366D02*
X020474Y012366D01*
X019914Y012366D02*
X019138Y012366D01*
X019207Y012484D02*
X019914Y012484D01*
X019914Y012603D02*
X019240Y012603D01*
X019210Y012489D02*
X019284Y012767D01*
X019284Y013053D01*
X019210Y013331D01*
X019066Y013579D01*
X019015Y013630D01*
X019828Y013630D01*
X019914Y013544D01*
X019914Y008901D01*
X017203Y006190D01*
X016974Y006190D01*
X016974Y009341D01*
X016931Y009444D01*
X016853Y009522D01*
X016003Y010372D01*
X015900Y010414D01*
X014236Y010414D01*
X014236Y011210D01*
X014107Y011339D01*
X013599Y011339D01*
X013599Y011481D01*
X014107Y011481D01*
X014236Y011610D01*
X014236Y011680D01*
X014343Y011572D01*
X014490Y011512D01*
X014648Y011512D01*
X014795Y011572D01*
X014907Y011684D01*
X014967Y011831D01*
X014967Y011989D01*
X014907Y012136D01*
X014849Y012193D01*
X014849Y013202D01*
X014856Y013184D01*
X014968Y013072D01*
X015115Y013012D01*
X015273Y013012D01*
X015420Y013072D01*
X015477Y013130D01*
X016125Y013130D01*
X016228Y013173D01*
X016685Y013630D01*
X017373Y013630D01*
X017322Y013579D01*
X017178Y013331D01*
X017104Y013053D01*
X017104Y012767D01*
X017178Y012489D01*
X017322Y012241D01*
X017525Y012038D01*
X017773Y011894D01*
X018050Y011820D01*
X018337Y011820D01*
X018615Y011894D01*
X018863Y012038D01*
X019066Y012241D01*
X019210Y012489D01*
X019272Y012721D02*
X019914Y012721D01*
X019914Y012840D02*
X019284Y012840D01*
X019284Y012958D02*
X019914Y012958D01*
X019914Y013077D02*
X019278Y013077D01*
X019246Y013195D02*
X019914Y013195D01*
X019914Y013314D02*
X019214Y013314D01*
X019151Y013432D02*
X019914Y013432D01*
X019907Y013551D02*
X019083Y013551D01*
X019944Y013910D02*
X020194Y013660D01*
X020194Y008785D01*
X017319Y005910D01*
X016694Y005910D01*
X016694Y009285D01*
X015845Y010134D01*
X013819Y010134D01*
X014236Y010470D02*
X019914Y010470D01*
X019914Y010588D02*
X014236Y010588D01*
X014236Y010707D02*
X019914Y010707D01*
X019914Y010825D02*
X014236Y010825D01*
X014236Y010944D02*
X019914Y010944D01*
X019914Y011062D02*
X014236Y011062D01*
X014236Y011181D02*
X019914Y011181D01*
X019914Y011299D02*
X014147Y011299D01*
X014162Y011536D02*
X014431Y011536D01*
X014261Y011655D02*
X014236Y011655D01*
X014569Y011910D02*
X014569Y013410D01*
X015069Y013910D01*
X015944Y013910D01*
X016194Y014160D01*
X016194Y014660D01*
X016477Y014380D02*
X024861Y014380D01*
X024880Y014262D02*
X016474Y014262D01*
X016558Y014499D02*
X024842Y014499D01*
X024822Y014617D02*
X016592Y014617D01*
X016592Y014736D02*
X024803Y014736D01*
X024783Y014854D02*
X023576Y014854D01*
X023673Y014973D02*
X024764Y014973D01*
X024744Y015091D02*
X023717Y015091D01*
X023717Y015210D02*
X024725Y015210D01*
X024706Y015328D02*
X023681Y015328D01*
X023596Y015447D02*
X024686Y015447D01*
X024891Y014143D02*
X020107Y014143D01*
X020225Y014025D02*
X024898Y014025D01*
X024904Y013906D02*
X020344Y013906D01*
X019944Y013910D02*
X016569Y013910D01*
X016069Y013410D01*
X015194Y013410D01*
X015424Y013077D02*
X017110Y013077D01*
X017104Y012958D02*
X014849Y012958D01*
X014849Y012840D02*
X017104Y012840D01*
X017116Y012721D02*
X014849Y012721D01*
X014849Y012603D02*
X017148Y012603D01*
X017181Y012484D02*
X014849Y012484D01*
X014849Y012366D02*
X017250Y012366D01*
X017318Y012247D02*
X014849Y012247D01*
X014910Y012129D02*
X017434Y012129D01*
X017573Y012010D02*
X014959Y012010D01*
X014967Y011892D02*
X017784Y011892D01*
X018604Y011892D02*
X019914Y011892D01*
X019914Y012010D02*
X018815Y012010D01*
X018954Y012129D02*
X019914Y012129D01*
X019914Y012247D02*
X019070Y012247D01*
X019914Y011773D02*
X014944Y011773D01*
X014877Y011655D02*
X019914Y011655D01*
X019914Y011536D02*
X014707Y011536D01*
X015069Y011660D02*
X016194Y011660D01*
X016024Y010351D02*
X019914Y010351D01*
X019914Y010233D02*
X016142Y010233D01*
X016261Y010114D02*
X019914Y010114D01*
X019914Y009996D02*
X016379Y009996D01*
X016498Y009877D02*
X019914Y009877D01*
X019914Y009759D02*
X016616Y009759D01*
X016735Y009640D02*
X019914Y009640D01*
X019914Y009522D02*
X016853Y009522D01*
X016948Y009403D02*
X019914Y009403D01*
X019914Y009285D02*
X016974Y009285D01*
X016974Y009166D02*
X019914Y009166D01*
X019914Y009048D02*
X016974Y009048D01*
X016974Y008929D02*
X019914Y008929D01*
X019824Y008811D02*
X016974Y008811D01*
X016974Y008692D02*
X019705Y008692D01*
X019587Y008574D02*
X016974Y008574D01*
X016974Y008455D02*
X019468Y008455D01*
X019350Y008337D02*
X016974Y008337D01*
X016974Y008218D02*
X019231Y008218D01*
X019113Y008100D02*
X016974Y008100D01*
X016974Y007981D02*
X018994Y007981D01*
X018876Y007863D02*
X016974Y007863D01*
X016974Y007744D02*
X018757Y007744D01*
X018639Y007626D02*
X016974Y007626D01*
X016974Y007507D02*
X018520Y007507D01*
X018402Y007389D02*
X016974Y007389D01*
X016974Y007270D02*
X018283Y007270D01*
X018165Y007152D02*
X016974Y007152D01*
X016974Y007033D02*
X018046Y007033D01*
X017928Y006915D02*
X016974Y006915D01*
X016974Y006796D02*
X017809Y006796D01*
X017691Y006678D02*
X016974Y006678D01*
X016974Y006559D02*
X017572Y006559D01*
X017454Y006441D02*
X016974Y006441D01*
X016974Y006322D02*
X017335Y006322D01*
X017217Y006204D02*
X016974Y006204D01*
X016694Y005910D02*
X010444Y005910D01*
X009819Y006535D01*
X009587Y006204D02*
X008849Y006204D01*
X008849Y006322D02*
X009476Y006322D01*
X009427Y006441D02*
X008849Y006441D01*
X008849Y006559D02*
X009421Y006559D01*
X009447Y006678D02*
X008849Y006678D01*
X008849Y006796D02*
X009517Y006796D01*
X009668Y006915D02*
X008849Y006915D01*
X008849Y007033D02*
X009569Y007033D01*
X009539Y007152D02*
X008849Y007152D01*
X008849Y007270D02*
X009539Y007270D01*
X009539Y007389D02*
X008849Y007389D01*
X008849Y007507D02*
X009539Y007507D01*
X009539Y007626D02*
X008849Y007626D01*
X008849Y007744D02*
X009539Y007744D01*
X009539Y007863D02*
X008849Y007863D01*
X008849Y007981D02*
X009539Y007981D01*
X009539Y008100D02*
X008849Y008100D01*
X008849Y008218D02*
X009539Y008218D01*
X009539Y008337D02*
X008849Y008337D01*
X008849Y008455D02*
X009539Y008455D01*
X009539Y008574D02*
X008849Y008574D01*
X008849Y008692D02*
X009539Y008692D01*
X009539Y008811D02*
X008849Y008811D01*
X008849Y008929D02*
X009539Y008929D01*
X009539Y009048D02*
X008849Y009048D01*
X008849Y009166D02*
X009539Y009166D01*
X009539Y009285D02*
X008849Y009285D01*
X008849Y009403D02*
X009539Y009403D01*
X009539Y009522D02*
X008849Y009522D01*
X008849Y009640D02*
X009539Y009640D01*
X009539Y009759D02*
X008849Y009759D01*
X008849Y009877D02*
X009554Y009877D01*
X009634Y009996D02*
X008849Y009996D01*
X008849Y010114D02*
X009752Y010114D01*
X009871Y010233D02*
X008849Y010233D01*
X008849Y010351D02*
X009989Y010351D01*
X010168Y010134D02*
X009819Y009785D01*
X009819Y007160D01*
X009944Y007035D01*
X013319Y007035D01*
X013379Y007095D01*
X013379Y007535D01*
X014694Y007535D01*
X014819Y007660D01*
X014819Y008535D01*
X015319Y009660D02*
X016069Y009035D01*
X014444Y007035D02*
X013944Y006535D01*
X013379Y006535D01*
X012259Y006535D02*
X011569Y006535D01*
X012259Y007535D02*
X010819Y007535D01*
X010569Y008160D02*
X010444Y008285D01*
X010444Y009160D01*
X010569Y008160D02*
X012569Y008160D01*
X012819Y008410D01*
X012819Y010134D01*
X012819Y010785D01*
X012319Y011285D01*
X012319Y013785D01*
X011402Y013669D02*
X011349Y013669D01*
X011402Y013551D02*
X011230Y013551D01*
X011112Y013432D02*
X011402Y013432D01*
X011402Y013314D02*
X010993Y013314D01*
X010819Y013535D02*
X012319Y015035D01*
X012049Y015328D02*
X011099Y015328D01*
X011099Y015210D02*
X011960Y015210D01*
X011921Y015091D02*
X011099Y015091D01*
X011099Y014973D02*
X011861Y014973D01*
X011742Y014854D02*
X011099Y014854D01*
X011099Y014736D02*
X011624Y014736D01*
X011505Y014617D02*
X011099Y014617D01*
X011099Y014499D02*
X011387Y014499D01*
X011268Y014380D02*
X011099Y014380D01*
X011061Y014262D02*
X011150Y014262D01*
X011031Y014143D02*
X010948Y014143D01*
X010978Y014173D02*
X010978Y014173D01*
X010913Y014025D02*
X010829Y014025D01*
X010806Y014001D02*
X010806Y014001D01*
X010794Y013906D02*
X010688Y013906D01*
X010819Y013535D02*
X008694Y013535D01*
X008569Y013410D01*
X008569Y003660D01*
X010444Y001785D01*
X017069Y001785D01*
X017444Y002160D01*
X017444Y004619D01*
X017777Y004952D01*
X018051Y004663D02*
X021718Y004663D01*
X021818Y004782D02*
X020169Y004782D01*
X020338Y004900D02*
X021919Y004900D01*
X022020Y005019D02*
X020391Y005019D01*
X020455Y005137D02*
X020308Y005137D01*
X020372Y005256D02*
X020225Y005256D01*
X020122Y005256D02*
X019913Y005256D01*
X019953Y005137D02*
X019744Y005137D01*
X019706Y005137D02*
X018132Y005137D01*
X018175Y005019D02*
X019789Y005019D01*
X019872Y004900D02*
X018175Y004900D01*
X018138Y004782D02*
X019961Y004782D01*
X019623Y005256D02*
X018037Y005256D01*
X017765Y004545D02*
X021613Y004545D01*
X021488Y004426D02*
X017724Y004426D01*
X017724Y004308D02*
X021363Y004308D01*
X021238Y004189D02*
X017724Y004189D01*
X017724Y004071D02*
X021113Y004071D01*
X020988Y003952D02*
X017724Y003952D01*
X017724Y003834D02*
X020863Y003834D01*
X020738Y003715D02*
X017724Y003715D01*
X017724Y003597D02*
X020597Y003597D01*
X020441Y003478D02*
X017724Y003478D01*
X017724Y003360D02*
X020285Y003360D01*
X020129Y003241D02*
X017724Y003241D01*
X017724Y003123D02*
X019973Y003123D01*
X019817Y003004D02*
X017724Y003004D01*
X017724Y002886D02*
X019661Y002886D01*
X019472Y002767D02*
X017724Y002767D01*
X017724Y002649D02*
X019275Y002649D01*
X019078Y002530D02*
X017724Y002530D01*
X017724Y002412D02*
X018881Y002412D01*
X018684Y002293D02*
X017724Y002293D01*
X017724Y002175D02*
X018482Y002175D01*
X018226Y002056D02*
X017704Y002056D01*
X017617Y001938D02*
X017970Y001938D01*
X017714Y001819D02*
X017499Y001819D01*
X017458Y001701D02*
X017380Y001701D01*
X017063Y002175D02*
X013251Y002175D01*
X012381Y003004D02*
X009621Y003004D01*
X009739Y002886D02*
X012310Y002886D01*
X012231Y002767D02*
X009858Y002767D01*
X009976Y002649D02*
X012210Y002649D01*
X012266Y003123D02*
X009502Y003123D01*
X009384Y003241D02*
X012254Y003241D01*
X012275Y003360D02*
X009265Y003360D01*
X009147Y003478D02*
X012296Y003478D01*
X012317Y003597D02*
X009028Y003597D01*
X008910Y003715D02*
X012338Y003715D01*
X012359Y003834D02*
X008849Y003834D01*
X008849Y003952D02*
X012379Y003952D01*
X012719Y004071D02*
X008849Y004071D01*
X008849Y004189D02*
X012788Y004189D01*
X012722Y004087D02*
X012722Y004087D01*
X012722Y004087D01*
X013000Y004282D02*
X013000Y004282D01*
X013000Y004282D01*
X010228Y005730D02*
X008849Y005730D01*
X008849Y005848D02*
X010110Y005848D01*
X009991Y005967D02*
X008849Y005967D01*
X008849Y006085D02*
X009873Y006085D01*
X008289Y008211D02*
X007556Y008944D01*
X007478Y009022D01*
X007375Y009065D01*
X006560Y009065D01*
X006349Y009276D01*
X006349Y013794D01*
X006435Y013880D01*
X006944Y013880D01*
X006775Y013782D01*
X006572Y013579D01*
X006428Y013331D01*
X006354Y013053D01*
X006354Y012767D01*
X006428Y012489D01*
X006572Y012241D01*
X006775Y012038D01*
X007023Y011894D01*
X007300Y011820D01*
X007587Y011820D01*
X007865Y011894D01*
X008113Y012038D01*
X008289Y012214D01*
X008289Y008211D01*
X008289Y008218D02*
X008282Y008218D01*
X008289Y008337D02*
X008163Y008337D01*
X008045Y008455D02*
X008289Y008455D01*
X008289Y008574D02*
X007926Y008574D01*
X007808Y008692D02*
X008289Y008692D01*
X008289Y008811D02*
X007689Y008811D01*
X007571Y008929D02*
X008289Y008929D01*
X008289Y009048D02*
X007417Y009048D01*
X008289Y009166D02*
X006459Y009166D01*
X006349Y009285D02*
X008289Y009285D01*
X008289Y009403D02*
X006349Y009403D01*
X006349Y009522D02*
X008289Y009522D01*
X008289Y009640D02*
X006349Y009640D01*
X006349Y009759D02*
X008289Y009759D01*
X008289Y009877D02*
X006349Y009877D01*
X006349Y009996D02*
X008289Y009996D01*
X008289Y010114D02*
X006349Y010114D01*
X006349Y010233D02*
X008289Y010233D01*
X008289Y010351D02*
X006349Y010351D01*
X006349Y010470D02*
X008289Y010470D01*
X008289Y010588D02*
X006349Y010588D01*
X006349Y010707D02*
X008289Y010707D01*
X008289Y010825D02*
X006349Y010825D01*
X006349Y010944D02*
X008289Y010944D01*
X008289Y011062D02*
X006349Y011062D01*
X006349Y011181D02*
X008289Y011181D01*
X008289Y011299D02*
X006349Y011299D01*
X006349Y011418D02*
X008289Y011418D01*
X008289Y011536D02*
X006349Y011536D01*
X006349Y011655D02*
X008289Y011655D01*
X008289Y011773D02*
X006349Y011773D01*
X006349Y011892D02*
X007034Y011892D01*
X006823Y012010D02*
X006349Y012010D01*
X006349Y012129D02*
X006684Y012129D01*
X006568Y012247D02*
X006349Y012247D01*
X006349Y012366D02*
X006500Y012366D01*
X006431Y012484D02*
X006349Y012484D01*
X006349Y012603D02*
X006398Y012603D01*
X006366Y012721D02*
X006349Y012721D01*
X006349Y012840D02*
X006354Y012840D01*
X006349Y012958D02*
X006354Y012958D01*
X006349Y013077D02*
X006360Y013077D01*
X006349Y013195D02*
X006392Y013195D01*
X006424Y013314D02*
X006349Y013314D01*
X006349Y013432D02*
X006487Y013432D01*
X006555Y013551D02*
X006349Y013551D01*
X006349Y013669D02*
X006662Y013669D01*
X006784Y013788D02*
X006349Y013788D01*
X006082Y014319D02*
X006143Y014380D01*
X004138Y014380D01*
X001396Y016987D02*
X011959Y016987D01*
X011963Y017343D02*
X009065Y017343D01*
X009217Y017698D02*
X019751Y017698D01*
X019870Y017817D02*
X017912Y017817D01*
X018030Y017935D02*
X019988Y017935D01*
X020107Y018054D02*
X018039Y018054D01*
X018039Y018172D02*
X020225Y018172D01*
X020344Y018291D02*
X018039Y018291D01*
X018039Y018409D02*
X020462Y018409D01*
X020581Y018528D02*
X018039Y018528D01*
X018039Y018646D02*
X020699Y018646D01*
X020818Y018765D02*
X018039Y018765D01*
X018039Y018883D02*
X020936Y018883D01*
X021055Y019002D02*
X019561Y019002D01*
X019458Y018929D02*
X020123Y019395D01*
X020155Y019575D01*
X020095Y019661D01*
X020105Y019665D01*
X020164Y019724D01*
X020191Y019685D01*
X020223Y019658D01*
X020261Y019640D01*
X020303Y019633D01*
X020345Y019636D01*
X020384Y019651D01*
X020610Y019809D01*
X020327Y020214D01*
X020425Y020282D01*
X020709Y019878D01*
X020935Y020036D01*
X020962Y020069D01*
X020979Y020107D01*
X020987Y020148D01*
X020983Y020190D01*
X020969Y020230D01*
X020765Y020520D01*
X020425Y020282D01*
X020357Y020381D01*
X020696Y020619D01*
X020493Y020909D01*
X020461Y020936D01*
X020422Y020954D01*
X020381Y020962D01*
X020339Y020958D01*
X020299Y020943D01*
X020073Y020785D01*
X020356Y020381D01*
X020258Y020312D01*
X019975Y020716D01*
X019749Y020558D01*
X019722Y020526D01*
X019704Y020488D01*
X019697Y020446D01*
X019700Y020404D01*
X019714Y020366D01*
X019653Y020340D01*
X019633Y020320D01*
X019599Y020369D01*
X019419Y020401D01*
X018754Y019935D01*
X018722Y019755D01*
X019279Y018961D01*
X019458Y018929D01*
X019250Y019002D02*
X018039Y019002D01*
X018039Y019120D02*
X019167Y019120D01*
X019084Y019239D02*
X018039Y019239D01*
X018039Y019357D02*
X019001Y019357D01*
X018918Y019476D02*
X018039Y019476D01*
X018039Y019594D02*
X018835Y019594D01*
X018752Y019713D02*
X018039Y019713D01*
X018039Y019831D02*
X018736Y019831D01*
X018775Y019950D02*
X018039Y019950D01*
X018039Y020068D02*
X018945Y020068D01*
X019114Y020187D02*
X017979Y020187D01*
X017659Y020305D02*
X019283Y020305D01*
X019699Y020424D02*
X017659Y020424D01*
X017659Y020542D02*
X019736Y020542D01*
X019895Y020661D02*
X017659Y020661D01*
X017659Y020779D02*
X020078Y020779D01*
X020014Y020661D02*
X020161Y020661D01*
X020097Y020542D02*
X020244Y020542D01*
X020180Y020424D02*
X020327Y020424D01*
X020418Y020424D02*
X020627Y020424D01*
X020587Y020542D02*
X020929Y020542D01*
X020847Y020661D02*
X020667Y020661D01*
X020584Y020779D02*
X020765Y020779D01*
X020683Y020898D02*
X020501Y020898D01*
X020601Y021016D02*
X017659Y021016D01*
X017659Y020898D02*
X020234Y020898D01*
X020519Y021135D02*
X017659Y021135D01*
X017659Y021253D02*
X020437Y021253D01*
X020355Y021372D02*
X017659Y021372D01*
X017659Y021490D02*
X020193Y021490D01*
X019998Y021609D02*
X017659Y021609D01*
X017659Y021727D02*
X019803Y021727D01*
X019607Y021846D02*
X019233Y021846D01*
X019301Y021964D02*
X019412Y021964D01*
X018881Y021846D02*
X017659Y021846D01*
X017659Y021964D02*
X018676Y021964D01*
X018471Y022083D02*
X017659Y022083D01*
X017659Y022201D02*
X018415Y022201D01*
X018421Y022320D02*
X018352Y022320D01*
X018420Y022438D02*
X018490Y022438D01*
X018489Y022557D02*
X018558Y022557D01*
X018557Y022675D02*
X018626Y022675D01*
X018626Y022794D02*
X018695Y022794D01*
X018694Y022912D02*
X018763Y022912D01*
X018762Y023031D02*
X018832Y023031D01*
X018831Y023149D02*
X018900Y023149D01*
X018899Y023268D02*
X018969Y023268D01*
X019780Y022794D02*
X019847Y022794D01*
X019712Y022675D02*
X020003Y022675D01*
X020158Y022557D02*
X019746Y022557D01*
X019941Y022438D02*
X020314Y022438D01*
X020470Y022320D02*
X020137Y022320D01*
X020332Y022201D02*
X020626Y022201D01*
X020528Y022083D02*
X020761Y022083D01*
X020725Y021964D02*
X020886Y021964D01*
X020855Y021846D02*
X021012Y021846D01*
X020936Y021727D02*
X021137Y021727D01*
X021018Y021609D02*
X021262Y021609D01*
X021387Y021490D02*
X021100Y021490D01*
X021182Y021372D02*
X021512Y021372D01*
X021636Y021253D02*
X021264Y021253D01*
X021346Y021135D02*
X021737Y021135D01*
X021837Y021016D02*
X021428Y021016D01*
X021510Y020898D02*
X021938Y020898D01*
X022039Y020779D02*
X021592Y020779D01*
X021674Y020661D02*
X022139Y020661D01*
X022240Y020542D02*
X021756Y020542D01*
X021839Y020424D02*
X022341Y020424D01*
X022441Y020305D02*
X021921Y020305D01*
X022003Y020187D02*
X022530Y020187D01*
X022610Y020068D02*
X022035Y020068D01*
X022034Y019950D02*
X022691Y019950D01*
X022771Y019831D02*
X022034Y019831D01*
X022034Y019713D02*
X022851Y019713D01*
X022932Y019594D02*
X022034Y019594D01*
X022034Y019476D02*
X023012Y019476D01*
X023092Y019357D02*
X022034Y019357D01*
X022034Y019239D02*
X023173Y019239D01*
X023246Y019120D02*
X022034Y019120D01*
X021996Y019002D02*
X023309Y019002D01*
X023372Y018883D02*
X021898Y018883D01*
X021779Y018765D02*
X023434Y018765D01*
X023497Y018646D02*
X021661Y018646D01*
X021542Y018528D02*
X023560Y018528D01*
X023623Y018409D02*
X021424Y018409D01*
X021305Y018291D02*
X023686Y018291D01*
X023749Y018172D02*
X021187Y018172D01*
X021068Y018054D02*
X023811Y018054D01*
X023865Y017935D02*
X020950Y017935D01*
X020831Y017817D02*
X023912Y017817D01*
X023959Y017698D02*
X020713Y017698D01*
X020594Y017580D02*
X024006Y017580D01*
X024054Y017461D02*
X020476Y017461D01*
X020357Y017343D02*
X024101Y017343D01*
X024148Y017224D02*
X020239Y017224D01*
X020176Y017106D02*
X024195Y017106D01*
X024242Y016987D02*
X020084Y016987D01*
X019731Y019120D02*
X021173Y019120D01*
X021292Y019239D02*
X019900Y019239D01*
X020069Y019357D02*
X021354Y019357D01*
X021354Y019476D02*
X020138Y019476D01*
X020141Y019594D02*
X021354Y019594D01*
X021354Y019713D02*
X020472Y019713D01*
X020595Y019831D02*
X021354Y019831D01*
X021340Y019950D02*
X020811Y019950D01*
X020658Y019950D02*
X020512Y019950D01*
X020575Y020068D02*
X020429Y020068D01*
X020492Y020187D02*
X020346Y020187D01*
X020410Y020305D02*
X020458Y020305D01*
X020833Y020424D02*
X021011Y020424D01*
X021094Y020305D02*
X020916Y020305D01*
X020983Y020187D02*
X021176Y020187D01*
X021258Y020068D02*
X020961Y020068D01*
X020171Y019713D02*
X020153Y019713D01*
X018060Y022320D02*
X017659Y022320D01*
X017659Y022438D02*
X017855Y022438D01*
X016979Y022438D02*
X010937Y022438D01*
X010967Y022320D02*
X016979Y022320D01*
X016979Y022201D02*
X010965Y022201D01*
X010916Y022083D02*
X016979Y022083D01*
X016979Y022557D02*
X010861Y022557D01*
X009114Y024453D02*
X016523Y024453D01*
X016875Y024334D02*
X008763Y024334D01*
X008411Y024216D02*
X017227Y024216D01*
X017506Y024097D02*
X008132Y024097D01*
X007876Y023979D02*
X017762Y023979D01*
X018018Y023860D02*
X007620Y023860D01*
X007673Y022438D02*
X005324Y022438D01*
X005268Y020898D02*
X003700Y020898D01*
X003599Y020779D02*
X005099Y020779D01*
X005116Y020779D02*
X005262Y020779D01*
X005199Y020661D02*
X005345Y020661D01*
X005511Y020424D02*
X005524Y020424D01*
X004929Y020661D02*
X003499Y020661D01*
X003398Y020542D02*
X004788Y020542D01*
X004773Y020424D02*
X003297Y020424D01*
X003197Y020305D02*
X004845Y020305D01*
X002986Y019239D02*
X002465Y019239D01*
X008104Y013788D02*
X008572Y013788D01*
X008432Y013669D02*
X008226Y013669D01*
X008849Y013195D02*
X011402Y013195D01*
X011402Y013077D02*
X008849Y013077D01*
X008849Y012958D02*
X011402Y012958D01*
X011402Y012840D02*
X008849Y012840D01*
X008849Y012721D02*
X011402Y012721D01*
X011402Y012603D02*
X008849Y012603D01*
X008849Y012484D02*
X011402Y012484D01*
X011402Y012366D02*
X008849Y012366D01*
X008849Y012247D02*
X011402Y012247D01*
X011402Y012129D02*
X008849Y012129D01*
X008849Y012010D02*
X011402Y012010D01*
X011402Y011892D02*
X008849Y011892D01*
X008849Y011773D02*
X011402Y011773D01*
X011402Y011655D02*
X008849Y011655D01*
X008849Y011536D02*
X011476Y011536D01*
X011491Y011299D02*
X008849Y011299D01*
X008849Y011181D02*
X011402Y011181D01*
X011402Y011062D02*
X008849Y011062D01*
X008849Y010944D02*
X011402Y010944D01*
X011402Y010825D02*
X008849Y010825D01*
X008849Y010707D02*
X011402Y010707D01*
X011402Y010588D02*
X008849Y010588D01*
X008849Y010470D02*
X011402Y010470D01*
X011819Y010134D02*
X010168Y010134D01*
X008849Y011418D02*
X012039Y011418D01*
X012819Y012686D02*
X012819Y015410D01*
X013069Y015660D01*
X012697Y015802D02*
X011121Y015802D01*
X011099Y015684D02*
X012671Y015684D01*
X012580Y015565D02*
X011099Y015565D01*
X011099Y015447D02*
X012539Y015447D01*
X012766Y015921D02*
X011268Y015921D01*
X011325Y016039D02*
X012943Y016039D01*
X012925Y016158D02*
X011342Y016158D01*
X011327Y016276D02*
X012807Y016276D01*
X012688Y016395D02*
X011273Y016395D01*
X011133Y016513D02*
X012570Y016513D01*
X012759Y018172D02*
X012879Y018172D01*
X012879Y018291D02*
X012759Y018291D01*
X012759Y018409D02*
X012879Y018409D01*
X012879Y018528D02*
X012759Y018528D01*
X012759Y018646D02*
X012879Y018646D01*
X012879Y018765D02*
X012759Y018765D01*
X012759Y018883D02*
X012879Y018883D01*
X016608Y017935D02*
X009107Y017935D01*
X009185Y017817D02*
X016726Y017817D01*
X016545Y014854D02*
X023061Y014854D01*
X022823Y012484D02*
X022728Y012484D01*
X022619Y012366D02*
X022873Y012366D01*
X019914Y011418D02*
X013599Y011418D01*
X013668Y012686D02*
X013319Y013035D01*
X013319Y008410D01*
X012444Y007535D01*
X012259Y007535D01*
X007789Y004189D02*
X004400Y004189D01*
X004525Y004071D02*
X007789Y004071D01*
X007789Y003952D02*
X004650Y003952D01*
X004775Y003834D02*
X007789Y003834D01*
X007789Y003715D02*
X004900Y003715D01*
X005041Y003597D02*
X007789Y003597D01*
X007789Y003478D02*
X005197Y003478D01*
X005353Y003360D02*
X007789Y003360D01*
X007789Y003241D02*
X005509Y003241D01*
X005665Y003123D02*
X007789Y003123D01*
X007789Y003004D02*
X005821Y003004D01*
X005977Y002886D02*
X007789Y002886D01*
X007789Y002767D02*
X006166Y002767D01*
X006363Y002649D02*
X007789Y002649D01*
X007789Y002530D02*
X006560Y002530D01*
X006757Y002412D02*
X007817Y002412D01*
X007915Y002293D02*
X006954Y002293D01*
X007156Y002175D02*
X008034Y002175D01*
X008152Y002056D02*
X007412Y002056D01*
X007668Y001938D02*
X008271Y001938D01*
X008389Y001819D02*
X007924Y001819D01*
X008180Y001701D02*
X008508Y001701D01*
X008478Y001582D02*
X008626Y001582D01*
X004820Y005374D02*
X003316Y005374D01*
X003216Y005493D02*
X004738Y005493D01*
X004662Y005611D02*
X003123Y005611D01*
X003043Y005730D02*
X004666Y005730D01*
X004796Y005848D02*
X002963Y005848D01*
X002882Y005967D02*
X005059Y005967D01*
X004995Y005848D02*
X005142Y005848D01*
X005078Y005730D02*
X005225Y005730D01*
X005134Y006085D02*
X002802Y006085D01*
X002721Y006204D02*
X005512Y006204D01*
X005497Y006322D02*
X002641Y006322D01*
X002561Y006441D02*
X005537Y006441D01*
X005707Y006559D02*
X002480Y006559D01*
X002404Y006678D02*
X005876Y006678D01*
X007854Y011892D02*
X008289Y011892D01*
X008289Y012010D02*
X008065Y012010D01*
X008204Y012129D02*
X008289Y012129D01*
X000160Y012910D02*
X000164Y013221D01*
X000175Y013531D01*
X000194Y013841D01*
X000221Y014151D01*
X000255Y014460D01*
X000297Y014767D01*
X000346Y015074D01*
X000403Y015380D01*
X000468Y015684D01*
X000539Y015986D01*
X000619Y016286D01*
X000705Y016585D01*
X000799Y016881D01*
X000900Y017175D01*
X001008Y017466D01*
X001124Y017754D01*
X001246Y018040D01*
X001375Y018322D01*
X001512Y018602D01*
X001655Y018877D01*
X001805Y019150D01*
X001961Y019418D01*
X002124Y019683D01*
X002293Y019943D01*
X002469Y020199D01*
X002651Y020451D01*
X002839Y020698D01*
X003033Y020941D01*
X003233Y021179D01*
X003439Y021411D01*
X003651Y021639D01*
X003868Y021861D01*
X004090Y022078D01*
X004318Y022290D01*
X004550Y022496D01*
X004788Y022696D01*
X005031Y022890D01*
X005278Y023078D01*
X005530Y023260D01*
X005786Y023436D01*
X006046Y023605D01*
X006311Y023768D01*
X006579Y023924D01*
X006852Y024074D01*
X007127Y024217D01*
X007407Y024354D01*
X007689Y024483D01*
X007975Y024605D01*
X008263Y024721D01*
X008554Y024829D01*
X008848Y024930D01*
X009144Y025024D01*
X009443Y025110D01*
X009743Y025190D01*
X010045Y025261D01*
X010349Y025326D01*
X010655Y025383D01*
X010962Y025432D01*
X011269Y025474D01*
X011578Y025508D01*
X011888Y025535D01*
X012198Y025554D01*
X012508Y025565D01*
X012819Y025569D01*
X013130Y025565D01*
X013440Y025554D01*
X013750Y025535D01*
X014060Y025508D01*
X014369Y025474D01*
X014676Y025432D01*
X014983Y025383D01*
X015289Y025326D01*
X015593Y025261D01*
X015895Y025190D01*
X016195Y025110D01*
X016494Y025024D01*
X016790Y024930D01*
X017084Y024829D01*
X017375Y024721D01*
X017663Y024605D01*
X017949Y024483D01*
X018231Y024354D01*
X018511Y024217D01*
X018786Y024074D01*
X019059Y023924D01*
X019327Y023768D01*
X019592Y023605D01*
X019852Y023436D01*
X020108Y023260D01*
X020360Y023078D01*
X020607Y022890D01*
X020850Y022696D01*
X021088Y022496D01*
X021320Y022290D01*
X021548Y022078D01*
X021770Y021861D01*
X021987Y021639D01*
X022199Y021411D01*
X022405Y021179D01*
X022605Y020941D01*
X022799Y020698D01*
X022987Y020451D01*
X023169Y020199D01*
X023345Y019943D01*
X023514Y019683D01*
X023677Y019418D01*
X023833Y019150D01*
X023983Y018877D01*
X024126Y018602D01*
X024263Y018322D01*
X024392Y018040D01*
X024514Y017754D01*
X024630Y017466D01*
X024738Y017175D01*
X024839Y016881D01*
X024933Y016585D01*
X025019Y016286D01*
X025099Y015986D01*
X025170Y015684D01*
X025235Y015380D01*
X025292Y015074D01*
X025341Y014767D01*
X025383Y014460D01*
X025417Y014151D01*
X025444Y013841D01*
X025463Y013531D01*
X025474Y013221D01*
X025478Y012910D01*
X025474Y012599D01*
X025463Y012289D01*
X025444Y011979D01*
X025417Y011669D01*
X025383Y011360D01*
X025341Y011053D01*
X025292Y010746D01*
X025235Y010440D01*
X025170Y010136D01*
X025099Y009834D01*
X025019Y009534D01*
X024933Y009235D01*
X024839Y008939D01*
X024738Y008645D01*
X024630Y008354D01*
X024514Y008066D01*
X024392Y007780D01*
X024263Y007498D01*
X024126Y007218D01*
X023983Y006943D01*
X023833Y006670D01*
X023677Y006402D01*
X023514Y006137D01*
X023345Y005877D01*
X023169Y005621D01*
X022987Y005369D01*
X022799Y005122D01*
X022605Y004879D01*
X022405Y004641D01*
X022199Y004409D01*
X021987Y004181D01*
X021770Y003959D01*
X021548Y003742D01*
X021320Y003530D01*
X021088Y003324D01*
X020850Y003124D01*
X020607Y002930D01*
X020360Y002742D01*
X020108Y002560D01*
X019852Y002384D01*
X019592Y002215D01*
X019327Y002052D01*
X019059Y001896D01*
X018786Y001746D01*
X018511Y001603D01*
X018231Y001466D01*
X017949Y001337D01*
X017663Y001215D01*
X017375Y001099D01*
X017084Y000991D01*
X016790Y000890D01*
X016494Y000796D01*
X016195Y000710D01*
X015895Y000630D01*
X015593Y000559D01*
X015289Y000494D01*
X014983Y000437D01*
X014676Y000388D01*
X014369Y000346D01*
X014060Y000312D01*
X013750Y000285D01*
X013440Y000266D01*
X013130Y000255D01*
X012819Y000251D01*
X012508Y000255D01*
X012198Y000266D01*
X011888Y000285D01*
X011578Y000312D01*
X011269Y000346D01*
X010962Y000388D01*
X010655Y000437D01*
X010349Y000494D01*
X010045Y000559D01*
X009743Y000630D01*
X009443Y000710D01*
X009144Y000796D01*
X008848Y000890D01*
X008554Y000991D01*
X008263Y001099D01*
X007975Y001215D01*
X007689Y001337D01*
X007407Y001466D01*
X007127Y001603D01*
X006852Y001746D01*
X006579Y001896D01*
X006311Y002052D01*
X006046Y002215D01*
X005786Y002384D01*
X005530Y002560D01*
X005278Y002742D01*
X005031Y002930D01*
X004788Y003124D01*
X004550Y003324D01*
X004318Y003530D01*
X004090Y003742D01*
X003868Y003959D01*
X003651Y004181D01*
X003439Y004409D01*
X003233Y004641D01*
X003033Y004879D01*
X002839Y005122D01*
X002651Y005369D01*
X002469Y005621D01*
X002293Y005877D01*
X002124Y006137D01*
X001961Y006402D01*
X001805Y006670D01*
X001655Y006943D01*
X001512Y007218D01*
X001375Y007498D01*
X001246Y007780D01*
X001124Y008066D01*
X001008Y008354D01*
X000900Y008645D01*
X000799Y008939D01*
X000705Y009235D01*
X000619Y009534D01*
X000539Y009834D01*
X000468Y010136D01*
X000403Y010440D01*
X000346Y010746D01*
X000297Y011053D01*
X000255Y011360D01*
X000221Y011669D01*
X000194Y011979D01*
X000175Y012289D01*
X000164Y012599D01*
X000160Y012910D01*
X009466Y024571D02*
X016172Y024571D01*
X015689Y024690D02*
X009949Y024690D01*
X010487Y024808D02*
X015151Y024808D01*
X014438Y024927D02*
X011200Y024927D01*
X017962Y023742D02*
X018088Y023742D01*
X013319Y013910D02*
X013319Y013035D01*
X013668Y012686D02*
X013819Y012686D01*
X014849Y013077D02*
X014964Y013077D01*
X014852Y013195D02*
X014849Y013195D01*
X016250Y013195D02*
X017142Y013195D01*
X017174Y013314D02*
X016368Y013314D01*
X016487Y013432D02*
X017237Y013432D01*
X017305Y013551D02*
X016605Y013551D01*
X019886Y006915D02*
X023360Y006915D01*
X023297Y006796D02*
X019969Y006796D01*
X020052Y006678D02*
X023234Y006678D01*
X023158Y006559D02*
X020135Y006559D01*
X020218Y006441D02*
X023077Y006441D01*
X022997Y006322D02*
X020301Y006322D01*
X020291Y006204D02*
X022916Y006204D01*
X022836Y006085D02*
X020213Y006085D01*
X020477Y005967D02*
X022756Y005967D01*
X022675Y005848D02*
X020560Y005848D01*
X020590Y005730D02*
X022595Y005730D01*
X022515Y005611D02*
X020726Y005611D01*
X020694Y005656D02*
X020290Y005373D01*
X020528Y005033D01*
X020818Y005236D01*
X020845Y005269D01*
X020863Y005307D01*
X020871Y005348D01*
X020867Y005390D01*
X020852Y005430D01*
X020694Y005656D01*
X020630Y005611D02*
X020421Y005611D01*
X020461Y005493D02*
X020252Y005493D01*
X020289Y005374D02*
X020291Y005374D01*
X020142Y005374D02*
X020082Y005374D01*
X020676Y005137D02*
X022120Y005137D01*
X022221Y005256D02*
X020834Y005256D01*
X020868Y005374D02*
X022322Y005374D01*
X022422Y005493D02*
X020809Y005493D01*
X019538Y005611D02*
X019536Y005611D01*
D11*
X017564Y012910D02*
X017566Y012960D01*
X017572Y013010D01*
X017582Y013059D01*
X017596Y013107D01*
X017613Y013154D01*
X017634Y013199D01*
X017659Y013243D01*
X017687Y013284D01*
X017719Y013323D01*
X017753Y013360D01*
X017790Y013394D01*
X017830Y013424D01*
X017872Y013451D01*
X017916Y013475D01*
X017962Y013496D01*
X018009Y013512D01*
X018057Y013525D01*
X018107Y013534D01*
X018156Y013539D01*
X018207Y013540D01*
X018257Y013537D01*
X018306Y013530D01*
X018355Y013519D01*
X018403Y013504D01*
X018449Y013486D01*
X018494Y013464D01*
X018537Y013438D01*
X018578Y013409D01*
X018617Y013377D01*
X018653Y013342D01*
X018685Y013304D01*
X018715Y013264D01*
X018742Y013221D01*
X018765Y013177D01*
X018784Y013131D01*
X018800Y013083D01*
X018812Y013034D01*
X018820Y012985D01*
X018824Y012935D01*
X018824Y012885D01*
X018820Y012835D01*
X018812Y012786D01*
X018800Y012737D01*
X018784Y012689D01*
X018765Y012643D01*
X018742Y012599D01*
X018715Y012556D01*
X018685Y012516D01*
X018653Y012478D01*
X018617Y012443D01*
X018578Y012411D01*
X018537Y012382D01*
X018494Y012356D01*
X018449Y012334D01*
X018403Y012316D01*
X018355Y012301D01*
X018306Y012290D01*
X018257Y012283D01*
X018207Y012280D01*
X018156Y012281D01*
X018107Y012286D01*
X018057Y012295D01*
X018009Y012308D01*
X017962Y012324D01*
X017916Y012345D01*
X017872Y012369D01*
X017830Y012396D01*
X017790Y012426D01*
X017753Y012460D01*
X017719Y012497D01*
X017687Y012536D01*
X017659Y012577D01*
X017634Y012621D01*
X017613Y012666D01*
X017596Y012713D01*
X017582Y012761D01*
X017572Y012810D01*
X017566Y012860D01*
X017564Y012910D01*
X006814Y012910D02*
X006816Y012960D01*
X006822Y013010D01*
X006832Y013059D01*
X006846Y013107D01*
X006863Y013154D01*
X006884Y013199D01*
X006909Y013243D01*
X006937Y013284D01*
X006969Y013323D01*
X007003Y013360D01*
X007040Y013394D01*
X007080Y013424D01*
X007122Y013451D01*
X007166Y013475D01*
X007212Y013496D01*
X007259Y013512D01*
X007307Y013525D01*
X007357Y013534D01*
X007406Y013539D01*
X007457Y013540D01*
X007507Y013537D01*
X007556Y013530D01*
X007605Y013519D01*
X007653Y013504D01*
X007699Y013486D01*
X007744Y013464D01*
X007787Y013438D01*
X007828Y013409D01*
X007867Y013377D01*
X007903Y013342D01*
X007935Y013304D01*
X007965Y013264D01*
X007992Y013221D01*
X008015Y013177D01*
X008034Y013131D01*
X008050Y013083D01*
X008062Y013034D01*
X008070Y012985D01*
X008074Y012935D01*
X008074Y012885D01*
X008070Y012835D01*
X008062Y012786D01*
X008050Y012737D01*
X008034Y012689D01*
X008015Y012643D01*
X007992Y012599D01*
X007965Y012556D01*
X007935Y012516D01*
X007903Y012478D01*
X007867Y012443D01*
X007828Y012411D01*
X007787Y012382D01*
X007744Y012356D01*
X007699Y012334D01*
X007653Y012316D01*
X007605Y012301D01*
X007556Y012290D01*
X007507Y012283D01*
X007457Y012280D01*
X007406Y012281D01*
X007357Y012286D01*
X007307Y012295D01*
X007259Y012308D01*
X007212Y012324D01*
X007166Y012345D01*
X007122Y012369D01*
X007080Y012396D01*
X007040Y012426D01*
X007003Y012460D01*
X006969Y012497D01*
X006937Y012536D01*
X006909Y012577D01*
X006884Y012621D01*
X006863Y012666D01*
X006846Y012713D01*
X006832Y012761D01*
X006822Y012810D01*
X006816Y012860D01*
X006814Y012910D01*
D12*
X012819Y019035D03*
D13*
X008319Y019035D03*
X017319Y019035D03*
D14*
X013379Y007535D03*
X013379Y006535D03*
X012259Y006535D03*
X012259Y007535D03*
D15*
G36*
X012474Y003212D02*
X012583Y003831D01*
X013356Y003694D01*
X013247Y003075D01*
X012474Y003212D01*
G37*
G36*
X012282Y002127D02*
X012391Y002746D01*
X013164Y002609D01*
X013055Y001990D01*
X012282Y002127D01*
G37*
G36*
X005716Y006296D02*
X006231Y006657D01*
X006682Y006014D01*
X006167Y005653D01*
X005716Y006296D01*
G37*
G36*
X004813Y005664D02*
X005328Y006025D01*
X005779Y005382D01*
X005264Y005021D01*
X004813Y005664D01*
G37*
G36*
X003121Y013255D02*
X003740Y013146D01*
X003603Y012373D01*
X002984Y012482D01*
X003121Y013255D01*
G37*
G36*
X002036Y013446D02*
X002655Y013337D01*
X002518Y012564D01*
X001899Y012673D01*
X002036Y013446D01*
G37*
G36*
X006205Y020013D02*
X006566Y019498D01*
X005923Y019047D01*
X005562Y019562D01*
X006205Y020013D01*
G37*
G36*
X005573Y020916D02*
X005934Y020401D01*
X005291Y019950D01*
X004930Y020465D01*
X005573Y020916D01*
G37*
G36*
X019922Y019524D02*
X019407Y019163D01*
X018956Y019806D01*
X019471Y020167D01*
X019922Y019524D01*
G37*
G36*
X020825Y020156D02*
X020310Y019795D01*
X019859Y020438D01*
X020374Y020799D01*
X020825Y020156D01*
G37*
G36*
X022517Y012565D02*
X021898Y012674D01*
X022035Y013447D01*
X022654Y013338D01*
X022517Y012565D01*
G37*
G36*
X023603Y012374D02*
X022984Y012483D01*
X023121Y013256D01*
X023740Y013147D01*
X023603Y012374D01*
G37*
G36*
X019433Y005808D02*
X019072Y006323D01*
X019715Y006774D01*
X020076Y006259D01*
X019433Y005808D01*
G37*
G36*
X020065Y004905D02*
X019704Y005420D01*
X020347Y005871D01*
X020708Y005356D01*
X020065Y004905D01*
G37*
D16*
X007922Y021857D03*
X007922Y022959D03*
D17*
X011819Y012686D03*
X012819Y012686D03*
X013819Y012686D03*
X013819Y010134D03*
X012819Y010134D03*
X011819Y010134D03*
D18*
G36*
X003709Y017833D02*
X003538Y017365D01*
X002599Y017707D01*
X002770Y018175D01*
X003709Y017833D01*
G37*
G36*
X004081Y018856D02*
X003910Y018388D01*
X002971Y018730D01*
X003142Y019198D01*
X004081Y018856D01*
G37*
G36*
X018199Y022494D02*
X017766Y022744D01*
X018265Y023610D01*
X018698Y023360D01*
X018199Y022494D01*
G37*
G36*
X019065Y021994D02*
X018632Y022244D01*
X019131Y023110D01*
X019564Y022860D01*
X019065Y021994D01*
G37*
D19*
X019879Y020003D03*
X019819Y017285D03*
X017069Y017160D03*
X016569Y015910D03*
X016194Y014660D03*
X014944Y014785D03*
X015194Y013410D03*
X014569Y011910D03*
X015069Y011660D03*
X016194Y011660D03*
X017569Y011285D03*
X017944Y010285D03*
X019194Y010785D03*
X019194Y009410D03*
X017944Y008910D03*
X016069Y009035D03*
X015319Y009660D03*
X014819Y008535D03*
X014444Y007035D03*
X016694Y004660D03*
X017777Y004952D03*
X019879Y005829D03*
X012819Y002910D03*
X011569Y001160D03*
X011569Y006535D03*
X010819Y007535D03*
X009819Y006535D03*
X010444Y009160D03*
X010944Y011910D03*
X012319Y013785D03*
X013319Y013910D03*
X012319Y015035D03*
X013069Y015660D03*
X012319Y017160D03*
X010944Y016160D03*
X010444Y015660D03*
X010444Y015160D03*
X010444Y014660D03*
X009569Y015160D03*
X008819Y017660D03*
X005745Y019963D03*
X006444Y022785D03*
X010569Y022285D03*
X004069Y015660D03*
X003569Y015285D03*
X001819Y015410D03*
X002819Y012910D03*
X005444Y015160D03*
X007194Y010785D03*
X005745Y005829D03*
X022819Y012910D03*
X023319Y015160D03*
D20*
X019819Y017285D02*
X021694Y019160D01*
X021694Y020035D01*
X020569Y021660D01*
X019098Y022552D01*
X018232Y023052D02*
X017874Y023410D01*
X017569Y023410D01*
X017319Y023160D01*
X017319Y020660D01*
X017194Y020535D01*
X008569Y020535D01*
X008319Y020285D01*
X008319Y019035D01*
X008319Y018160D02*
X008819Y017660D01*
X003514Y017660D01*
X003154Y017770D01*
X017319Y019035D02*
X017319Y020660D01*
D21*
X019439Y019665D02*
X019879Y020003D01*
X022276Y013006D02*
X022819Y012910D01*
X019574Y006291D02*
X019879Y005829D01*
X013007Y003976D02*
X012915Y003453D01*
X013007Y003976D02*
X012819Y002910D01*
X006199Y006155D02*
X005745Y005829D01*
X003362Y012814D02*
X002819Y012910D01*
X006064Y019530D02*
X005745Y019963D01*
X007922Y021857D02*
X007922Y022263D01*
X007944Y022285D01*
X010569Y022285D01*
M02*
