%
M48
M72
T01C0.0197
T02C0.1260
%
T01
X5745Y5829
X9819Y6535
X10819Y7535
X11569Y6535
X10444Y9160
X10944Y11910
X12319Y13785
X13319Y13910
X12319Y15035
X13069Y15660
X12319Y17160
X10944Y16160
X10444Y15660
X10444Y15160
X10444Y14660
X9569Y15160
X8819Y17660
X5745Y19963
X6444Y22785
X10569Y22285
X17069Y17160
X16569Y15910
X16194Y14660
X14944Y14785
X15194Y13410
X14569Y11910
X15069Y11660
X16194Y11660
X17569Y11285
X17944Y10285
X19194Y10785
X19194Y9410
X17944Y8910
X16069Y9035
X15319Y9660
X14819Y8535
X14444Y7035
X16694Y4660
X17777Y4952
X19879Y5829
X12819Y2910
X11569Y1160
X7194Y10785
X5444Y15160
X4069Y15660
X3569Y15285
X1819Y15410
X2819Y12910
X19819Y17285
X19879Y20003
X23319Y15160
X22819Y12910
T02
X18194Y12910
X7444Y12910
M30
