G75*
%MOIN*%
%OFA0B0*%
%FSLAX24Y24*%
%IPPOS*%
%LPD*%
%AMOC8*
5,1,8,0,0,1.08239X$1,22.5*
%
%ADD10C,0.0120*%
%ADD11C,0.0000*%
%ADD12R,0.0900X0.0236*%
%ADD13R,0.0800X0.0260*%
%ADD14R,0.1575X0.1575*%
%ADD15R,0.0827X0.0551*%
%ADD16C,0.0357*%
%ADD17C,0.0240*%
%ADD18C,0.0160*%
%ADD19C,0.0100*%
%ADD20C,0.0320*%
D10*
X004716Y003889D02*
X004719Y003889D01*
X006159Y004897D01*
X006190Y005076D01*
X005915Y005469D01*
X005971Y005492D01*
X006037Y005558D01*
X006313Y005162D01*
X006493Y005131D01*
X007932Y006139D01*
X007964Y006318D01*
X006956Y007757D01*
X006777Y007789D01*
X005337Y006781D01*
X005306Y006602D01*
X005590Y006196D01*
X005519Y006167D01*
X005465Y006112D01*
X005182Y006515D01*
X005003Y006547D01*
X003564Y005539D01*
X003556Y005498D01*
X003377Y005498D01*
X003099Y005776D01*
X003099Y010919D01*
X003435Y011255D01*
X004625Y011255D01*
X004728Y011298D01*
X004806Y011376D01*
X005681Y012251D01*
X005724Y012354D01*
X005724Y014877D01*
X005782Y014934D01*
X005842Y015081D01*
X005842Y015239D01*
X005784Y015380D01*
X008953Y015380D01*
X009171Y015162D01*
X009171Y015081D01*
X009231Y014934D01*
X009343Y014822D01*
X009490Y014762D01*
X009648Y014762D01*
X009789Y014820D01*
X009789Y014354D01*
X009832Y014251D01*
X009910Y014173D01*
X010160Y013923D01*
X010263Y013880D01*
X011048Y013880D01*
X011066Y013862D01*
X011060Y013852D01*
X011049Y013811D01*
X011049Y013665D01*
X011604Y013665D01*
X011604Y013655D01*
X011614Y013655D01*
X011614Y013370D01*
X012030Y013370D01*
X012071Y013381D01*
X012107Y013402D01*
X012135Y013430D01*
X012240Y013387D01*
X012398Y013387D01*
X012545Y013447D01*
X012657Y013559D01*
X012717Y013706D01*
X012717Y013864D01*
X012667Y013987D01*
X013060Y014380D01*
X013268Y014380D01*
X013207Y014319D01*
X013166Y014278D01*
X013093Y014248D01*
X012981Y014136D01*
X012921Y013989D01*
X012921Y013831D01*
X012981Y013684D01*
X013093Y013572D01*
X013240Y013512D01*
X013398Y013512D01*
X013409Y013516D01*
X013409Y013439D01*
X013538Y013310D01*
X014520Y013310D01*
X014649Y013439D01*
X014649Y013881D01*
X014620Y013910D01*
X014649Y013939D01*
X014649Y014381D01*
X014620Y014410D01*
X014649Y014439D01*
X014649Y014517D01*
X014664Y014502D01*
X014664Y013604D01*
X014707Y013501D01*
X014796Y013412D01*
X014796Y013331D01*
X014812Y013291D01*
X014283Y013291D01*
X014154Y013163D01*
X014154Y013076D01*
X011484Y013076D01*
X011484Y013163D01*
X011355Y013291D01*
X010346Y013291D01*
X010217Y013163D01*
X010217Y012429D01*
X010346Y012300D01*
X011355Y012300D01*
X011484Y012429D01*
X011484Y012516D01*
X014154Y012516D01*
X014154Y012429D01*
X014283Y012300D01*
X014470Y012300D01*
X014343Y012248D01*
X014286Y012190D01*
X013388Y012190D01*
X013285Y012147D01*
X013207Y012069D01*
X012957Y011819D01*
X012914Y011716D01*
X012914Y009229D01*
X012957Y009126D01*
X013035Y009048D01*
X013160Y008923D01*
X013263Y008880D01*
X013471Y008880D01*
X013460Y008869D01*
X013460Y008451D01*
X013471Y008440D01*
X012685Y008440D01*
X012599Y008526D01*
X012599Y010216D01*
X012556Y010319D01*
X012478Y010397D01*
X012375Y010440D01*
X012107Y010440D01*
X012049Y010498D01*
X010967Y010498D01*
X010838Y010369D01*
X010838Y009951D01*
X010849Y009940D01*
X009513Y009940D01*
X009410Y009897D01*
X009285Y009772D01*
X009207Y009694D01*
X009164Y009591D01*
X009164Y006854D01*
X009207Y006751D01*
X009421Y006537D01*
X009421Y006456D01*
X009481Y006309D01*
X009593Y006197D01*
X009740Y006137D01*
X009898Y006137D01*
X010045Y006197D01*
X010157Y006309D01*
X010217Y006456D01*
X010217Y006614D01*
X010157Y006761D01*
X010045Y006873D01*
X009898Y006933D01*
X009817Y006933D01*
X009724Y007026D01*
X009724Y009380D01*
X010104Y009380D01*
X010046Y009239D01*
X010046Y009081D01*
X010106Y008934D01*
X010218Y008822D01*
X010365Y008762D01*
X010523Y008762D01*
X010670Y008822D01*
X010727Y008880D01*
X010768Y008880D01*
X010660Y008772D01*
X010582Y008694D01*
X010539Y008591D01*
X010539Y007818D01*
X010481Y007761D01*
X010421Y007614D01*
X010421Y007482D01*
X010414Y007466D01*
X010414Y006729D01*
X010457Y006626D01*
X010535Y006548D01*
X010785Y006298D01*
X010888Y006255D01*
X011286Y006255D01*
X011343Y006197D01*
X011490Y006137D01*
X011648Y006137D01*
X011795Y006197D01*
X011852Y006255D01*
X015875Y006255D01*
X015978Y006298D01*
X016056Y006376D01*
X016806Y007126D01*
X016849Y007229D01*
X016849Y015627D01*
X016907Y015684D01*
X016967Y015831D01*
X016967Y015989D01*
X016907Y016136D01*
X016795Y016248D01*
X016648Y016308D01*
X016490Y016308D01*
X016343Y016248D01*
X016298Y016202D01*
X016181Y016319D01*
X016120Y016380D01*
X021750Y016380D01*
X021853Y016423D01*
X022728Y017298D01*
X022806Y017376D01*
X022849Y017479D01*
X022849Y018866D01*
X022806Y018969D01*
X021733Y020042D01*
X022074Y020281D01*
X022106Y020460D01*
X021381Y021495D01*
X021632Y021258D01*
X022483Y020256D01*
X023220Y019168D01*
X023836Y018007D01*
X024323Y016786D01*
X024674Y015520D01*
X024887Y014222D01*
X024923Y013562D01*
X024165Y013696D01*
X024165Y014649D01*
X024123Y014752D01*
X023717Y015158D01*
X023717Y015239D01*
X023657Y015386D01*
X023545Y015498D01*
X023398Y015558D01*
X023240Y015558D01*
X023093Y015498D01*
X022981Y015386D01*
X022921Y015239D01*
X022921Y015081D01*
X022981Y014934D01*
X023093Y014822D01*
X023240Y014762D01*
X023321Y014762D01*
X023605Y014478D01*
X023605Y013794D01*
X023195Y013867D01*
X023046Y013762D01*
X022961Y013282D01*
X022898Y013308D01*
X022813Y013308D01*
X022897Y013788D01*
X022793Y013938D01*
X021063Y014243D01*
X020913Y014138D01*
X020608Y012408D01*
X020713Y012258D01*
X022443Y011953D01*
X022592Y012058D01*
X022677Y012538D01*
X022740Y012512D01*
X022825Y012512D01*
X022741Y012032D01*
X022845Y011882D01*
X024575Y011577D01*
X024725Y011682D01*
X024954Y012982D01*
X024958Y012910D01*
X024887Y011598D01*
X024674Y010300D01*
X024323Y009034D01*
X023836Y007813D01*
X023220Y006652D01*
X022483Y005564D01*
X021840Y004807D01*
X021840Y004810D01*
X020832Y006250D01*
X020653Y006281D01*
X020242Y005994D01*
X020217Y006055D01*
X020155Y006117D01*
X020567Y006404D01*
X020598Y006584D01*
X019590Y008023D01*
X019411Y008055D01*
X017972Y007047D01*
X017940Y006868D01*
X018948Y005428D01*
X019127Y005397D01*
X019515Y005668D01*
X019541Y005604D01*
X019601Y005544D01*
X019214Y005273D01*
X019206Y005232D01*
X018060Y005232D01*
X018003Y005290D01*
X017856Y005350D01*
X017698Y005350D01*
X017551Y005290D01*
X017439Y005178D01*
X017379Y005031D01*
X017379Y004873D01*
X017439Y004726D01*
X017551Y004614D01*
X017698Y004554D01*
X017856Y004554D01*
X018003Y004614D01*
X018060Y004672D01*
X019477Y004672D01*
X020190Y003655D01*
X020369Y003623D01*
X021409Y004351D01*
X020678Y003658D01*
X019631Y002863D01*
X018505Y002185D01*
X017312Y001633D01*
X016067Y001213D01*
X014783Y000931D01*
X013476Y000789D01*
X013449Y000789D01*
X013471Y000804D01*
X013776Y002534D01*
X013671Y002683D01*
X013191Y002768D01*
X013217Y002831D01*
X013217Y002916D01*
X013697Y002832D01*
X013847Y002936D01*
X014152Y004666D01*
X014047Y004816D01*
X012317Y005121D01*
X012167Y005016D01*
X011862Y003286D01*
X011967Y003137D01*
X012447Y003052D01*
X012421Y002989D01*
X012421Y002904D01*
X011941Y002988D01*
X011791Y002884D01*
X011558Y001558D01*
X011490Y001558D01*
X011343Y001498D01*
X011231Y001386D01*
X011171Y001239D01*
X011171Y001081D01*
X011231Y000934D01*
X011281Y000885D01*
X010855Y000931D01*
X009571Y001213D01*
X008326Y001633D01*
X007133Y002185D01*
X006007Y002863D01*
X004960Y003658D01*
X004716Y003889D01*
X004775Y003834D02*
X011959Y003834D01*
X011980Y003952D02*
X004809Y003952D01*
X004979Y004071D02*
X012001Y004071D01*
X012022Y004189D02*
X005148Y004189D01*
X005317Y004308D02*
X012042Y004308D01*
X012063Y004426D02*
X005486Y004426D01*
X005656Y004545D02*
X012084Y004545D01*
X012105Y004663D02*
X005825Y004663D01*
X005994Y004782D02*
X012126Y004782D01*
X012147Y004900D02*
X006159Y004900D01*
X006180Y005019D02*
X012171Y005019D01*
X012897Y005019D02*
X017379Y005019D01*
X017379Y004900D02*
X013569Y004900D01*
X014071Y004782D02*
X017416Y004782D01*
X017503Y004663D02*
X014151Y004663D01*
X014130Y004545D02*
X019567Y004545D01*
X019484Y004663D02*
X018051Y004663D01*
X017777Y004952D02*
X020511Y004952D01*
X019650Y004426D02*
X014109Y004426D01*
X014088Y004308D02*
X019733Y004308D01*
X019816Y004189D02*
X014067Y004189D01*
X014047Y004071D02*
X019899Y004071D01*
X019981Y003952D02*
X014026Y003952D01*
X014005Y003834D02*
X020064Y003834D01*
X020147Y003715D02*
X013984Y003715D01*
X013963Y003597D02*
X020597Y003597D01*
X020501Y003715D02*
X020738Y003715D01*
X020670Y003834D02*
X020863Y003834D01*
X020839Y003952D02*
X020988Y003952D01*
X021008Y004071D02*
X021113Y004071D01*
X021178Y004189D02*
X021238Y004189D01*
X021347Y004308D02*
X021363Y004308D01*
X021777Y004900D02*
X021919Y004900D01*
X022020Y005019D02*
X021694Y005019D01*
X021611Y005137D02*
X022120Y005137D01*
X022221Y005256D02*
X021528Y005256D01*
X021445Y005374D02*
X022322Y005374D01*
X022422Y005493D02*
X021362Y005493D01*
X021279Y005611D02*
X022515Y005611D01*
X022595Y005730D02*
X021196Y005730D01*
X021114Y005848D02*
X022675Y005848D01*
X022756Y005967D02*
X021031Y005967D01*
X020948Y006085D02*
X022836Y006085D01*
X022916Y006204D02*
X020865Y006204D01*
X020594Y006559D02*
X023158Y006559D01*
X023234Y006678D02*
X020533Y006678D01*
X020450Y006796D02*
X023297Y006796D01*
X023360Y006915D02*
X020367Y006915D01*
X020284Y007033D02*
X023423Y007033D01*
X023485Y007152D02*
X020201Y007152D01*
X020118Y007270D02*
X023548Y007270D01*
X023611Y007389D02*
X020035Y007389D01*
X019952Y007507D02*
X023674Y007507D01*
X023737Y007626D02*
X019869Y007626D01*
X019786Y007744D02*
X023799Y007744D01*
X023856Y007863D02*
X019703Y007863D01*
X019620Y007981D02*
X023903Y007981D01*
X023950Y008100D02*
X016849Y008100D01*
X016849Y008218D02*
X023997Y008218D01*
X024045Y008337D02*
X016849Y008337D01*
X016849Y008455D02*
X024092Y008455D01*
X024139Y008574D02*
X016849Y008574D01*
X016849Y008692D02*
X024186Y008692D01*
X024233Y008811D02*
X016849Y008811D01*
X016849Y008929D02*
X024281Y008929D01*
X024326Y009048D02*
X016849Y009048D01*
X016849Y009166D02*
X024359Y009166D01*
X024392Y009285D02*
X016849Y009285D01*
X016849Y009403D02*
X024425Y009403D01*
X024458Y009522D02*
X016849Y009522D01*
X016849Y009640D02*
X024491Y009640D01*
X024524Y009759D02*
X016849Y009759D01*
X016849Y009877D02*
X024557Y009877D01*
X024590Y009996D02*
X016849Y009996D01*
X016849Y010114D02*
X024622Y010114D01*
X024655Y010233D02*
X016849Y010233D01*
X016849Y010351D02*
X024682Y010351D01*
X024702Y010470D02*
X016849Y010470D01*
X016849Y010588D02*
X024721Y010588D01*
X024741Y010707D02*
X016849Y010707D01*
X016849Y010825D02*
X024760Y010825D01*
X024780Y010944D02*
X016849Y010944D01*
X016849Y011062D02*
X024799Y011062D01*
X024818Y011181D02*
X016849Y011181D01*
X016849Y011299D02*
X024838Y011299D01*
X024857Y011418D02*
X016849Y011418D01*
X016849Y011536D02*
X024877Y011536D01*
X024887Y011598D02*
X024887Y011598D01*
X024890Y011655D02*
X024686Y011655D01*
X024741Y011773D02*
X024896Y011773D01*
X024903Y011892D02*
X024762Y011892D01*
X024783Y012010D02*
X024909Y012010D01*
X024916Y012129D02*
X024804Y012129D01*
X024824Y012247D02*
X024922Y012247D01*
X024928Y012366D02*
X024845Y012366D01*
X024866Y012484D02*
X024935Y012484D01*
X024941Y012603D02*
X024887Y012603D01*
X024908Y012721D02*
X024948Y012721D01*
X024954Y012840D02*
X024929Y012840D01*
X024950Y012958D02*
X024955Y012958D01*
X024917Y013669D02*
X024316Y013669D01*
X024165Y013788D02*
X024910Y013788D01*
X024904Y013906D02*
X024165Y013906D01*
X024165Y014025D02*
X024898Y014025D01*
X024891Y014143D02*
X024165Y014143D01*
X024165Y014262D02*
X024880Y014262D01*
X024861Y014380D02*
X024165Y014380D01*
X024165Y014499D02*
X024842Y014499D01*
X024822Y014617D02*
X024165Y014617D01*
X024130Y014736D02*
X024803Y014736D01*
X024783Y014854D02*
X024021Y014854D01*
X023902Y014973D02*
X024764Y014973D01*
X024744Y015091D02*
X023784Y015091D01*
X023717Y015210D02*
X024725Y015210D01*
X024706Y015328D02*
X023681Y015328D01*
X023596Y015447D02*
X024686Y015447D01*
X024662Y015565D02*
X016849Y015565D01*
X016849Y015447D02*
X023042Y015447D01*
X022957Y015328D02*
X016849Y015328D01*
X016849Y015210D02*
X022921Y015210D01*
X022921Y015091D02*
X016849Y015091D01*
X016849Y014973D02*
X022965Y014973D01*
X023061Y014854D02*
X016849Y014854D01*
X016849Y014736D02*
X023347Y014736D01*
X023466Y014617D02*
X016849Y014617D01*
X016849Y014499D02*
X023584Y014499D01*
X023605Y014380D02*
X016849Y014380D01*
X016849Y014262D02*
X023605Y014262D01*
X023605Y014143D02*
X021628Y014143D01*
X022300Y014025D02*
X023605Y014025D01*
X023605Y013906D02*
X022815Y013906D01*
X022897Y013788D02*
X023082Y013788D01*
X023029Y013669D02*
X022876Y013669D01*
X022855Y013551D02*
X023008Y013551D01*
X022987Y013432D02*
X022835Y013432D01*
X022814Y013314D02*
X022967Y013314D01*
X022820Y012484D02*
X022667Y012484D01*
X022647Y012366D02*
X022799Y012366D01*
X022779Y012247D02*
X022626Y012247D01*
X022605Y012129D02*
X022758Y012129D01*
X022756Y012010D02*
X022524Y012010D01*
X022839Y011892D02*
X018604Y011892D01*
X018615Y011894D02*
X018863Y012038D01*
X019066Y012241D01*
X019210Y012489D01*
X019284Y012767D01*
X019284Y013053D01*
X019210Y013331D01*
X019066Y013579D01*
X018863Y013782D01*
X018615Y013926D01*
X018337Y014000D01*
X018050Y014000D01*
X017773Y013926D01*
X017525Y013782D01*
X017322Y013579D01*
X017178Y013331D01*
X017104Y013053D01*
X017104Y012767D01*
X017178Y012489D01*
X017322Y012241D01*
X017525Y012038D01*
X017773Y011894D01*
X018050Y011820D01*
X018337Y011820D01*
X018615Y011894D01*
X018815Y012010D02*
X022122Y012010D01*
X021450Y012129D02*
X018954Y012129D01*
X019070Y012247D02*
X020778Y012247D01*
X020638Y012366D02*
X019138Y012366D01*
X019207Y012484D02*
X020622Y012484D01*
X020642Y012603D02*
X019240Y012603D01*
X019272Y012721D02*
X020663Y012721D01*
X020684Y012840D02*
X019284Y012840D01*
X019284Y012958D02*
X020705Y012958D01*
X020726Y013077D02*
X019278Y013077D01*
X019246Y013195D02*
X020747Y013195D01*
X020768Y013314D02*
X019214Y013314D01*
X019151Y013432D02*
X020789Y013432D01*
X020810Y013551D02*
X019083Y013551D01*
X018976Y013669D02*
X020831Y013669D01*
X020851Y013788D02*
X018854Y013788D01*
X018649Y013906D02*
X020872Y013906D01*
X020893Y014025D02*
X016849Y014025D01*
X016849Y014143D02*
X020920Y014143D01*
X021785Y016395D02*
X024431Y016395D01*
X024398Y016513D02*
X021943Y016513D01*
X022062Y016632D02*
X024365Y016632D01*
X024333Y016750D02*
X022180Y016750D01*
X022299Y016869D02*
X024290Y016869D01*
X024242Y016987D02*
X022417Y016987D01*
X022536Y017106D02*
X024195Y017106D01*
X024148Y017224D02*
X022654Y017224D01*
X022773Y017343D02*
X024101Y017343D01*
X024054Y017461D02*
X022841Y017461D01*
X022849Y017580D02*
X024006Y017580D01*
X023959Y017698D02*
X022849Y017698D01*
X022849Y017817D02*
X023912Y017817D01*
X023865Y017935D02*
X022849Y017935D01*
X022849Y018054D02*
X023811Y018054D01*
X023749Y018172D02*
X022849Y018172D01*
X022849Y018291D02*
X023686Y018291D01*
X023623Y018409D02*
X022849Y018409D01*
X022849Y018528D02*
X023560Y018528D01*
X023497Y018646D02*
X022849Y018646D01*
X022849Y018765D02*
X023434Y018765D01*
X023372Y018883D02*
X022842Y018883D01*
X022773Y019002D02*
X023309Y019002D01*
X023246Y019120D02*
X022655Y019120D01*
X022536Y019239D02*
X023173Y019239D01*
X023092Y019357D02*
X022418Y019357D01*
X022299Y019476D02*
X023012Y019476D01*
X022932Y019594D02*
X022181Y019594D01*
X022062Y019713D02*
X022851Y019713D01*
X022771Y019831D02*
X021944Y019831D01*
X021825Y019950D02*
X022691Y019950D01*
X022610Y020068D02*
X021771Y020068D01*
X021940Y020187D02*
X022530Y020187D01*
X022441Y020305D02*
X022079Y020305D01*
X022100Y020424D02*
X022341Y020424D01*
X022240Y020542D02*
X022049Y020542D01*
X021966Y020661D02*
X022139Y020661D01*
X022039Y020779D02*
X021883Y020779D01*
X021938Y020898D02*
X021800Y020898D01*
X021837Y021016D02*
X021717Y021016D01*
X021737Y021135D02*
X021634Y021135D01*
X021636Y021253D02*
X021551Y021253D01*
X021512Y021372D02*
X021468Y021372D01*
X021387Y021490D02*
X021385Y021490D01*
X020777Y020602D02*
X022569Y018810D01*
X022569Y017535D01*
X021694Y016660D01*
X014029Y016660D01*
X014029Y016160D02*
X015944Y016160D01*
X016194Y015910D01*
X016194Y014660D01*
X016289Y014268D02*
X016289Y009375D01*
X016148Y009433D01*
X015990Y009433D01*
X015974Y009427D01*
X015974Y014320D01*
X016115Y014262D01*
X016273Y014262D01*
X016289Y014268D01*
X016289Y014262D02*
X015974Y014262D01*
X015974Y014143D02*
X016289Y014143D01*
X016289Y014025D02*
X015974Y014025D01*
X015974Y013906D02*
X016289Y013906D01*
X016289Y013788D02*
X015974Y013788D01*
X015974Y013669D02*
X016289Y013669D01*
X016289Y013551D02*
X015974Y013551D01*
X015974Y013432D02*
X016289Y013432D01*
X016289Y013314D02*
X015974Y013314D01*
X015974Y013195D02*
X016289Y013195D01*
X016289Y013077D02*
X015974Y013077D01*
X015974Y012958D02*
X016289Y012958D01*
X016289Y012840D02*
X015974Y012840D01*
X015974Y012721D02*
X016289Y012721D01*
X016289Y012603D02*
X015974Y012603D01*
X015974Y012484D02*
X016289Y012484D01*
X016289Y012366D02*
X015974Y012366D01*
X015974Y012247D02*
X016289Y012247D01*
X016289Y012129D02*
X015974Y012129D01*
X015974Y012010D02*
X016289Y012010D01*
X016289Y011892D02*
X015974Y011892D01*
X015974Y011773D02*
X016289Y011773D01*
X016289Y011655D02*
X015974Y011655D01*
X015974Y011536D02*
X016289Y011536D01*
X016289Y011418D02*
X015974Y011418D01*
X015974Y011299D02*
X016289Y011299D01*
X016289Y011181D02*
X015974Y011181D01*
X015974Y011062D02*
X016289Y011062D01*
X016289Y010944D02*
X015974Y010944D01*
X015974Y010825D02*
X016289Y010825D01*
X016289Y010707D02*
X015974Y010707D01*
X015974Y010588D02*
X016289Y010588D01*
X016289Y010470D02*
X015974Y010470D01*
X015974Y010351D02*
X016289Y010351D01*
X016289Y010233D02*
X015974Y010233D01*
X015974Y010114D02*
X016289Y010114D01*
X016289Y009996D02*
X015974Y009996D01*
X015974Y009877D02*
X016289Y009877D01*
X016289Y009759D02*
X015974Y009759D01*
X015974Y009640D02*
X016289Y009640D01*
X016289Y009522D02*
X015974Y009522D01*
X016222Y009403D02*
X016289Y009403D01*
X016069Y009035D02*
X016069Y007785D01*
X015319Y007035D01*
X014444Y007035D01*
X015444Y008160D02*
X012569Y008160D01*
X012319Y008410D01*
X012319Y010160D01*
X011508Y010160D01*
X011326Y010599D02*
X011285Y010589D01*
X010910Y010589D01*
X010910Y010964D01*
X010790Y010964D01*
X010277Y010964D01*
X010277Y010728D01*
X010288Y010687D01*
X010309Y010650D01*
X010339Y010621D01*
X010375Y010599D01*
X010416Y010589D01*
X010790Y010589D01*
X010790Y010964D01*
X010790Y011084D01*
X010277Y011084D01*
X010277Y011321D01*
X010288Y011362D01*
X010309Y011398D01*
X010339Y011428D01*
X010375Y011449D01*
X010416Y011460D01*
X010790Y011460D01*
X010790Y011084D01*
X010910Y011084D01*
X010910Y011460D01*
X011285Y011460D01*
X011326Y011449D01*
X011362Y011428D01*
X011392Y011398D01*
X011413Y011362D01*
X011424Y011321D01*
X011424Y011084D01*
X010910Y011084D01*
X010910Y010964D01*
X011424Y010964D01*
X011424Y010728D01*
X011413Y010687D01*
X011392Y010650D01*
X011362Y010621D01*
X011326Y010599D01*
X011418Y010707D02*
X012914Y010707D01*
X012914Y010825D02*
X011424Y010825D01*
X011424Y010944D02*
X012914Y010944D01*
X012914Y011062D02*
X010910Y011062D01*
X010850Y011024D02*
X010840Y011035D01*
X009319Y011035D01*
X009069Y010785D01*
X007194Y010785D01*
X007300Y011820D02*
X007587Y011820D01*
X007865Y011894D01*
X008113Y012038D01*
X008316Y012241D01*
X008460Y012489D01*
X008534Y012767D01*
X008534Y013053D01*
X008460Y013331D01*
X008316Y013579D01*
X008113Y013782D01*
X007865Y013926D01*
X007587Y014000D01*
X007300Y014000D01*
X007023Y013926D01*
X006775Y013782D01*
X006572Y013579D01*
X006428Y013331D01*
X006354Y013053D01*
X006354Y012767D01*
X006428Y012489D01*
X006572Y012241D01*
X006775Y012038D01*
X007023Y011894D01*
X007300Y011820D01*
X007034Y011892D02*
X005321Y011892D01*
X005203Y011773D02*
X012938Y011773D01*
X012914Y011655D02*
X005084Y011655D01*
X004966Y011536D02*
X012914Y011536D01*
X012914Y011418D02*
X011372Y011418D01*
X011424Y011299D02*
X012914Y011299D01*
X012914Y011181D02*
X011424Y011181D01*
X010910Y011181D02*
X010790Y011181D01*
X010790Y011299D02*
X010910Y011299D01*
X010910Y011418D02*
X010790Y011418D01*
X010329Y011418D02*
X004847Y011418D01*
X004729Y011299D02*
X010277Y011299D01*
X010277Y011181D02*
X003360Y011181D01*
X003242Y011062D02*
X010790Y011062D01*
X010790Y010944D02*
X010910Y010944D01*
X010910Y010825D02*
X010790Y010825D01*
X010790Y010707D02*
X010910Y010707D01*
X010938Y010470D02*
X003099Y010470D01*
X003099Y010588D02*
X012914Y010588D01*
X012914Y010470D02*
X012078Y010470D01*
X012524Y010351D02*
X012914Y010351D01*
X012914Y010233D02*
X012592Y010233D01*
X012599Y010114D02*
X012914Y010114D01*
X012914Y009996D02*
X012599Y009996D01*
X012599Y009877D02*
X012914Y009877D01*
X012914Y009759D02*
X012599Y009759D01*
X012599Y009640D02*
X012914Y009640D01*
X012914Y009522D02*
X012599Y009522D01*
X012599Y009403D02*
X012914Y009403D01*
X012914Y009285D02*
X012599Y009285D01*
X012599Y009166D02*
X012940Y009166D01*
X013035Y009048D02*
X012599Y009048D01*
X012599Y008929D02*
X013154Y008929D01*
X013319Y009160D02*
X013194Y009285D01*
X013194Y011660D01*
X013444Y011910D01*
X014569Y011910D01*
X014286Y011630D02*
X014343Y011572D01*
X014490Y011512D01*
X014648Y011512D01*
X014795Y011572D01*
X014907Y011684D01*
X014967Y011831D01*
X014967Y011989D01*
X014907Y012136D01*
X014795Y012248D01*
X014668Y012300D01*
X015164Y012300D01*
X015164Y011460D01*
X014847Y011460D01*
X014847Y011084D01*
X014727Y011084D01*
X014727Y010964D01*
X014214Y010964D01*
X014214Y010728D01*
X014225Y010687D01*
X014246Y010650D01*
X014276Y010621D01*
X014312Y010599D01*
X014353Y010589D01*
X014727Y010589D01*
X014727Y010964D01*
X014847Y010964D01*
X014847Y010589D01*
X015164Y010589D01*
X015164Y010027D01*
X015093Y009998D01*
X015036Y009940D01*
X014729Y009940D01*
X014714Y009955D01*
X014729Y009980D01*
X014740Y010021D01*
X014740Y010160D01*
X014740Y010299D01*
X014729Y010340D01*
X014708Y010376D01*
X014678Y010406D01*
X014642Y010427D01*
X014601Y010438D01*
X014130Y010438D01*
X013659Y010438D01*
X013618Y010427D01*
X013582Y010406D01*
X013552Y010376D01*
X013531Y010340D01*
X013520Y010299D01*
X013520Y010160D01*
X014130Y010160D01*
X014130Y010160D01*
X013520Y010160D01*
X013520Y010021D01*
X013531Y009980D01*
X013546Y009955D01*
X013474Y009883D01*
X013474Y011544D01*
X013560Y011630D01*
X014286Y011630D01*
X014431Y011536D02*
X013474Y011536D01*
X013474Y011418D02*
X014266Y011418D01*
X014276Y011428D02*
X014246Y011398D01*
X014225Y011362D01*
X014214Y011321D01*
X014214Y011084D01*
X014727Y011084D01*
X014727Y011460D01*
X014353Y011460D01*
X014312Y011449D01*
X014276Y011428D01*
X014214Y011299D02*
X013474Y011299D01*
X013474Y011181D02*
X014214Y011181D01*
X014319Y011035D02*
X014819Y011035D01*
X014819Y011410D01*
X015069Y011660D01*
X015164Y011655D02*
X014877Y011655D01*
X014944Y011773D02*
X015164Y011773D01*
X015164Y011892D02*
X014967Y011892D01*
X014959Y012010D02*
X015164Y012010D01*
X015164Y012129D02*
X014910Y012129D01*
X014795Y012247D02*
X015164Y012247D01*
X015444Y012660D02*
X015319Y012785D01*
X014798Y012785D01*
X014787Y012796D01*
X010850Y012796D01*
X011147Y013381D02*
X011188Y013370D01*
X011604Y013370D01*
X011604Y013655D01*
X011049Y013655D01*
X011049Y013509D01*
X011060Y013468D01*
X011081Y013432D01*
X008401Y013432D01*
X008464Y013314D02*
X013534Y013314D01*
X013416Y013432D02*
X012508Y013432D01*
X012648Y013551D02*
X013146Y013551D01*
X012997Y013669D02*
X012702Y013669D01*
X012717Y013788D02*
X012938Y013788D01*
X012921Y013906D02*
X012700Y013906D01*
X012704Y014025D02*
X012935Y014025D01*
X012989Y014143D02*
X012823Y014143D01*
X012941Y014262D02*
X013127Y014262D01*
X013319Y014035D02*
X013444Y014160D01*
X014029Y014160D01*
X014029Y014660D02*
X012944Y014660D01*
X012319Y014035D01*
X012319Y013785D01*
X011614Y013551D02*
X011604Y013551D01*
X011604Y013432D02*
X011614Y013432D01*
X011451Y013195D02*
X014187Y013195D01*
X014154Y013077D02*
X011484Y013077D01*
X011147Y013381D02*
X011111Y013402D01*
X011081Y013432D01*
X011049Y013551D02*
X008333Y013551D01*
X008226Y013669D02*
X011049Y013669D01*
X011049Y013788D02*
X008104Y013788D01*
X007899Y013906D02*
X010200Y013906D01*
X010058Y014025D02*
X005724Y014025D01*
X005724Y014143D02*
X009940Y014143D01*
X009827Y014262D02*
X005724Y014262D01*
X005724Y014380D02*
X009789Y014380D01*
X009789Y014499D02*
X005724Y014499D01*
X005724Y014617D02*
X009789Y014617D01*
X009789Y014736D02*
X005724Y014736D01*
X005724Y014854D02*
X009311Y014854D01*
X009215Y014973D02*
X005798Y014973D01*
X005842Y015091D02*
X009171Y015091D01*
X009123Y015210D02*
X005842Y015210D01*
X005806Y015328D02*
X009005Y015328D01*
X009069Y015660D02*
X004069Y015660D01*
X004352Y015940D02*
X004295Y015998D01*
X004148Y016058D01*
X003990Y016058D01*
X003849Y016000D01*
X003849Y020044D01*
X004185Y020380D01*
X004239Y020380D01*
X004806Y019570D01*
X004985Y019539D01*
X005376Y019813D01*
X005407Y019737D01*
X005458Y019686D01*
X005071Y019416D01*
X005040Y019236D01*
X006048Y017797D01*
X006227Y017765D01*
X007666Y018773D01*
X007698Y018952D01*
X006690Y020392D01*
X006511Y020423D01*
X006104Y020138D01*
X006083Y020189D01*
X006013Y020259D01*
X006424Y020547D01*
X006456Y020726D01*
X005448Y022165D01*
X005269Y022197D01*
X004229Y021469D01*
X004960Y022162D01*
X006007Y022957D01*
X007133Y023635D01*
X008326Y024187D01*
X009571Y024607D01*
X010855Y024889D01*
X012162Y025031D01*
X012189Y025031D01*
X012167Y025016D01*
X012044Y024315D01*
X010513Y024315D01*
X010410Y024272D01*
X010332Y024194D01*
X010332Y024194D01*
X009910Y023772D01*
X009832Y023694D01*
X009789Y023591D01*
X009789Y018000D01*
X009039Y018000D01*
X008898Y018058D01*
X008740Y018058D01*
X008593Y017998D01*
X008481Y017886D01*
X008421Y017739D01*
X008421Y017581D01*
X008481Y017434D01*
X008593Y017322D01*
X008740Y017262D01*
X008898Y017262D01*
X009039Y017320D01*
X009789Y017320D01*
X009789Y015500D01*
X009648Y015558D01*
X009567Y015558D01*
X009306Y015819D01*
X009228Y015897D01*
X009125Y015940D01*
X004352Y015940D01*
X004195Y016039D02*
X009789Y016039D01*
X009789Y015921D02*
X009172Y015921D01*
X009323Y015802D02*
X009789Y015802D01*
X009789Y015684D02*
X009441Y015684D01*
X009560Y015565D02*
X009789Y015565D01*
X009569Y015160D02*
X009069Y015660D01*
X009789Y016158D02*
X003849Y016158D01*
X003849Y016276D02*
X009789Y016276D01*
X009789Y016395D02*
X003849Y016395D01*
X003849Y016513D02*
X009789Y016513D01*
X009789Y016632D02*
X003849Y016632D01*
X003849Y016750D02*
X009789Y016750D01*
X009789Y016869D02*
X003849Y016869D01*
X003849Y016987D02*
X009789Y016987D01*
X009789Y017106D02*
X003849Y017106D01*
X003849Y017224D02*
X009789Y017224D01*
X009789Y018054D02*
X008910Y018054D01*
X008728Y018054D02*
X006639Y018054D01*
X006808Y018172D02*
X009789Y018172D01*
X009789Y018291D02*
X006978Y018291D01*
X007147Y018409D02*
X009789Y018409D01*
X009789Y018528D02*
X007316Y018528D01*
X007485Y018646D02*
X009789Y018646D01*
X009789Y018765D02*
X007654Y018765D01*
X007686Y018883D02*
X009789Y018883D01*
X009789Y019002D02*
X007664Y019002D01*
X007581Y019120D02*
X009789Y019120D01*
X009789Y019239D02*
X007498Y019239D01*
X007415Y019357D02*
X009789Y019357D01*
X009789Y019476D02*
X007332Y019476D01*
X007249Y019594D02*
X009789Y019594D01*
X009789Y019713D02*
X007166Y019713D01*
X007083Y019831D02*
X009789Y019831D01*
X009789Y019950D02*
X007000Y019950D01*
X006917Y020068D02*
X009789Y020068D01*
X009789Y020187D02*
X006834Y020187D01*
X006751Y020305D02*
X009789Y020305D01*
X009789Y020424D02*
X006249Y020424D01*
X006342Y020305D02*
X006079Y020305D01*
X006084Y020187D02*
X006173Y020187D01*
X006418Y020542D02*
X009789Y020542D01*
X009789Y020661D02*
X006444Y020661D01*
X006419Y020779D02*
X009789Y020779D01*
X009789Y020898D02*
X006336Y020898D01*
X006253Y021016D02*
X009789Y021016D01*
X009789Y021135D02*
X006170Y021135D01*
X006087Y021253D02*
X009789Y021253D01*
X009789Y021372D02*
X006004Y021372D01*
X005921Y021490D02*
X009789Y021490D01*
X009789Y021609D02*
X005838Y021609D01*
X005755Y021727D02*
X009789Y021727D01*
X009789Y021846D02*
X005672Y021846D01*
X005589Y021964D02*
X009789Y021964D01*
X009789Y022083D02*
X005506Y022083D01*
X005324Y022438D02*
X009789Y022438D01*
X009789Y022320D02*
X005168Y022320D01*
X005012Y022201D02*
X009789Y022201D01*
X009789Y022557D02*
X005480Y022557D01*
X005635Y022675D02*
X009789Y022675D01*
X009789Y022794D02*
X005791Y022794D01*
X005947Y022912D02*
X009789Y022912D01*
X009789Y023031D02*
X006128Y023031D01*
X006325Y023149D02*
X009789Y023149D01*
X009789Y023268D02*
X006522Y023268D01*
X006719Y023386D02*
X009789Y023386D01*
X009789Y023505D02*
X006916Y023505D01*
X007113Y023623D02*
X009802Y023623D01*
X009880Y023742D02*
X007363Y023742D01*
X007620Y023860D02*
X009998Y023860D01*
X009910Y023772D02*
X009910Y023772D01*
X010069Y023535D02*
X010569Y024035D01*
X012948Y024035D01*
X013007Y023976D01*
X012110Y024690D02*
X009949Y024690D01*
X009466Y024571D02*
X012089Y024571D01*
X012068Y024453D02*
X009114Y024453D01*
X008763Y024334D02*
X012047Y024334D01*
X012131Y024808D02*
X010487Y024808D01*
X010354Y024216D02*
X008411Y024216D01*
X008132Y024097D02*
X010235Y024097D01*
X010117Y023979D02*
X007876Y023979D01*
X010069Y023535D02*
X010069Y014410D01*
X010319Y014160D01*
X011609Y014160D01*
X011609Y014660D02*
X010444Y014660D01*
X010444Y015160D02*
X011609Y015160D01*
X011609Y015660D02*
X010444Y015660D01*
X010944Y016160D02*
X011609Y016160D01*
X011609Y016660D02*
X012194Y016660D01*
X012319Y016535D01*
X012319Y015035D01*
X013069Y015660D02*
X014029Y015660D01*
X015319Y015660D01*
X015694Y015285D01*
X015694Y008410D01*
X015444Y008160D01*
X014819Y008535D02*
X014694Y008660D01*
X014130Y008660D01*
X014069Y008599D01*
X014130Y009160D02*
X013319Y009160D01*
X013460Y008811D02*
X012599Y008811D01*
X012599Y008692D02*
X013460Y008692D01*
X013460Y008574D02*
X012599Y008574D01*
X012670Y008455D02*
X013460Y008455D01*
X014130Y009660D02*
X015319Y009660D01*
X015444Y009785D01*
X015444Y012660D01*
X015194Y013410D02*
X014944Y013660D01*
X014944Y014785D01*
X014944Y015035D01*
X014819Y015160D01*
X014029Y015160D01*
X014649Y014499D02*
X014664Y014499D01*
X014649Y014380D02*
X014664Y014380D01*
X014649Y014262D02*
X014664Y014262D01*
X014649Y014143D02*
X014664Y014143D01*
X014649Y014025D02*
X014664Y014025D01*
X014664Y013906D02*
X014624Y013906D01*
X014649Y013788D02*
X014664Y013788D01*
X014649Y013669D02*
X014664Y013669D01*
X014649Y013551D02*
X014686Y013551D01*
X014642Y013432D02*
X014776Y013432D01*
X014803Y013314D02*
X014524Y013314D01*
X014154Y012484D02*
X011484Y012484D01*
X011420Y012366D02*
X014218Y012366D01*
X014343Y012247D02*
X008320Y012247D01*
X008388Y012366D02*
X010281Y012366D01*
X010217Y012484D02*
X008457Y012484D01*
X008490Y012603D02*
X010217Y012603D01*
X010217Y012721D02*
X008522Y012721D01*
X008534Y012840D02*
X010217Y012840D01*
X010217Y012958D02*
X008534Y012958D01*
X008528Y013077D02*
X010217Y013077D01*
X010250Y013195D02*
X008496Y013195D01*
X008204Y012129D02*
X013267Y012129D01*
X013148Y012010D02*
X008065Y012010D01*
X007854Y011892D02*
X013030Y011892D01*
X013474Y011062D02*
X014727Y011062D01*
X014787Y011024D02*
X014308Y011024D01*
X014319Y011035D01*
X014308Y011024D02*
X014069Y010785D01*
X014069Y010221D01*
X014130Y010160D01*
X014130Y010438D01*
X014130Y010160D01*
X014130Y010160D01*
X014740Y010160D01*
X014130Y010160D01*
X014130Y010160D01*
X014130Y010233D02*
X014130Y010233D01*
X014130Y010351D02*
X014130Y010351D01*
X014220Y010707D02*
X013474Y010707D01*
X013474Y010825D02*
X014214Y010825D01*
X014214Y010944D02*
X013474Y010944D01*
X013474Y010588D02*
X015164Y010588D01*
X015164Y010470D02*
X013474Y010470D01*
X013474Y010351D02*
X013537Y010351D01*
X013520Y010233D02*
X013474Y010233D01*
X013474Y010114D02*
X013520Y010114D01*
X013527Y009996D02*
X013474Y009996D01*
X014733Y009996D02*
X015091Y009996D01*
X015164Y010114D02*
X014740Y010114D01*
X014740Y010233D02*
X015164Y010233D01*
X015164Y010351D02*
X014723Y010351D01*
X014727Y010707D02*
X014847Y010707D01*
X014847Y010825D02*
X014727Y010825D01*
X014727Y010944D02*
X014847Y010944D01*
X014847Y011181D02*
X014727Y011181D01*
X014727Y011299D02*
X014847Y011299D01*
X014847Y011418D02*
X014727Y011418D01*
X014707Y011536D02*
X015164Y011536D01*
X016849Y011655D02*
X024138Y011655D01*
X023466Y011773D02*
X016849Y011773D01*
X016849Y011892D02*
X017784Y011892D01*
X017573Y012010D02*
X016849Y012010D01*
X016849Y012129D02*
X017434Y012129D01*
X017318Y012247D02*
X016849Y012247D01*
X016849Y012366D02*
X017250Y012366D01*
X017181Y012484D02*
X016849Y012484D01*
X016849Y012603D02*
X017148Y012603D01*
X017116Y012721D02*
X016849Y012721D01*
X016849Y012840D02*
X017104Y012840D01*
X017104Y012958D02*
X016849Y012958D01*
X016849Y013077D02*
X017110Y013077D01*
X017142Y013195D02*
X016849Y013195D01*
X016849Y013314D02*
X017174Y013314D01*
X017237Y013432D02*
X016849Y013432D01*
X016849Y013551D02*
X017305Y013551D01*
X017412Y013669D02*
X016849Y013669D01*
X016849Y013788D02*
X017534Y013788D01*
X017739Y013906D02*
X016849Y013906D01*
X016906Y015684D02*
X024629Y015684D01*
X024596Y015802D02*
X016956Y015802D01*
X016967Y015921D02*
X024563Y015921D01*
X024530Y016039D02*
X016947Y016039D01*
X016885Y016158D02*
X024497Y016158D01*
X024464Y016276D02*
X016726Y016276D01*
X016412Y016276D02*
X016224Y016276D01*
X016569Y015910D02*
X016569Y007285D01*
X015819Y006535D01*
X011569Y006535D01*
X010944Y006535D01*
X010694Y006785D01*
X010694Y007410D01*
X010819Y007535D01*
X010819Y008535D01*
X010944Y008660D01*
X011508Y008660D01*
X011508Y009160D02*
X010444Y009160D01*
X010046Y009166D02*
X009724Y009166D01*
X009724Y009048D02*
X010059Y009048D01*
X010112Y008929D02*
X009724Y008929D01*
X009724Y008811D02*
X010247Y008811D01*
X010539Y008574D02*
X009724Y008574D01*
X009724Y008692D02*
X010581Y008692D01*
X010641Y008811D02*
X010699Y008811D01*
X010539Y008455D02*
X009724Y008455D01*
X009724Y008337D02*
X010539Y008337D01*
X010539Y008218D02*
X009724Y008218D01*
X009724Y008100D02*
X010539Y008100D01*
X010539Y007981D02*
X009724Y007981D01*
X009724Y007863D02*
X010539Y007863D01*
X010474Y007744D02*
X009724Y007744D01*
X009724Y007626D02*
X010425Y007626D01*
X010421Y007507D02*
X009724Y007507D01*
X009724Y007389D02*
X010414Y007389D01*
X010414Y007270D02*
X009724Y007270D01*
X009724Y007152D02*
X010414Y007152D01*
X010414Y007033D02*
X009724Y007033D01*
X009944Y006915D02*
X010414Y006915D01*
X010414Y006796D02*
X010121Y006796D01*
X010191Y006678D02*
X010435Y006678D01*
X010524Y006559D02*
X010217Y006559D01*
X010211Y006441D02*
X010642Y006441D01*
X010761Y006322D02*
X010162Y006322D01*
X010051Y006204D02*
X011337Y006204D01*
X011801Y006204D02*
X018405Y006204D01*
X018322Y006322D02*
X016002Y006322D01*
X016120Y006441D02*
X018239Y006441D01*
X018156Y006559D02*
X016239Y006559D01*
X016357Y006678D02*
X018073Y006678D01*
X017990Y006796D02*
X016476Y006796D01*
X016594Y006915D02*
X017948Y006915D01*
X017969Y007033D02*
X016713Y007033D01*
X016817Y007152D02*
X018121Y007152D01*
X018290Y007270D02*
X016849Y007270D01*
X016849Y007389D02*
X018459Y007389D01*
X018628Y007507D02*
X016849Y007507D01*
X016849Y007626D02*
X018798Y007626D01*
X018967Y007744D02*
X016849Y007744D01*
X016849Y007863D02*
X019136Y007863D01*
X019305Y007981D02*
X016849Y007981D01*
X018488Y006085D02*
X007856Y006085D01*
X007944Y006204D02*
X009587Y006204D01*
X009476Y006322D02*
X007961Y006322D01*
X007878Y006441D02*
X009427Y006441D01*
X009399Y006559D02*
X007795Y006559D01*
X007712Y006678D02*
X009280Y006678D01*
X009188Y006796D02*
X007629Y006796D01*
X007546Y006915D02*
X009164Y006915D01*
X009164Y007033D02*
X007463Y007033D01*
X007380Y007152D02*
X009164Y007152D01*
X009164Y007270D02*
X007297Y007270D01*
X007214Y007389D02*
X009164Y007389D01*
X009164Y007507D02*
X007131Y007507D01*
X007048Y007626D02*
X009164Y007626D01*
X009164Y007744D02*
X006965Y007744D01*
X006712Y007744D02*
X003099Y007744D01*
X003099Y007626D02*
X006543Y007626D01*
X006374Y007507D02*
X003099Y007507D01*
X003099Y007389D02*
X006205Y007389D01*
X006035Y007270D02*
X003099Y007270D01*
X003099Y007152D02*
X005866Y007152D01*
X005697Y007033D02*
X003099Y007033D01*
X003099Y006915D02*
X005528Y006915D01*
X005358Y006796D02*
X003099Y006796D01*
X003099Y006678D02*
X005319Y006678D01*
X005336Y006559D02*
X003099Y006559D01*
X003099Y006441D02*
X004851Y006441D01*
X004681Y006322D02*
X003099Y006322D01*
X003099Y006204D02*
X004512Y006204D01*
X004343Y006085D02*
X003099Y006085D01*
X003099Y005967D02*
X004174Y005967D01*
X004005Y005848D02*
X003099Y005848D01*
X003145Y005730D02*
X003835Y005730D01*
X003666Y005611D02*
X003264Y005611D01*
X003261Y005218D02*
X002819Y005660D01*
X002819Y011035D01*
X003319Y011535D01*
X004569Y011535D01*
X005444Y012410D01*
X005444Y015160D01*
X005724Y013906D02*
X006989Y013906D01*
X006784Y013788D02*
X005724Y013788D01*
X005724Y013669D02*
X006662Y013669D01*
X006555Y013551D02*
X005724Y013551D01*
X005724Y013432D02*
X006487Y013432D01*
X006424Y013314D02*
X005724Y013314D01*
X005724Y013195D02*
X006392Y013195D01*
X006360Y013077D02*
X005724Y013077D01*
X005724Y012958D02*
X006354Y012958D01*
X006354Y012840D02*
X005724Y012840D01*
X005724Y012721D02*
X006366Y012721D01*
X006398Y012603D02*
X005724Y012603D01*
X005724Y012484D02*
X006431Y012484D01*
X006500Y012366D02*
X005724Y012366D01*
X005677Y012247D02*
X006568Y012247D01*
X006684Y012129D02*
X005558Y012129D01*
X005440Y012010D02*
X006823Y012010D01*
X009184Y009640D02*
X003099Y009640D01*
X003099Y009522D02*
X009164Y009522D01*
X009164Y009403D02*
X003099Y009403D01*
X003099Y009285D02*
X009164Y009285D01*
X009164Y009166D02*
X003099Y009166D01*
X003099Y009048D02*
X009164Y009048D01*
X009164Y008929D02*
X003099Y008929D01*
X003099Y008811D02*
X009164Y008811D01*
X009164Y008692D02*
X003099Y008692D01*
X003099Y008574D02*
X009164Y008574D01*
X009164Y008455D02*
X003099Y008455D01*
X003099Y008337D02*
X009164Y008337D01*
X009164Y008218D02*
X003099Y008218D01*
X003099Y008100D02*
X009164Y008100D01*
X009164Y007981D02*
X003099Y007981D01*
X003099Y007863D02*
X009164Y007863D01*
X009444Y006910D02*
X009819Y006535D01*
X009444Y006910D02*
X009444Y009535D01*
X009569Y009660D01*
X011508Y009660D01*
X010838Y009996D02*
X003099Y009996D01*
X003099Y010114D02*
X010838Y010114D01*
X010838Y010233D02*
X003099Y010233D01*
X003099Y010351D02*
X010838Y010351D01*
X010283Y010707D02*
X003099Y010707D01*
X003099Y010825D02*
X010277Y010825D01*
X010277Y010944D02*
X003123Y010944D01*
X003099Y009877D02*
X009390Y009877D01*
X009272Y009759D02*
X003099Y009759D01*
X001753Y013098D02*
X001819Y013164D01*
X001819Y015410D01*
X003569Y015285D02*
X003569Y020160D01*
X004069Y020660D01*
X004919Y020660D01*
X005127Y020868D01*
X004374Y020187D02*
X003992Y020187D01*
X004110Y020305D02*
X004291Y020305D01*
X004457Y020068D02*
X003873Y020068D01*
X003849Y019950D02*
X004540Y019950D01*
X004623Y019831D02*
X003849Y019831D01*
X003849Y019713D02*
X004706Y019713D01*
X004789Y019594D02*
X003849Y019594D01*
X003849Y019476D02*
X005157Y019476D01*
X005064Y019594D02*
X005326Y019594D01*
X005233Y019713D02*
X005432Y019713D01*
X005061Y019357D02*
X003849Y019357D01*
X003849Y019239D02*
X005040Y019239D01*
X005121Y019120D02*
X003849Y019120D01*
X003849Y019002D02*
X005204Y019002D01*
X005287Y018883D02*
X003849Y018883D01*
X003849Y018765D02*
X005370Y018765D01*
X005453Y018646D02*
X003849Y018646D01*
X003849Y018528D02*
X005536Y018528D01*
X005619Y018409D02*
X003849Y018409D01*
X003849Y018291D02*
X005702Y018291D01*
X005785Y018172D02*
X003849Y018172D01*
X003849Y018054D02*
X005868Y018054D01*
X005951Y017935D02*
X003849Y017935D01*
X003849Y017817D02*
X006034Y017817D01*
X006301Y017817D02*
X008453Y017817D01*
X008421Y017698D02*
X003849Y017698D01*
X003849Y017580D02*
X008421Y017580D01*
X008470Y017461D02*
X003849Y017461D01*
X003849Y017343D02*
X008573Y017343D01*
X008531Y017935D02*
X006470Y017935D01*
X003943Y016039D02*
X003849Y016039D01*
X004251Y021490D02*
X004259Y021490D01*
X004376Y021609D02*
X004428Y021609D01*
X004501Y021727D02*
X004597Y021727D01*
X004626Y021846D02*
X004767Y021846D01*
X004752Y021964D02*
X004936Y021964D01*
X004877Y022083D02*
X005105Y022083D01*
X004960Y022162D02*
X004960Y022162D01*
X011200Y024927D02*
X012152Y024927D01*
X012319Y017160D02*
X011609Y017160D01*
X013319Y014035D02*
X013319Y013910D01*
X000160Y012910D02*
X000164Y013221D01*
X000175Y013531D01*
X000194Y013841D01*
X000221Y014151D01*
X000255Y014460D01*
X000297Y014767D01*
X000346Y015074D01*
X000403Y015380D01*
X000468Y015684D01*
X000539Y015986D01*
X000619Y016286D01*
X000705Y016585D01*
X000799Y016881D01*
X000900Y017175D01*
X001008Y017466D01*
X001124Y017754D01*
X001246Y018040D01*
X001375Y018322D01*
X001512Y018602D01*
X001655Y018877D01*
X001805Y019150D01*
X001961Y019418D01*
X002124Y019683D01*
X002293Y019943D01*
X002469Y020199D01*
X002651Y020451D01*
X002839Y020698D01*
X003033Y020941D01*
X003233Y021179D01*
X003439Y021411D01*
X003651Y021639D01*
X003868Y021861D01*
X004090Y022078D01*
X004318Y022290D01*
X004550Y022496D01*
X004788Y022696D01*
X005031Y022890D01*
X005278Y023078D01*
X005530Y023260D01*
X005786Y023436D01*
X006046Y023605D01*
X006311Y023768D01*
X006579Y023924D01*
X006852Y024074D01*
X007127Y024217D01*
X007407Y024354D01*
X007689Y024483D01*
X007975Y024605D01*
X008263Y024721D01*
X008554Y024829D01*
X008848Y024930D01*
X009144Y025024D01*
X009443Y025110D01*
X009743Y025190D01*
X010045Y025261D01*
X010349Y025326D01*
X010655Y025383D01*
X010962Y025432D01*
X011269Y025474D01*
X011578Y025508D01*
X011888Y025535D01*
X012198Y025554D01*
X012508Y025565D01*
X012819Y025569D01*
X013130Y025565D01*
X013440Y025554D01*
X013750Y025535D01*
X014060Y025508D01*
X014369Y025474D01*
X014676Y025432D01*
X014983Y025383D01*
X015289Y025326D01*
X015593Y025261D01*
X015895Y025190D01*
X016195Y025110D01*
X016494Y025024D01*
X016790Y024930D01*
X017084Y024829D01*
X017375Y024721D01*
X017663Y024605D01*
X017949Y024483D01*
X018231Y024354D01*
X018511Y024217D01*
X018786Y024074D01*
X019059Y023924D01*
X019327Y023768D01*
X019592Y023605D01*
X019852Y023436D01*
X020108Y023260D01*
X020360Y023078D01*
X020607Y022890D01*
X020850Y022696D01*
X021088Y022496D01*
X021320Y022290D01*
X021548Y022078D01*
X021770Y021861D01*
X021987Y021639D01*
X022199Y021411D01*
X022405Y021179D01*
X022605Y020941D01*
X022799Y020698D01*
X022987Y020451D01*
X023169Y020199D01*
X023345Y019943D01*
X023514Y019683D01*
X023677Y019418D01*
X023833Y019150D01*
X023983Y018877D01*
X024126Y018602D01*
X024263Y018322D01*
X024392Y018040D01*
X024514Y017754D01*
X024630Y017466D01*
X024738Y017175D01*
X024839Y016881D01*
X024933Y016585D01*
X025019Y016286D01*
X025099Y015986D01*
X025170Y015684D01*
X025235Y015380D01*
X025292Y015074D01*
X025341Y014767D01*
X025383Y014460D01*
X025417Y014151D01*
X025444Y013841D01*
X025463Y013531D01*
X025474Y013221D01*
X025478Y012910D01*
X025474Y012599D01*
X025463Y012289D01*
X025444Y011979D01*
X025417Y011669D01*
X025383Y011360D01*
X025341Y011053D01*
X025292Y010746D01*
X025235Y010440D01*
X025170Y010136D01*
X025099Y009834D01*
X025019Y009534D01*
X024933Y009235D01*
X024839Y008939D01*
X024738Y008645D01*
X024630Y008354D01*
X024514Y008066D01*
X024392Y007780D01*
X024263Y007498D01*
X024126Y007218D01*
X023983Y006943D01*
X023833Y006670D01*
X023677Y006402D01*
X023514Y006137D01*
X023345Y005877D01*
X023169Y005621D01*
X022987Y005369D01*
X022799Y005122D01*
X022605Y004879D01*
X022405Y004641D01*
X022199Y004409D01*
X021987Y004181D01*
X021770Y003959D01*
X021548Y003742D01*
X021320Y003530D01*
X021088Y003324D01*
X020850Y003124D01*
X020607Y002930D01*
X020360Y002742D01*
X020108Y002560D01*
X019852Y002384D01*
X019592Y002215D01*
X019327Y002052D01*
X019059Y001896D01*
X018786Y001746D01*
X018511Y001603D01*
X018231Y001466D01*
X017949Y001337D01*
X017663Y001215D01*
X017375Y001099D01*
X017084Y000991D01*
X016790Y000890D01*
X016494Y000796D01*
X016195Y000710D01*
X015895Y000630D01*
X015593Y000559D01*
X015289Y000494D01*
X014983Y000437D01*
X014676Y000388D01*
X014369Y000346D01*
X014060Y000312D01*
X013750Y000285D01*
X013440Y000266D01*
X013130Y000255D01*
X012819Y000251D01*
X012508Y000255D01*
X012198Y000266D01*
X011888Y000285D01*
X011578Y000312D01*
X011269Y000346D01*
X010962Y000388D01*
X010655Y000437D01*
X010349Y000494D01*
X010045Y000559D01*
X009743Y000630D01*
X009443Y000710D01*
X009144Y000796D01*
X008848Y000890D01*
X008554Y000991D01*
X008263Y001099D01*
X007975Y001215D01*
X007689Y001337D01*
X007407Y001466D01*
X007127Y001603D01*
X006852Y001746D01*
X006579Y001896D01*
X006311Y002052D01*
X006046Y002215D01*
X005786Y002384D01*
X005530Y002560D01*
X005278Y002742D01*
X005031Y002930D01*
X004788Y003124D01*
X004550Y003324D01*
X004318Y003530D01*
X004090Y003742D01*
X003868Y003959D01*
X003651Y004181D01*
X003439Y004409D01*
X003233Y004641D01*
X003033Y004879D01*
X002839Y005122D01*
X002651Y005369D01*
X002469Y005621D01*
X002293Y005877D01*
X002124Y006137D01*
X001961Y006402D01*
X001805Y006670D01*
X001655Y006943D01*
X001512Y007218D01*
X001375Y007498D01*
X001246Y007780D01*
X001124Y008066D01*
X001008Y008354D01*
X000900Y008645D01*
X000799Y008939D01*
X000705Y009235D01*
X000619Y009534D01*
X000539Y009834D01*
X000468Y010136D01*
X000403Y010440D01*
X000346Y010746D01*
X000297Y011053D01*
X000255Y011360D01*
X000221Y011669D01*
X000194Y011979D01*
X000175Y012289D01*
X000164Y012599D01*
X000160Y012910D01*
X005235Y006441D02*
X005419Y006441D01*
X005502Y006322D02*
X005318Y006322D01*
X005401Y006204D02*
X005585Y006204D01*
X005972Y005493D02*
X006082Y005493D01*
X006165Y005374D02*
X005982Y005374D01*
X006065Y005256D02*
X006248Y005256D01*
X006148Y005137D02*
X006458Y005137D01*
X006502Y005137D02*
X017422Y005137D01*
X017517Y005256D02*
X006671Y005256D01*
X006840Y005374D02*
X019357Y005374D01*
X019264Y005493D02*
X019527Y005493D01*
X019538Y005611D02*
X019433Y005611D01*
X019210Y005256D02*
X018037Y005256D01*
X018737Y005730D02*
X007348Y005730D01*
X007517Y005848D02*
X018654Y005848D01*
X018571Y005967D02*
X007686Y005967D01*
X007179Y005611D02*
X018820Y005611D01*
X018903Y005493D02*
X007010Y005493D01*
X005353Y003360D02*
X011875Y003360D01*
X011896Y003478D02*
X005197Y003478D01*
X005041Y003597D02*
X011917Y003597D01*
X011938Y003715D02*
X004900Y003715D01*
X005509Y003241D02*
X011894Y003241D01*
X012047Y003123D02*
X005665Y003123D01*
X005821Y003004D02*
X012427Y003004D01*
X011794Y002886D02*
X005977Y002886D01*
X006166Y002767D02*
X011771Y002767D01*
X011750Y002649D02*
X006363Y002649D01*
X006560Y002530D02*
X011729Y002530D01*
X011708Y002412D02*
X006757Y002412D01*
X006954Y002293D02*
X011687Y002293D01*
X011666Y002175D02*
X007156Y002175D01*
X007412Y002056D02*
X011645Y002056D01*
X011625Y001938D02*
X007668Y001938D01*
X007924Y001819D02*
X011604Y001819D01*
X011583Y001701D02*
X008180Y001701D01*
X008478Y001582D02*
X011562Y001582D01*
X011309Y001464D02*
X008829Y001464D01*
X009181Y001345D02*
X011214Y001345D01*
X011171Y001227D02*
X009533Y001227D01*
X010051Y001108D02*
X011171Y001108D01*
X011208Y000990D02*
X010589Y000990D01*
X011569Y001160D02*
X012253Y001844D01*
X012631Y001844D01*
X013629Y001701D02*
X017458Y001701D01*
X017714Y001819D02*
X013650Y001819D01*
X013670Y001938D02*
X017970Y001938D01*
X018226Y002056D02*
X013691Y002056D01*
X013712Y002175D02*
X018482Y002175D01*
X018684Y002293D02*
X013733Y002293D01*
X013754Y002412D02*
X018881Y002412D01*
X019078Y002530D02*
X013775Y002530D01*
X013695Y002649D02*
X019275Y002649D01*
X019472Y002767D02*
X013196Y002767D01*
X013217Y002886D02*
X013391Y002886D01*
X013774Y002886D02*
X019661Y002886D01*
X019817Y003004D02*
X013859Y003004D01*
X013879Y003123D02*
X019973Y003123D01*
X020129Y003241D02*
X013900Y003241D01*
X013921Y003360D02*
X020285Y003360D01*
X020441Y003478D02*
X013942Y003478D01*
X013608Y001582D02*
X017160Y001582D01*
X016809Y001464D02*
X013587Y001464D01*
X013566Y001345D02*
X016457Y001345D01*
X016105Y001227D02*
X013545Y001227D01*
X013524Y001108D02*
X015587Y001108D01*
X015049Y000990D02*
X013503Y000990D01*
X013482Y000871D02*
X014232Y000871D01*
X020187Y006085D02*
X020373Y006085D01*
X020279Y006204D02*
X020542Y006204D01*
X020449Y006322D02*
X022997Y006322D01*
X023077Y006441D02*
X020573Y006441D01*
X023885Y012722D02*
X023885Y014594D01*
X023319Y015160D01*
X010064Y009285D02*
X009724Y009285D01*
X004861Y005218D02*
X003261Y005218D01*
D11*
X006814Y012910D02*
X006816Y012960D01*
X006822Y013010D01*
X006832Y013059D01*
X006846Y013107D01*
X006863Y013154D01*
X006884Y013199D01*
X006909Y013243D01*
X006937Y013284D01*
X006969Y013323D01*
X007003Y013360D01*
X007040Y013394D01*
X007080Y013424D01*
X007122Y013451D01*
X007166Y013475D01*
X007212Y013496D01*
X007259Y013512D01*
X007307Y013525D01*
X007357Y013534D01*
X007406Y013539D01*
X007457Y013540D01*
X007507Y013537D01*
X007556Y013530D01*
X007605Y013519D01*
X007653Y013504D01*
X007699Y013486D01*
X007744Y013464D01*
X007787Y013438D01*
X007828Y013409D01*
X007867Y013377D01*
X007903Y013342D01*
X007935Y013304D01*
X007965Y013264D01*
X007992Y013221D01*
X008015Y013177D01*
X008034Y013131D01*
X008050Y013083D01*
X008062Y013034D01*
X008070Y012985D01*
X008074Y012935D01*
X008074Y012885D01*
X008070Y012835D01*
X008062Y012786D01*
X008050Y012737D01*
X008034Y012689D01*
X008015Y012643D01*
X007992Y012599D01*
X007965Y012556D01*
X007935Y012516D01*
X007903Y012478D01*
X007867Y012443D01*
X007828Y012411D01*
X007787Y012382D01*
X007744Y012356D01*
X007699Y012334D01*
X007653Y012316D01*
X007605Y012301D01*
X007556Y012290D01*
X007507Y012283D01*
X007457Y012280D01*
X007406Y012281D01*
X007357Y012286D01*
X007307Y012295D01*
X007259Y012308D01*
X007212Y012324D01*
X007166Y012345D01*
X007122Y012369D01*
X007080Y012396D01*
X007040Y012426D01*
X007003Y012460D01*
X006969Y012497D01*
X006937Y012536D01*
X006909Y012577D01*
X006884Y012621D01*
X006863Y012666D01*
X006846Y012713D01*
X006832Y012761D01*
X006822Y012810D01*
X006816Y012860D01*
X006814Y012910D01*
X017564Y012910D02*
X017566Y012960D01*
X017572Y013010D01*
X017582Y013059D01*
X017596Y013107D01*
X017613Y013154D01*
X017634Y013199D01*
X017659Y013243D01*
X017687Y013284D01*
X017719Y013323D01*
X017753Y013360D01*
X017790Y013394D01*
X017830Y013424D01*
X017872Y013451D01*
X017916Y013475D01*
X017962Y013496D01*
X018009Y013512D01*
X018057Y013525D01*
X018107Y013534D01*
X018156Y013539D01*
X018207Y013540D01*
X018257Y013537D01*
X018306Y013530D01*
X018355Y013519D01*
X018403Y013504D01*
X018449Y013486D01*
X018494Y013464D01*
X018537Y013438D01*
X018578Y013409D01*
X018617Y013377D01*
X018653Y013342D01*
X018685Y013304D01*
X018715Y013264D01*
X018742Y013221D01*
X018765Y013177D01*
X018784Y013131D01*
X018800Y013083D01*
X018812Y013034D01*
X018820Y012985D01*
X018824Y012935D01*
X018824Y012885D01*
X018820Y012835D01*
X018812Y012786D01*
X018800Y012737D01*
X018784Y012689D01*
X018765Y012643D01*
X018742Y012599D01*
X018715Y012556D01*
X018685Y012516D01*
X018653Y012478D01*
X018617Y012443D01*
X018578Y012411D01*
X018537Y012382D01*
X018494Y012356D01*
X018449Y012334D01*
X018403Y012316D01*
X018355Y012301D01*
X018306Y012290D01*
X018257Y012283D01*
X018207Y012280D01*
X018156Y012281D01*
X018107Y012286D01*
X018057Y012295D01*
X018009Y012308D01*
X017962Y012324D01*
X017916Y012345D01*
X017872Y012369D01*
X017830Y012396D01*
X017790Y012426D01*
X017753Y012460D01*
X017719Y012497D01*
X017687Y012536D01*
X017659Y012577D01*
X017634Y012621D01*
X017613Y012666D01*
X017596Y012713D01*
X017582Y012761D01*
X017572Y012810D01*
X017566Y012860D01*
X017564Y012910D01*
D12*
X014130Y010160D03*
X014130Y009660D03*
X014130Y009160D03*
X014130Y008660D03*
X011508Y008660D03*
X011508Y009160D03*
X011508Y009660D03*
X011508Y010160D03*
D13*
X011609Y013660D03*
X011609Y014160D03*
X011609Y014660D03*
X011609Y015160D03*
X011609Y015660D03*
X011609Y016160D03*
X011609Y016660D03*
X011609Y017160D03*
X014029Y017160D03*
X014029Y016660D03*
X014029Y016160D03*
X014029Y015660D03*
X014029Y015160D03*
X014029Y014660D03*
X014029Y014160D03*
X014029Y013660D03*
D14*
G36*
X018810Y018264D02*
X017907Y019553D01*
X019196Y020456D01*
X020099Y019167D01*
X018810Y018264D01*
G37*
G36*
X020584Y019506D02*
X019681Y020795D01*
X020970Y021698D01*
X021873Y020409D01*
X020584Y019506D01*
G37*
G36*
X020842Y012460D02*
X021115Y014009D01*
X022664Y013736D01*
X022391Y012187D01*
X020842Y012460D01*
G37*
G36*
X022974Y012084D02*
X023247Y013633D01*
X024796Y013360D01*
X024523Y011811D01*
X022974Y012084D01*
G37*
G36*
X018173Y006919D02*
X019462Y007822D01*
X020365Y006533D01*
X019076Y005630D01*
X018173Y006919D01*
G37*
G36*
X019415Y005145D02*
X020704Y006048D01*
X021607Y004759D01*
X020318Y003856D01*
X019415Y005145D01*
G37*
G36*
X012369Y004887D02*
X013918Y004614D01*
X013645Y003065D01*
X012096Y003338D01*
X012369Y004887D01*
G37*
G36*
X011993Y002755D02*
X013542Y002482D01*
X013269Y000933D01*
X011720Y001206D01*
X011993Y002755D01*
G37*
G36*
X006828Y007556D02*
X007731Y006267D01*
X006442Y005364D01*
X005539Y006653D01*
X006828Y007556D01*
G37*
G36*
X005054Y006314D02*
X005957Y005025D01*
X004668Y004122D01*
X003765Y005411D01*
X005054Y006314D01*
G37*
G36*
X004796Y013360D02*
X004523Y011811D01*
X002974Y012084D01*
X003247Y013633D01*
X004796Y013360D01*
G37*
G36*
X002664Y013736D02*
X002391Y012187D01*
X000842Y012460D01*
X001115Y014009D01*
X002664Y013736D01*
G37*
G36*
X007465Y018901D02*
X006176Y017998D01*
X005273Y019287D01*
X006562Y020190D01*
X007465Y018901D01*
G37*
G36*
X006223Y020675D02*
X004934Y019772D01*
X004031Y021061D01*
X005320Y021964D01*
X006223Y020675D01*
G37*
G36*
X013269Y020933D02*
X011720Y021206D01*
X011993Y022755D01*
X013542Y022482D01*
X013269Y020933D01*
G37*
G36*
X013645Y023065D02*
X012096Y023338D01*
X012369Y024887D01*
X013918Y024614D01*
X013645Y023065D01*
G37*
D15*
X014787Y012796D03*
X014787Y011024D03*
X010850Y011024D03*
X010850Y012796D03*
D16*
X010944Y011910D03*
X012319Y013785D03*
X013319Y013910D03*
X012319Y015035D03*
X013069Y015660D03*
X012319Y017160D03*
X010944Y016160D03*
X010444Y015660D03*
X010444Y015160D03*
X010444Y014660D03*
X009569Y015160D03*
X008819Y017660D03*
X005745Y019963D03*
X006444Y022785D03*
X010569Y022285D03*
X017069Y017160D03*
X016569Y015910D03*
X016194Y014660D03*
X014944Y014785D03*
X015194Y013410D03*
X014569Y011910D03*
X015069Y011660D03*
X016194Y011660D03*
X017569Y011285D03*
X017944Y010285D03*
X019194Y010785D03*
X019194Y009410D03*
X017944Y008910D03*
X016069Y009035D03*
X015319Y009660D03*
X014819Y008535D03*
X014444Y007035D03*
X016694Y004660D03*
X017777Y004952D03*
X019879Y005829D03*
X012819Y002910D03*
X011569Y001160D03*
X011569Y006535D03*
X010819Y007535D03*
X009819Y006535D03*
X010444Y009160D03*
X007194Y010785D03*
X005444Y015160D03*
X004069Y015660D03*
X003569Y015285D03*
X001819Y015410D03*
X002819Y012910D03*
X005745Y005829D03*
X019819Y017285D03*
X019879Y020003D03*
X023319Y015160D03*
X022819Y012910D03*
D17*
X019694Y017160D02*
X017069Y017160D01*
X014029Y017160D01*
X014029Y017325D01*
X013694Y017660D01*
X008819Y017660D01*
X019694Y017160D02*
X019819Y017285D01*
D18*
X019319Y018910D02*
X019319Y019044D01*
X019003Y019360D01*
X019879Y020003D01*
X021753Y013098D02*
X021569Y012914D01*
X021753Y013098D02*
X022819Y012910D01*
X023885Y012722D02*
X024194Y013031D01*
X019269Y006726D02*
X019879Y005829D01*
X013007Y003976D02*
X012819Y002910D01*
X006635Y006460D02*
X005745Y005829D01*
X003885Y012722D02*
X002819Y012910D01*
X003885Y012722D02*
X003944Y012781D01*
X006369Y019094D02*
X005745Y019963D01*
X010569Y022285D02*
X012190Y022285D01*
X012631Y021844D01*
X012690Y021785D01*
D19*
X020777Y020602D02*
X021502Y020602D01*
D20*
X019269Y006726D02*
X018828Y006285D01*
X013007Y003976D02*
X012941Y003910D01*
X006819Y006644D02*
X006635Y006460D01*
X006819Y006644D02*
X006819Y006660D01*
M02*
